<?xml version="1.0" encoding="utf-8"?>
<!-- Generator: Adobe Illustrator 24.0.3, SVG Export Plug-In . SVG Version: 6.00 Build 0)  -->
<svg version="1.1" id="Layer_1" xmlns="http://www.w3.org/2000/svg" xmlns:xlink="http://www.w3.org/1999/xlink" x="0px" y="0px"
	 viewBox="0 0 234.1 234.1" style="enable-background:new 0 0 234.1 234.1;" xml:space="preserve">
<style type="text/css">
	.st0{opacity:0.71;fill:#FFFFFF;}
	.st1{opacity:0.77;fill:url(#SVGID_1_);stroke:#6C999F;stroke-width:0.5;stroke-miterlimit:10;}
	.st2{opacity:0.83;fill:#FFFFFF;}
	.st3{fill:url(#SVGID_2_);}
</style>
<circle class="st0" cx="116.9" cy="117.5" r="93.1"/>
<linearGradient id="SVGID_1_" gradientUnits="userSpaceOnUse" x1="116.867" y1="204.3467" x2="116.867" y2="30.5663">
	<stop  offset="0" style="stop-color:#88B5D2"/>
	<stop  offset="9.499192e-03" style="stop-color:#8AB6D3"/>
	<stop  offset="0.4781" style="stop-color:#C6D8E7"/>
	<stop  offset="0.8211" style="stop-color:#EDF1F6"/>
	<stop  offset="1" style="stop-color:#FFFFFF"/>
</linearGradient>
<circle class="st1" cx="116.9" cy="117.5" r="86.9"/>
<path class="st2" d="M36.6,37.5C-7.5,81.8-7.3,153.7,36.9,197.7c4.4,4.4,9.1,8.3,14,11.8l7.2-10c-4.4-3.1-8.5-6.6-12.5-10.5
	C6.2,149.7,6,85.7,45.3,46.2s103.3-39.6,142.8-0.3s39.6,103.3,0.3,142.8c-4,4-8.3,7.6-12.8,10.8l7.2,10c5-3.6,9.8-7.6,14.3-12.1
	c44.1-44.3,43.9-116.1-0.4-160.2S80.7-6.7,36.6,37.5z"/>
<linearGradient id="SVGID_2_" gradientUnits="userSpaceOnUse" x1="116.6073" y1="66.4542" x2="116.6073" y2="170.9577">
	<stop  offset="0" style="stop-color:#00BCCE"/>
	<stop  offset="0.2302" style="stop-color:#00B9CD"/>
	<stop  offset="0.3891" style="stop-color:#00B3CA"/>
	<stop  offset="0.5265" style="stop-color:#00AAC6"/>
	<stop  offset="0.6517" style="stop-color:#009EC0"/>
	<stop  offset="0.7686" style="stop-color:#008EB8"/>
	<stop  offset="0.8795" style="stop-color:#007BAE"/>
	<stop  offset="0.9835" style="stop-color:#0067A4"/>
	<stop  offset="1" style="stop-color:#0063A2"/>
</linearGradient>
<path class="st3" d="M74.4,81.7v-7.8c0-4.5,1.3-7.4,6-7.4c4.1,0,5.6,2.4,5.6,6.4v1.7H83V73c0-2.5-0.1-4.2-2.6-4.2
	c-2.6,0-2.9,1.8-2.9,4.5v8.8c0,3.3,0.7,4.4,2.9,4.4c2.5,0,2.6-1.8,2.6-4.4v-1.6h2.9v1.6c0,4.1-1.2,6.8-5.6,6.8
	C75.6,89,74.4,85.8,74.4,81.7z M96.9,86.5h-5.7V66.6h-3.1v22.1h8.7V86.5z M101.5,66.6h-3v22.1h3V66.6z M107,73.7l6.4,15.1h2V66.6
	h-2.6v14.7l-6.3-14.7h-2.1v22.1h2.6V73.7z M121.4,66.6h-3v22.1h3V66.6z M129.8,89c4.3,0,5.6-2.8,5.6-6.8v-1.6h-2.9v1.6
	c0,2.6-0.1,4.4-2.6,4.4c-2.1,0-2.9-1.1-2.9-4.4v-8.8c0-2.7,0.2-4.5,2.9-4.5c2.6,0,2.6,1.7,2.6,4.2v1.6h2.9v-1.7c0-4-1.4-6.4-5.6-6.4
	c-4.7,0-6,2.9-6,7.4v7.8C123.9,85.8,125.1,89,129.8,89z M139.3,88.8h-2.9l4.7-22.1h3l4.7,22.1h-2.9l-1-5.6h-4.5L139.3,88.8z
	 M140.8,81h3.7l-1.9-10L140.8,81z M159.1,86.5h-5.7V66.6h-3.1v22.1h8.7V86.5z M96.6,116.1V96.3h3.6V94H89.8v2.3h3.7v19.8H96.6z
	 M104.8,116.1h-3.1V94h4.4c4.4,0,6.5,1.7,6.5,5.9c0,2.6-0.8,4.5-2.7,5.2l3.1,11.1h-3l-2.9-10.4h-2.4V116.1z M104.8,103.5h1.2
	c2.6,0,3.7-0.8,3.7-3.7c0-2.6-0.7-3.7-3.5-3.7h-1.4V103.5z M118.4,94h-3v22.1h3V94z M127.8,94l4.7,22.1h-2.9l-1-5.6h-4.5l-1.1,5.6
	h-2.9l4.7-22.1H127.8z M128.2,108.3l-1.9-10l-1.8,10H128.2z M134.1,94v22.1h8.7v-2.2h-5.7V94H134.1z M98.3,143.4h-5.1v-22.1H98
	c4.9,0,6.6,2.3,6.6,6.7v8.1C104.6,140.9,102.9,143.4,98.3,143.4z M98.1,141.2c3.4,0,3.4-2,3.4-5.6v-7.2c0-3.4-0.3-4.8-3.5-4.8h-1.7
	v17.6H98.1z M114.2,137.8h-4.5l-1.1,5.6h-2.9l4.7-22.1h3l4.7,22.1h-2.9L114.2,137.8z M113.8,135.6l-1.9-10l-1.8,10H113.8z
	 M117.5,123.6h3.7v19.8h3.1v-19.8h3.6v-2.3h-10.5V123.6z M135.8,121.3l4.7,22.1h-2.9l-1-5.6h-4.5l-1.1,5.6h-2.9l4.7-22.1H135.8z
	 M136.2,135.6l-1.9-10l-1.8,10H136.2z M72.1,148.4c-4.7,0-6,2.9-6,7.4v7.8c0,4.1,1.3,7.3,6,7.3c4.3,0,5.6-2.8,5.6-6.8v-1.6h-2.9v1.6
	c0,2.6-0.1,4.4-2.6,4.4c-2.1,0-2.9-1.1-2.9-4.4v-8.8c0-2.7,0.2-4.5,2.9-4.5c2.6,0,2.6,1.7,2.6,4.2v1.6h2.9v-1.7
	C77.7,150.8,76.3,148.4,72.1,148.4z M91.7,155.4v8.4c0,4.3-1.6,7.2-6,7.2c-4.5,0-6.1-2.8-6.1-7.2v-8.4c0-4.4,1.6-7,6.1-7
	C90.1,148.4,91.7,151.1,91.7,155.4z M88.6,154.8c0-2.5-0.5-4-2.9-4c-2.5,0-2.9,1.5-2.9,4v9.7c0,2.5,0.5,4.1,2.9,4.1
	c2.5,0,2.9-1.6,2.9-4.1V154.8z M105.3,148.6l-3.9,17.9l-3.9-17.9h-3L94,170.7h2.5l0.2-16.1l3.7,16.1h1.7l3.7-16.1l0.2,16.1h2.5
	l-0.4-22.1H105.3z M122.6,148.6l-3.9,17.9l-3.9-17.9h-3l-0.4,22.1h2.5l0.2-16.1l3.7,16.1h1.7l3.7-16.1l0.2,16.1h2.5l-0.4-22.1H122.6
	z M140.4,155.4v8.4c0,4.3-1.6,7.2-6,7.2c-4.5,0-6.1-2.8-6.1-7.2v-8.4c0-4.4,1.6-7,6.1-7C138.8,148.4,140.4,151.1,140.4,155.4z
	 M137.3,154.8c0-2.5-0.5-4-2.9-4c-2.5,0-2.9,1.5-2.9,4v9.7c0,2.5,0.5,4.1,2.9,4.1c2.5,0,2.9-1.6,2.9-4.1V154.8z M151.1,163.3
	l-6.3-14.7h-2.1v22.1h2.6v-15.1l6.4,15.1h2v-22.1h-2.6V163.3z M163.9,159.5l-3.7-3.3c-1-0.9-1.4-1.7-1.4-3c0-1.6,0.9-2.4,2.4-2.4
	c2.3,0,2.8,1.9,3,4l2.6-0.7c-0.4-3.9-2-5.7-5.6-5.7c-3.2,0-5.2,1.9-5.2,5.1c0,2.2,0.7,3.6,2.1,4.9l3.7,3.3c1.4,1.2,2.4,2.3,2.4,4.3
	c0,1.7-0.8,2.6-2.4,2.6c-2.4,0-3-2.4-3.1-4.8l-2.7,0.7c0.2,3.8,2,6.4,5.9,6.4c3.1,0,5.3-2,5.3-5.3C167,162.9,165.5,161,163.9,159.5z
	"/>
</svg>
