<svg width="395" height="47" viewBox="0 0 395 47" fill="none" xmlns="http://www.w3.org/2000/svg">
<path d="M63.3516 2.5971C62.3402 1.14605 60.7463 0.134705 59.0094 0.134705H55.1069L68.2654 23.4176L55.1069 46.7004H59.0094C60.8892 46.7004 62.4831 45.6891 63.3516 44.238L74.927 23.4066L63.3516 2.57512V2.5971Z" fill="#BA1F40"/>
<path d="M64.6489 23.4285L51.7763 0.14563H5.05671C2.16559 0.14563 0 2.45413 0 5.20234V41.7975C0 44.5457 2.16559 46.8652 5.0677 46.8652H51.7873L64.6599 23.4285H64.6489Z" fill="#606061"/>
<path d="M31.0987 13.1613H27.625V33.8499H31.0987V13.1613Z" fill="white"/>
<path d="M20.6773 13.1614V28.1997L11.1355 13.1614H7.80469V33.85H11.1355V18.6579L20.6773 33.85H24.1511V13.1614H20.6773Z" fill="white"/>
<path d="M47.4335 13.1614V21.6919H37.8917V13.1614H34.418V33.85H37.8917V25.1656H47.4335V33.85H50.9072V13.1614H47.4335Z" fill="white"/>
<path d="M93.3834 5.74744H95.7552V16.3616H93.3834L88.322 9.70486V16.3616H85.9502V5.74744H88.1753L93.3834 12.5752V5.74744Z" fill="#BB0E3D"/>
<path d="M105.939 16.3616L104.949 14.0654H100.499L99.5087 16.3616H96.9902L101.587 5.74744H103.886L108.482 16.3616H105.964H105.939ZM102.736 8.89872L101.404 11.9767H104.069L102.749 8.89872H102.736Z" fill="#BB0E3D"/>
<path d="M113.421 7.79944V16.3616H111.05V7.79944H108.042V5.74744H116.429V7.79944H113.421Z" fill="#BB0E3D"/>
<path d="M118.165 5.74744H120.537V16.3616H118.165V5.74744Z" fill="#BB0E3D"/>
<path d="M132.09 14.8961C131.014 15.9465 129.694 16.4717 128.116 16.4717C126.539 16.4717 125.219 15.9465 124.143 14.8961C123.067 13.8456 122.529 12.5387 122.529 10.9875C122.529 9.43629 123.067 8.12937 124.143 7.07894C125.219 6.02851 126.539 5.5033 128.116 5.5033C129.694 5.5033 131.014 6.02851 132.09 7.07894C133.166 8.12937 133.704 9.43629 133.704 10.9875C133.704 12.5387 133.166 13.8456 132.09 14.8961ZM131.283 10.9875C131.283 10.047 130.977 9.22865 130.366 8.56908C129.755 7.89729 129.009 7.56751 128.129 7.56751C127.248 7.56751 126.49 7.89729 125.891 8.56908C125.292 9.24086 124.974 10.047 124.974 10.9875C124.974 11.928 125.28 12.7341 125.891 13.4059C126.503 14.0655 127.248 14.3953 128.129 14.3953C129.009 14.3953 129.767 14.0655 130.366 13.4059C130.977 12.7464 131.283 11.9402 131.283 10.9875Z" fill="#BB0E3D"/>
<path d="M143.142 5.74744H145.514V16.3616H143.142L138.081 9.70486V16.3616H135.709V5.74744H137.934L143.142 12.5752V5.74744Z" fill="#BB0E3D"/>
<path d="M155.698 16.3616L154.708 14.0654H150.258L149.268 16.3616H146.749L151.346 5.74744H153.644L158.241 16.3616H155.723H155.698ZM152.495 8.89872L151.162 11.9767H153.828L152.507 8.89872H152.495Z" fill="#BB0E3D"/>
<path d="M159.451 16.3616V5.74744H161.823V14.2486H166.359V16.3616H159.451Z" fill="#BB0E3D"/>
<path d="M176.97 14.2734C178.132 14.2734 179.085 13.8092 179.831 12.8932L181.347 14.4566C180.137 15.8124 178.719 16.4964 177.08 16.4964C175.442 16.4964 174.097 15.9834 173.034 14.9452C171.97 13.907 171.444 12.6122 171.444 11.0366C171.444 9.46096 171.982 8.15403 173.058 7.09139C174.134 6.04096 175.454 5.51575 177.019 5.51575C178.768 5.51575 180.222 6.17532 181.396 7.50667L179.917 9.18003C179.171 8.25174 178.23 7.7876 177.117 7.7876C176.225 7.7876 175.467 8.08074 174.831 8.65482C174.195 9.2411 173.877 10.0228 173.877 11.0122C173.877 12.0015 174.171 12.7955 174.77 13.394C175.369 13.9925 176.09 14.2856 176.946 14.2856L176.97 14.2734Z" fill="#BB0E3D"/>
<path d="M190.712 16.3616L189.722 14.0654H185.271L184.281 16.3616H181.763L186.36 5.74744H188.658L193.255 16.3616H190.736H190.712ZM187.509 8.89872L186.176 11.9767H188.841L187.521 8.89872H187.509Z" fill="#BB0E3D"/>
<path d="M201.911 5.74744H204.283V16.3616H201.911L196.849 9.70486V16.3616H194.478V5.74744H196.703L201.911 12.5752V5.74744Z" fill="#BB0E3D"/>
<path d="M211.764 14.2734C212.926 14.2734 213.879 13.8093 214.625 12.8932L216.141 14.4566C214.931 15.8124 213.513 16.4964 211.874 16.4964C210.236 16.4964 208.891 15.9834 207.828 14.9452C206.764 13.907 206.238 12.6123 206.238 11.0366C206.238 9.46099 206.776 8.15406 207.852 7.09142C208.928 6.04099 210.248 5.51578 211.813 5.51578C213.561 5.51578 215.016 6.17535 216.19 7.5067L214.711 9.18006C213.965 8.25178 213.024 7.78763 211.911 7.78763C211.019 7.78763 210.261 8.08078 209.625 8.65485C208.989 9.24113 208.671 10.0228 208.671 11.0122C208.671 12.0016 208.965 12.7955 209.564 13.394C210.163 13.9925 210.884 14.2856 211.74 14.2856L211.764 14.2734Z" fill="#BB0E3D"/>
<path d="M225.677 5.74744V7.86051H220.383V10.0469H225.139V12.0622H220.383V14.2608H225.836V16.3616H218.012V5.74744H225.677Z" fill="#BB0E3D"/>
<path d="M236.583 9.27763C236.583 10.9754 235.911 12.0747 234.566 12.5755L237.255 16.3741H234.333L231.974 12.9908H230.336V16.3741H227.964V5.75992H231.998C233.649 5.75992 234.835 6.04085 235.532 6.59049C236.228 7.14013 236.583 8.04399 236.583 9.27763ZM233.722 10.5357C234.016 10.267 234.162 9.8517 234.162 9.27763C234.162 8.70356 234.016 8.3127 233.71 8.10506C233.404 7.89742 232.879 7.78749 232.108 7.78749H230.336V10.9266H232.072C232.879 10.9266 233.429 10.7922 233.734 10.5357H233.722Z" fill="#BB0E3D"/>
<path d="M243.026 5.74744H245.398V16.3616H243.026V5.74744Z" fill="#BB0E3D"/>
<path d="M255.447 5.74744H257.819V16.3616H255.447L250.385 9.70486V16.3616H248.014V5.74744H250.239L255.447 12.5752V5.74744Z" fill="#BB0E3D"/>
<path d="M262.918 7.87286C262.685 8.05608 262.575 8.31258 262.575 8.61794C262.575 8.92329 262.71 9.16758 262.991 9.35079C263.272 9.53401 263.908 9.74165 264.923 9.99815C265.937 10.2546 266.72 10.6211 267.27 11.1096C267.832 11.6104 268.101 12.3311 268.101 13.2838C268.101 14.2365 267.747 15.006 267.025 15.6045C266.304 16.203 265.375 16.4961 264.201 16.4961C262.514 16.4961 260.998 15.8732 259.653 14.6274L261.072 12.8929C262.221 13.8945 263.272 14.3953 264.25 14.3953C264.69 14.3953 265.033 14.2976 265.277 14.1144C265.522 13.9311 265.656 13.6746 265.656 13.3571C265.656 13.0395 265.522 12.783 265.265 12.5998C265.008 12.4166 264.482 12.2211 263.7 12.0257C262.465 11.7326 261.561 11.3539 260.986 10.8776C260.411 10.4012 260.13 9.66836 260.13 8.65458C260.13 7.64079 260.497 6.87129 261.218 6.32165C261.94 5.77201 262.844 5.5033 263.932 5.5033C264.641 5.5033 265.35 5.62544 266.06 5.86972C266.769 6.11401 267.392 6.45601 267.918 6.90794L266.72 8.64236C265.803 7.94615 264.849 7.59194 263.859 7.59194C263.468 7.59194 263.15 7.68965 262.93 7.87286H262.918Z" fill="#BB0E3D"/>
<path d="M274.532 7.79944V16.3616H272.16V7.79944H269.152V5.74744H277.539V7.79944H274.532Z" fill="#BB0E3D"/>
<path d="M279.275 5.74744H281.647V16.3616H279.275V5.74744Z" fill="#BB0E3D"/>
<path d="M288.762 7.79944V16.3616H286.39V7.79944H283.383V5.74744H291.77V7.79944H288.762Z" fill="#BB0E3D"/>
<path d="M296.317 13.6259C296.709 14.1145 297.247 14.3588 297.919 14.3588C298.591 14.3588 299.117 14.1145 299.508 13.6259C299.9 13.1374 300.095 12.4656 300.095 11.6106V5.74772H302.467V11.6839C302.467 13.2229 302.039 14.4076 301.196 15.226C300.34 16.0566 299.252 16.4596 297.931 16.4596C296.611 16.4596 295.511 16.0444 294.655 15.2138C293.799 14.3832 293.371 13.1984 293.371 11.6716V5.7355H295.743V11.5984C295.743 12.4534 295.938 13.1129 296.33 13.6137L296.317 13.6259Z" fill="#BB0E3D"/>
<path d="M309.423 7.79944V16.3616H307.051V7.79944H304.044V5.74744H312.431V7.79944H309.423Z" fill="#BB0E3D"/>
<path d="M321.832 5.74744V7.86051H316.539V10.0469H321.295V12.0622H316.539V14.2608H321.991V16.3616H314.167V5.74744H321.832Z" fill="#BB0E3D"/>
<path d="M92.524 41.216C91.552 41.216 90.646 41.06 89.806 40.748C88.978 40.424 88.258 39.968 87.646 39.38C87.034 38.792 86.554 38.102 86.206 37.31C85.87 36.518 85.702 35.648 85.702 34.7C85.702 33.752 85.87 32.882 86.206 32.09C86.554 31.298 87.034 30.608 87.646 30.02C88.27 29.432 88.996 28.982 89.824 28.67C90.652 28.346 91.558 28.184 92.542 28.184C93.634 28.184 94.618 28.376 95.494 28.76C96.382 29.132 97.126 29.684 97.726 30.416L95.854 32.144C95.422 31.652 94.942 31.286 94.414 31.046C93.886 30.794 93.31 30.668 92.686 30.668C92.098 30.668 91.558 30.764 91.066 30.956C90.574 31.148 90.148 31.424 89.788 31.784C89.428 32.144 89.146 32.57 88.942 33.062C88.75 33.554 88.654 34.1 88.654 34.7C88.654 35.3 88.75 35.846 88.942 36.338C89.146 36.83 89.428 37.256 89.788 37.616C90.148 37.976 90.574 38.252 91.066 38.444C91.558 38.636 92.098 38.732 92.686 38.732C93.31 38.732 93.886 38.612 94.414 38.372C94.942 38.12 95.422 37.742 95.854 37.238L97.726 38.966C97.126 39.698 96.382 40.256 95.494 40.64C94.618 41.024 93.628 41.216 92.524 41.216ZM105.384 41V39.11L105.204 38.696V35.312C105.204 34.712 105.018 34.244 104.646 33.908C104.286 33.572 103.728 33.404 102.972 33.404C102.456 33.404 101.946 33.488 101.442 33.656C100.95 33.812 100.53 34.028 100.182 34.304L99.1744 32.342C99.7024 31.97 100.338 31.682 101.082 31.478C101.826 31.274 102.582 31.172 103.35 31.172C104.826 31.172 105.972 31.52 106.788 32.216C107.604 32.912 108.012 33.998 108.012 35.474V41H105.384ZM102.432 41.144C101.676 41.144 101.028 41.018 100.488 40.766C99.9484 40.502 99.5344 40.148 99.2464 39.704C98.9584 39.26 98.8144 38.762 98.8144 38.21C98.8144 37.634 98.9524 37.13 99.2284 36.698C99.5164 36.266 99.9664 35.93 100.578 35.69C101.19 35.438 101.988 35.312 102.972 35.312H105.546V36.95H103.278C102.618 36.95 102.162 37.058 101.91 37.274C101.67 37.49 101.55 37.76 101.55 38.084C101.55 38.444 101.688 38.732 101.964 38.948C102.252 39.152 102.642 39.254 103.134 39.254C103.602 39.254 104.022 39.146 104.394 38.93C104.766 38.702 105.036 38.372 105.204 37.94L105.636 39.236C105.432 39.86 105.06 40.334 104.52 40.658C103.98 40.982 103.284 41.144 102.432 41.144ZM116.44 31.172C117.208 31.172 117.892 31.328 118.492 31.64C119.104 31.94 119.584 32.408 119.932 33.044C120.28 33.668 120.454 34.472 120.454 35.456V41H117.646V35.888C117.646 35.108 117.472 34.532 117.124 34.16C116.788 33.788 116.308 33.602 115.684 33.602C115.24 33.602 114.838 33.698 114.478 33.89C114.13 34.07 113.854 34.352 113.65 34.736C113.458 35.12 113.362 35.612 113.362 36.212V41H110.554V31.316H113.236V33.998L112.732 33.188C113.08 32.54 113.578 32.042 114.226 31.694C114.874 31.346 115.612 31.172 116.44 31.172ZM127.749 41.144C126.705 41.144 125.775 40.934 124.959 40.514C124.143 40.082 123.501 39.488 123.033 38.732C122.577 37.976 122.349 37.118 122.349 36.158C122.349 35.186 122.577 34.328 123.033 33.584C123.501 32.828 124.143 32.24 124.959 31.82C125.775 31.388 126.705 31.172 127.749 31.172C128.769 31.172 129.657 31.388 130.413 31.82C131.169 32.24 131.727 32.846 132.087 33.638L129.909 34.808C129.657 34.352 129.339 34.016 128.955 33.8C128.583 33.584 128.175 33.476 127.731 33.476C127.251 33.476 126.819 33.584 126.435 33.8C126.051 34.016 125.745 34.322 125.517 34.718C125.301 35.114 125.193 35.594 125.193 36.158C125.193 36.722 125.301 37.202 125.517 37.598C125.745 37.994 126.051 38.3 126.435 38.516C126.819 38.732 127.251 38.84 127.731 38.84C128.175 38.84 128.583 38.738 128.955 38.534C129.339 38.318 129.657 37.976 129.909 37.508L132.087 38.696C131.727 39.476 131.169 40.082 130.413 40.514C129.657 40.934 128.769 41.144 127.749 41.144ZM138.387 41.144C137.283 41.144 136.311 40.928 135.471 40.496C134.643 40.064 134.001 39.476 133.545 38.732C133.089 37.976 132.861 37.118 132.861 36.158C132.861 35.186 133.083 34.328 133.527 33.584C133.983 32.828 134.601 32.24 135.381 31.82C136.161 31.388 137.043 31.172 138.027 31.172C138.975 31.172 139.827 31.376 140.583 31.784C141.351 32.18 141.957 32.756 142.401 33.512C142.845 34.256 143.067 35.15 143.067 36.194C143.067 36.302 143.061 36.428 143.049 36.572C143.037 36.704 143.025 36.83 143.013 36.95H135.147V35.312H141.537L140.457 35.798C140.457 35.294 140.355 34.856 140.151 34.484C139.947 34.112 139.665 33.824 139.305 33.62C138.945 33.404 138.525 33.296 138.045 33.296C137.565 33.296 137.139 33.404 136.767 33.62C136.407 33.824 136.125 34.118 135.921 34.502C135.717 34.874 135.615 35.318 135.615 35.834V36.266C135.615 36.794 135.729 37.262 135.957 37.67C136.197 38.066 136.527 38.372 136.947 38.588C137.379 38.792 137.883 38.894 138.459 38.894C138.975 38.894 139.425 38.816 139.809 38.66C140.205 38.504 140.565 38.27 140.889 37.958L142.383 39.578C141.939 40.082 141.381 40.472 140.709 40.748C140.037 41.012 139.263 41.144 138.387 41.144ZM144.937 41V31.316H147.619V34.052L147.241 33.26C147.529 32.576 147.991 32.06 148.627 31.712C149.263 31.352 150.037 31.172 150.949 31.172V33.764C150.829 33.752 150.721 33.746 150.625 33.746C150.529 33.734 150.427 33.728 150.319 33.728C149.551 33.728 148.927 33.95 148.447 34.394C147.979 34.826 147.745 35.504 147.745 36.428V41H144.937ZM157.984 41V28.4H163.438C164.566 28.4 165.538 28.586 166.354 28.958C167.17 29.318 167.8 29.84 168.244 30.524C168.688 31.208 168.91 32.024 168.91 32.972C168.91 33.908 168.688 34.718 168.244 35.402C167.8 36.074 167.17 36.59 166.354 36.95C165.538 37.31 164.566 37.49 163.438 37.49H159.604L160.9 36.212V41H157.984ZM165.994 41L162.844 36.428H165.958L169.144 41H165.994ZM160.9 36.536L159.604 35.168H163.276C164.176 35.168 164.848 34.976 165.292 34.592C165.736 34.196 165.958 33.656 165.958 32.972C165.958 32.276 165.736 31.736 165.292 31.352C164.848 30.968 164.176 30.776 163.276 30.776H159.604L160.9 29.39V36.536ZM175.829 41.144C174.725 41.144 173.753 40.928 172.913 40.496C172.085 40.064 171.443 39.476 170.987 38.732C170.531 37.976 170.303 37.118 170.303 36.158C170.303 35.186 170.525 34.328 170.969 33.584C171.425 32.828 172.043 32.24 172.823 31.82C173.603 31.388 174.485 31.172 175.469 31.172C176.417 31.172 177.269 31.376 178.025 31.784C178.793 32.18 179.399 32.756 179.843 33.512C180.287 34.256 180.509 35.15 180.509 36.194C180.509 36.302 180.503 36.428 180.491 36.572C180.479 36.704 180.467 36.83 180.455 36.95H172.589V35.312H178.979L177.899 35.798C177.899 35.294 177.797 34.856 177.593 34.484C177.389 34.112 177.107 33.824 176.747 33.62C176.387 33.404 175.967 33.296 175.487 33.296C175.007 33.296 174.581 33.404 174.209 33.62C173.849 33.824 173.567 34.118 173.363 34.502C173.159 34.874 173.057 35.318 173.057 35.834V36.266C173.057 36.794 173.171 37.262 173.399 37.67C173.639 38.066 173.969 38.372 174.389 38.588C174.821 38.792 175.325 38.894 175.901 38.894C176.417 38.894 176.867 38.816 177.251 38.66C177.647 38.504 178.007 38.27 178.331 37.958L179.825 39.578C179.381 40.082 178.823 40.472 178.151 40.748C177.479 41.012 176.705 41.144 175.829 41.144ZM185.636 41.144C184.808 41.144 184.01 41.048 183.242 40.856C182.486 40.652 181.886 40.4 181.442 40.1L182.378 38.084C182.822 38.36 183.344 38.588 183.944 38.768C184.556 38.936 185.156 39.02 185.744 39.02C186.392 39.02 186.848 38.942 187.112 38.786C187.388 38.63 187.526 38.414 187.526 38.138C187.526 37.91 187.418 37.742 187.202 37.634C186.998 37.514 186.722 37.424 186.374 37.364C186.026 37.304 185.642 37.244 185.222 37.184C184.814 37.124 184.4 37.046 183.98 36.95C183.56 36.842 183.176 36.686 182.828 36.482C182.48 36.278 182.198 36.002 181.982 35.654C181.778 35.306 181.676 34.856 181.676 34.304C181.676 33.692 181.85 33.152 182.198 32.684C182.558 32.216 183.074 31.85 183.746 31.586C184.418 31.31 185.222 31.172 186.158 31.172C186.818 31.172 187.49 31.244 188.174 31.388C188.858 31.532 189.428 31.742 189.884 32.018L188.948 34.016C188.48 33.74 188.006 33.554 187.526 33.458C187.058 33.35 186.602 33.296 186.158 33.296C185.534 33.296 185.078 33.38 184.79 33.548C184.502 33.716 184.358 33.932 184.358 34.196C184.358 34.436 184.46 34.616 184.664 34.736C184.88 34.856 185.162 34.952 185.51 35.024C185.858 35.096 186.236 35.162 186.644 35.222C187.064 35.27 187.484 35.348 187.904 35.456C188.324 35.564 188.702 35.72 189.038 35.924C189.386 36.116 189.668 36.386 189.884 36.734C190.1 37.07 190.208 37.514 190.208 38.066C190.208 38.666 190.028 39.2 189.668 39.668C189.308 40.124 188.786 40.484 188.102 40.748C187.43 41.012 186.608 41.144 185.636 41.144ZM196.747 41.144C195.643 41.144 194.671 40.928 193.831 40.496C193.003 40.064 192.361 39.476 191.905 38.732C191.449 37.976 191.221 37.118 191.221 36.158C191.221 35.186 191.443 34.328 191.887 33.584C192.343 32.828 192.961 32.24 193.741 31.82C194.521 31.388 195.403 31.172 196.387 31.172C197.335 31.172 198.187 31.376 198.943 31.784C199.711 32.18 200.317 32.756 200.761 33.512C201.205 34.256 201.427 35.15 201.427 36.194C201.427 36.302 201.421 36.428 201.409 36.572C201.397 36.704 201.385 36.83 201.373 36.95H193.507V35.312H199.897L198.817 35.798C198.817 35.294 198.715 34.856 198.511 34.484C198.307 34.112 198.025 33.824 197.665 33.62C197.305 33.404 196.885 33.296 196.405 33.296C195.925 33.296 195.499 33.404 195.127 33.62C194.767 33.824 194.485 34.118 194.281 34.502C194.077 34.874 193.975 35.318 193.975 35.834V36.266C193.975 36.794 194.089 37.262 194.317 37.67C194.557 38.066 194.887 38.372 195.307 38.588C195.739 38.792 196.243 38.894 196.819 38.894C197.335 38.894 197.785 38.816 198.169 38.66C198.565 38.504 198.925 38.27 199.249 37.958L200.743 39.578C200.299 40.082 199.741 40.472 199.069 40.748C198.397 41.012 197.623 41.144 196.747 41.144ZM208.972 41V39.11L208.792 38.696V35.312C208.792 34.712 208.606 34.244 208.234 33.908C207.874 33.572 207.316 33.404 206.56 33.404C206.044 33.404 205.534 33.488 205.03 33.656C204.538 33.812 204.118 34.028 203.77 34.304L202.762 32.342C203.29 31.97 203.926 31.682 204.67 31.478C205.414 31.274 206.17 31.172 206.938 31.172C208.414 31.172 209.56 31.52 210.376 32.216C211.192 32.912 211.6 33.998 211.6 35.474V41H208.972ZM206.02 41.144C205.264 41.144 204.616 41.018 204.076 40.766C203.536 40.502 203.122 40.148 202.834 39.704C202.546 39.26 202.402 38.762 202.402 38.21C202.402 37.634 202.54 37.13 202.816 36.698C203.104 36.266 203.554 35.93 204.166 35.69C204.778 35.438 205.576 35.312 206.56 35.312H209.134V36.95H206.866C206.206 36.95 205.75 37.058 205.498 37.274C205.258 37.49 205.138 37.76 205.138 38.084C205.138 38.444 205.276 38.732 205.552 38.948C205.84 39.152 206.23 39.254 206.722 39.254C207.19 39.254 207.61 39.146 207.982 38.93C208.354 38.702 208.624 38.372 208.792 37.94L209.224 39.236C209.02 39.86 208.648 40.334 208.108 40.658C207.568 40.982 206.872 41.144 206.02 41.144ZM214.142 41V31.316H216.824V34.052L216.446 33.26C216.734 32.576 217.196 32.06 217.832 31.712C218.468 31.352 219.242 31.172 220.154 31.172V33.764C220.034 33.752 219.926 33.746 219.83 33.746C219.734 33.734 219.632 33.728 219.524 33.728C218.756 33.728 218.132 33.95 217.652 34.394C217.184 34.826 216.95 35.504 216.95 36.428V41H214.142ZM226.433 41.144C225.389 41.144 224.459 40.934 223.643 40.514C222.827 40.082 222.185 39.488 221.717 38.732C221.261 37.976 221.033 37.118 221.033 36.158C221.033 35.186 221.261 34.328 221.717 33.584C222.185 32.828 222.827 32.24 223.643 31.82C224.459 31.388 225.389 31.172 226.433 31.172C227.453 31.172 228.341 31.388 229.097 31.82C229.853 32.24 230.411 32.846 230.771 33.638L228.593 34.808C228.341 34.352 228.023 34.016 227.639 33.8C227.267 33.584 226.859 33.476 226.415 33.476C225.935 33.476 225.503 33.584 225.119 33.8C224.735 34.016 224.429 34.322 224.201 34.718C223.985 35.114 223.877 35.594 223.877 36.158C223.877 36.722 223.985 37.202 224.201 37.598C224.429 37.994 224.735 38.3 225.119 38.516C225.503 38.732 225.935 38.84 226.415 38.84C226.859 38.84 227.267 38.738 227.639 38.534C228.023 38.318 228.341 37.976 228.593 37.508L230.771 38.696C230.411 39.476 229.853 40.082 229.097 40.514C228.341 40.934 227.453 41.144 226.433 41.144ZM238.221 31.172C238.989 31.172 239.673 31.328 240.273 31.64C240.885 31.94 241.365 32.408 241.713 33.044C242.061 33.668 242.235 34.472 242.235 35.456V41H239.427V35.888C239.427 35.108 239.253 34.532 238.905 34.16C238.569 33.788 238.089 33.602 237.465 33.602C237.021 33.602 236.619 33.698 236.259 33.89C235.911 34.07 235.635 34.352 235.431 34.736C235.239 35.12 235.143 35.612 235.143 36.212V41H232.335V27.644H235.143V33.998L234.513 33.188C234.861 32.54 235.359 32.042 236.007 31.694C236.655 31.346 237.393 31.172 238.221 31.172ZM250.076 41V28.4H255.8C257.168 28.4 258.374 28.664 259.418 29.192C260.462 29.708 261.278 30.434 261.866 31.37C262.454 32.306 262.748 33.416 262.748 34.7C262.748 35.972 262.454 37.082 261.866 38.03C261.278 38.966 260.462 39.698 259.418 40.226C258.374 40.742 257.168 41 255.8 41H250.076ZM252.992 38.606H255.656C256.496 38.606 257.222 38.45 257.834 38.138C258.458 37.814 258.938 37.358 259.274 36.77C259.622 36.182 259.796 35.492 259.796 34.7C259.796 33.896 259.622 33.206 259.274 32.63C258.938 32.042 258.458 31.592 257.834 31.28C257.222 30.956 256.496 30.794 255.656 30.794H252.992V38.606ZM270.689 41V39.11L270.509 38.696V35.312C270.509 34.712 270.323 34.244 269.951 33.908C269.591 33.572 269.033 33.404 268.277 33.404C267.761 33.404 267.251 33.488 266.747 33.656C266.255 33.812 265.835 34.028 265.487 34.304L264.479 32.342C265.007 31.97 265.643 31.682 266.387 31.478C267.131 31.274 267.887 31.172 268.655 31.172C270.131 31.172 271.277 31.52 272.093 32.216C272.909 32.912 273.317 33.998 273.317 35.474V41H270.689ZM267.737 41.144C266.981 41.144 266.333 41.018 265.793 40.766C265.253 40.502 264.839 40.148 264.551 39.704C264.263 39.26 264.119 38.762 264.119 38.21C264.119 37.634 264.257 37.13 264.533 36.698C264.821 36.266 265.271 35.93 265.883 35.69C266.495 35.438 267.293 35.312 268.277 35.312H270.851V36.95H268.583C267.923 36.95 267.467 37.058 267.215 37.274C266.975 37.49 266.855 37.76 266.855 38.084C266.855 38.444 266.993 38.732 267.269 38.948C267.557 39.152 267.947 39.254 268.439 39.254C268.907 39.254 269.327 39.146 269.699 38.93C270.071 38.702 270.341 38.372 270.509 37.94L270.941 39.236C270.737 39.86 270.365 40.334 269.825 40.658C269.285 40.982 268.589 41.144 267.737 41.144ZM279.819 41.144C278.679 41.144 277.791 40.856 277.155 40.28C276.519 39.692 276.201 38.822 276.201 37.67V29.174H279.009V37.634C279.009 38.042 279.117 38.36 279.333 38.588C279.549 38.804 279.843 38.912 280.215 38.912C280.659 38.912 281.037 38.792 281.349 38.552L282.105 40.532C281.817 40.736 281.469 40.892 281.061 41C280.665 41.096 280.251 41.144 279.819 41.144ZM274.707 33.692V31.532H281.421V33.692H274.707ZM289.621 41V39.11L289.441 38.696V35.312C289.441 34.712 289.255 34.244 288.883 33.908C288.523 33.572 287.965 33.404 287.209 33.404C286.693 33.404 286.183 33.488 285.679 33.656C285.187 33.812 284.767 34.028 284.419 34.304L283.411 32.342C283.939 31.97 284.575 31.682 285.319 31.478C286.063 31.274 286.819 31.172 287.587 31.172C289.063 31.172 290.209 31.52 291.025 32.216C291.841 32.912 292.249 33.998 292.249 35.474V41H289.621ZM286.669 41.144C285.913 41.144 285.265 41.018 284.725 40.766C284.185 40.502 283.771 40.148 283.483 39.704C283.195 39.26 283.051 38.762 283.051 38.21C283.051 37.634 283.189 37.13 283.465 36.698C283.753 36.266 284.203 35.93 284.815 35.69C285.427 35.438 286.225 35.312 287.209 35.312H289.783V36.95H287.515C286.855 36.95 286.399 37.058 286.147 37.274C285.907 37.49 285.787 37.76 285.787 38.084C285.787 38.444 285.925 38.732 286.201 38.948C286.489 39.152 286.879 39.254 287.371 39.254C287.839 39.254 288.259 39.146 288.631 38.93C289.003 38.702 289.273 38.372 289.441 37.94L289.873 39.236C289.669 39.86 289.297 40.334 288.757 40.658C288.217 40.982 287.521 41.144 286.669 41.144ZM306.116 41.216C305.144 41.216 304.238 41.06 303.398 40.748C302.57 40.424 301.85 39.968 301.238 39.38C300.626 38.792 300.146 38.102 299.798 37.31C299.462 36.518 299.294 35.648 299.294 34.7C299.294 33.752 299.462 32.882 299.798 32.09C300.146 31.298 300.626 30.608 301.238 30.02C301.862 29.432 302.588 28.982 303.416 28.67C304.244 28.346 305.15 28.184 306.134 28.184C307.226 28.184 308.21 28.376 309.086 28.76C309.974 29.132 310.718 29.684 311.318 30.416L309.446 32.144C309.014 31.652 308.534 31.286 308.006 31.046C307.478 30.794 306.902 30.668 306.278 30.668C305.69 30.668 305.15 30.764 304.658 30.956C304.166 31.148 303.74 31.424 303.38 31.784C303.02 32.144 302.738 32.57 302.534 33.062C302.342 33.554 302.246 34.1 302.246 34.7C302.246 35.3 302.342 35.846 302.534 36.338C302.738 36.83 303.02 37.256 303.38 37.616C303.74 37.976 304.166 38.252 304.658 38.444C305.15 38.636 305.69 38.732 306.278 38.732C306.902 38.732 307.478 38.612 308.006 38.372C308.534 38.12 309.014 37.742 309.446 37.238L311.318 38.966C310.718 39.698 309.974 40.256 309.086 40.64C308.21 41.024 307.22 41.216 306.116 41.216ZM317.363 41.144C316.331 41.144 315.413 40.928 314.609 40.496C313.817 40.064 313.187 39.476 312.719 38.732C312.263 37.976 312.035 37.118 312.035 36.158C312.035 35.186 312.263 34.328 312.719 33.584C313.187 32.828 313.817 32.24 314.609 31.82C315.413 31.388 316.331 31.172 317.363 31.172C318.383 31.172 319.295 31.388 320.099 31.82C320.903 32.24 321.533 32.822 321.989 33.566C322.445 34.31 322.673 35.174 322.673 36.158C322.673 37.118 322.445 37.976 321.989 38.732C321.533 39.476 320.903 40.064 320.099 40.496C319.295 40.928 318.383 41.144 317.363 41.144ZM317.363 38.84C317.831 38.84 318.251 38.732 318.623 38.516C318.995 38.3 319.289 37.994 319.505 37.598C319.721 37.19 319.829 36.71 319.829 36.158C319.829 35.594 319.721 35.114 319.505 34.718C319.289 34.322 318.995 34.016 318.623 33.8C318.251 33.584 317.831 33.476 317.363 33.476C316.895 33.476 316.475 33.584 316.103 33.8C315.731 34.016 315.431 34.322 315.203 34.718C314.987 35.114 314.879 35.594 314.879 36.158C314.879 36.71 314.987 37.19 315.203 37.598C315.431 37.994 315.731 38.3 316.103 38.516C316.475 38.732 316.895 38.84 317.363 38.84ZM336.952 31.172C337.72 31.172 338.398 31.328 338.986 31.64C339.586 31.94 340.054 32.408 340.39 33.044C340.738 33.668 340.912 34.472 340.912 35.456V41H338.104V35.888C338.104 35.108 337.942 34.532 337.618 34.16C337.294 33.788 336.838 33.602 336.25 33.602C335.842 33.602 335.476 33.698 335.152 33.89C334.828 34.07 334.576 34.346 334.396 34.718C334.216 35.09 334.126 35.564 334.126 36.14V41H331.318V35.888C331.318 35.108 331.156 34.532 330.832 34.16C330.52 33.788 330.07 33.602 329.482 33.602C329.074 33.602 328.708 33.698 328.384 33.89C328.06 34.07 327.808 34.346 327.628 34.718C327.448 35.09 327.358 35.564 327.358 36.14V41H324.55V31.316H327.232V33.962L326.728 33.188C327.064 32.528 327.538 32.03 328.15 31.694C328.774 31.346 329.482 31.172 330.274 31.172C331.162 31.172 331.936 31.4 332.596 31.856C333.268 32.3 333.712 32.984 333.928 33.908L332.938 33.638C333.262 32.882 333.778 32.282 334.486 31.838C335.206 31.394 336.028 31.172 336.952 31.172ZM355.831 31.172C356.599 31.172 357.277 31.328 357.865 31.64C358.465 31.94 358.933 32.408 359.269 33.044C359.617 33.668 359.791 34.472 359.791 35.456V41H356.983V35.888C356.983 35.108 356.821 34.532 356.497 34.16C356.173 33.788 355.717 33.602 355.129 33.602C354.721 33.602 354.355 33.698 354.031 33.89C353.707 34.07 353.455 34.346 353.275 34.718C353.095 35.09 353.005 35.564 353.005 36.14V41H350.197V35.888C350.197 35.108 350.035 34.532 349.711 34.16C349.399 33.788 348.949 33.602 348.361 33.602C347.953 33.602 347.587 33.698 347.263 33.89C346.939 34.07 346.687 34.346 346.507 34.718C346.327 35.09 346.237 35.564 346.237 36.14V41H343.429V31.316H346.111V33.962L345.607 33.188C345.943 32.528 346.417 32.03 347.029 31.694C347.653 31.346 348.361 31.172 349.153 31.172C350.041 31.172 350.815 31.4 351.475 31.856C352.147 32.3 352.591 32.984 352.807 33.908L351.817 33.638C352.141 32.882 352.657 32.282 353.365 31.838C354.085 31.394 354.907 31.172 355.831 31.172ZM366.986 41.144C365.954 41.144 365.036 40.928 364.232 40.496C363.44 40.064 362.81 39.476 362.342 38.732C361.886 37.976 361.658 37.118 361.658 36.158C361.658 35.186 361.886 34.328 362.342 33.584C362.81 32.828 363.44 32.24 364.232 31.82C365.036 31.388 365.954 31.172 366.986 31.172C368.006 31.172 368.918 31.388 369.722 31.82C370.526 32.24 371.156 32.822 371.612 33.566C372.068 34.31 372.296 35.174 372.296 36.158C372.296 37.118 372.068 37.976 371.612 38.732C371.156 39.476 370.526 40.064 369.722 40.496C368.918 40.928 368.006 41.144 366.986 41.144ZM366.986 38.84C367.454 38.84 367.874 38.732 368.246 38.516C368.618 38.3 368.912 37.994 369.128 37.598C369.344 37.19 369.452 36.71 369.452 36.158C369.452 35.594 369.344 35.114 369.128 34.718C368.912 34.322 368.618 34.016 368.246 33.8C367.874 33.584 367.454 33.476 366.986 33.476C366.518 33.476 366.098 33.584 365.726 33.8C365.354 34.016 365.054 34.322 364.826 34.718C364.61 35.114 364.502 35.594 364.502 36.158C364.502 36.71 364.61 37.19 364.826 37.598C365.054 37.994 365.354 38.3 365.726 38.516C366.098 38.732 366.518 38.84 366.986 38.84ZM380.059 31.172C380.827 31.172 381.511 31.328 382.111 31.64C382.723 31.94 383.203 32.408 383.551 33.044C383.899 33.668 384.073 34.472 384.073 35.456V41H381.265V35.888C381.265 35.108 381.091 34.532 380.743 34.16C380.407 33.788 379.927 33.602 379.303 33.602C378.859 33.602 378.457 33.698 378.097 33.89C377.749 34.07 377.473 34.352 377.269 34.736C377.077 35.12 376.981 35.612 376.981 36.212V41H374.173V31.316H376.855V33.998L376.351 33.188C376.699 32.54 377.197 32.042 377.845 31.694C378.493 31.346 379.231 31.172 380.059 31.172ZM389.876 41.144C389.048 41.144 388.25 41.048 387.482 40.856C386.726 40.652 386.126 40.4 385.682 40.1L386.618 38.084C387.062 38.36 387.584 38.588 388.184 38.768C388.796 38.936 389.396 39.02 389.984 39.02C390.632 39.02 391.088 38.942 391.352 38.786C391.628 38.63 391.766 38.414 391.766 38.138C391.766 37.91 391.658 37.742 391.442 37.634C391.238 37.514 390.962 37.424 390.614 37.364C390.266 37.304 389.882 37.244 389.462 37.184C389.054 37.124 388.64 37.046 388.22 36.95C387.8 36.842 387.416 36.686 387.068 36.482C386.72 36.278 386.438 36.002 386.222 35.654C386.018 35.306 385.916 34.856 385.916 34.304C385.916 33.692 386.09 33.152 386.438 32.684C386.798 32.216 387.314 31.85 387.986 31.586C388.658 31.31 389.462 31.172 390.398 31.172C391.058 31.172 391.73 31.244 392.414 31.388C393.098 31.532 393.668 31.742 394.124 32.018L393.188 34.016C392.72 33.74 392.246 33.554 391.766 33.458C391.298 33.35 390.842 33.296 390.398 33.296C389.774 33.296 389.318 33.38 389.03 33.548C388.742 33.716 388.598 33.932 388.598 34.196C388.598 34.436 388.7 34.616 388.904 34.736C389.12 34.856 389.402 34.952 389.75 35.024C390.098 35.096 390.476 35.162 390.884 35.222C391.304 35.27 391.724 35.348 392.144 35.456C392.564 35.564 392.942 35.72 393.278 35.924C393.626 36.116 393.908 36.386 394.124 36.734C394.34 37.07 394.448 37.514 394.448 38.066C394.448 38.666 394.268 39.2 393.908 39.668C393.548 40.124 393.026 40.484 392.342 40.748C391.67 41.012 390.848 41.144 389.876 41.144Z" fill="#606061"/>
</svg>
