<svg width="312" height="38" viewBox="0 0 312 38" fill="none" xmlns="http://www.w3.org/2000/svg">
<path d="M49.9616 19.5972L39.9715 1.6106H3.84235C1.71513 1.6106 0 3.33687 0 5.46408V33.7304C0 35.8576 1.71513 37.5839 3.84235 37.5839H39.9715L49.9616 19.5972Z" fill="#606061"/>
<path d="M48.9593 3.49282C48.2576 2.33455 46.988 1.62177 45.6181 1.62177H42.6333L52.757 19.6084L42.6333 37.595H45.6181C46.988 37.595 48.2576 36.8823 48.9593 35.724L57.947 19.6084L48.9593 3.49282Z" fill="#BA1F40"/>
<path d="M23.9786 11.6007H21.3168V27.5938H23.9786V11.6007Z" fill="white"/>
<path d="M15.982 11.6007V23.3282L8.66488 11.6007H5.99194V27.5938H8.66488V15.8663L15.982 27.5938H18.655V11.6007H15.982Z" fill="white"/>
<path d="M36.6416 11.6007V18.2719H29.3133V11.6007H26.6515V27.5938H29.3133V20.9337H36.6416V27.5938H39.3034V11.6007H36.6416Z" fill="white"/>
<path d="M70.7475 23.165C70.005 23.165 69.3129 23.0458 68.6713 22.8075C68.0388 22.56 67.4888 22.2117 67.0212 21.7625C66.5538 21.3133 66.1871 20.7862 65.9213 20.1812C65.6646 19.5762 65.5363 18.9117 65.5363 18.1875C65.5363 17.4633 65.6646 16.7987 65.9213 16.1937C66.1871 15.5887 66.5538 15.0617 67.0212 14.6125C67.4979 14.1633 68.0525 13.8196 68.685 13.5812C69.3175 13.3337 70.0096 13.21 70.7613 13.21C71.5954 13.21 72.3471 13.3567 73.0163 13.65C73.6946 13.9342 74.2629 14.3558 74.7213 14.915L73.2913 16.235C72.9613 15.8592 72.5946 15.5796 72.1913 15.3962C71.7879 15.2037 71.3479 15.1075 70.8713 15.1075C70.4221 15.1075 70.0096 15.1808 69.6338 15.3275C69.2579 15.4742 68.9325 15.685 68.6575 15.96C68.3825 16.235 68.1671 16.5604 68.0113 16.9362C67.8646 17.3121 67.7913 17.7292 67.7913 18.1875C67.7913 18.6458 67.8646 19.0629 68.0113 19.4387C68.1671 19.8146 68.3825 20.14 68.6575 20.415C68.9325 20.69 69.2579 20.9008 69.6338 21.0475C70.0096 21.1942 70.4221 21.2675 70.8713 21.2675C71.3479 21.2675 71.7879 21.1758 72.1913 20.9925C72.5946 20.8 72.9613 20.5112 73.2913 20.1262L74.7213 21.4462C74.2629 22.0054 73.6946 22.4317 73.0163 22.725C72.3471 23.0183 71.5908 23.165 70.7475 23.165ZM80.5714 23V21.5562L80.4339 21.24V18.655C80.4339 18.1967 80.2919 17.8392 80.0077 17.5825C79.7327 17.3258 79.3064 17.1975 78.7289 17.1975C78.3348 17.1975 77.9452 17.2617 77.5602 17.39C77.1844 17.5092 76.8635 17.6742 76.5977 17.885L75.8277 16.3862C76.231 16.1021 76.7169 15.8821 77.2852 15.7262C77.8535 15.5704 78.431 15.4925 79.0177 15.4925C80.1452 15.4925 81.0206 15.7583 81.6439 16.29C82.2673 16.8217 82.5789 17.6512 82.5789 18.7787V23H80.5714ZM78.3164 23.11C77.7389 23.11 77.2439 23.0138 76.8314 22.8212C76.4189 22.6196 76.1027 22.3492 75.8827 22.01C75.6627 21.6708 75.5527 21.2904 75.5527 20.8687C75.5527 20.4287 75.6581 20.0437 75.8689 19.7137C76.0889 19.3837 76.4327 19.1271 76.9002 18.9437C77.3677 18.7512 77.9773 18.655 78.7289 18.655H80.6952V19.9062H78.9627C78.4585 19.9062 78.1102 19.9887 77.9177 20.1537C77.7344 20.3187 77.6427 20.525 77.6427 20.7725C77.6427 21.0475 77.7481 21.2675 77.9589 21.4325C78.1789 21.5883 78.4769 21.6662 78.8527 21.6662C79.2102 21.6662 79.531 21.5837 79.8152 21.4187C80.0994 21.2446 80.3056 20.9925 80.4339 20.6625L80.7639 21.6525C80.6081 22.1292 80.3239 22.4912 79.9114 22.7387C79.4989 22.9862 78.9673 23.11 78.3164 23.11ZM89.0165 15.4925C89.6032 15.4925 90.1257 15.6117 90.584 15.85C91.0515 16.0792 91.4182 16.4367 91.684 16.9225C91.9499 17.3992 92.0828 18.0133 92.0828 18.765V23H89.9378V19.095C89.9378 18.4992 89.8049 18.0592 89.539 17.775C89.2824 17.4908 88.9157 17.3487 88.439 17.3487C88.0999 17.3487 87.7928 17.4221 87.5178 17.5687C87.2519 17.7062 87.0411 17.9217 86.8853 18.215C86.7386 18.5083 86.6653 18.8842 86.6653 19.3425V23H84.5203V15.6025H86.569V17.6512L86.184 17.0325C86.4499 16.5375 86.8303 16.1571 87.3253 15.8912C87.8203 15.6254 88.384 15.4925 89.0165 15.4925ZM97.6558 23.11C96.8583 23.11 96.1479 22.9496 95.5246 22.6287C94.9012 22.2987 94.4108 21.845 94.0533 21.2675C93.705 20.69 93.5308 20.0346 93.5308 19.3012C93.5308 18.5587 93.705 17.9033 94.0533 17.335C94.4108 16.7575 94.9012 16.3083 95.5246 15.9875C96.1479 15.6575 96.8583 15.4925 97.6558 15.4925C98.435 15.4925 99.1133 15.6575 99.6908 15.9875C100.268 16.3083 100.695 16.7712 100.97 17.3762L99.3058 18.27C99.1133 17.9217 98.8704 17.665 98.5771 17.5C98.2929 17.335 97.9812 17.2525 97.6421 17.2525C97.2754 17.2525 96.9454 17.335 96.6521 17.5C96.3587 17.665 96.125 17.8987 95.9508 18.2012C95.7858 18.5037 95.7033 18.8704 95.7033 19.3012C95.7033 19.7321 95.7858 20.0987 95.9508 20.4012C96.125 20.7037 96.3587 20.9375 96.6521 21.1025C96.9454 21.2675 97.2754 21.35 97.6421 21.35C97.9812 21.35 98.2929 21.2721 98.5771 21.1162C98.8704 20.9512 99.1133 20.69 99.3058 20.3325L100.97 21.24C100.695 21.8358 100.268 22.2987 99.6908 22.6287C99.1133 22.9496 98.435 23.11 97.6558 23.11ZM105.782 23.11C104.939 23.11 104.196 22.945 103.554 22.615C102.922 22.285 102.431 21.8358 102.083 21.2675C101.735 20.69 101.561 20.0346 101.561 19.3012C101.561 18.5587 101.73 17.9033 102.069 17.335C102.418 16.7575 102.89 16.3083 103.486 15.9875C104.081 15.6575 104.755 15.4925 105.507 15.4925C106.231 15.4925 106.882 15.6483 107.459 15.96C108.046 16.2625 108.509 16.7025 108.848 17.28C109.187 17.8483 109.357 18.5312 109.357 19.3287C109.357 19.4112 109.352 19.5075 109.343 19.6175C109.334 19.7183 109.325 19.8146 109.316 19.9062H103.307V18.655H108.188L107.363 19.0262C107.363 18.6412 107.285 18.3067 107.129 18.0225C106.974 17.7383 106.758 17.5183 106.483 17.3625C106.208 17.1975 105.887 17.115 105.521 17.115C105.154 17.115 104.829 17.1975 104.544 17.3625C104.269 17.5183 104.054 17.7429 103.898 18.0362C103.742 18.3204 103.664 18.6596 103.664 19.0537V19.3837C103.664 19.7871 103.751 20.1446 103.926 20.4562C104.109 20.7587 104.361 20.9925 104.682 21.1575C105.012 21.3133 105.397 21.3912 105.837 21.3912C106.231 21.3912 106.575 21.3317 106.868 21.2125C107.171 21.0933 107.446 20.9146 107.693 20.6762L108.834 21.9137C108.495 22.2987 108.069 22.5967 107.556 22.8075C107.042 23.0092 106.451 23.11 105.782 23.11ZM110.785 23V15.6025H112.834V17.6925L112.545 17.0875C112.765 16.565 113.118 16.1708 113.604 15.905C114.09 15.63 114.681 15.4925 115.377 15.4925V17.4725C115.286 17.4633 115.203 17.4587 115.13 17.4587C115.057 17.4496 114.979 17.445 114.896 17.445C114.31 17.445 113.833 17.6146 113.466 17.9537C113.109 18.2837 112.93 18.8017 112.93 19.5075V23H110.785ZM120.752 23V13.375H124.918C125.78 13.375 126.522 13.5171 127.146 13.8012C127.769 14.0762 128.25 14.475 128.589 14.9975C128.929 15.52 129.098 16.1433 129.098 16.8675C129.098 17.5825 128.929 18.2012 128.589 18.7237C128.25 19.2371 127.769 19.6312 127.146 19.9062C126.522 20.1812 125.78 20.3187 124.918 20.3187H121.989L122.979 19.3425V23H120.752ZM126.871 23L124.464 19.5075H126.843L129.277 23H126.871ZM122.979 19.59L121.989 18.545H124.794C125.482 18.545 125.995 18.3983 126.334 18.105C126.674 17.8025 126.843 17.39 126.843 16.8675C126.843 16.3358 126.674 15.9233 126.334 15.63C125.995 15.3367 125.482 15.19 124.794 15.19H121.989L122.979 14.1312V19.59ZM134.383 23.11C133.54 23.11 132.797 22.945 132.155 22.615C131.523 22.285 131.033 21.8358 130.684 21.2675C130.336 20.69 130.162 20.0346 130.162 19.3012C130.162 18.5587 130.331 17.9033 130.67 17.335C131.019 16.7575 131.491 16.3083 132.087 15.9875C132.683 15.6575 133.356 15.4925 134.108 15.4925C134.832 15.4925 135.483 15.6483 136.06 15.96C136.647 16.2625 137.11 16.7025 137.449 17.28C137.788 17.8483 137.958 18.5312 137.958 19.3287C137.958 19.4112 137.953 19.5075 137.944 19.6175C137.935 19.7183 137.926 19.8146 137.917 19.9062H131.908V18.655H136.789L135.964 19.0262C135.964 18.6412 135.886 18.3067 135.73 18.0225C135.575 17.7383 135.359 17.5183 135.084 17.3625C134.809 17.1975 134.488 17.115 134.122 17.115C133.755 17.115 133.43 17.1975 133.145 17.3625C132.87 17.5183 132.655 17.7429 132.499 18.0362C132.343 18.3204 132.265 18.6596 132.265 19.0537V19.3837C132.265 19.7871 132.353 20.1446 132.527 20.4562C132.71 20.7587 132.962 20.9925 133.283 21.1575C133.613 21.3133 133.998 21.3912 134.438 21.3912C134.832 21.3912 135.176 21.3317 135.469 21.2125C135.772 21.0933 136.047 20.9146 136.294 20.6762L137.435 21.9137C137.096 22.2987 136.67 22.5967 136.157 22.8075C135.643 23.0092 135.052 23.11 134.383 23.11ZM141.875 23.11C141.242 23.11 140.633 23.0367 140.046 22.89C139.468 22.7342 139.01 22.5417 138.671 22.3125L139.386 20.7725C139.725 20.9833 140.124 21.1575 140.582 21.295C141.05 21.4233 141.508 21.4875 141.957 21.4875C142.452 21.4875 142.801 21.4279 143.002 21.3087C143.213 21.1896 143.318 21.0246 143.318 20.8137C143.318 20.6396 143.236 20.5112 143.071 20.4287C142.915 20.3371 142.704 20.2683 142.438 20.2225C142.173 20.1767 141.879 20.1308 141.558 20.085C141.247 20.0392 140.931 19.9796 140.61 19.9062C140.289 19.8237 139.996 19.7046 139.73 19.5487C139.464 19.3929 139.248 19.1821 139.083 18.9162C138.928 18.6504 138.85 18.3067 138.85 17.885C138.85 17.4175 138.983 17.005 139.248 16.6475C139.523 16.29 139.918 16.0104 140.431 15.8087C140.944 15.5979 141.558 15.4925 142.273 15.4925C142.778 15.4925 143.291 15.5475 143.813 15.6575C144.336 15.7675 144.771 15.9279 145.12 16.1387L144.405 17.665C144.047 17.4542 143.685 17.3121 143.318 17.2387C142.961 17.1562 142.613 17.115 142.273 17.115C141.797 17.115 141.448 17.1792 141.228 17.3075C141.008 17.4358 140.898 17.6008 140.898 17.8025C140.898 17.9858 140.976 18.1233 141.132 18.215C141.297 18.3067 141.513 18.38 141.778 18.435C142.044 18.49 142.333 18.5404 142.645 18.5862C142.966 18.6229 143.286 18.6825 143.607 18.765C143.928 18.8475 144.217 18.9667 144.473 19.1225C144.739 19.2692 144.955 19.4754 145.12 19.7412C145.285 19.9979 145.367 20.3371 145.367 20.7587C145.367 21.2171 145.23 21.625 144.955 21.9825C144.68 22.3308 144.281 22.6058 143.758 22.8075C143.245 23.0092 142.617 23.11 141.875 23.11ZM150.362 23.11C149.519 23.11 148.776 22.945 148.134 22.615C147.502 22.285 147.012 21.8358 146.663 21.2675C146.315 20.69 146.141 20.0346 146.141 19.3012C146.141 18.5587 146.31 17.9033 146.649 17.335C146.998 16.7575 147.47 16.3083 148.066 15.9875C148.662 15.6575 149.335 15.4925 150.087 15.4925C150.811 15.4925 151.462 15.6483 152.039 15.96C152.626 16.2625 153.089 16.7025 153.428 17.28C153.767 17.8483 153.937 18.5312 153.937 19.3287C153.937 19.4112 153.932 19.5075 153.923 19.6175C153.914 19.7183 153.905 19.8146 153.896 19.9062H147.887V18.655H152.768L151.943 19.0262C151.943 18.6412 151.865 18.3067 151.709 18.0225C151.554 17.7383 151.338 17.5183 151.063 17.3625C150.788 17.1975 150.467 17.115 150.101 17.115C149.734 17.115 149.409 17.1975 149.124 17.3625C148.849 17.5183 148.634 17.7429 148.478 18.0362C148.322 18.3204 148.244 18.6596 148.244 19.0537V19.3837C148.244 19.7871 148.332 20.1446 148.506 20.4562C148.689 20.7587 148.941 20.9925 149.262 21.1575C149.592 21.3133 149.977 21.3912 150.417 21.3912C150.811 21.3912 151.155 21.3317 151.448 21.2125C151.751 21.0933 152.026 20.9146 152.273 20.6762L153.414 21.9137C153.075 22.2987 152.649 22.5967 152.136 22.8075C151.622 23.0092 151.031 23.11 150.362 23.11ZM159.701 23V21.5562L159.564 21.24V18.655C159.564 18.1967 159.422 17.8392 159.137 17.5825C158.862 17.3258 158.436 17.1975 157.859 17.1975C157.464 17.1975 157.075 17.2617 156.69 17.39C156.314 17.5092 155.993 17.6742 155.727 17.885L154.957 16.3862C155.361 16.1021 155.847 15.8821 156.415 15.7262C156.983 15.5704 157.561 15.4925 158.147 15.4925C159.275 15.4925 160.15 15.7583 160.774 16.29C161.397 16.8217 161.709 17.6512 161.709 18.7787V23H159.701ZM157.446 23.11C156.869 23.11 156.374 23.0138 155.961 22.8212C155.549 22.6196 155.232 22.3492 155.012 22.01C154.792 21.6708 154.682 21.2904 154.682 20.8687C154.682 20.4287 154.788 20.0437 154.999 19.7137C155.219 19.3837 155.562 19.1271 156.03 18.9437C156.497 18.7512 157.107 18.655 157.859 18.655H159.825V19.9062H158.092C157.588 19.9062 157.24 19.9887 157.047 20.1537C156.864 20.3187 156.772 20.525 156.772 20.7725C156.772 21.0475 156.878 21.2675 157.089 21.4325C157.309 21.5883 157.607 21.6662 157.982 21.6662C158.34 21.6662 158.661 21.5837 158.945 21.4187C159.229 21.2446 159.435 20.9925 159.564 20.6625L159.894 21.6525C159.738 22.1292 159.454 22.4912 159.041 22.7387C158.629 22.9862 158.097 23.11 157.446 23.11ZM163.65 23V15.6025H165.699V17.6925L165.41 17.0875C165.63 16.565 165.983 16.1708 166.469 15.905C166.954 15.63 167.546 15.4925 168.242 15.4925V17.4725C168.151 17.4633 168.068 17.4587 167.995 17.4587C167.922 17.4496 167.844 17.445 167.761 17.445C167.174 17.445 166.698 17.6146 166.331 17.9537C165.974 18.2837 165.795 18.8017 165.795 19.5075V23H163.65ZM173.039 23.11C172.242 23.11 171.531 22.9496 170.908 22.6287C170.285 22.2987 169.794 21.845 169.437 21.2675C169.088 20.69 168.914 20.0346 168.914 19.3012C168.914 18.5587 169.088 17.9033 169.437 17.335C169.794 16.7575 170.285 16.3083 170.908 15.9875C171.531 15.6575 172.242 15.4925 173.039 15.4925C173.818 15.4925 174.497 15.6575 175.074 15.9875C175.652 16.3083 176.078 16.7712 176.353 17.3762L174.689 18.27C174.497 17.9217 174.254 17.665 173.96 17.5C173.676 17.335 173.365 17.2525 173.025 17.2525C172.659 17.2525 172.329 17.335 172.035 17.5C171.742 17.665 171.508 17.8987 171.334 18.2012C171.169 18.5037 171.087 18.8704 171.087 19.3012C171.087 19.7321 171.169 20.0987 171.334 20.4012C171.508 20.7037 171.742 20.9375 172.035 21.1025C172.329 21.2675 172.659 21.35 173.025 21.35C173.365 21.35 173.676 21.2721 173.96 21.1162C174.254 20.9512 174.497 20.69 174.689 20.3325L176.353 21.24C176.078 21.8358 175.652 22.2987 175.074 22.6287C174.497 22.9496 173.818 23.11 173.039 23.11ZM182.044 15.4925C182.631 15.4925 183.153 15.6117 183.611 15.85C184.079 16.0792 184.446 16.4367 184.711 16.9225C184.977 17.3992 185.11 18.0133 185.11 18.765V23H182.965V19.095C182.965 18.4992 182.832 18.0592 182.566 17.775C182.31 17.4908 181.943 17.3487 181.466 17.3487C181.127 17.3487 180.82 17.4221 180.545 17.5687C180.279 17.7062 180.068 17.9217 179.913 18.215C179.766 18.5083 179.693 18.8842 179.693 19.3425V23H177.548V12.7975H179.693V17.6512L179.211 17.0325C179.477 16.5375 179.858 16.1571 180.353 15.8912C180.848 15.6254 181.411 15.4925 182.044 15.4925ZM66.1413 37V27.375H70.5138C71.5588 27.375 72.48 27.5767 73.2775 27.98C74.075 28.3742 74.6983 28.9287 75.1475 29.6437C75.5967 30.3587 75.8213 31.2067 75.8213 32.1875C75.8213 33.1592 75.5967 34.0071 75.1475 34.7312C74.6983 35.4462 74.075 36.0054 73.2775 36.4087C72.48 36.8029 71.5588 37 70.5138 37H66.1413ZM68.3688 35.1712H70.4038C71.0454 35.1712 71.6 35.0521 72.0675 34.8137C72.5442 34.5662 72.9108 34.2179 73.1675 33.7687C73.4333 33.3196 73.5663 32.7925 73.5663 32.1875C73.5663 31.5733 73.4333 31.0462 73.1675 30.6062C72.9108 30.1571 72.5442 29.8133 72.0675 29.575C71.6 29.3275 71.0454 29.2037 70.4038 29.2037H68.3688V35.1712ZM81.8874 37V35.5562L81.7499 35.24V32.655C81.7499 32.1967 81.6078 31.8392 81.3236 31.5825C81.0486 31.3258 80.6224 31.1975 80.0449 31.1975C79.6507 31.1975 79.2611 31.2617 78.8761 31.39C78.5003 31.5092 78.1794 31.6742 77.9136 31.885L77.1436 30.3862C77.5469 30.1021 78.0328 29.8821 78.6011 29.7262C79.1694 29.5704 79.7469 29.4925 80.3336 29.4925C81.4611 29.4925 82.3365 29.7583 82.9599 30.29C83.5832 30.8217 83.8949 31.6512 83.8949 32.7787V37H81.8874ZM79.6324 37.11C79.0549 37.11 78.5599 37.0138 78.1474 36.8212C77.7349 36.6196 77.4186 36.3492 77.1986 36.01C76.9786 35.6708 76.8686 35.2904 76.8686 34.8687C76.8686 34.4287 76.974 34.0437 77.1849 33.7137C77.4049 33.3837 77.7486 33.1271 78.2161 32.9437C78.6836 32.7512 79.2932 32.655 80.0449 32.655H82.0111V33.9062H80.2786C79.7744 33.9062 79.4261 33.9887 79.2336 34.1537C79.0503 34.3187 78.9586 34.525 78.9586 34.7725C78.9586 35.0475 79.064 35.2675 79.2749 35.4325C79.4949 35.5883 79.7928 35.6662 80.1686 35.6662C80.5261 35.6662 80.8469 35.5837 81.1311 35.4187C81.4153 35.2446 81.6215 34.9925 81.7499 34.6625L82.0799 35.6525C81.924 36.1292 81.6399 36.4912 81.2274 36.7387C80.8149 36.9862 80.2832 37.11 79.6324 37.11ZM88.8612 37.11C87.9904 37.11 87.312 36.89 86.8262 36.45C86.3404 36.0008 86.0974 35.3362 86.0974 34.4562V27.9662H88.2424V34.4287C88.2424 34.7404 88.3249 34.9833 88.4899 35.1575C88.6549 35.3225 88.8795 35.405 89.1637 35.405C89.5029 35.405 89.7916 35.3133 90.0299 35.13L90.6074 36.6425C90.3874 36.7983 90.1216 36.9175 89.8099 37C89.5074 37.0733 89.1912 37.11 88.8612 37.11ZM84.9562 31.4175V29.7675H90.0849V31.4175H84.9562ZM96.349 37V35.5562L96.2115 35.24V32.655C96.2115 32.1967 96.0695 31.8392 95.7853 31.5825C95.5103 31.3258 95.084 31.1975 94.5065 31.1975C94.1124 31.1975 93.7228 31.2617 93.3378 31.39C92.9619 31.5092 92.6411 31.6742 92.3753 31.885L91.6053 30.3862C92.0086 30.1021 92.4944 29.8821 93.0628 29.7262C93.6311 29.5704 94.2086 29.4925 94.7953 29.4925C95.9228 29.4925 96.7982 29.7583 97.4215 30.29C98.0449 30.8217 98.3565 31.6512 98.3565 32.7787V37H96.349ZM94.094 37.11C93.5165 37.11 93.0215 37.0138 92.609 36.8212C92.1965 36.6196 91.8803 36.3492 91.6603 36.01C91.4403 35.6708 91.3303 35.2904 91.3303 34.8687C91.3303 34.4287 91.4357 34.0437 91.6465 33.7137C91.8665 33.3837 92.2103 33.1271 92.6778 32.9437C93.1453 32.7512 93.7549 32.655 94.5065 32.655H96.4728V33.9062H94.7403C94.2361 33.9062 93.8878 33.9887 93.6953 34.1537C93.5119 34.3187 93.4203 34.525 93.4203 34.7725C93.4203 35.0475 93.5257 35.2675 93.7365 35.4325C93.9565 35.5883 94.2545 35.6662 94.6303 35.6662C94.9878 35.6662 95.3086 35.5837 95.5928 35.4187C95.877 35.2446 96.0832 34.9925 96.2115 34.6625L96.5415 35.6525C96.3857 36.1292 96.1015 36.4912 95.689 36.7387C95.2765 36.9862 94.7449 37.11 94.094 37.11ZM108.949 37.165C108.207 37.165 107.515 37.0458 106.873 36.8075C106.241 36.56 105.691 36.2117 105.223 35.7625C104.756 35.3133 104.389 34.7862 104.123 34.1812C103.866 33.5762 103.738 32.9117 103.738 32.1875C103.738 31.4633 103.866 30.7987 104.123 30.1937C104.389 29.5887 104.756 29.0617 105.223 28.6125C105.7 28.1633 106.254 27.8196 106.887 27.5812C107.519 27.3337 108.211 27.21 108.963 27.21C109.797 27.21 110.549 27.3567 111.218 27.65C111.896 27.9342 112.465 28.3558 112.923 28.915L111.493 30.235C111.163 29.8592 110.796 29.5796 110.393 29.3962C109.99 29.2037 109.55 29.1075 109.073 29.1075C108.624 29.1075 108.211 29.1808 107.836 29.3275C107.46 29.4742 107.134 29.685 106.859 29.96C106.584 30.235 106.369 30.5604 106.213 30.9362C106.066 31.3121 105.993 31.7292 105.993 32.1875C105.993 32.6458 106.066 33.0629 106.213 33.4387C106.369 33.8146 106.584 34.14 106.859 34.415C107.134 34.69 107.46 34.9008 107.836 35.0475C108.211 35.1942 108.624 35.2675 109.073 35.2675C109.55 35.2675 109.99 35.1758 110.393 34.9925C110.796 34.8 111.163 34.5112 111.493 34.1262L112.923 35.4462C112.465 36.0054 111.896 36.4317 111.218 36.725C110.549 37.0183 109.793 37.165 108.949 37.165ZM117.541 37.11C116.753 37.11 116.051 36.945 115.437 36.615C114.832 36.285 114.351 35.8358 113.994 35.2675C113.645 34.69 113.471 34.0346 113.471 33.3012C113.471 32.5587 113.645 31.9033 113.994 31.335C114.351 30.7575 114.832 30.3083 115.437 29.9875C116.051 29.6575 116.753 29.4925 117.541 29.4925C118.32 29.4925 119.017 29.6575 119.631 29.9875C120.245 30.3083 120.726 30.7529 121.075 31.3212C121.423 31.8896 121.597 32.5496 121.597 33.3012C121.597 34.0346 121.423 34.69 121.075 35.2675C120.726 35.8358 120.245 36.285 119.631 36.615C119.017 36.945 118.32 37.11 117.541 37.11ZM117.541 35.35C117.899 35.35 118.219 35.2675 118.504 35.1025C118.788 34.9375 119.012 34.7037 119.177 34.4012C119.342 34.0896 119.425 33.7229 119.425 33.3012C119.425 32.8704 119.342 32.5037 119.177 32.2012C119.012 31.8987 118.788 31.665 118.504 31.5C118.219 31.335 117.899 31.2525 117.541 31.2525C117.184 31.2525 116.863 31.335 116.579 31.5C116.294 31.665 116.065 31.8987 115.891 32.2012C115.726 32.5037 115.644 32.8704 115.644 33.3012C115.644 33.7229 115.726 34.0896 115.891 34.4012C116.065 34.7037 116.294 34.9375 116.579 35.1025C116.863 35.2675 117.184 35.35 117.541 35.35ZM132.505 29.4925C133.091 29.4925 133.609 29.6117 134.059 29.85C134.517 30.0792 134.874 30.4367 135.131 30.9225C135.397 31.3992 135.53 32.0133 135.53 32.765V37H133.385V33.095C133.385 32.4992 133.261 32.0592 133.014 31.775C132.766 31.4908 132.418 31.3487 131.969 31.3487C131.657 31.3487 131.377 31.4221 131.13 31.5687C130.882 31.7062 130.69 31.9171 130.552 32.2012C130.415 32.4854 130.346 32.8475 130.346 33.2875V37H128.201V33.095C128.201 32.4992 128.077 32.0592 127.83 31.775C127.591 31.4908 127.248 31.3487 126.799 31.3487C126.487 31.3487 126.207 31.4221 125.96 31.5687C125.712 31.7062 125.52 31.9171 125.382 32.2012C125.245 32.4854 125.176 32.8475 125.176 33.2875V37H123.031V29.6025H125.08V31.6237L124.695 31.0325C124.951 30.5283 125.314 30.1479 125.781 29.8912C126.258 29.6254 126.799 29.4925 127.404 29.4925C128.082 29.4925 128.673 29.6667 129.177 30.015C129.691 30.3542 130.03 30.8767 130.195 31.5825L129.439 31.3762C129.686 30.7987 130.08 30.3404 130.621 30.0012C131.171 29.6621 131.799 29.4925 132.505 29.4925ZM146.926 29.4925C147.513 29.4925 148.031 29.6117 148.48 29.85C148.938 30.0792 149.296 30.4367 149.552 30.9225C149.818 31.3992 149.951 32.0133 149.951 32.765V37H147.806V33.095C147.806 32.4992 147.682 32.0592 147.435 31.775C147.187 31.4908 146.839 31.3487 146.39 31.3487C146.078 31.3487 145.799 31.4221 145.551 31.5687C145.304 31.7062 145.111 31.9171 144.974 32.2012C144.836 32.4854 144.767 32.8475 144.767 33.2875V37H142.622V33.095C142.622 32.4992 142.499 32.0592 142.251 31.775C142.013 31.4908 141.669 31.3487 141.22 31.3487C140.908 31.3487 140.629 31.4221 140.381 31.5687C140.134 31.7062 139.941 31.9171 139.804 32.2012C139.666 32.4854 139.597 32.8475 139.597 33.2875V37H137.452V29.6025H139.501V31.6237L139.116 31.0325C139.373 30.5283 139.735 30.1479 140.202 29.8912C140.679 29.6254 141.22 29.4925 141.825 29.4925C142.503 29.4925 143.094 29.6667 143.599 30.015C144.112 30.3542 144.451 30.8767 144.616 31.5825L143.86 31.3762C144.107 30.7987 144.502 30.3404 145.042 30.0012C145.592 29.6621 146.22 29.4925 146.926 29.4925ZM155.448 37.11C154.659 37.11 153.958 36.945 153.344 36.615C152.739 36.285 152.258 35.8358 151.9 35.2675C151.552 34.69 151.378 34.0346 151.378 33.3012C151.378 32.5587 151.552 31.9033 151.9 31.335C152.258 30.7575 152.739 30.3083 153.344 29.9875C153.958 29.6575 154.659 29.4925 155.448 29.4925C156.227 29.4925 156.923 29.6575 157.538 29.9875C158.152 30.3083 158.633 30.7529 158.981 31.3212C159.33 31.8896 159.504 32.5496 159.504 33.3012C159.504 34.0346 159.33 34.69 158.981 35.2675C158.633 35.8358 158.152 36.285 157.538 36.615C156.923 36.945 156.227 37.11 155.448 37.11ZM155.448 35.35C155.805 35.35 156.126 35.2675 156.41 35.1025C156.694 34.9375 156.919 34.7037 157.084 34.4012C157.249 34.0896 157.331 33.7229 157.331 33.3012C157.331 32.8704 157.249 32.5037 157.084 32.2012C156.919 31.8987 156.694 31.665 156.41 31.5C156.126 31.335 155.805 31.2525 155.448 31.2525C155.09 31.2525 154.769 31.335 154.485 31.5C154.201 31.665 153.972 31.8987 153.798 32.2012C153.633 32.5037 153.55 32.8704 153.55 33.3012C153.55 33.7229 153.633 34.0896 153.798 34.4012C153.972 34.7037 154.201 34.9375 154.485 35.1025C154.769 35.2675 155.09 35.35 155.448 35.35ZM165.434 29.4925C166.02 29.4925 166.543 29.6117 167.001 29.85C167.469 30.0792 167.835 30.4367 168.101 30.9225C168.367 31.3992 168.5 32.0133 168.5 32.765V37H166.355V33.095C166.355 32.4992 166.222 32.0592 165.956 31.775C165.7 31.4908 165.333 31.3487 164.856 31.3487C164.517 31.3487 164.21 31.4221 163.935 31.5687C163.669 31.7062 163.458 31.9217 163.303 32.215C163.156 32.5083 163.083 32.8842 163.083 33.3425V37H160.938V29.6025H162.986V31.6512L162.601 31.0325C162.867 30.5375 163.248 30.1571 163.743 29.8912C164.238 29.6254 164.801 29.4925 165.434 29.4925ZM172.933 37.11C172.301 37.11 171.691 37.0367 171.104 36.89C170.527 36.7342 170.069 36.5417 169.729 36.3125L170.444 34.7725C170.784 34.9833 171.182 35.1575 171.641 35.295C172.108 35.4233 172.566 35.4875 173.016 35.4875C173.511 35.4875 173.859 35.4279 174.061 35.3087C174.271 35.1896 174.377 35.0246 174.377 34.8137C174.377 34.6396 174.294 34.5112 174.129 34.4287C173.974 34.3371 173.763 34.2683 173.497 34.2225C173.231 34.1767 172.938 34.1308 172.617 34.085C172.305 34.0392 171.989 33.9796 171.668 33.9062C171.347 33.8237 171.054 33.7046 170.788 33.5487C170.522 33.3929 170.307 33.1821 170.142 32.9162C169.986 32.6504 169.908 32.3067 169.908 31.885C169.908 31.4175 170.041 31.005 170.307 30.6475C170.582 30.29 170.976 30.0104 171.489 29.8087C172.003 29.5979 172.617 29.4925 173.332 29.4925C173.836 29.4925 174.349 29.5475 174.872 29.6575C175.394 29.7675 175.83 29.9279 176.178 30.1387L175.463 31.665C175.106 31.4542 174.744 31.3121 174.377 31.2387C174.019 31.1562 173.671 31.115 173.332 31.115C172.855 31.115 172.507 31.1792 172.287 31.3075C172.067 31.4358 171.957 31.6008 171.957 31.8025C171.957 31.9858 172.035 32.1233 172.191 32.215C172.356 32.3067 172.571 32.38 172.837 32.435C173.103 32.49 173.391 32.5404 173.703 32.5862C174.024 32.6229 174.345 32.6825 174.666 32.765C174.986 32.8475 175.275 32.9667 175.532 33.1225C175.798 33.2692 176.013 33.4754 176.178 33.7412C176.343 33.9979 176.426 34.3371 176.426 34.7587C176.426 35.2171 176.288 35.625 176.013 35.9825C175.738 36.3308 175.339 36.6058 174.817 36.8075C174.304 37.0092 173.676 37.11 172.933 37.11Z" fill="#606061"/>
<path d="M71.728 0.797974H73.6314V9.28934H71.728L67.666 3.96391V9.28934H65.7626V0.797974H67.5483L71.728 6.2602V0.797974Z" fill="#BB0E3D"/>
<path d="M81.8049 9.28934L81.0102 7.45231H77.4389L76.6441 9.28934H74.623L78.3121 0.797974H80.1566L83.8457 9.28934H81.8245H81.8049ZM79.2343 3.319L78.1649 5.7814H80.3038L79.2441 3.319H79.2343Z" fill="#BB0E3D"/>
<path d="M87.809 2.43957V9.28934H85.9056V2.43957H83.492V0.797974H90.2226V2.43957H87.809Z" fill="#BB0E3D"/>
<path d="M91.6154 0.797974H93.5188V9.28934H91.6154V0.797974Z" fill="#BB0E3D"/>
<path d="M102.791 8.11688C101.927 8.95723 100.868 9.3774 99.6021 9.3774C98.3365 9.3774 97.2768 8.95723 96.4134 8.11688C95.55 7.27654 95.1183 6.231 95.1183 4.99003C95.1183 3.74906 95.55 2.70352 96.4134 1.86317C97.2768 1.02283 98.3365 0.602661 99.6021 0.602661C100.868 0.602661 101.927 1.02283 102.791 1.86317C103.654 2.70352 104.086 3.74906 104.086 4.99003C104.086 6.231 103.654 7.27654 102.791 8.11688ZM102.143 4.99003C102.143 4.23763 101.898 3.58294 101.407 3.05529C100.917 2.51786 100.318 2.25403 99.612 2.25403C98.9055 2.25403 98.2972 2.51786 97.8165 3.05529C97.3357 3.59272 97.0806 4.23763 97.0806 4.99003C97.0806 5.74243 97.3259 6.38734 97.8165 6.92477C98.307 7.45243 98.9055 7.71626 99.612 7.71626C100.318 7.71626 100.927 7.45243 101.407 6.92477C101.898 6.39711 102.143 5.7522 102.143 4.99003Z" fill="#BB0E3D"/>
<path d="M111.661 0.797974H113.564V9.28934H111.661L107.599 3.96391V9.28934H105.695V0.797974H107.481L111.661 6.2602V0.797974Z" fill="#BB0E3D"/>
<path d="M121.738 9.28934L120.943 7.45231H117.371L116.577 9.28934H114.556L118.245 0.797974H120.089L123.778 9.28934H121.757H121.738ZM119.167 3.319L118.098 5.7814H120.236L119.177 3.319H119.167Z" fill="#BB0E3D"/>
<path d="M124.749 9.28934V0.797974H126.652V7.59888H130.292V9.28934H124.749Z" fill="#BB0E3D"/>
<path d="M138.808 7.61875C139.74 7.61875 140.505 7.24744 141.104 6.51458L142.32 7.76532C141.349 8.84995 140.211 9.39715 138.896 9.39715C137.581 9.39715 136.502 8.98675 135.649 8.15618C134.795 7.32561 134.373 6.28984 134.373 5.02932C134.373 3.76881 134.805 2.72327 135.668 1.87315C136.532 1.03281 137.591 0.61264 138.847 0.61264C140.25 0.61264 141.418 1.1403 142.36 2.20538L141.172 3.54407C140.574 2.80144 139.818 2.43012 138.926 2.43012C138.209 2.43012 137.601 2.66464 137.091 3.1239C136.581 3.59292 136.326 4.21829 136.326 5.00978C136.326 5.80127 136.561 6.43641 137.042 6.91521C137.523 7.39401 138.101 7.62852 138.788 7.62852L138.808 7.61875Z" fill="#BB0E3D"/>
<path d="M149.836 9.28934L149.042 7.45231H145.47L144.675 9.28934H142.654L146.343 0.797974H148.188L151.877 9.28934H149.856H149.836ZM147.266 3.319L146.196 5.7814H148.335L147.276 3.319H147.266Z" fill="#BB0E3D"/>
<path d="M158.823 0.797974H160.726V9.28934H158.823L154.761 3.96391V9.28934H152.857V0.797974H154.643L158.823 6.2602V0.797974Z" fill="#BB0E3D"/>
<path d="M166.732 7.61878C167.664 7.61878 168.429 7.24747 169.027 6.51461L170.244 7.76535C169.273 8.84998 168.135 9.39718 166.82 9.39718C165.505 9.39718 164.426 8.98678 163.572 8.15621C162.719 7.32564 162.297 6.28987 162.297 5.02935C162.297 3.76884 162.729 2.7233 163.592 1.87318C164.455 1.03284 165.515 0.612671 166.771 0.612671C168.174 0.612671 169.341 1.14033 170.283 2.20541L169.096 3.5441C168.498 2.80147 167.742 2.43015 166.849 2.43015C166.133 2.43015 165.525 2.66467 165.015 3.12393C164.504 3.59295 164.249 4.21833 164.249 5.00981C164.249 5.8013 164.485 6.43644 164.966 6.91524C165.446 7.39404 166.025 7.62855 166.712 7.62855L166.732 7.61878Z" fill="#BB0E3D"/>
<path d="M177.897 0.797974V2.48843H173.648V4.23751H177.465V5.8498H173.648V7.60865H178.024V9.28934H171.745V0.797974H177.897Z" fill="#BB0E3D"/>
<path d="M186.649 3.62212C186.649 4.98035 186.109 5.85978 185.03 6.26041L187.188 9.29932H184.843L182.95 6.59263H181.635V9.29932H179.732V0.807953H182.969C184.294 0.807953 185.246 1.0327 185.805 1.47241C186.364 1.91212 186.649 2.63521 186.649 3.62212ZM184.353 4.62858C184.588 4.41361 184.706 4.08138 184.706 3.62212C184.706 3.16287 184.588 2.85018 184.343 2.68407C184.098 2.51795 183.676 2.43001 183.058 2.43001H181.635V4.94126H183.028C183.676 4.94126 184.117 4.83378 184.363 4.62858H184.353Z" fill="#BB0E3D"/>
<path d="M191.82 0.797974H193.724V9.28934H191.82V0.797974Z" fill="#BB0E3D"/>
<path d="M201.788 0.797974H203.691V9.28934H201.788L197.726 3.96391V9.28934H195.822V0.797974H197.608L201.788 6.2602V0.797974Z" fill="#BB0E3D"/>
<path d="M207.782 2.49832C207.596 2.64489 207.508 2.85009 207.508 3.09437C207.508 3.33866 207.616 3.53409 207.841 3.68066C208.067 3.82723 208.577 3.99334 209.392 4.19854C210.206 4.40374 210.834 4.69689 211.275 5.08774C211.727 5.48837 211.943 6.06489 211.943 6.82706C211.943 7.58923 211.658 8.20483 211.079 8.68363C210.5 9.16243 209.755 9.39694 208.813 9.39694C207.459 9.39694 206.242 8.8986 205.163 7.90191L206.301 6.51437C207.223 7.31563 208.067 7.71625 208.852 7.71625C209.205 7.71625 209.48 7.63808 209.676 7.49151C209.872 7.34494 209.98 7.13974 209.98 6.88568C209.98 6.63163 209.872 6.42643 209.666 6.27986C209.46 6.13329 209.038 5.97694 208.41 5.8206C207.419 5.58609 206.693 5.28317 206.232 4.90209C205.771 4.521 205.545 3.93472 205.545 3.12369C205.545 2.31266 205.84 1.69706 206.419 1.25735C206.998 0.817632 207.724 0.602661 208.597 0.602661C209.166 0.602661 209.735 0.700376 210.304 0.895804C210.873 1.09123 211.373 1.36483 211.795 1.72637L210.834 3.11392C210.098 2.55694 209.333 2.27357 208.538 2.27357C208.224 2.27357 207.969 2.35175 207.792 2.49832H207.782Z" fill="#BB0E3D"/>
<path d="M217.103 2.43957V9.28934H215.2V2.43957H212.786V0.797974H219.517V2.43957H217.103Z" fill="#BB0E3D"/>
<path d="M220.91 0.797974H222.813V9.28934H220.91V0.797974Z" fill="#BB0E3D"/>
<path d="M228.524 2.43957V9.28934H226.621V2.43957H224.207V0.797974H230.938V2.43957H228.524Z" fill="#BB0E3D"/>
<path d="M234.587 7.10079C234.901 7.49165 235.333 7.68708 235.872 7.68708C236.412 7.68708 236.834 7.49165 237.148 7.10079C237.462 6.70993 237.619 6.17251 237.619 5.48851V0.798224H239.522V5.54713C239.522 6.77833 239.179 7.72616 238.502 8.38085C237.815 9.0453 236.942 9.36776 235.882 9.36776C234.823 9.36776 233.94 9.03553 233.253 8.37108C232.566 7.70662 232.223 6.75879 232.223 5.53736V0.788452H234.126V5.47873C234.126 6.16273 234.283 6.69039 234.597 7.09102L234.587 7.10079Z" fill="#BB0E3D"/>
<path d="M245.104 2.43957V9.28934H243.201V2.43957H240.787V0.797974H247.518V2.43957H245.104Z" fill="#BB0E3D"/>
<path d="M255.064 0.797974V2.48843H250.815V4.23751H254.632V5.8498H250.815V7.60865H255.191V9.28934H248.912V0.797974H255.064Z" fill="#BB0E3D"/>
</svg>
