<svg width="25" height="23" viewBox="0 0 25 23" fill="none" xmlns="http://www.w3.org/2000/svg">
<path d="M0.833638 0C0.373152 0 0 0.376655 0 0.841463C0 1.30627 0.373152 1.68293 0.833638 1.68293H3.49086L6.35649 15.3307C6.47013 15.8446 6.80358 16.2718 7.22487 16.2688H21.1188C21.5595 16.2748 21.9644 15.8721 21.9644 15.4273C21.9644 14.9826 21.5595 14.5794 21.1188 14.5859H7.9022L7.54592 12.9029H22.2304C22.6035 12.9004 22.9563 12.6129 23.0377 12.2458L24.9829 3.83116C25.091 3.34281 24.6712 2.80939 24.1755 2.80538H5.43651L4.98496 0.666659C4.90557 0.292509 4.5468 0 4.16819 0H0.833638ZM5.78337 4.4878H10.1252L10.5421 7.01219H6.31283L5.78337 4.4878ZM11.8272 4.4878H17.0722L16.6554 7.01219H12.2441L11.8272 4.4878ZM18.7742 4.4878H23.125L22.543 7.01219H18.3574L18.7742 4.4878ZM6.66911 8.69512H10.8199L11.2368 11.2195H7.19857L6.66911 8.69512ZM12.5219 8.69512H16.3775L15.9607 11.2195H12.9388L12.5219 8.69512ZM18.0795 8.69512H22.152L21.5699 11.2195H17.6622L18.079 8.69512H18.0795ZM10.2815 17.3902C8.75668 17.3902 7.50275 18.6559 7.50275 20.1951C7.50275 21.7343 8.75668 23 10.2815 23C11.8064 23 13.0603 21.7343 13.0603 20.1951C13.0603 18.6559 11.8064 17.3902 10.2815 17.3902ZM18.0622 17.3902C16.5373 17.3902 15.2834 18.6559 15.2834 20.1951C15.2834 21.7343 16.5373 23 18.0622 23C19.587 23 20.841 21.7343 20.841 20.1951C20.841 18.6559 19.587 17.3902 18.0622 17.3902ZM10.2815 19.0732C10.9053 19.0732 11.3931 19.5655 11.3931 20.1951C11.3931 20.8247 10.9053 21.3171 10.2815 21.3171C9.6578 21.3171 9.17002 20.8247 9.17002 20.1951C9.17002 19.5655 9.6578 19.0732 10.2815 19.0732ZM18.0622 19.0732C18.6859 19.0732 19.1737 19.5655 19.1737 20.1951C19.1737 20.8247 18.6859 21.3171 18.0622 21.3171C17.4384 21.3171 16.9506 20.8247 16.9506 20.1951C16.9506 19.5655 17.4384 19.0732 18.0622 19.0732Z" fill="white"/>
</svg>
