<svg width="34" height="24" viewBox="0 0 34 24" fill="none" xmlns="http://www.w3.org/2000/svg">
<path d="M6.19604 5.80258L13.3023 7.24812H13.4423C13.7924 7.24812 14.0724 6.99515 14.1424 6.63376C14.2125 6.23624 13.9674 5.83872 13.5823 5.76644L6.47609 4.3209C6.09102 4.24862 5.70596 4.50159 5.63594 4.89912C5.56593 5.33278 5.81098 5.7303 6.19604 5.80258Z" fill="#07679C"/>
<path d="M6.19604 9.48861L13.3023 10.9342H13.4423C13.7924 10.9342 14.0724 10.6812 14.1424 10.3198C14.2125 9.92228 13.9674 9.52475 13.5823 9.45247L6.47609 8.00694C6.09102 7.93466 5.70596 8.18763 5.63594 8.58515C5.56593 8.98267 5.81098 9.3802 6.19604 9.48861Z" fill="#07679C"/>
<path d="M6.19604 13.1385L13.3023 14.5841H13.4423C13.7924 14.5841 14.0724 14.3311 14.1424 13.9697C14.2125 13.5722 13.9674 13.1747 13.5823 13.1024L6.47609 11.6568C6.09102 11.5846 5.70596 11.8375 5.63594 12.2351C5.56593 12.6687 5.81098 13.0662 6.19604 13.1385Z" fill="#07679C"/>
<path d="M6.19604 16.8246L13.3023 18.2701H13.4423C13.7924 18.2701 14.0724 18.0171 14.1424 17.6557C14.2125 17.2582 13.9674 16.8607 13.5823 16.7884L6.47609 15.3429C6.09102 15.2706 5.70596 15.5236 5.63594 15.9211C5.56593 16.3548 5.81098 16.7523 6.19604 16.8246Z" fill="#07679C"/>
<path d="M19.8132 7.24803H19.9532L27.0595 5.80249C27.4445 5.73022 27.7246 5.33269 27.6196 4.93517C27.5496 4.53765 27.1645 4.24854 26.7794 4.35695L19.6732 5.80249C19.2881 5.87477 19.0081 6.27229 19.1131 6.66982C19.1831 6.99506 19.4631 7.24803 19.8132 7.24803Z" fill="#07679C"/>
<path d="M19.8132 14.5845H19.9532L27.0595 13.1389C27.4445 13.0666 27.7246 12.6691 27.6196 12.2716C27.5496 11.8741 27.1645 11.585 26.7794 11.6934L19.6732 13.1389C19.2881 13.2112 19.0081 13.6087 19.1131 14.0062C19.1831 14.3676 19.4631 14.5845 19.8132 14.5845Z" fill="#07679C"/>
<path d="M19.8132 10.9341H19.9532L27.0595 9.48853C27.4445 9.41625 27.7246 9.01873 27.6196 8.62121C27.5496 8.22368 27.1645 7.93457 26.7794 8.04299L19.6732 9.48853C19.2881 9.56081 19.0081 9.95833 19.1131 10.3559C19.1831 10.6811 19.4631 10.9341 19.8132 10.9341Z" fill="#07679C"/>
<path d="M26.7794 15.3433L19.6732 16.7888C19.2881 16.8611 19.0081 17.2586 19.1131 17.6562C19.1831 18.0176 19.4981 18.2705 19.8132 18.2705H19.9532L27.0595 16.825C27.4445 16.7527 27.7246 16.3552 27.6196 15.9577C27.5496 15.524 27.1645 15.271 26.7794 15.3433Z" fill="#07679C"/>
<path d="M30.8404 2.98385V2.73088C30.8404 1.89969 30.4904 1.10464 29.8603 0.562567C29.2302 0.0204891 28.425 -0.196342 27.6199 -0.0156494L16.873 2.15266C16.6979 2.1888 16.5579 2.1888 16.3829 2.15266L5.63599 -0.0156494C4.83085 -0.196342 4.02571 0.0204891 3.3956 0.562567C2.76549 1.10464 2.41543 1.86355 2.41543 2.73088V2.98385C1.08519 3.1284 0 4.28483 0 5.73037V20.2942C0 21.8481 1.22522 23.0768 2.69548 23.0768H30.5254C32.0306 23.0768 33.2209 21.812 33.2209 20.2942V5.73037C33.2559 4.28483 32.1707 3.1284 30.8404 2.98385ZM27.8999 1.46603C28.285 1.39375 28.635 1.50217 28.9501 1.719C29.2302 1.97197 29.4052 2.33335 29.4052 2.73088V17.9452C29.4052 18.5595 28.9851 19.1016 28.39 19.21L17.3631 21.4506V3.5982L27.8999 1.46603ZM3.88569 2.73088C3.88569 2.33335 4.06072 1.97197 4.34076 1.719C4.5508 1.53831 4.83085 1.42989 5.14591 1.42989C5.21592 1.42989 5.32094 1.42989 5.39095 1.46603L15.9278 3.5982V21.4506L4.90086 19.21C4.30576 19.1016 3.88569 18.5595 3.88569 17.9452V2.73088Z" fill="#07679C"/>
</svg>
