<svg width="13" height="13" viewBox="0 0 13 13" fill="none" xmlns="http://www.w3.org/2000/svg">
<circle cx="6.5" cy="6.5" r="6.5" fill="#6A6A6A"/>
<path d="M4.293 3.602C4.414 3.492 4.546 3.38933 4.689 3.294C4.832 3.19867 4.986 3.11433 5.151 3.041C5.31967 2.96767 5.50117 2.91083 5.6955 2.8705C5.8935 2.8265 6.10617 2.8045 6.3335 2.8045C6.63783 2.8045 6.9165 2.8485 7.1695 2.9365C7.42617 3.02083 7.64617 3.14367 7.8295 3.305C8.0165 3.46267 8.16133 3.65517 8.264 3.8825C8.36667 4.10617 8.418 4.35733 8.418 4.636C8.418 4.91467 8.37767 5.15667 8.297 5.362C8.21633 5.56367 8.11367 5.73967 7.989 5.89C7.86433 6.04033 7.72867 6.17233 7.582 6.286C7.43533 6.396 7.296 6.5005 7.164 6.5995C7.03567 6.69483 6.92383 6.792 6.8285 6.891C6.73683 6.98633 6.68183 7.09267 6.6635 7.21L6.548 8.035H5.745L5.6625 7.1275C5.64417 6.95517 5.67167 6.80667 5.745 6.682C5.81833 6.55733 5.9155 6.44 6.0365 6.33C6.16117 6.22 6.29683 6.1155 6.4435 6.0165C6.59383 5.91383 6.73317 5.80017 6.8615 5.6755C6.98983 5.55083 7.098 5.4115 7.186 5.2575C7.274 5.1035 7.318 4.91833 7.318 4.702C7.318 4.559 7.2905 4.43067 7.2355 4.317C7.1805 4.19967 7.1035 4.10067 7.0045 4.02C6.9055 3.93933 6.79 3.877 6.658 3.833C6.526 3.789 6.383 3.767 6.229 3.767C6.01267 3.767 5.82933 3.79267 5.679 3.844C5.52867 3.89533 5.40033 3.95217 5.294 4.0145C5.18767 4.07317 5.09967 4.12817 5.03 4.1795C4.96033 4.22717 4.90167 4.251 4.854 4.251C4.74033 4.251 4.656 4.2015 4.601 4.1025L4.293 3.602ZM5.349 10.1305C5.349 10.0242 5.36733 9.92517 5.404 9.8335C5.44433 9.73817 5.4975 9.65567 5.5635 9.586C5.63317 9.51633 5.71383 9.46133 5.8055 9.421C5.90083 9.38067 6.00167 9.3605 6.108 9.3605C6.21433 9.3605 6.31333 9.38067 6.405 9.421C6.50033 9.46133 6.58283 9.51633 6.6525 9.586C6.72217 9.65567 6.77717 9.73817 6.8175 9.8335C6.85783 9.92517 6.878 10.0242 6.878 10.1305C6.878 10.2405 6.85783 10.3413 6.8175 10.433C6.77717 10.5247 6.72217 10.6053 6.6525 10.675C6.58283 10.7447 6.50033 10.7978 6.405 10.8345C6.31333 10.8748 6.21433 10.895 6.108 10.895C6.00167 10.895 5.90083 10.8748 5.8055 10.8345C5.71383 10.7978 5.63317 10.7447 5.5635 10.675C5.4975 10.6053 5.44433 10.5247 5.404 10.433C5.36733 10.3413 5.349 10.2405 5.349 10.1305Z" fill="white"/>
</svg>
