<?xml version="1.0" encoding="UTF-8"?>
<svg width="31px" height="31px" id="Layer_1" xmlns="http://www.w3.org/2000/svg" viewBox="0 0 31 31">
<defs>
    <style>.cls-1{fill:#00785a;}.cls-2{fill:#fff;}</style>
</defs>
    <g id="Layer_1-2">
    <g>
        <circle class="cls-1" cx="15.5" cy="15.5" r="15.16"/>
            <path style="fill:#FFFFFF;" d="M15.5,.68c8.18,0,14.82,6.63,14.82,14.82s-6.63,14.82-14.82,14.82S.68,23.68,.68,15.5,7.32,.68,15.5,.68M15.5,0C6.95,0,0,6.95,0,15.5s6.95,15.5,15.5,15.5,15.5-6.95,15.5-15.5S24.05,0,15.5,0h0Z"/>
        </g>
    </g>
    <path style="fill:#FFFFFF;" d="M12.95,13.13l-5.9,8.1c-.18,.24-.28,.54-.28,.87,0,.8,.65,1.46,1.46,1.46h14.56c.8,0,1.46-.65,1.46-1.46,0-.32-.11-.62-.28-.87l-5.9-8.1V7.9h.18c.5,0,.91-.41,.91-.91s-.41-.91-.91-.91h-5.46c-.5,0-.91,.41-.91,.91s.41,.91,.91,.91h.18v5.23h0Zm1.82-5.23h1.46v5.46l2.55,3.64h-6.55l2.55-3.64V7.9h0Z"/>
</svg>