
<svg width="17" height="18" viewBox="0 0 17 18" fill="none" xmlns="http://www.w3.org/2000/svg">
<g clip-path="url(#clip0_518_5142)">
<path d="M8.47632 0.615723C12.8329 0.615723 16.337 4.1199 16.337 8.47645C16.337 12.833 12.8329 16.3372 8.47632 16.3372C7.48189 16.3372 6.53482 16.1478 5.63509 15.8163L1.3259 17.0948L2.46239 13.5433C1.27855 12.1227 0.66295 10.3706 0.66295 8.5238C0.615596 4.1199 4.11977 0.615723 8.47632 0.615723ZM8.47632 1.42074C4.54596 1.42074 1.37326 4.59344 1.37326 8.5238C1.37326 10.418 2.03621 11.9806 3.26741 13.3539L2.46239 15.9583L5.68245 15.0113C6.62952 15.3901 7.48189 15.5795 8.47632 15.5795C12.4067 15.5795 15.5794 12.4068 15.5794 8.47645C15.5794 4.54608 12.4067 1.42074 8.47632 1.42074Z" fill="#2F567D"/>
<path d="M0.473547 17.8997L1.79945 13.6379C0.662962 12.1699 0.0473633 10.3705 0.0473633 8.52369C0.0473633 6.25071 0.947085 4.16714 2.50976 2.55711C4.11979 0.947085 6.25071 0.0473633 8.47633 0.0473633C10.7493 0.0473633 12.8329 0.899731 14.4429 2.50976C16.0529 4.11979 16.9053 6.20335 16.9053 8.47633C16.9053 10.7493 16.0529 12.8329 14.4429 14.4429C12.8329 16.0529 10.7493 16.9053 8.47633 16.9053C7.4819 16.9053 6.53483 16.7159 5.58775 16.3844L0.473547 17.8997ZM8.47633 1.94151C4.87745 1.94151 1.94151 4.87745 1.94151 8.47633C1.94151 10.1337 2.50976 11.5543 3.6936 12.9276L3.88302 13.1644L3.26742 15.0585L5.63511 14.3482L5.82452 14.4429C6.72424 14.8217 7.52926 14.9638 8.42898 14.9638C12.0279 14.9638 14.9638 12.0279 14.9638 8.42898C14.9638 6.67689 14.3008 5.06686 13.0696 3.78831C11.8858 2.65182 10.2284 1.94151 8.47633 1.94151Z" fill="#2F567D"/>
<path d="M8.47632 6.2508C9.04457 6.2508 9.51811 5.77726 9.51811 5.20902C9.51811 4.64077 9.04457 4.16724 8.47632 4.16724C7.90808 4.16724 7.43454 4.64077 7.43454 5.20902C7.43454 5.77726 7.90808 6.2508 8.47632 6.2508Z" fill="#2F567D"/>
<path d="M9.47074 6.91357H6.62952V8.28683H7.52924V11.5542H6.62952V12.9275H10.3231V11.5542H9.47074V6.91357Z" fill="#2F567D"/>
</g>
<defs>
<clipPath id="clip0_518_5142">
<rect width="17" height="17.9471" fill="white"/>
</clipPath>
</defs>
</svg>
