<?xml version="1.0" encoding="utf-8"?>
<!-- Generator: Adobe Illustrator 24.0.0, SVG Export Plug-In . SVG Version: 6.00 Build 0)  -->
<svg version="1.1" id="Layer_1" xmlns="http://www.w3.org/2000/svg" xmlns:xlink="http://www.w3.org/1999/xlink" x="0px" y="0px"
	 viewBox="0 0 500 231.3" style="enable-background:new 0 0 500 231.3;" xml:space="preserve">
<style type="text/css">
	.st0{fill-rule:evenodd;clip-rule:evenodd;fill:#010101;}
	.st1{fill-rule:evenodd;clip-rule:evenodd;fill:#FFFFFF;}
</style>
<g transform="translate(0,-952.36218)">
	<path class="st0" d="M140.5,959.9c-59.4,0-108.1,48.7-108.1,108.1c0,59.5,48.7,108.1,108.1,108.1h220.6
		c59.5,0,108.1-48.7,108.1-108.1c0-59.5-48.7-108.1-108.1-108.1C361.2,959.9,140.5,959.9,140.5,959.9z M363.3,998.7
		c38.2,0,69.5,31.1,69.5,69.4c0,38.2-31.3,69.5-69.5,69.5c-38.2,0-69.4-31.3-69.4-69.5C294,1029.8,325.1,998.7,363.3,998.7z"/>
</g>
<path class="st1" d="M362.7,45.7c38.2,0,69.5,31.1,69.5,69.4c0,38.2-31.3,69.5-69.5,69.5c-38.2,0-69.4-31.3-69.4-69.5
	C293.3,76.8,324.4,45.7,362.7,45.7z"/>
</svg>
