<?xml version="1.0" encoding="utf-8"?>
<!-- Generator: Adobe Illustrator 24.0.0, SVG Export Plug-In . SVG Version: 6.00 Build 0)  -->
<svg version="1.1" id="Layer_1" xmlns="http://www.w3.org/2000/svg" xmlns:xlink="http://www.w3.org/1999/xlink" x="0px" y="0px"
	 viewBox="0 0 500 500" style="enable-background:new 0 0 500 500;" xml:space="preserve">
<style type="text/css">
	.st0{fill:#FFFFFF;}
	.st1{fill:#39C0F0;}
	.st2{fill:#231F20;}
	.st3{stroke:#000000;stroke-width:0.5;stroke-miterlimit:10;}
</style>
<g>
	<polygon class="st0" points="174.3,88.8 123.2,88.8 123.2,430.2 374.4,430.2 374.4,91.6 321.9,91.6 325.4,111.9 173.6,111.9 
		181.3,85.3 	"/>
	<g>
		<path class="st1" d="M333.1,270.7H163.8c-4.2,0-7,2.8-7,7s2.8,7,7,7h169.3c4.2,0,7-2.8,7-7S337.3,270.7,333.1,270.7z"/>
		<path class="st1" d="M156.8,165.8c0,4.2,2.8,7,7,7h169.3c4.2,0,7-2.8,7-7s-2.8-7-7-7H163.8C159.6,158.8,156.8,161.6,156.8,165.8z"
			/>
		<path class="st1" d="M333.1,326.6H245c-4.2,0-7,2.8-7,7s2.8,7,7,7h88.1c4.2,0,7-2.8,7-7S337.3,326.6,333.1,326.6z"/>
		<path class="st1" d="M333.1,214.7H245c-4.2,0-7,2.8-7,7c0,4.2,2.8,7,7,7h88.1c4.2,0,7-2.8,7-7
			C340.1,217.5,337.3,214.7,333.1,214.7z"/>
		<path class="st1" d="M333.1,382.6H163.8c-4.2,0-7,2.8-7,7c0,4.2,2.8,7,7,7h169.3c4.2,0,7-2.8,7-7
			C340.1,385.4,337.3,382.6,333.1,382.6z"/>
		<path class="st2" d="M175.7,244.8c1.4,1.4,3.5,2.1,4.9,2.1c1.4,0,3.5-0.7,4.9-2.1l36.4-36.4c2.8-2.8,2.8-7,0-9.8
			c-2.8-2.8-7-2.8-9.8,0l-31.5,31.5l-11.9-11.9c-2.8-2.8-7-2.8-9.8,0c-2.8,2.8-2.8,7,0,9.8L175.7,244.8z"/>
		<path class="st2" d="M175.7,356.7c1.4,1.4,3.5,2.1,4.9,2.1c1.4,0,3.5-0.7,4.9-2.1l36.4-36.4c2.8-2.8,2.8-7,0-9.8
			c-2.8-2.8-7-2.8-9.8,0L180.6,342l-11.9-11.9c-2.8-2.8-7-2.8-9.8,0c-2.8,2.8-2.8,7,0,9.8L175.7,356.7z"/>
	</g>
	<path class="st3" d="M387.7,48.9h-72l-4.2-15.4c-0.7-2.8-3.5-4.9-7-4.9H193.9c-2.8,0-5.6,2.1-7,4.9l-4.2,15.4h-72
		c-14.7,0-26.6,11.9-26.6,26.6v367.2c0,14.7,11.9,26.6,26.6,26.6h277.7c14.7,0,26.6-11.9,26.6-26.6V75.5
		C414.9,60.8,402.3,48.9,387.7,48.9z M166.6,118.2c1.4,1.4,3.5,2.8,5.6,2.8h153.9c2.1,0,4.2-0.7,5.6-2.8c1.4-1.4,1.4-4.2,1.4-6.3
		l-4.9-16.8h39.9v327.4H130.2V95.8h39.2l-4.2,16.8C164.5,114.7,165.2,116.8,166.6,118.2z M199.5,42.6h100l18.2,65.1H181.3
		L199.5,42.6z M400.9,442.8c0,7-5.6,12.6-12.6,12.6H110.6c-7,0-12.6-5.6-12.6-12.6V75.5c0-7,5.6-12.6,12.6-12.6h68.6l-5.6,18.9
		h-50.4c-4.2,0-7,2.8-7,7v341.4c0,4.2,2.8,7,7,7h251.8c4.2,0,7-2.8,7-7V88.8c0-4.2-2.8-7-7-7h-50.4l-5.6-18.9h68.6
		c7,0,12.6,5.6,12.6,12.6C400.9,75.5,400.9,442.8,400.9,442.8z"/>
</g>
</svg>
