<?xml version="1.0" encoding="utf-8"?>
<!-- Generator: Adobe Illustrator 24.1.2, SVG Export Plug-In . SVG Version: 6.00 Build 0)  -->
<svg version="1.1" id="Layer_1" xmlns="http://www.w3.org/2000/svg" xmlns:xlink="http://www.w3.org/1999/xlink" x="0px" y="0px"
	 viewBox="0 0 34 34" style="enable-background:new 0 0 34 34;" xml:space="preserve">
<style type="text/css">
	.st0{fill:#FFFFFF;}
	.st1{clip-path:url(#SVGID_2_);fill:#31B885;}
	.st2{fill-rule:evenodd;clip-rule:evenodd;fill:#FFFFFF;}
</style>
<g>
	<g>
		<circle class="st0" cx="17" cy="17" r="16.9"/>
	</g>
	<g>
		<g>
			<defs>
				<circle id="SVGID_1_" cx="17" cy="17" r="15.5"/>
			</defs>
			<use xlink:href="#SVGID_1_"  style="overflow:visible;fill:#31B885;"/>
			<clipPath id="SVGID_2_">
				<use xlink:href="#SVGID_1_"  style="overflow:visible;"/>
			</clipPath>
			<polygon class="st1" points="2.9,25.5 12.9,33.6 4.8,35.2 			"/>
			<polygon class="st1" points="2.8,25.3 13.1,33.5 12.9,33.6 2.9,25.5 			"/>
			<polygon class="st1" points="2.8,25.1 13.3,33.5 13.1,33.5 2.8,25.3 			"/>
			<polygon class="st1" points="2.8,24.8 13.5,33.4 13.3,33.5 2.8,25.1 			"/>
			<polygon class="st1" points="2.7,24.6 13.7,33.4 13.5,33.4 2.8,24.8 			"/>
			<polygon class="st1" points="2.7,24.3 13.9,33.4 13.7,33.4 2.7,24.6 			"/>
			<polygon class="st1" points="2.6,24.1 14.1,33.3 13.9,33.4 2.7,24.3 			"/>
			<polygon class="st1" points="2.6,23.9 14.3,33.3 14.1,33.3 2.6,24.1 			"/>
			<polygon class="st1" points="2.5,23.6 14.5,33.2 14.3,33.3 2.6,23.9 			"/>
			<polygon class="st1" points="2.5,23.4 14.7,33.2 14.5,33.2 2.5,23.6 			"/>
			<polygon class="st1" points="2.4,23.1 14.9,33.2 14.7,33.2 2.5,23.4 			"/>
			<polygon class="st1" points="2.4,22.9 15.1,33.1 14.9,33.2 2.4,23.1 			"/>
			<polygon class="st1" points="2.3,22.6 15.3,33.1 15.1,33.1 2.4,22.9 			"/>
			<polygon class="st1" points="2.3,22.4 15.6,33 15.3,33.1 2.3,22.6 			"/>
			<polygon class="st1" points="2.2,22.2 15.8,33 15.6,33 2.3,22.4 			"/>
			<polygon class="st1" points="2.2,21.9 16,33 15.8,33 2.2,22.2 			"/>
			<polygon class="st1" points="2.1,21.7 16.2,32.9 16,33 2.2,21.9 			"/>
			<polygon class="st1" points="2.1,21.4 16.4,32.9 16.2,32.9 2.1,21.7 			"/>
			<polygon class="st1" points="2,21.2 16.6,32.8 16.4,32.9 2.1,21.4 			"/>
			<polygon class="st1" points="2,21 16.8,32.8 16.6,32.8 2,21.2 			"/>
			<polygon class="st1" points="1.9,20.7 17,32.8 16.8,32.8 2,21 			"/>
			<polygon class="st1" points="1.9,20.5 17.2,32.7 17,32.8 1.9,20.7 			"/>
			<polygon class="st1" points="1.8,20.2 17.4,32.7 17.2,32.7 1.9,20.5 			"/>
			<polygon class="st1" points="1.8,20 17.6,32.6 17.4,32.7 1.8,20.2 			"/>
			<polygon class="st1" points="1.7,19.8 17.8,32.6 17.6,32.6 1.8,20 			"/>
			<polygon class="st1" points="1.7,19.5 18,32.6 17.8,32.6 1.7,19.8 			"/>
			<polygon class="st1" points="1.6,19.3 18.2,32.5 18,32.6 1.7,19.5 			"/>
			<polygon class="st1" points="1.6,19 18.4,32.5 18.2,32.5 1.6,19.3 			"/>
			<polygon class="st1" points="1.5,18.8 18.6,32.4 18.4,32.5 1.6,19 			"/>
			<polygon class="st1" points="1.5,18.5 18.8,32.4 18.6,32.4 1.5,18.8 			"/>
			<polygon class="st1" points="1.5,18.3 19,32.4 18.8,32.4 1.5,18.5 			"/>
			<polygon class="st1" points="1.4,18.1 19.2,32.3 19,32.4 1.5,18.3 			"/>
			<polygon class="st1" points="1.4,17.8 19.4,32.3 19.2,32.3 1.4,18.1 			"/>
			<polygon class="st1" points="1.3,17.6 19.6,32.2 19.4,32.3 1.4,17.8 			"/>
			<polygon class="st1" points="1.3,17.3 19.8,32.2 19.6,32.2 1.3,17.6 			"/>
			<polygon class="st1" points="1.2,17.1 20,32.2 19.8,32.2 1.3,17.3 			"/>
			<polygon class="st1" points="1.2,16.9 20.2,32.1 20,32.2 1.2,17.1 			"/>
			<polygon class="st1" points="1.1,16.6 20.4,32.1 20.2,32.1 1.2,16.9 			"/>
			<polygon class="st1" points="1.1,16.4 20.6,32 20.4,32.1 1.1,16.6 			"/>
			<polygon class="st1" points="1,16.1 20.8,32 20.6,32 1.1,16.4 			"/>
			<polygon class="st1" points="1,15.9 21,32 20.8,32 1,16.1 			"/>
			<polygon class="st1" points="0.9,15.7 21.2,31.9 21,32 1,15.9 			"/>
			<polygon class="st1" points="0.9,15.4 21.4,31.9 21.2,31.9 0.9,15.7 			"/>
			<polygon class="st1" points="0.8,15.2 21.6,31.8 21.4,31.9 0.9,15.4 			"/>
			<polygon class="st1" points="0.8,14.9 21.8,31.8 21.6,31.8 0.8,15.2 			"/>
			<polygon class="st1" points="0.7,14.7 22,31.7 21.8,31.8 0.8,14.9 			"/>
			<polygon class="st1" points="0.7,14.4 22.2,31.7 22,31.7 0.7,14.7 			"/>
			<polygon class="st1" points="0.6,14.2 22.4,31.7 22.2,31.7 0.7,14.4 			"/>
			<polygon class="st1" points="0.6,14 22.6,31.6 22.4,31.7 0.6,14.2 			"/>
			<polygon class="st1" points="0.5,13.7 22.8,31.6 22.6,31.6 0.6,14 			"/>
			<polygon class="st1" points="0.5,13.5 23,31.5 22.8,31.6 0.5,13.7 			"/>
			<polygon class="st1" points="0.4,13.2 23.2,31.5 23,31.5 0.5,13.5 			"/>
			<polygon class="st1" points="0.4,13 23.4,31.5 23.2,31.5 0.4,13.2 			"/>
			<polygon class="st1" points="0.3,12.8 23.6,31.4 23.4,31.5 0.4,13 			"/>
			<polygon class="st1" points="0.3,12.5 23.8,31.4 23.6,31.4 0.3,12.8 			"/>
			<polygon class="st1" points="0.2,12.3 24.1,31.3 23.8,31.4 0.3,12.5 			"/>
			<polygon class="st1" points="0.2,12 24.3,31.3 24.1,31.3 0.2,12.3 			"/>
			<polygon class="st1" points="0.1,11.8 24.5,31.3 24.3,31.3 0.2,12 			"/>
			<polygon class="st1" points="0.1,11.6 24.7,31.2 24.5,31.3 0.1,11.8 			"/>
			<polygon class="st1" points="0.1,11.3 24.9,31.2 24.7,31.2 0.1,11.6 			"/>
			<polygon class="st1" points="0,11.1 25.1,31.1 24.9,31.2 0.1,11.3 			"/>
			<polygon class="st1" points="0,10.8 25.3,31.1 25.1,31.1 0,11.1 			"/>
			<polygon class="st1" points="-0.1,10.6 25.5,31.1 25.3,31.1 0,10.8 			"/>
			<polygon class="st1" points="-0.1,10.3 25.7,31 25.5,31.1 -0.1,10.6 			"/>
			<polygon class="st1" points="-0.2,10.1 25.9,31 25.7,31 -0.1,10.3 			"/>
			<polygon class="st1" points="-0.2,9.9 26.1,30.9 25.9,31 -0.2,10.1 			"/>
			<polygon class="st1" points="-0.3,9.6 26.3,30.9 26.1,30.9 -0.2,9.9 			"/>
			<polygon class="st1" points="-0.3,9.4 26.5,30.9 26.3,30.9 -0.3,9.6 			"/>
			<polygon class="st1" points="-0.4,9.1 26.7,30.8 26.5,30.9 -0.3,9.4 			"/>
			<polygon class="st1" points="-0.4,8.9 26.9,30.8 26.7,30.8 -0.4,9.1 			"/>
			<polygon class="st1" points="-0.5,8.7 27.1,30.7 26.9,30.8 -0.4,8.9 			"/>
			<polygon class="st1" points="-0.5,8.4 27.3,30.7 27.1,30.7 -0.5,8.7 			"/>
			<polygon class="st1" points="-0.6,8.2 27.5,30.7 27.3,30.7 -0.5,8.4 			"/>
			<polygon class="st1" points="-0.6,7.9 27.7,30.6 27.5,30.7 -0.6,8.2 			"/>
			<polygon class="st1" points="-0.7,7.7 27.9,30.6 27.7,30.6 -0.6,7.9 			"/>
			<polygon class="st1" points="-0.7,7.5 28.1,30.5 27.9,30.6 -0.7,7.7 			"/>
			<polygon class="st1" points="-0.8,7.3 -0.7,7.2 28.3,30.5 28.1,30.5 -0.7,7.5 			"/>
			<polygon class="st1" points="-0.7,7.2 -0.6,7.1 28.5,30.5 28.3,30.5 			"/>
			<polygon class="st1" points="-0.6,7.1 -0.5,7 28.7,30.4 28.5,30.5 			"/>
			<polygon class="st1" points="-0.5,7 -0.4,6.9 28.9,30.4 28.7,30.4 			"/>
			<polygon class="st1" points="-0.4,6.9 -0.3,6.8 29.1,30.3 28.9,30.4 			"/>
			<polygon class="st1" points="-0.3,6.8 -0.2,6.6 29.3,30.3 29.1,30.3 			"/>
			<polygon class="st1" points="-0.2,6.6 -0.1,6.5 29.5,30.3 29.3,30.3 			"/>
			<polygon class="st1" points="-0.1,6.5 0,6.4 29.7,30.2 29.5,30.3 			"/>
			<polygon class="st1" points="0,6.4 0.1,6.3 29.9,30.2 29.7,30.2 			"/>
			<polygon class="st1" points="0.1,6.3 0.2,6.1 30.1,30.1 29.9,30.2 			"/>
			<polygon class="st1" points="0.2,6.1 0.3,6 30.3,30.1 30.1,30.1 			"/>
			<polygon class="st1" points="0.3,6 0.4,5.9 30.5,30 30.3,30.1 			"/>
			<polygon class="st1" points="0.4,5.9 0.5,5.8 30.7,30 30.5,30 			"/>
			<polygon class="st1" points="0.5,5.8 0.6,5.6 30.9,30 30.7,30 			"/>
			<polygon class="st1" points="0.6,5.6 0.7,5.5 31.1,29.9 30.9,30 			"/>
			<polygon class="st1" points="0.7,5.5 0.8,5.4 31.3,29.9 31.1,29.9 			"/>
			<polygon class="st1" points="0.8,5.4 0.9,5.3 31.5,29.8 31.3,29.9 			"/>
			<polygon class="st1" points="0.9,5.3 1,5.1 31.7,29.8 31.5,29.8 			"/>
			<polygon class="st1" points="1,5.1 1.1,5 31.9,29.8 31.7,29.8 			"/>
			<polygon class="st1" points="1.1,5 1.2,4.9 32.1,29.7 31.9,29.8 			"/>
			<polygon class="st1" points="1.2,4.9 1.2,4.8 32.3,29.7 32.3,29.7 32.1,29.7 			"/>
			
				<rect x="16.7" y="-2.7" transform="matrix(0.6251 -0.7805 0.7805 0.6251 -7.0805 19.5659)" class="st1" width="0.2" height="39.8"/>
			
				<rect x="16.8" y="-2.9" transform="matrix(0.6251 -0.7805 0.7805 0.6251 -6.9472 19.5968)" class="st1" width="0.2" height="39.8"/>
			
				<rect x="16.9" y="-3" transform="matrix(0.6251 -0.7805 0.7805 0.6251 -6.8138 19.6277)" class="st1" width="0.2" height="39.8"/>
			
				<rect x="17" y="-3.1" transform="matrix(0.6251 -0.7805 0.7805 0.6251 -6.6804 19.6586)" class="st1" width="0.2" height="39.8"/>
			<polygon class="st1" points="1.6,4.3 1.7,4.3 1.8,4.2 32.8,29 32.7,29.2 			"/>
			<polygon class="st1" points="2,4.2 32.9,28.9 32.8,29 1.8,4.2 			"/>
			<polygon class="st1" points="2.2,4.2 33,28.8 32.9,28.9 2,4.2 			"/>
			<polygon class="st1" points="2.4,4.1 33.1,28.7 33,28.8 2.2,4.2 			"/>
			<polygon class="st1" points="2.6,4.1 33.2,28.5 33.1,28.7 2.4,4.1 			"/>
			<polygon class="st1" points="2.9,4 33.3,28.4 33.2,28.5 2.6,4.1 			"/>
			<polygon class="st1" points="3.1,4 33.4,28.3 33.3,28.4 2.9,4 			"/>
			<polygon class="st1" points="3.3,4 33.5,28.2 33.4,28.3 3.1,4 			"/>
			<polygon class="st1" points="3.5,3.9 33.6,28 33.5,28.2 3.3,4 			"/>
			<polygon class="st1" points="3.7,3.9 33.7,27.9 33.6,28 3.5,3.9 			"/>
			<polygon class="st1" points="3.9,3.8 33.8,27.8 33.7,27.9 3.7,3.9 			"/>
			<polygon class="st1" points="4.1,3.8 33.9,27.7 33.8,27.8 3.9,3.8 			"/>
			<polygon class="st1" points="4.3,3.8 34,27.6 33.9,27.7 4.1,3.8 			"/>
			<polygon class="st1" points="4.5,3.7 34.1,27.4 34,27.6 4.3,3.8 			"/>
			<polygon class="st1" points="4.7,3.7 34.2,27.3 34.1,27.4 4.5,3.7 			"/>
			<polygon class="st1" points="4.9,3.6 34.3,27.2 34.2,27.3 4.7,3.7 			"/>
			<polygon class="st1" points="5.1,3.6 34.4,27.1 34.3,27.2 4.9,3.6 			"/>
			<polygon class="st1" points="5.3,3.6 34.5,26.9 34.4,27.1 5.1,3.6 			"/>
			<polygon class="st1" points="5.5,3.5 34.6,26.8 34.5,26.9 5.3,3.6 			"/>
			<polygon class="st1" points="5.7,3.5 34.7,26.7 34.7,26.7 34.6,26.8 5.5,3.5 			"/>
			<polygon class="st1" points="5.9,3.4 34.6,26.4 34.7,26.7 5.7,3.5 			"/>
			<polygon class="st1" points="6.1,3.4 34.6,26.2 34.6,26.4 5.9,3.4 			"/>
			<polygon class="st1" points="6.3,3.3 34.5,26 34.6,26.2 6.1,3.4 			"/>
			<polygon class="st1" points="6.5,3.3 34.5,25.7 34.5,26 6.3,3.3 			"/>
			<polygon class="st1" points="6.7,3.3 34.4,25.5 34.5,25.7 6.5,3.3 			"/>
			<polygon class="st1" points="6.9,3.2 34.4,25.2 34.4,25.5 6.7,3.3 			"/>
			<polygon class="st1" points="7.1,3.2 34.3,25 34.4,25.2 6.9,3.2 			"/>
			<polygon class="st1" points="7.3,3.1 34.3,24.8 34.3,25 7.1,3.2 			"/>
			<polygon class="st1" points="7.5,3.1 34.2,24.5 34.3,24.8 7.3,3.1 			"/>
			<polygon class="st1" points="7.7,3.1 34.2,24.3 34.2,24.5 7.5,3.1 			"/>
			<polygon class="st1" points="8,3 34.1,24 34.2,24.3 7.7,3.1 			"/>
			<polygon class="st1" points="8.2,3 34.1,23.7 34.1,24 8,3 			"/>
			<polygon class="st1" points="8.4,2.9 34,23.4 34.1,23.7 8.2,3 			"/>
			<polygon class="st1" points="8.7,2.9 34,23.1 34,23.4 8.4,2.9 			"/>
			<polygon class="st1" points="8.9,2.8 33.9,22.8 34,23.1 8.7,2.9 			"/>
			<polygon class="st1" points="9.2,2.8 33.8,22.5 33.9,22.8 8.9,2.8 			"/>
			<polygon class="st1" points="9.4,2.7 33.8,22.2 33.8,22.5 9.2,2.8 			"/>
			<polygon class="st1" points="9.7,2.7 33.7,21.9 33.8,22.2 9.4,2.7 			"/>
			<polygon class="st1" points="9.9,2.6 33.7,21.6 33.7,21.9 9.7,2.7 			"/>
			<polygon class="st1" points="10.2,2.6 33.6,21.3 33.7,21.6 9.9,2.6 			"/>
			<polygon class="st1" points="10.4,2.5 33.5,21 33.6,21.3 10.2,2.6 			"/>
			<polygon class="st1" points="10.7,2.5 33.5,20.8 33.5,21 10.4,2.5 			"/>
			<polygon class="st1" points="10.9,2.4 33.4,20.5 33.5,20.8 10.7,2.5 			"/>
			<polygon class="st1" points="11.2,2.4 33.4,20.2 33.4,20.5 10.9,2.4 			"/>
			<polygon class="st1" points="11.4,2.3 33.3,19.9 33.4,20.2 11.2,2.4 			"/>
			<polygon class="st1" points="11.6,2.3 33.3,19.6 33.3,19.9 11.4,2.3 			"/>
			<polygon class="st1" points="11.9,2.2 33.2,19.3 33.3,19.6 11.6,2.3 			"/>
			<polygon class="st1" points="12.1,2.2 33.1,19 33.2,19.3 11.9,2.2 			"/>
			<polygon class="st1" points="12.4,2.1 33.1,18.7 33.1,19 12.1,2.2 			"/>
			<polygon class="st1" points="12.6,2.1 33,18.4 33.1,18.7 12.4,2.1 			"/>
			<polygon class="st1" points="12.9,2 33,18.1 33,18.4 12.6,2.1 			"/>
			<polygon class="st1" points="13.1,2 32.9,17.8 33,18.1 12.9,2 			"/>
			<polygon class="st1" points="13.4,1.9 32.8,17.5 32.9,17.8 13.1,2 			"/>
			<polygon class="st1" points="13.6,1.9 32.8,17.2 32.8,17.5 13.4,1.9 			"/>
			<polygon class="st1" points="13.9,1.8 32.7,16.9 32.8,17.2 13.6,1.9 			"/>
			<polygon class="st1" points="14.1,1.8 32.7,16.6 32.7,16.9 13.9,1.8 			"/>
			<polygon class="st1" points="14.4,1.7 32.6,16.4 32.7,16.6 14.1,1.8 			"/>
			<polygon class="st1" points="14.6,1.7 32.5,16.1 32.6,16.4 14.4,1.7 			"/>
			<polygon class="st1" points="14.8,1.6 32.5,15.8 32.5,16.1 14.6,1.7 			"/>
			<polygon class="st1" points="15.1,1.6 32.4,15.5 32.5,15.8 14.8,1.6 			"/>
			<polygon class="st1" points="15.3,1.5 32.4,15.2 32.4,15.5 15.1,1.6 			"/>
			<polygon class="st1" points="15.6,1.5 32.3,14.9 32.4,15.2 15.3,1.5 			"/>
			<polygon class="st1" points="15.8,1.4 32.3,14.6 32.3,14.9 15.6,1.5 			"/>
			<polygon class="st1" points="16.1,1.4 32.2,14.3 32.3,14.6 15.8,1.4 			"/>
			<polygon class="st1" points="16.3,1.3 32.1,14 32.2,14.3 16.1,1.4 			"/>
			<polygon class="st1" points="16.6,1.3 32.1,13.7 32.1,14 16.3,1.3 			"/>
			<polygon class="st1" points="16.8,1.2 32,13.4 32.1,13.7 16.6,1.3 			"/>
			<polygon class="st1" points="17.1,1.2 32,13.1 32,13.4 16.8,1.2 			"/>
			<polygon class="st1" points="17.3,1.1 31.9,12.8 32,13.1 17.1,1.2 			"/>
			<polygon class="st1" points="17.6,1.1 31.8,12.5 31.9,12.8 17.3,1.1 			"/>
			<polygon class="st1" points="17.8,1 31.8,12.2 31.8,12.5 17.6,1.1 			"/>
			<polygon class="st1" points="18,1 31.7,12 31.8,12.2 17.8,1 			"/>
			<polygon class="st1" points="18.3,0.9 31.7,11.7 31.7,12 18,1 			"/>
			<polygon class="st1" points="18.5,0.9 31.6,11.4 31.7,11.7 18.3,0.9 			"/>
			<polygon class="st1" points="18.8,0.9 31.6,11.1 31.6,11.4 18.5,0.9 			"/>
			<polygon class="st1" points="19,0.8 31.5,10.8 31.6,11.1 18.8,0.9 			"/>
			<polygon class="st1" points="19.3,0.8 31.4,10.5 31.5,10.8 19,0.8 			"/>
			<polygon class="st1" points="19.5,0.7 31.4,10.2 31.4,10.5 19.3,0.8 			"/>
			<polygon class="st1" points="19.8,0.7 31.3,9.9 31.4,10.2 19.5,0.7 			"/>
			<polygon class="st1" points="20,0.6 31.3,9.6 31.3,9.9 19.8,0.7 			"/>
			<polygon class="st1" points="20.3,0.6 31.2,9.3 31.3,9.6 20,0.6 			"/>
			<polygon class="st1" points="20.5,0.5 31.1,9 31.2,9.3 20.3,0.6 			"/>
			<polygon class="st1" points="20.8,0.5 31.1,8.7 31.1,9 20.5,0.5 			"/>
			<polygon class="st1" points="21,0.4 31,8.4 31.1,8.7 20.8,0.5 			"/>
			<polygon class="st1" points="31,8.4 21,0.4 29.1,-1.2 			"/>
		</g>
	</g>
	<g>
		<path class="st2" d="M13.6,23.2c0.8,0,1.4,0.6,1.4,1.4c0,0.7-0.6,1.4-1.4,1.4c-0.7,0-1.4-0.6-1.4-1.4
			C12.2,23.8,12.8,23.2,13.6,23.2z"/>
		<path class="st2" d="M8.7,7.9L11,8.5c0.2,0.1,0.4,0.2,0.4,0.5l0.3,1.8l13.7,1.6c0.3,0.1,0.5,0.4,0.5,0.7l-1.7,6.7l-0.6,2.2
			c-0.1,0.3-0.3,0.4-0.5,0.4H11.4c-0.7,0-0.7-1.1,0-1.1h11.2l0.3-1.1H12.5c-0.3,0-0.5-0.2-0.6-0.5L10.3,9.5L8.5,9
			C7.7,8.9,8,7.8,8.7,7.9z M23.1,19.1l1.4-5.6l-1.7-0.2L22,19.1H23.1z M20.9,19.1l0.8-6L20,12.8l-0.3,6.2H20.9z M17.4,19.1h1.1
			l0.3-6.3l-1.7-0.2L17.4,19.1z M15.2,19.1h1.1L16,12.4l-1.7-0.2L15.2,19.1z M13,19.1H14l-0.8-7L12,11.9L13,19.1z"/>
		<path class="st2" d="M20.8,23.2c0.8,0,1.4,0.6,1.4,1.4c0,0.7-0.6,1.4-1.4,1.4c-0.7,0-1.4-0.6-1.4-1.4
			C19.4,23.8,20.1,23.2,20.8,23.2z"/>
	</g>
</g>
</svg>
