<?xml version="1.0" encoding="utf-8"?>
<!-- Generator: Adobe Illustrator 24.0.0, SVG Export Plug-In . SVG Version: 6.00 Build 0)  -->
<svg version="1.1" id="Layer_1" xmlns="http://www.w3.org/2000/svg" xmlns:xlink="http://www.w3.org/1999/xlink" x="0px" y="0px"
	 viewBox="0 0 500 533.2" style="enable-background:new 0 0 500 533.2;" xml:space="preserve">
<style type="text/css">
	.st0{fill:#2EA048;}
</style>
<path class="st0" d="M407.2,194.3c-6.9,0-13.9,1.2-20.2,4c-5.8-22.5-26-39.3-50.9-39.3c-6.9,0-13.9,1.2-20.2,4
	c-5.8-22.5-26-39.3-50.9-39.3c-6.4,0-12.7,1.2-18.5,3.5V87.3c0-28.9-23.7-52-52-52c-28.9,0-52,23.7-52,52v196L124,264.8
	c-20.2-20.2-53.8-20.2-74,0c-9.8,9.8-15,23.1-15,37s5.2,27.2,15,37l123.1,123.1c31.8,32.4,74,50.3,119.7,50.3
	c87.3,0,160.1-67.6,167.1-154.4c0.6-1.2,0.6-2.9,0.6-4V247.5C459.3,217.4,436.1,194.3,407.2,194.3z M425.2,351.5
	c-4,70.5-62.4,126-133.5,126c-36.4,0-70-14.5-95.4-39.9l0,0L73.1,314.5c-3.5-3.5-5.2-8.1-5.2-13.3s1.7-9.8,5.2-13.3
	c3.5-3.5,8.1-5.2,13.3-5.2c4.6,0,9.2,1.7,13.3,5.2l47.4,47.4c4.6,4.6,12.1,6.4,18.5,3.5s10.4-8.7,10.4-15.6V86.7
	c0-10.4,8.1-18.5,18.5-18.5S213,76.3,213,86.7v88.5v71.1c0,9.3,7.5,16.8,16.8,16.8c9.2,0,16.8-7.5,16.8-16.8v-71.1
	c0-10.4,8.1-18.5,18.5-18.5c10.4,0,18.5,8.1,18.5,18.5v35.3v35.3c0,9.3,7.5,16.8,16.8,16.8c9.2,0,16.8-7.5,16.8-16.8v-35.3
	c0-10.4,8.1-18.5,18.5-18.5s18.5,8.1,18.5,18.5v35.3v17.9c0,9.3,7.5,16.8,16.8,16.8c9.2,0,16.8-7.5,16.8-16.8v-17.9
	c0-10.4,8.1-18.5,18.5-18.5s18.5,8.1,18.5,18.5v103.4l0,0C425.7,350.4,425.7,351,425.2,351.5z"/>
</svg>
