<?xml version="1.0" encoding="utf-8"?>
<!-- Generator: Adobe Illustrator 24.0.0, SVG Export Plug-In . SVG Version: 6.00 Build 0)  -->
<svg version="1.1" id="Layer_1" xmlns="http://www.w3.org/2000/svg" xmlns:xlink="http://www.w3.org/1999/xlink" x="0px" y="0px"
	 viewBox="0 0 617.8 654.3" style="enable-background:new 0 0 617.8 654.3;" xml:space="preserve">
<style type="text/css">
	.st0{fill:#0596CA;}
</style>
<g>
	<g>
		
			<rect x="478" y="319" transform="matrix(0.908 -0.4191 0.4191 0.908 -111.9398 241.5295)" class="st0" width="31.6" height="113.1"/>
	</g>
	<g>
		
			<rect x="72.9" y="360.7" transform="matrix(0.4189 -0.908 0.908 0.4189 -266.6708 336.2974)" class="st0" width="113.1" height="31.6"/>
	</g>
	<g>
		<path class="st0" d="M502.1,576.9H120.2c-16.6,0-30-14.2-30-31.6V418.7h158.1v15.8c0,13.4,10.3,23.7,23.7,23.7h87
			c13.4,0,23.7-10.3,23.7-23.7v-15.8h150.2v126.5C532.9,562.6,518.7,576.9,502.1,576.9z M121.8,545.2h379.5v-94.9H412
			c-7.1,22.9-27.7,39.5-53,39.5h-87c-25.3,0-45.9-16.6-53-39.5h-97.2V545.2z"/>
	</g>
	<g>
		<polygon class="st0" points="438,134.1 406.4,134.1 406.4,118.3 216.7,118.3 216.7,134.1 185,134.1 185,86.7 438,86.7 		"/>
	</g>
	<g>
		<polygon class="st0" points="461.8,197.4 430.1,197.4 430.1,181.6 193,181.6 193,197.4 161.3,197.4 161.3,149.9 461.8,149.9 		"/>
	</g>
	<g>
		<polygon class="st0" points="477.6,434.5 445.9,434.5 445.9,244.8 177.1,244.8 177.1,434.5 145.5,434.5 145.5,213.2 477.6,213.2 
					"/>
	</g>
</g>
</svg>
