<?xml version="1.0" encoding="utf-8"?>
<!-- Generator: Adobe Illustrator 24.0.0, SVG Export Plug-In . SVG Version: 6.00 Build 0)  -->
<svg version="1.1" id="Layer_1" xmlns="http://www.w3.org/2000/svg" xmlns:xlink="http://www.w3.org/1999/xlink" x="0px" y="0px"
	 viewBox="0 0 500 500" style="enable-background:new 0 0 500 500;" xml:space="preserve">
<style type="text/css">
	.st0{fill:#0596CA;}
</style>
<g>
	<path class="st0" d="M427.4,46.4h-46c-4,0-4,4-4,4v112.9c0,0,0,8.1-8.1,8.1H134.7c0,0-8.1,0-8.1-8.1V79.5c0,0,0-8.1,8.1-8.1h8.1
		c8.1,0,8.1,8.1,8.1,8.1v62.9c0,0,0,4,4,4h192.7c4,0,4-4,4-4v-92c0,0,0-4-4-4H121.9c-25,0-29,8.1-29,8.1L59,88.4c0,0-8.1,4-8.1,25
		v310.4c0,12.9,12.9,25,25,25h351.5c12.9,0,25-12.9,25-25V72.2C452.4,59.3,439.5,46.4,427.4,46.4L427.4,46.4z M402.4,415.7
		c0,8.1-8.1,8.1-8.1,8.1H109.7c0,0-8.1,0-8.1-8.1V280.2c0-6.5,3.2-10.5,3.2-10.5l16.9-16.9c0,0,4.8-4.8,12.1-4.8h235.4
		c8.1,0,12.9,4,12.9,4l16.9,16.9c0,0,4,3.2,4,12.9L402.4,415.7L402.4,415.7z M372.6,373.7H129.9c-4.8,0-8.1,4-8.1,8.1v8.1
		c0,4.8,4,8.1,8.1,8.1h242.7c4.8,0,8.1-4,8.1-8.1v-8.1l0,0C381.5,377,377.4,373.7,372.6,373.7z M372.6,322.9H129.9
		c-4.8,0-8.1,4-8.1,8.1v8.1c0,4.8,4,8.1,8.1,8.1h242.7c4.8,0,8.1-4,8.1-8.1V331l0,0C381.5,327,377.4,322.9,372.6,322.9z M372.6,273
		H129.9c-4.8,0-8.1,4-8.1,8.1v8.1c0,4.8,4,8.1,8.1,8.1h242.7c4.8,0,8.1-4,8.1-8.1V281l0,0C381.5,277,377.4,273,372.6,273z"/>
</g>
</svg>
