<?xml version="1.0" encoding="utf-8"?>
<!-- Generator: Adobe Illustrator 24.1.0, SVG Export Plug-In . SVG Version: 6.00 Build 0)  -->
<svg version="1.1" id="Layer_1" xmlns="http://www.w3.org/2000/svg" xmlns:xlink="http://www.w3.org/1999/xlink" x="0px" y="0px"
	 viewBox="0 0 987.4 84.9" style="enable-background:new 0 0 987.4 84.9;" xml:space="preserve">
<style type="text/css">
	.st0{display:none;}
	.st1{display:inline;fill:#58CBF5;}
	.st2{display:inline;fill:#FFFFFF;}
	.st3{display:inline;fill:#E0724D;}
	.st4{display:inline;}
	.st5{fill:#EC6721;}
	.st6{fill:#0D4659;}
	.st7{display:inline;fill:#DEDFE0;}
	.st8{display:inline;fill:#E8A179;}
	.st9{fill:#B35E32;}
	.st10{fill:#476B7F;}
	.st11{display:inline;opacity:0.5;}
	.st12{fill:#2B5D70;}
	.st13{fill:#FFFFFF;}
	.st14{fill:#E0724D;}
	.st15{fill:none;}
	.st16{enable-background:new    ;}
</style>
<g id="Layer_5" class="st0">
	<rect x="-9.2" y="-11.7" class="st1" width="968.8" height="114.7"/>
</g>
<g id="_x31_" class="st0">
	<path class="st2" d="M164.9,78.4H40.3c-19.8,0-36-16.2-36-36l0,0c0-19.8,16.2-36,36-36h124.6c19.8,0,36,16.2,36,36l0,0
		C200.9,62.2,184.7,78.4,164.9,78.4z"/>
	<path class="st3" d="M164.9,80.4H40.3c-20.9,0-38-17-38-38s17-38,38-38h124.6c20.9,0,38,17,38,38S185.8,80.4,164.9,80.4z M40.3,8.5
		c-18.7,0-34,15.2-34,34s15.2,34,34,34h124.6c18.7,0,34-15.2,34-34s-15.2-34-34-34H40.3z"/>
	<g class="st4">
		<g>
			<path class="st5" d="M48.4,63.8h-4.7v-30c0-2.5,0.1-4.9,0.2-7.1c-0.4,0.4-0.9,0.8-1.4,1.3c-0.5,0.4-2.8,2.3-6.9,5.6l-2.5-3.3
				l11.1-8.6h4v42.1H48.4z"/>
		</g>
	</g>
	<g class="st4">
		<g>
			<path class="st6" d="M75.6,28.7c0,1-0.3,1.7-1,2.2s-1.6,0.8-2.8,0.8s-2.2-0.2-3-0.6v-1.7c0.5,0.2,1,0.4,1.6,0.5
				c0.5,0.1,1.1,0.2,1.5,0.2c0.7,0,1.2-0.1,1.5-0.4s0.5-0.6,0.5-1.1c0-0.4-0.2-0.7-0.5-1s-0.9-0.6-1.9-1s-1.7-0.8-2.1-1.4
				s-0.6-1.1-0.6-1.8c0-0.9,0.3-1.6,1-2.1s1.5-0.8,2.6-0.8c1,0,2,0.2,3.1,0.7l-0.6,1.4c-1-0.4-1.8-0.6-2.5-0.6c-0.6,0-1,0.1-1.3,0.4
				s-0.4,0.6-0.4,1c0,0.3,0.1,0.5,0.2,0.7s0.3,0.4,0.6,0.6s0.8,0.4,1.5,0.7c0.8,0.3,1.4,0.6,1.7,0.9s0.6,0.6,0.8,1
				S75.6,28.2,75.6,28.7z"/>
		</g>
		<g>
			<path class="st6" d="M84.1,31.6H78V20.9h6.1v1.5h-4.3v2.9h4v1.5h-4v3.4h4.3V31.6z"/>
		</g>
		<g>
			<path class="st6" d="M86.7,31.6V20.9h1.8v9.2H93v1.5C93,31.6,86.7,31.6,86.7,31.6z"/>
		</g>
		<g>
			<path class="st6" d="M101.2,31.6h-6.1V20.9h6.1v1.5h-4.3v2.9h4v1.5h-4v3.4h4.3V31.6z"/>
		</g>
		<g>
			<path class="st6" d="M108.3,22.2c-1,0-1.8,0.4-2.4,1.1s-0.9,1.7-0.9,3s0.3,2.3,0.8,3c0.6,0.7,1.4,1,2.4,1c0.5,0,0.9,0,1.3-0.1
				s0.9-0.2,1.3-0.3v1.5c-0.8,0.3-1.8,0.5-2.9,0.5c-1.6,0-2.8-0.5-3.6-1.4c-0.8-0.9-1.3-2.3-1.3-4.1c0-1.1,0.2-2.1,0.6-2.9
				s1-1.5,1.8-1.9s1.7-0.7,2.7-0.7c1.1,0,2.1,0.2,3,0.7l-0.6,1.5c-0.4-0.2-0.7-0.3-1.1-0.5C109.2,22.3,108.7,22.2,108.3,22.2z"/>
		</g>
		<g>
			<path class="st6" d="M117.8,31.6H116v-9.2h-3.1v-1.5h8v1.5h-3.1V31.6z"/>
		</g>
		<g>
			<path class="st6" d="M126.6,28.7c0-0.6,0.2-1.2,0.5-1.7s0.9-0.9,1.7-1.4c-0.5-0.5-0.8-1-0.9-1.4c-0.2-0.4-0.3-0.8-0.3-1.2
				c0-0.7,0.3-1.3,0.8-1.8c0.5-0.5,1.2-0.6,2.1-0.6c0.9,0,1.5,0.2,2,0.6s0.7,1,0.7,1.7c0,0.6-0.2,1.1-0.5,1.5
				c-0.3,0.5-0.9,0.9-1.7,1.4l2.5,2.4c0.4-0.5,0.7-1.3,1-2.3h1.8c-0.3,1.4-0.9,2.5-1.6,3.4l2.2,2.1h-2.2l-1.1-1.1
				c-0.5,0.4-1,0.7-1.6,0.9c-0.6,0.2-1.2,0.3-1.9,0.3c-1.1,0-2-0.3-2.6-0.8S126.6,29.7,126.6,28.7z M130.3,30.2
				c0.9,0,1.7-0.3,2.3-0.8l-2.8-2.8c-0.5,0.3-0.9,0.6-1.1,0.9c-0.2,0.3-0.3,0.6-0.3,1c0,0.5,0.2,0.9,0.5,1.2
				C129.2,30.1,129.7,30.2,130.3,30.2z M129.2,23.2c0,0.3,0.1,0.6,0.2,0.9c0.2,0.3,0.4,0.6,0.7,0.9c0.6-0.3,0.9-0.6,1.2-0.9
				c0.2-0.3,0.3-0.6,0.3-0.9s-0.1-0.6-0.3-0.8c-0.2-0.2-0.5-0.3-0.8-0.3c-0.4,0-0.7,0.1-0.9,0.3C129.3,22.6,129.2,22.8,129.2,23.2z"
				/>
		</g>
		<g>
			<path class="st6" d="M75.6,45.7c0,1-0.3,1.7-1,2.2s-1.6,0.8-2.8,0.8s-2.2-0.2-3-0.6v-1.7c0.5,0.2,1,0.4,1.6,0.5
				c0.5,0.1,1.1,0.2,1.5,0.2c0.7,0,1.2-0.1,1.5-0.4c0.3-0.3,0.5-0.6,0.5-1.1c0-0.4-0.2-0.7-0.5-1s-0.9-0.6-1.9-1s-1.7-0.8-2.1-1.4
				s-0.6-1.1-0.6-1.8c0-0.9,0.3-1.6,1-2.1s1.5-0.8,2.6-0.8c1,0,2,0.2,3.1,0.7l-0.6,1.4c-1-0.4-1.8-0.6-2.5-0.6c-0.6,0-1,0.1-1.3,0.4
				s-0.4,0.6-0.4,1c0,0.3,0.1,0.5,0.2,0.7s0.3,0.4,0.6,0.6s0.8,0.4,1.5,0.7c0.8,0.3,1.4,0.6,1.7,0.9s0.6,0.6,0.8,1
				S75.6,45.2,75.6,45.7z"/>
		</g>
		<g>
			<path class="st6" d="M84.9,48.6l-1.1-3h-4.1l-1,3h-1.8l4-10.8h1.9l4,10.8H84.9z M83.4,44.1l-1-2.9c-0.1-0.2-0.2-0.5-0.3-0.9
				c-0.1-0.4-0.2-0.7-0.3-0.9c-0.1,0.6-0.3,1.3-0.6,2l-1,2.8L83.4,44.1L83.4,44.1z"/>
		</g>
		<g>
			<path class="st6" d="M94.1,37.9h1.8l-3.8,10.7h-1.8l-3.7-10.7h1.8l2.2,6.7c0.1,0.3,0.2,0.7,0.4,1.2s0.2,0.9,0.3,1.1
				c0.1-0.4,0.2-0.8,0.3-1.3s0.2-0.8,0.3-1.1L94.1,37.9z"/>
		</g>
		<g>
			<path class="st6" d="M103.9,48.6h-6.1V37.9h6.1v1.5h-4.3v2.9h4v1.5h-4v3.4h4.3V48.6z"/>
		</g>
		<g>
			<path class="st6" d="M114.6,48.6h-1.8v-9.2h-3.1v-1.5h8v1.5h-3.1V48.6z"/>
		</g>
		<g>
			<path class="st6" d="M129.1,43.2c0,1.7-0.4,3.1-1.3,4.1c-0.9,1-2.1,1.5-3.7,1.5s-2.9-0.5-3.7-1.4c-0.9-1-1.3-2.3-1.3-4.1
				s0.4-3.1,1.3-4.1c0.9-0.9,2.1-1.4,3.7-1.4s2.8,0.5,3.7,1.4S129.1,41.4,129.1,43.2z M120.9,43.2c0,1.3,0.3,2.3,0.8,3s1.3,1,2.4,1
				c1,0,1.8-0.3,2.4-1c0.5-0.7,0.8-1.7,0.8-3s-0.3-2.3-0.8-3s-1.3-1-2.3-1s-1.8,0.3-2.4,1C121.2,40.9,120.9,41.9,120.9,43.2z"/>
		</g>
		<g>
			<path class="st6" d="M74.1,65.6l-3.1-9h-0.1c0.1,1.3,0.1,2.6,0.1,3.7v5.2h-1.6V54.9h2.5l3,8.5l0,0l3.1-8.5h2.5v10.7h-1.7v-5.3
				c0-0.5,0-1.2,0-2.1s0.1-1.4,0.1-1.6h-0.1l-3.2,8.9L74.1,65.6L74.1,65.6z"/>
		</g>
		<g>
			<path class="st6" d="M86.9,59.7l2.5-4.9h1.9l-3.6,6.6v4.2H86v-4.1l-3.6-6.6h1.9L86.9,59.7z"/>
		</g>
		<g>
			<path class="st6" d="M101.9,56.2c-1,0-1.8,0.4-2.4,1.1s-0.9,1.7-0.9,3s0.3,2.3,0.8,3c0.6,0.7,1.4,1,2.4,1c0.5,0,0.9,0,1.3-0.1
				s0.9-0.2,1.3-0.3v1.5c-0.8,0.3-1.8,0.5-2.9,0.5c-1.6,0-2.8-0.5-3.6-1.4c-0.8-0.9-1.3-2.3-1.3-4.1c0-1.1,0.2-2.1,0.6-2.9
				c0.4-0.8,1-1.5,1.8-1.9s1.7-0.7,2.7-0.7c1.1,0,2.1,0.2,3,0.7l-0.6,1.5c-0.4-0.2-0.7-0.3-1.1-0.5
				C102.8,56.3,102.4,56.2,101.9,56.2z"/>
		</g>
		<g>
			<path class="st6" d="M114.3,65.6l-1.1-3h-4.1l-1,3h-1.8l4-10.8h1.9l4,10.8H114.3z M112.8,61.1l-1-2.9c-0.1-0.2-0.2-0.5-0.3-0.9
				c-0.1-0.4-0.2-0.7-0.3-0.9c-0.1,0.6-0.3,1.3-0.6,2l-1,2.8L112.8,61.1L112.8,61.1z"/>
		</g>
		<g>
			<path class="st6" d="M124.6,62.7c0,1-0.3,1.7-1,2.2s-1.6,0.8-2.8,0.8s-2.2-0.2-3-0.6v-1.7c0.5,0.2,1,0.4,1.6,0.5
				c0.5,0.1,1.1,0.2,1.5,0.2c0.7,0,1.2-0.1,1.5-0.4c0.3-0.3,0.5-0.6,0.5-1.1c0-0.4-0.2-0.7-0.5-1s-0.9-0.6-1.9-1s-1.7-0.8-2.1-1.4
				s-0.6-1.1-0.6-1.8c0-0.9,0.3-1.6,1-2.1s1.5-0.8,2.6-0.8c1,0,2,0.2,3.1,0.7l-0.6,1.4c-1-0.4-1.8-0.6-2.5-0.6c-0.6,0-1,0.1-1.3,0.4
				s-0.4,0.6-0.4,1c0,0.3,0.1,0.5,0.2,0.7s0.3,0.4,0.6,0.6s0.8,0.4,1.5,0.7c0.8,0.3,1.4,0.6,1.7,0.9s0.6,0.6,0.8,1
				S124.6,62.2,124.6,62.7z"/>
		</g>
		<g>
			<path class="st6" d="M133.1,65.6H127V54.9h6.1v1.5h-4.3v2.9h4v1.5h-4v3.4h4.3V65.6z"/>
		</g>
		<g>
			<path class="st6" d="M142,62.7c0,1-0.3,1.7-1,2.2s-1.6,0.8-2.8,0.8s-2.2-0.2-3-0.6v-1.7c0.5,0.2,1,0.4,1.6,0.5
				c0.5,0.1,1.1,0.2,1.5,0.2c0.7,0,1.2-0.1,1.5-0.4c0.3-0.3,0.5-0.6,0.5-1.1c0-0.4-0.2-0.7-0.5-1s-0.9-0.6-1.9-1s-1.7-0.8-2.1-1.4
				s-0.6-1.1-0.6-1.8c0-0.9,0.3-1.6,1-2.1s1.5-0.8,2.6-0.8c1,0,2,0.2,3.1,0.7l-0.6,1.4c-1-0.4-1.8-0.6-2.5-0.6c-0.6,0-1,0.1-1.3,0.4
				s-0.4,0.6-0.4,1c0,0.3,0.1,0.5,0.2,0.7c0.1,0.2,0.3,0.4,0.6,0.6s0.8,0.4,1.5,0.7c0.8,0.3,1.4,0.6,1.7,0.9s0.6,0.6,0.8,1
				S142,62.2,142,62.7z"/>
		</g>
	</g>
	<g class="st4">
		<g>
			<polygon points="253.8,42.5 239.5,32.6 239.5,52.3 			"/>
		</g>
		<g>
			<rect x="213.1" y="38.5" width="27.4" height="7.9"/>
		</g>
	</g>
	<path class="st7" d="M424.5,78.4H299.8c-19.8,0-36-16.2-36-36l0,0c0-19.8,16.2-36,36-36h124.6c19.8,0,36,16.2,36,36l0,0
		C460.4,62.2,444.2,78.4,424.5,78.4z"/>
	<path class="st8" d="M424.5,80.4H299.8c-20.9,0-38-17-38-38s17-38,38-38h124.6c20.9,0,38,17,38,38S445.4,80.4,424.5,80.4z
		 M299.8,8.5c-18.7,0-34,15.2-34,34s15.2,34,34,34h124.6c18.7,0,34-15.2,34-34s-15.2-34-34-34H299.8z"/>
	<g class="st4">
		<g>
			<path class="st9" d="M324.7,63.8H297v-4.1l11.1-11.1c3.4-3.4,5.6-5.9,6.7-7.3c1.1-1.5,1.9-2.9,2.4-4.3c0.5-1.4,0.8-2.9,0.8-4.5
				c0-2.2-0.7-4-2-5.3c-1.4-1.3-3.3-2-5.7-2c-1.7,0-3.4,0.3-5,0.9s-3.3,1.6-5.2,3.1l-2.5-3.3c3.9-3.2,8.1-4.8,12.7-4.8
				c4,0,7.1,1,9.3,3s3.4,4.7,3.4,8.2c0,2.7-0.7,5.3-2.2,7.9c-1.5,2.6-4.3,5.9-8.4,9.9l-9.2,9v0.2h21.7v4.5H324.7z"/>
		</g>
	</g>
	<g class="st4">
		<g>
			<path class="st10" d="M344.7,27.3v4.3h-1.8V20.9h3c1.4,0,2.4,0.3,3.1,0.8s1,1.3,1,2.3c0,1.3-0.7,2.3-2.1,2.8l3,4.7h-2l-2.6-4.3
				h-1.6V27.3z M344.7,25.8h1.2c0.8,0,1.4-0.2,1.8-0.5s0.5-0.8,0.5-1.3c0-0.6-0.2-1-0.6-1.3s-1-0.4-1.8-0.4h-1.2v3.5H344.7z"/>
		</g>
		<g>
			<path class="st10" d="M359,31.6h-6V20.9h6.1v1.5h-4.3v2.9h4v1.5h-4v3.4h4.3v1.4H359z"/>
		</g>
		<g>
			<path class="st10" d="M368.2,20.9h1.8l-3.8,10.7h-1.8l-3.7-10.7h1.8l2.2,6.7c0.1,0.3,0.2,0.7,0.4,1.2s0.2,0.9,0.3,1.1
				c0.1-0.4,0.2-0.8,0.3-1.3s0.2-0.8,0.3-1.1L368.2,20.9z"/>
		</g>
		<g>
			<path class="st10" d="M372,31.6V20.9h1.8v10.7C373.8,31.6,372,31.6,372,31.6z"/>
		</g>
		<g>
			<path class="st10" d="M382.9,31.6h-6.1V20.9h6.1v1.5h-4.3v2.9h4v1.5h-4v3.4h4.3V31.6z"/>
		</g>
		<g>
			<path class="st10" d="M395.9,31.6H394l-1.8-6.4c-0.1-0.3-0.2-0.7-0.3-1.2c-0.1-0.5-0.2-0.9-0.2-1.1c0,0.3-0.1,0.7-0.2,1.2
				s-0.2,0.9-0.3,1.1l-1.8,6.4h-1.9l-1.4-5.4l-1.4-5.3h1.8l1.5,6.2c0.2,1,0.4,1.9,0.5,2.7c0.1-0.4,0.1-0.9,0.2-1.4s0.2-0.9,0.3-1.2
				l1.7-6.3h1.7l1.8,6.3c0.2,0.6,0.4,1.5,0.5,2.6c0.1-0.7,0.2-1.6,0.5-2.7l1.5-6.2h1.8L395.9,31.6z"/>
		</g>
		<g>
			<path class="st10" d="M347.5,48.6l-3.1-8.9h-0.1c0.1,1.3,0.1,2.6,0.1,3.7v5.2h-1.6V37.9h2.5l3,8.5l0,0l3.1-8.5h2.5v10.7h-1.7
				v-5.3c0-0.5,0-1.2,0-2.1s0.1-1.4,0.1-1.6h-0.1l-3.2,8.9L347.5,48.6L347.5,48.6z"/>
		</g>
		<g>
			<path class="st10" d="M360.3,42.7l2.5-4.9h1.9l-3.6,6.6v4.2h-1.8v-4.1l-3.6-6.6h1.9L360.3,42.7z"/>
		</g>
		<g>
			<path class="st10" d="M347.5,56.2c-1,0-1.8,0.4-2.4,1.1s-0.9,1.7-0.9,3s0.3,2.3,0.8,3c0.6,0.7,1.4,1,2.4,1c0.5,0,0.9,0,1.3-0.1
				s0.9-0.2,1.3-0.3v1.5c-0.8,0.3-1.8,0.5-2.9,0.5c-1.6,0-2.8-0.5-3.6-1.4c-0.8-0.9-1.3-2.3-1.3-4.1c0-1.1,0.2-2.1,0.6-2.9
				c0.4-0.8,1-1.5,1.8-1.9s1.7-0.7,2.7-0.7c1.1,0,2.1,0.2,3,0.7l-0.6,1.5c-0.4-0.2-0.7-0.3-1.1-0.5
				C348.3,56.3,347.9,56.2,347.5,56.2z"/>
		</g>
		<g>
			<path class="st10" d="M359.8,65.6l-1.1-3h-4.1l-1,3h-1.8l4-10.8h1.9l4,10.8H359.8z M358.3,61.1l-1-2.9c-0.1-0.2-0.2-0.5-0.3-0.9
				c-0.1-0.4-0.2-0.7-0.3-0.9c-0.1,0.6-0.3,1.3-0.6,2l-1,2.8L358.3,61.1L358.3,61.1z"/>
		</g>
		<g>
			<path class="st10" d="M370.1,62.7c0,1-0.3,1.7-1,2.2s-1.6,0.8-2.8,0.8s-2.2-0.2-3-0.6v-1.7c0.5,0.2,1,0.4,1.6,0.5
				c0.5,0.1,1.1,0.2,1.5,0.2c0.7,0,1.2-0.1,1.5-0.4c0.3-0.3,0.5-0.6,0.5-1.1c0-0.4-0.2-0.7-0.5-1s-0.9-0.6-1.9-1s-1.7-0.8-2.1-1.4
				s-0.6-1.1-0.6-1.8c0-0.9,0.3-1.6,1-2.1s1.5-0.8,2.6-0.8c1,0,2,0.2,3.1,0.7l-0.6,1.4c-1-0.4-1.8-0.6-2.5-0.6c-0.6,0-1,0.1-1.3,0.4
				s-0.4,0.6-0.4,1c0,0.3,0.1,0.5,0.2,0.7s0.3,0.4,0.6,0.6s0.8,0.4,1.5,0.7c0.8,0.3,1.4,0.6,1.7,0.9s0.6,0.6,0.8,1
				S370.1,62.2,370.1,62.7z"/>
		</g>
		<g>
			<path class="st10" d="M378.6,65.6h-6.1V54.9h6.1v1.5h-4.3v2.9h4v1.5h-4v3.4h4.3V65.6z"/>
		</g>
		<g>
			<path class="st10" d="M387.5,62.7c0,1-0.3,1.7-1,2.2s-1.6,0.8-2.8,0.8s-2.2-0.2-3-0.6v-1.7c0.5,0.2,1,0.4,1.6,0.5
				c0.5,0.1,1.1,0.2,1.5,0.2c0.7,0,1.2-0.1,1.5-0.4c0.3-0.3,0.5-0.6,0.5-1.1c0-0.4-0.2-0.7-0.5-1s-0.9-0.6-1.9-1s-1.7-0.8-2.1-1.4
				s-0.6-1.1-0.6-1.8c0-0.9,0.3-1.6,1-2.1s1.5-0.8,2.6-0.8c1,0,2,0.2,3.1,0.7l-0.6,1.4c-1-0.4-1.8-0.6-2.5-0.6c-0.6,0-1,0.1-1.3,0.4
				s-0.4,0.6-0.4,1c0,0.3,0.1,0.5,0.2,0.7s0.3,0.4,0.6,0.6s0.8,0.4,1.5,0.7c0.8,0.3,1.4,0.6,1.7,0.9s0.6,0.6,0.8,1
				S387.5,62.2,387.5,62.7z"/>
		</g>
	</g>
	<g class="st11">
		<polygon class="st12" points="514,42.5 499.7,32.6 499.7,38.5 473.4,38.5 473.4,46.4 499.7,46.4 499.7,52.3 		"/>
	</g>
	<path class="st7" d="M685.3,78.4H560.7c-19.8,0-36-16.2-36-36l0,0c0-19.8,16.2-36,36-36h124.6c19.8,0,36,16.2,36,36l0,0
		C721.3,62.2,705.1,78.4,685.3,78.4z"/>
	<path class="st8" d="M685.3,80.4H560.7c-20.9,0-38-17-38-38s17-38,38-38h124.6c20.9,0,38,17,38,38S706.3,80.4,685.3,80.4z
		 M560.7,8.5c-18.7,0-34,15.2-34,34s15.2,34,34,34h124.6c18.7,0,34-15.2,34-34s-15.2-34-34-34H560.7z"/>
	<g class="st4">
		<g>
			<path class="st9" d="M582.1,31.6c0,2.7-0.8,4.9-2.3,6.6s-3.6,2.9-6.4,3.4v0.2c3.4,0.4,5.9,1.5,7.5,3.2s2.4,4,2.4,6.8
				c0,4-1.4,7.1-4.2,9.3s-6.7,3.2-11.9,3.2c-2.2,0-4.3-0.2-6.1-0.5c-1.9-0.3-3.7-0.9-5.4-1.8v-4.6c1.8,0.9,3.8,1.6,5.8,2.1
				s4,0.7,5.9,0.7c7.3,0,10.9-2.9,10.9-8.6c0-5.1-4-7.7-12-7.7h-4.1v-4.1h4.2c3.3,0,5.9-0.7,7.8-2.2c1.9-1.4,2.9-3.5,2.9-6
				c0-2.1-0.7-3.7-2.1-4.8c-1.4-1.2-3.3-1.8-5.7-1.8c-1.8,0-3.6,0.2-5.2,0.7c-1.6,0.5-3.5,1.4-5.6,2.8l-2.4-3.2
				c1.7-1.4,3.7-2.4,6-3.2c2.3-0.8,4.6-1.2,7.1-1.2c4.1,0,7.3,0.9,9.5,2.8C581,25.7,582.1,28.3,582.1,31.6z"/>
		</g>
	</g>
	<g class="st4">
		<g>
			<path class="st10" d="M607.1,28.7c0,1-0.3,1.7-1,2.2s-1.6,0.8-2.8,0.8s-2.2-0.2-3-0.6v-1.7c0.5,0.2,1,0.4,1.6,0.5
				c0.5,0.1,1.1,0.2,1.5,0.2c0.7,0,1.2-0.1,1.5-0.4s0.5-0.6,0.5-1.1c0-0.4-0.2-0.7-0.5-1s-0.9-0.6-1.9-1s-1.7-0.8-2.1-1.4
				s-0.6-1.1-0.6-1.8c0-0.9,0.3-1.6,1-2.1s1.5-0.8,2.6-0.8c1,0,2,0.2,3.1,0.7l-0.6,1.4c-1-0.4-1.8-0.6-2.5-0.6c-0.6,0-1,0.1-1.3,0.4
				s-0.4,0.6-0.4,1c0,0.3,0.1,0.5,0.2,0.7c0.1,0.2,0.3,0.4,0.6,0.6s0.8,0.4,1.5,0.7c0.8,0.3,1.4,0.6,1.7,0.9s0.6,0.6,0.8,1
				S607.1,28.2,607.1,28.7z"/>
		</g>
		<g>
			<path class="st10" d="M615.6,31.6h-6.1V20.9h6.1v1.5h-4.3v2.9h4v1.5h-4v3.4h4.3V31.6z"/>
		</g>
		<g>
			<path class="st10" d="M618.2,31.6V20.9h1.8v9.2h4.5v1.5C624.5,31.6,618.2,31.6,618.2,31.6z"/>
		</g>
		<g>
			<path class="st10" d="M632.7,31.6h-6.1V20.9h6.1v1.5h-4.3v2.9h4v1.5h-4v3.4h4.3V31.6z"/>
		</g>
		<g>
			<path class="st10" d="M639.7,22.2c-1,0-1.8,0.4-2.4,1.1s-0.9,1.7-0.9,3s0.3,2.3,0.8,3c0.6,0.7,1.4,1,2.4,1c0.5,0,0.9,0,1.3-0.1
				c0.4-0.1,0.9-0.2,1.3-0.3v1.5c-0.8,0.3-1.8,0.5-2.9,0.5c-1.6,0-2.8-0.5-3.6-1.4s-1.3-2.3-1.3-4.1c0-1.1,0.2-2.1,0.6-2.9
				c0.4-0.8,1-1.5,1.8-1.9s1.7-0.7,2.7-0.7c1.1,0,2.1,0.2,3,0.7l-0.6,1.5c-0.4-0.2-0.7-0.3-1.1-0.5
				C640.6,22.3,640.2,22.2,639.7,22.2z"/>
		</g>
		<g>
			<path class="st10" d="M649.3,31.6h-1.8v-9.2h-3.1v-1.5h8v1.5h-3.1L649.3,31.6L649.3,31.6z"/>
		</g>
		<g>
			<path class="st10" d="M660.5,31.6h-1.7V20.9h6v1.5h-4.3v3.3h4v1.5h-4V31.6z"/>
		</g>
		<g>
			<path class="st10" d="M667,31.6V20.9h1.8v10.7C668.8,31.6,667,31.6,667,31.6z"/>
		</g>
		<g>
			<path class="st10" d="M671.9,31.6V20.9h1.8v9.2h4.5v1.5C678.2,31.6,671.9,31.6,671.9,31.6z"/>
		</g>
		<g>
			<path class="st10" d="M686.4,31.6h-6.1V20.9h6.1v1.5h-4.3v2.9h4v1.5h-4v3.4h4.3V31.6z"/>
		</g>
		<g>
			<path class="st10" d="M695.3,28.7c0,1-0.3,1.7-1,2.2s-1.6,0.8-2.8,0.8s-2.2-0.2-3-0.6v-1.7c0.5,0.2,1,0.4,1.6,0.5
				c0.5,0.1,1.1,0.2,1.5,0.2c0.7,0,1.2-0.1,1.5-0.4s0.5-0.6,0.5-1.1c0-0.4-0.2-0.7-0.5-1s-0.9-0.6-1.9-1s-1.7-0.8-2.1-1.4
				s-0.6-1.1-0.6-1.8c0-0.9,0.3-1.6,1-2.1s1.5-0.8,2.6-0.8c1,0,2,0.2,3.1,0.7l-0.6,1.4c-1-0.4-1.8-0.6-2.5-0.6c-0.6,0-1,0.1-1.3,0.4
				s-0.4,0.6-0.4,1c0,0.3,0.1,0.5,0.2,0.7c0.1,0.2,0.3,0.4,0.6,0.6s0.8,0.4,1.5,0.7c0.8,0.3,1.4,0.6,1.7,0.9s0.6,0.6,0.8,1
				S695.3,28.2,695.3,28.7z"/>
		</g>
		<g>
			<path class="st10" d="M600.2,45.7c0-0.6,0.2-1.2,0.5-1.7s0.9-0.9,1.7-1.4c-0.5-0.5-0.8-1-0.9-1.4c-0.2-0.4-0.3-0.8-0.3-1.2
				c0-0.7,0.3-1.3,0.8-1.8c0.5-0.4,1.2-0.6,2.1-0.6c0.9,0,1.5,0.2,2,0.6c0.5,0.4,0.7,1,0.7,1.7c0,0.6-0.2,1.1-0.5,1.5
				c-0.3,0.5-0.9,0.9-1.7,1.4l2.5,2.4c0.4-0.5,0.7-1.3,1-2.3h1.8c-0.3,1.4-0.9,2.5-1.6,3.4l2.2,2.1h-2.2l-1.1-1.1
				c-0.5,0.4-1,0.7-1.6,0.9s-1.2,0.3-1.9,0.3c-1.1,0-2-0.3-2.6-0.8S600.2,46.7,600.2,45.7z M603.9,47.2c0.9,0,1.7-0.3,2.3-0.8
				l-2.8-2.8c-0.5,0.3-0.9,0.6-1.1,0.9c-0.2,0.3-0.3,0.6-0.3,1c0,0.5,0.2,0.9,0.5,1.2C602.9,47.1,603.3,47.2,603.9,47.2z
				 M602.8,40.2c0,0.3,0.1,0.6,0.2,0.9c0.2,0.3,0.4,0.6,0.7,0.9c0.6-0.3,0.9-0.6,1.2-0.9c0.2-0.3,0.3-0.6,0.3-0.9
				c0-0.3-0.1-0.6-0.3-0.8s-0.5-0.3-0.8-0.3c-0.4,0-0.7,0.1-0.9,0.3C602.9,39.6,602.8,39.8,602.8,40.2z"/>
		</g>
		<g>
			<path class="st10" d="M621.2,39.2c-1,0-1.8,0.4-2.4,1.1s-0.9,1.7-0.9,3s0.3,2.3,0.8,3c0.6,0.7,1.4,1,2.4,1c0.5,0,0.9,0,1.3-0.1
				c0.4-0.1,0.9-0.2,1.3-0.3v1.5c-0.8,0.3-1.8,0.5-2.9,0.5c-1.6,0-2.8-0.5-3.6-1.4s-1.3-2.3-1.3-4.1c0-1.1,0.2-2.1,0.6-2.9
				c0.4-0.8,1-1.5,1.8-1.9s1.7-0.7,2.7-0.7c1.1,0,2.1,0.2,3,0.7l-0.6,1.5c-0.4-0.2-0.7-0.3-1.1-0.5
				C622.1,39.3,621.7,39.2,621.2,39.2z"/>
		</g>
		<g>
			<path class="st10" d="M628.2,44.3v4.3h-1.8V37.9h3c1.4,0,2.4,0.3,3.1,0.8s1,1.3,1,2.3c0,1.3-0.7,2.3-2.1,2.8l3,4.7h-2l-2.6-4.3
				L628.2,44.3L628.2,44.3z M628.2,42.8h1.2c0.8,0,1.4-0.2,1.8-0.5s0.5-0.8,0.5-1.3c0-0.6-0.2-1-0.6-1.3s-1-0.4-1.8-0.4h-1.2
				L628.2,42.8L628.2,42.8z"/>
		</g>
		<g>
			<path class="st10" d="M642.6,48.6h-6.1V37.9h6.1v1.5h-4.3v2.9h4v1.5h-4v3.4h4.3V48.6z"/>
		</g>
		<g>
			<path class="st10" d="M652.3,48.6l-1.1-3h-4.1l-1,3h-1.8l4-10.8h1.9l4,10.8H652.3z M650.8,44.1l-1-2.9c-0.1-0.2-0.2-0.5-0.3-0.9
				s-0.2-0.7-0.3-0.9c-0.1,0.6-0.3,1.3-0.6,2l-1,2.8L650.8,44.1L650.8,44.1z"/>
		</g>
		<g>
			<path class="st10" d="M658.9,48.6h-1.8v-9.2H654v-1.5h8v1.5h-3.1V48.6z"/>
		</g>
		<g>
			<path class="st10" d="M670.1,48.6H664V37.9h6.1v1.5h-4.3v2.9h4v1.5h-4v3.4h4.3V48.6z"/>
		</g>
		<g>
			<path class="st10" d="M605.5,65.6l-3.1-8.9h-0.1c0.1,1.3,0.1,2.6,0.1,3.7v5.2h-1.6V54.9h2.5l3,8.5l0,0l3.1-8.5h2.5v10.7h-1.7
				v-5.3c0-0.5,0-1.2,0-2.1c0-0.9,0-1.4,0.1-1.6h-0.1l-3.2,8.9L605.5,65.6L605.5,65.6z"/>
		</g>
		<g>
			<path class="st10" d="M621.9,65.6l-1.1-3h-4.1l-1,3h-1.8l4-10.8h1.9l4,10.8H621.9z M620.4,61.1l-1-2.9c-0.1-0.2-0.2-0.5-0.3-0.9
				s-0.2-0.7-0.3-0.9c-0.1,0.6-0.3,1.3-0.6,2l-1,2.8L620.4,61.1L620.4,61.1z"/>
		</g>
		<g>
			<path class="st10" d="M634.7,65.6h-2.1l-5.3-8.5h-0.1v0.5c0.1,0.9,0.1,1.7,0.1,2.5v5.6h-1.6V54.9h2.1l5.3,8.5l0,0
				c0-0.1,0-0.5-0.1-1.2c0-0.7,0-1.3,0-1.7v-5.6h1.6L634.7,65.6L634.7,65.6z"/>
		</g>
		<g>
			<path class="st10" d="M637.8,65.6V54.9h1.8v10.7H637.8z"/>
		</g>
		<g>
			<path class="st10" d="M644.4,65.6h-1.7V54.9h6v1.5h-4.3v3.3h4v1.5h-4V65.6z"/>
		</g>
		<g>
			<path class="st10" d="M657,65.6h-6.1V54.9h6.1v1.5h-4.3v2.9h4v1.5h-4v3.4h4.3V65.6z"/>
		</g>
		<g>
			<path class="st10" d="M665.9,62.7c0,1-0.3,1.7-1,2.2s-1.6,0.8-2.8,0.8s-2.2-0.2-3-0.6v-1.7c0.5,0.2,1,0.4,1.6,0.5
				c0.5,0.1,1.1,0.2,1.5,0.2c0.7,0,1.2-0.1,1.5-0.4c0.3-0.3,0.5-0.6,0.5-1.1c0-0.4-0.2-0.7-0.5-1s-0.9-0.6-1.9-1s-1.7-0.8-2.1-1.4
				s-0.6-1.1-0.6-1.8c0-0.9,0.3-1.6,1-2.1s1.5-0.8,2.6-0.8c1,0,2,0.2,3.1,0.7l-0.6,1.4c-1-0.4-1.8-0.6-2.5-0.6c-0.6,0-1,0.1-1.3,0.4
				s-0.4,0.6-0.4,1c0,0.3,0.1,0.5,0.2,0.7c0.1,0.2,0.3,0.4,0.6,0.6s0.8,0.4,1.5,0.7c0.8,0.3,1.4,0.6,1.7,0.9s0.6,0.6,0.8,1
				S665.9,62.2,665.9,62.7z"/>
		</g>
		<g>
			<path class="st10" d="M672.4,65.6h-1.8v-9.2h-3.1v-1.5h8v1.5h-3.1L672.4,65.6L672.4,65.6z"/>
		</g>
	</g>
</g>
<g id="_x32_" class="st0">
	<path class="st2" d="M164.9,78.4H40.3c-19.8,0-36-16.2-36-36l0,0c0-19.8,16.2-36,36-36h124.6c19.8,0,36,16.2,36,36l0,0
		C200.9,62.2,184.7,78.4,164.9,78.4z"/>
	<path class="st3" d="M164.9,80.4H40.3c-20.9,0-38-17-38-38s17-38,38-38h124.6c20.9,0,38,17,38,38S185.8,80.4,164.9,80.4z M40.3,8.5
		c-18.7,0-34,15.2-34,34s15.2,34,34,34h124.6c18.7,0,34-15.2,34-34s-15.2-34-34-34H40.3z"/>
	<g class="st4">
		<g>
			<path class="st5" d="M48.4,63.8h-4.7v-30c0-2.5,0.1-4.9,0.2-7.1c-0.4,0.4-0.9,0.8-1.4,1.3c-0.5,0.4-2.8,2.3-6.9,5.6l-2.5-3.3
				l11.1-8.6h4v42.1H48.4z"/>
		</g>
	</g>
	<g class="st4">
		<g>
			<path class="st6" d="M75.6,28.7c0,1-0.3,1.7-1,2.2s-1.6,0.8-2.8,0.8s-2.2-0.2-3-0.6v-1.7c0.5,0.2,1,0.4,1.6,0.5
				c0.5,0.1,1.1,0.2,1.5,0.2c0.7,0,1.2-0.1,1.5-0.4s0.5-0.6,0.5-1.1c0-0.4-0.2-0.7-0.5-1s-0.9-0.6-1.9-1s-1.7-0.8-2.1-1.4
				s-0.6-1.1-0.6-1.8c0-0.9,0.3-1.6,1-2.1s1.5-0.8,2.6-0.8c1,0,2,0.2,3.1,0.7l-0.6,1.4c-1-0.4-1.8-0.6-2.5-0.6c-0.6,0-1,0.1-1.3,0.4
				s-0.4,0.6-0.4,1c0,0.3,0.1,0.5,0.2,0.7s0.3,0.4,0.6,0.6s0.8,0.4,1.5,0.7c0.8,0.3,1.4,0.6,1.7,0.9s0.6,0.6,0.8,1
				S75.6,28.2,75.6,28.7z"/>
		</g>
		<g>
			<path class="st6" d="M84.1,31.6H78V20.9h6.1v1.5h-4.3v2.9h4v1.5h-4v3.4h4.3V31.6z"/>
		</g>
		<g>
			<path class="st6" d="M86.7,31.6V20.9h1.8v9.2H93v1.5C93,31.6,86.7,31.6,86.7,31.6z"/>
		</g>
		<g>
			<path class="st6" d="M101.2,31.6h-6.1V20.9h6.1v1.5h-4.3v2.9h4v1.5h-4v3.4h4.3V31.6z"/>
		</g>
		<g>
			<path class="st6" d="M108.3,22.2c-1,0-1.8,0.4-2.4,1.1s-0.9,1.7-0.9,3s0.3,2.3,0.8,3c0.6,0.7,1.4,1,2.4,1c0.5,0,0.9,0,1.3-0.1
				s0.9-0.2,1.3-0.3v1.5c-0.8,0.3-1.8,0.5-2.9,0.5c-1.6,0-2.8-0.5-3.6-1.4c-0.8-0.9-1.3-2.3-1.3-4.1c0-1.1,0.2-2.1,0.6-2.9
				s1-1.5,1.8-1.9s1.7-0.7,2.7-0.7c1.1,0,2.1,0.2,3,0.7l-0.6,1.5c-0.4-0.2-0.7-0.3-1.1-0.5C109.2,22.3,108.7,22.2,108.3,22.2z"/>
		</g>
		<g>
			<path class="st6" d="M117.8,31.6H116v-9.2h-3.1v-1.5h8v1.5h-3.1V31.6z"/>
		</g>
		<g>
			<path class="st6" d="M126.6,28.7c0-0.6,0.2-1.2,0.5-1.7s0.9-0.9,1.7-1.4c-0.5-0.5-0.8-1-0.9-1.4c-0.2-0.4-0.3-0.8-0.3-1.2
				c0-0.7,0.3-1.3,0.8-1.8c0.5-0.5,1.2-0.6,2.1-0.6c0.9,0,1.5,0.2,2,0.6s0.7,1,0.7,1.7c0,0.6-0.2,1.1-0.5,1.5
				c-0.3,0.5-0.9,0.9-1.7,1.4l2.5,2.4c0.4-0.5,0.7-1.3,1-2.3h1.8c-0.3,1.4-0.9,2.5-1.6,3.4l2.2,2.1h-2.2l-1.1-1.1
				c-0.5,0.4-1,0.7-1.6,0.9c-0.6,0.2-1.2,0.3-1.9,0.3c-1.1,0-2-0.3-2.6-0.8S126.6,29.7,126.6,28.7z M130.3,30.2
				c0.9,0,1.7-0.3,2.3-0.8l-2.8-2.8c-0.5,0.3-0.9,0.6-1.1,0.9c-0.2,0.3-0.3,0.6-0.3,1c0,0.5,0.2,0.9,0.5,1.2
				C129.2,30.1,129.7,30.2,130.3,30.2z M129.2,23.2c0,0.3,0.1,0.6,0.2,0.9c0.2,0.3,0.4,0.6,0.7,0.9c0.6-0.3,0.9-0.6,1.2-0.9
				c0.2-0.3,0.3-0.6,0.3-0.9s-0.1-0.6-0.3-0.8c-0.2-0.2-0.5-0.3-0.8-0.3c-0.4,0-0.7,0.1-0.9,0.3C129.3,22.6,129.2,22.8,129.2,23.2z"
				/>
		</g>
		<g>
			<path class="st6" d="M75.6,45.7c0,1-0.3,1.7-1,2.2s-1.6,0.8-2.8,0.8s-2.2-0.2-3-0.6v-1.7c0.5,0.2,1,0.4,1.6,0.5
				c0.5,0.1,1.1,0.2,1.5,0.2c0.7,0,1.2-0.1,1.5-0.4c0.3-0.3,0.5-0.6,0.5-1.1c0-0.4-0.2-0.7-0.5-1s-0.9-0.6-1.9-1s-1.7-0.8-2.1-1.4
				s-0.6-1.1-0.6-1.8c0-0.9,0.3-1.6,1-2.1s1.5-0.8,2.6-0.8c1,0,2,0.2,3.1,0.7l-0.6,1.4c-1-0.4-1.8-0.6-2.5-0.6c-0.6,0-1,0.1-1.3,0.4
				s-0.4,0.6-0.4,1c0,0.3,0.1,0.5,0.2,0.7s0.3,0.4,0.6,0.6s0.8,0.4,1.5,0.7c0.8,0.3,1.4,0.6,1.7,0.9s0.6,0.6,0.8,1
				S75.6,45.2,75.6,45.7z"/>
		</g>
		<g>
			<path class="st6" d="M84.9,48.6l-1.1-3h-4.1l-1,3h-1.8l4-10.8h1.9l4,10.8H84.9z M83.4,44.1l-1-2.9c-0.1-0.2-0.2-0.5-0.3-0.9
				c-0.1-0.4-0.2-0.7-0.3-0.9c-0.1,0.6-0.3,1.3-0.6,2l-1,2.8L83.4,44.1L83.4,44.1z"/>
		</g>
		<g>
			<path class="st6" d="M94.1,37.9h1.8l-3.8,10.7h-1.8l-3.7-10.7h1.8l2.2,6.7c0.1,0.3,0.2,0.7,0.4,1.2s0.2,0.9,0.3,1.1
				c0.1-0.4,0.2-0.8,0.3-1.3s0.2-0.8,0.3-1.1L94.1,37.9z"/>
		</g>
		<g>
			<path class="st6" d="M103.9,48.6h-6.1V37.9h6.1v1.5h-4.3v2.9h4v1.5h-4v3.4h4.3V48.6z"/>
		</g>
		<g>
			<path class="st6" d="M114.6,48.6h-1.8v-9.2h-3.1v-1.5h8v1.5h-3.1V48.6z"/>
		</g>
		<g>
			<path class="st6" d="M129.1,43.2c0,1.7-0.4,3.1-1.3,4.1c-0.9,1-2.1,1.5-3.7,1.5s-2.9-0.5-3.7-1.4c-0.9-1-1.3-2.3-1.3-4.1
				s0.4-3.1,1.3-4.1c0.9-0.9,2.1-1.4,3.7-1.4s2.8,0.5,3.7,1.4S129.1,41.4,129.1,43.2z M120.9,43.2c0,1.3,0.3,2.3,0.8,3s1.3,1,2.4,1
				c1,0,1.8-0.3,2.4-1c0.5-0.7,0.8-1.7,0.8-3s-0.3-2.3-0.8-3s-1.3-1-2.3-1s-1.8,0.3-2.4,1C121.2,40.9,120.9,41.9,120.9,43.2z"/>
		</g>
		<g>
			<path class="st6" d="M74.1,65.6l-3.1-9h-0.1c0.1,1.3,0.1,2.6,0.1,3.7v5.2h-1.6V54.9h2.5l3,8.5l0,0l3.1-8.5h2.5v10.7h-1.7v-5.3
				c0-0.5,0-1.2,0-2.1s0.1-1.4,0.1-1.6h-0.1l-3.2,8.9L74.1,65.6L74.1,65.6z"/>
		</g>
		<g>
			<path class="st6" d="M86.9,59.7l2.5-4.9h1.9l-3.6,6.6v4.2H86v-4.1l-3.6-6.6h1.9L86.9,59.7z"/>
		</g>
		<g>
			<path class="st6" d="M101.9,56.2c-1,0-1.8,0.4-2.4,1.1s-0.9,1.7-0.9,3s0.3,2.3,0.8,3c0.6,0.7,1.4,1,2.4,1c0.5,0,0.9,0,1.3-0.1
				s0.9-0.2,1.3-0.3v1.5c-0.8,0.3-1.8,0.5-2.9,0.5c-1.6,0-2.8-0.5-3.6-1.4c-0.8-0.9-1.3-2.3-1.3-4.1c0-1.1,0.2-2.1,0.6-2.9
				c0.4-0.8,1-1.5,1.8-1.9s1.7-0.7,2.7-0.7c1.1,0,2.1,0.2,3,0.7l-0.6,1.5c-0.4-0.2-0.7-0.3-1.1-0.5
				C102.8,56.3,102.4,56.2,101.9,56.2z"/>
		</g>
		<g>
			<path class="st6" d="M114.3,65.6l-1.1-3h-4.1l-1,3h-1.8l4-10.8h1.9l4,10.8H114.3z M112.8,61.1l-1-2.9c-0.1-0.2-0.2-0.5-0.3-0.9
				c-0.1-0.4-0.2-0.7-0.3-0.9c-0.1,0.6-0.3,1.3-0.6,2l-1,2.8L112.8,61.1L112.8,61.1z"/>
		</g>
		<g>
			<path class="st6" d="M124.6,62.7c0,1-0.3,1.7-1,2.2s-1.6,0.8-2.8,0.8s-2.2-0.2-3-0.6v-1.7c0.5,0.2,1,0.4,1.6,0.5
				c0.5,0.1,1.1,0.2,1.5,0.2c0.7,0,1.2-0.1,1.5-0.4c0.3-0.3,0.5-0.6,0.5-1.1c0-0.4-0.2-0.7-0.5-1s-0.9-0.6-1.9-1s-1.7-0.8-2.1-1.4
				s-0.6-1.1-0.6-1.8c0-0.9,0.3-1.6,1-2.1s1.5-0.8,2.6-0.8c1,0,2,0.2,3.1,0.7l-0.6,1.4c-1-0.4-1.8-0.6-2.5-0.6c-0.6,0-1,0.1-1.3,0.4
				s-0.4,0.6-0.4,1c0,0.3,0.1,0.5,0.2,0.7s0.3,0.4,0.6,0.6s0.8,0.4,1.5,0.7c0.8,0.3,1.4,0.6,1.7,0.9s0.6,0.6,0.8,1
				S124.6,62.2,124.6,62.7z"/>
		</g>
		<g>
			<path class="st6" d="M133.1,65.6H127V54.9h6.1v1.5h-4.3v2.9h4v1.5h-4v3.4h4.3V65.6z"/>
		</g>
		<g>
			<path class="st6" d="M142,62.7c0,1-0.3,1.7-1,2.2s-1.6,0.8-2.8,0.8s-2.2-0.2-3-0.6v-1.7c0.5,0.2,1,0.4,1.6,0.5
				c0.5,0.1,1.1,0.2,1.5,0.2c0.7,0,1.2-0.1,1.5-0.4c0.3-0.3,0.5-0.6,0.5-1.1c0-0.4-0.2-0.7-0.5-1s-0.9-0.6-1.9-1s-1.7-0.8-2.1-1.4
				s-0.6-1.1-0.6-1.8c0-0.9,0.3-1.6,1-2.1s1.5-0.8,2.6-0.8c1,0,2,0.2,3.1,0.7l-0.6,1.4c-1-0.4-1.8-0.6-2.5-0.6c-0.6,0-1,0.1-1.3,0.4
				s-0.4,0.6-0.4,1c0,0.3,0.1,0.5,0.2,0.7c0.1,0.2,0.3,0.4,0.6,0.6s0.8,0.4,1.5,0.7c0.8,0.3,1.4,0.6,1.7,0.9s0.6,0.6,0.8,1
				S142,62.2,142,62.7z"/>
		</g>
	</g>
	<g class="st4">
		<g>
			<polygon points="253.8,42.5 239.5,32.6 239.5,52.3 			"/>
		</g>
		<g>
			<rect x="213.1" y="38.5" width="27.4" height="7.9"/>
		</g>
	</g>
	<path class="st2" d="M424.5,78.4H299.8c-19.8,0-36-16.2-36-36l0,0c0-19.8,16.2-36,36-36h124.6c19.8,0,36,16.2,36,36l0,0
		C460.4,62.2,444.2,78.4,424.5,78.4z"/>
	<path class="st3" d="M424.5,80.4H299.8c-20.9,0-38-17-38-38s17-38,38-38h124.6c20.9,0,38,17,38,38S445.4,80.4,424.5,80.4z
		 M299.8,8.5c-18.7,0-34,15.2-34,34s15.2,34,34,34h124.6c18.7,0,34-15.2,34-34s-15.2-34-34-34H299.8z"/>
	<g class="st4">
		<g>
			<path class="st5" d="M324.7,63.8H297v-4.1l11.1-11.1c3.4-3.4,5.6-5.9,6.7-7.3c1.1-1.5,1.9-2.9,2.4-4.3c0.5-1.4,0.8-2.9,0.8-4.5
				c0-2.2-0.7-4-2-5.3c-1.4-1.3-3.3-2-5.7-2c-1.7,0-3.4,0.3-5,0.9s-3.3,1.6-5.2,3.1l-2.5-3.3c3.9-3.2,8.1-4.8,12.7-4.8
				c4,0,7.1,1,9.3,3s3.4,4.7,3.4,8.2c0,2.7-0.7,5.3-2.2,7.9c-1.5,2.6-4.3,5.9-8.4,9.9l-9.2,9v0.2h21.7v4.5H324.7z"/>
		</g>
	</g>
	<g class="st4">
		<g>
			<path class="st6" d="M344.7,27.3v4.3h-1.8V20.9h3c1.4,0,2.4,0.3,3.1,0.8s1,1.3,1,2.3c0,1.3-0.7,2.3-2.1,2.8l3,4.7h-2l-2.6-4.3
				h-1.6V27.3z M344.7,25.8h1.2c0.8,0,1.4-0.2,1.8-0.5s0.5-0.8,0.5-1.3c0-0.6-0.2-1-0.6-1.3s-1-0.4-1.8-0.4h-1.2v3.5H344.7z"/>
		</g>
		<g>
			<path class="st6" d="M359,31.6h-6V20.9h6.1v1.5h-4.3v2.9h4v1.5h-4v3.4h4.3v1.4H359z"/>
		</g>
		<g>
			<path class="st6" d="M368.2,20.9h1.8l-3.8,10.7h-1.8l-3.7-10.7h1.8l2.2,6.7c0.1,0.3,0.2,0.7,0.4,1.2s0.2,0.9,0.3,1.1
				c0.1-0.4,0.2-0.8,0.3-1.3s0.2-0.8,0.3-1.1L368.2,20.9z"/>
		</g>
		<g>
			<path class="st6" d="M372,31.6V20.9h1.8v10.7C373.8,31.6,372,31.6,372,31.6z"/>
		</g>
		<g>
			<path class="st6" d="M382.9,31.6h-6.1V20.9h6.1v1.5h-4.3v2.9h4v1.5h-4v3.4h4.3V31.6z"/>
		</g>
		<g>
			<path class="st6" d="M395.9,31.6H394l-1.8-6.4c-0.1-0.3-0.2-0.7-0.3-1.2c-0.1-0.5-0.2-0.9-0.2-1.1c0,0.3-0.1,0.7-0.2,1.2
				s-0.2,0.9-0.3,1.1l-1.8,6.4h-1.9l-1.4-5.4l-1.4-5.3h1.8l1.5,6.2c0.2,1,0.4,1.9,0.5,2.7c0.1-0.4,0.1-0.9,0.2-1.4s0.2-0.9,0.3-1.2
				l1.7-6.3h1.7l1.8,6.3c0.2,0.6,0.4,1.5,0.5,2.6c0.1-0.7,0.2-1.6,0.5-2.7l1.5-6.2h1.8L395.9,31.6z"/>
		</g>
		<g>
			<path class="st6" d="M347.5,48.6l-3.1-8.9h-0.1c0.1,1.3,0.1,2.6,0.1,3.7v5.2h-1.6V37.9h2.5l3,8.5l0,0l3.1-8.5h2.5v10.7h-1.7v-5.3
				c0-0.5,0-1.2,0-2.1s0.1-1.4,0.1-1.6h-0.1l-3.2,8.9L347.5,48.6L347.5,48.6z"/>
		</g>
		<g>
			<path class="st6" d="M360.3,42.7l2.5-4.9h1.9l-3.6,6.6v4.2h-1.8v-4.1l-3.6-6.6h1.9L360.3,42.7z"/>
		</g>
		<g>
			<path class="st6" d="M347.5,56.2c-1,0-1.8,0.4-2.4,1.1s-0.9,1.7-0.9,3s0.3,2.3,0.8,3c0.6,0.7,1.4,1,2.4,1c0.5,0,0.9,0,1.3-0.1
				s0.9-0.2,1.3-0.3v1.5c-0.8,0.3-1.8,0.5-2.9,0.5c-1.6,0-2.8-0.5-3.6-1.4c-0.8-0.9-1.3-2.3-1.3-4.1c0-1.1,0.2-2.1,0.6-2.9
				c0.4-0.8,1-1.5,1.8-1.9s1.7-0.7,2.7-0.7c1.1,0,2.1,0.2,3,0.7l-0.6,1.5c-0.4-0.2-0.7-0.3-1.1-0.5
				C348.3,56.3,347.9,56.2,347.5,56.2z"/>
		</g>
		<g>
			<path class="st6" d="M359.8,65.6l-1.1-3h-4.1l-1,3h-1.8l4-10.8h1.9l4,10.8H359.8z M358.3,61.1l-1-2.9c-0.1-0.2-0.2-0.5-0.3-0.9
				c-0.1-0.4-0.2-0.7-0.3-0.9c-0.1,0.6-0.3,1.3-0.6,2l-1,2.8L358.3,61.1L358.3,61.1z"/>
		</g>
		<g>
			<path class="st6" d="M370.1,62.7c0,1-0.3,1.7-1,2.2s-1.6,0.8-2.8,0.8s-2.2-0.2-3-0.6v-1.7c0.5,0.2,1,0.4,1.6,0.5
				c0.5,0.1,1.1,0.2,1.5,0.2c0.7,0,1.2-0.1,1.5-0.4c0.3-0.3,0.5-0.6,0.5-1.1c0-0.4-0.2-0.7-0.5-1s-0.9-0.6-1.9-1s-1.7-0.8-2.1-1.4
				s-0.6-1.1-0.6-1.8c0-0.9,0.3-1.6,1-2.1s1.5-0.8,2.6-0.8c1,0,2,0.2,3.1,0.7l-0.6,1.4c-1-0.4-1.8-0.6-2.5-0.6c-0.6,0-1,0.1-1.3,0.4
				s-0.4,0.6-0.4,1c0,0.3,0.1,0.5,0.2,0.7s0.3,0.4,0.6,0.6s0.8,0.4,1.5,0.7c0.8,0.3,1.4,0.6,1.7,0.9s0.6,0.6,0.8,1
				S370.1,62.2,370.1,62.7z"/>
		</g>
		<g>
			<path class="st6" d="M378.6,65.6h-6.1V54.9h6.1v1.5h-4.3v2.9h4v1.5h-4v3.4h4.3V65.6z"/>
		</g>
		<g>
			<path class="st6" d="M387.5,62.7c0,1-0.3,1.7-1,2.2s-1.6,0.8-2.8,0.8s-2.2-0.2-3-0.6v-1.7c0.5,0.2,1,0.4,1.6,0.5
				c0.5,0.1,1.1,0.2,1.5,0.2c0.7,0,1.2-0.1,1.5-0.4c0.3-0.3,0.5-0.6,0.5-1.1c0-0.4-0.2-0.7-0.5-1s-0.9-0.6-1.9-1s-1.7-0.8-2.1-1.4
				s-0.6-1.1-0.6-1.8c0-0.9,0.3-1.6,1-2.1s1.5-0.8,2.6-0.8c1,0,2,0.2,3.1,0.7l-0.6,1.4c-1-0.4-1.8-0.6-2.5-0.6c-0.6,0-1,0.1-1.3,0.4
				s-0.4,0.6-0.4,1c0,0.3,0.1,0.5,0.2,0.7s0.3,0.4,0.6,0.6s0.8,0.4,1.5,0.7c0.8,0.3,1.4,0.6,1.7,0.9s0.6,0.6,0.8,1
				S387.5,62.2,387.5,62.7z"/>
		</g>
	</g>
	<g class="st4">
		<polygon points="514,42.5 499.7,32.6 499.7,38.5 473.4,38.5 473.4,46.4 499.7,46.4 499.7,52.3 		"/>
	</g>
	<path class="st7" d="M685.3,78.4H560.7c-19.8,0-36-16.2-36-36l0,0c0-19.8,16.2-36,36-36h124.6c19.8,0,36,16.2,36,36l0,0
		C721.3,62.2,705.1,78.4,685.3,78.4z"/>
	<path class="st8" d="M685.3,80.4H560.7c-20.9,0-38-17-38-38s17-38,38-38h124.6c20.9,0,38,17,38,38S706.3,80.4,685.3,80.4z
		 M560.7,8.5c-18.7,0-34,15.2-34,34s15.2,34,34,34h124.6c18.7,0,34-15.2,34-34s-15.2-34-34-34H560.7z"/>
	<g class="st4">
		<g>
			<path class="st9" d="M582.1,31.6c0,2.7-0.8,4.9-2.3,6.6s-3.6,2.9-6.4,3.4v0.2c3.4,0.4,5.9,1.5,7.5,3.2s2.4,4,2.4,6.8
				c0,4-1.4,7.1-4.2,9.3s-6.7,3.2-11.9,3.2c-2.2,0-4.3-0.2-6.1-0.5c-1.9-0.3-3.7-0.9-5.4-1.8v-4.6c1.8,0.9,3.8,1.6,5.8,2.1
				s4,0.7,5.9,0.7c7.3,0,10.9-2.9,10.9-8.6c0-5.1-4-7.7-12-7.7h-4.1v-4.1h4.2c3.3,0,5.9-0.7,7.8-2.2c1.9-1.4,2.9-3.5,2.9-6
				c0-2.1-0.7-3.7-2.1-4.8c-1.4-1.2-3.3-1.8-5.7-1.8c-1.8,0-3.6,0.2-5.2,0.7c-1.6,0.5-3.5,1.4-5.6,2.8l-2.4-3.2
				c1.7-1.4,3.7-2.4,6-3.2c2.3-0.8,4.6-1.2,7.1-1.2c4.1,0,7.3,0.9,9.5,2.8C581,25.7,582.1,28.3,582.1,31.6z"/>
		</g>
	</g>
	<g class="st4">
		<g>
			<path class="st10" d="M607.1,28.7c0,1-0.3,1.7-1,2.2s-1.6,0.8-2.8,0.8s-2.2-0.2-3-0.6v-1.7c0.5,0.2,1,0.4,1.6,0.5
				c0.5,0.1,1.1,0.2,1.5,0.2c0.7,0,1.2-0.1,1.5-0.4s0.5-0.6,0.5-1.1c0-0.4-0.2-0.7-0.5-1s-0.9-0.6-1.9-1s-1.7-0.8-2.1-1.4
				s-0.6-1.1-0.6-1.8c0-0.9,0.3-1.6,1-2.1s1.5-0.8,2.6-0.8c1,0,2,0.2,3.1,0.7l-0.6,1.4c-1-0.4-1.8-0.6-2.5-0.6c-0.6,0-1,0.1-1.3,0.4
				s-0.4,0.6-0.4,1c0,0.3,0.1,0.5,0.2,0.7c0.1,0.2,0.3,0.4,0.6,0.6s0.8,0.4,1.5,0.7c0.8,0.3,1.4,0.6,1.7,0.9s0.6,0.6,0.8,1
				S607.1,28.2,607.1,28.7z"/>
		</g>
		<g>
			<path class="st10" d="M615.6,31.6h-6.1V20.9h6.1v1.5h-4.3v2.9h4v1.5h-4v3.4h4.3V31.6z"/>
		</g>
		<g>
			<path class="st10" d="M618.2,31.6V20.9h1.8v9.2h4.5v1.5C624.5,31.6,618.2,31.6,618.2,31.6z"/>
		</g>
		<g>
			<path class="st10" d="M632.7,31.6h-6.1V20.9h6.1v1.5h-4.3v2.9h4v1.5h-4v3.4h4.3V31.6z"/>
		</g>
		<g>
			<path class="st10" d="M639.7,22.2c-1,0-1.8,0.4-2.4,1.1s-0.9,1.7-0.9,3s0.3,2.3,0.8,3c0.6,0.7,1.4,1,2.4,1c0.5,0,0.9,0,1.3-0.1
				c0.4-0.1,0.9-0.2,1.3-0.3v1.5c-0.8,0.3-1.8,0.5-2.9,0.5c-1.6,0-2.8-0.5-3.6-1.4s-1.3-2.3-1.3-4.1c0-1.1,0.2-2.1,0.6-2.9
				c0.4-0.8,1-1.5,1.8-1.9s1.7-0.7,2.7-0.7c1.1,0,2.1,0.2,3,0.7l-0.6,1.5c-0.4-0.2-0.7-0.3-1.1-0.5
				C640.6,22.3,640.2,22.2,639.7,22.2z"/>
		</g>
		<g>
			<path class="st10" d="M649.3,31.6h-1.8v-9.2h-3.1v-1.5h8v1.5h-3.1L649.3,31.6L649.3,31.6z"/>
		</g>
		<g>
			<path class="st10" d="M660.5,31.6h-1.7V20.9h6v1.5h-4.3v3.3h4v1.5h-4V31.6z"/>
		</g>
		<g>
			<path class="st10" d="M667,31.6V20.9h1.8v10.7C668.8,31.6,667,31.6,667,31.6z"/>
		</g>
		<g>
			<path class="st10" d="M671.9,31.6V20.9h1.8v9.2h4.5v1.5C678.2,31.6,671.9,31.6,671.9,31.6z"/>
		</g>
		<g>
			<path class="st10" d="M686.4,31.6h-6.1V20.9h6.1v1.5h-4.3v2.9h4v1.5h-4v3.4h4.3V31.6z"/>
		</g>
		<g>
			<path class="st10" d="M695.3,28.7c0,1-0.3,1.7-1,2.2s-1.6,0.8-2.8,0.8s-2.2-0.2-3-0.6v-1.7c0.5,0.2,1,0.4,1.6,0.5
				c0.5,0.1,1.1,0.2,1.5,0.2c0.7,0,1.2-0.1,1.5-0.4s0.5-0.6,0.5-1.1c0-0.4-0.2-0.7-0.5-1s-0.9-0.6-1.9-1s-1.7-0.8-2.1-1.4
				s-0.6-1.1-0.6-1.8c0-0.9,0.3-1.6,1-2.1s1.5-0.8,2.6-0.8c1,0,2,0.2,3.1,0.7l-0.6,1.4c-1-0.4-1.8-0.6-2.5-0.6c-0.6,0-1,0.1-1.3,0.4
				s-0.4,0.6-0.4,1c0,0.3,0.1,0.5,0.2,0.7c0.1,0.2,0.3,0.4,0.6,0.6s0.8,0.4,1.5,0.7c0.8,0.3,1.4,0.6,1.7,0.9s0.6,0.6,0.8,1
				S695.3,28.2,695.3,28.7z"/>
		</g>
		<g>
			<path class="st10" d="M600.2,45.7c0-0.6,0.2-1.2,0.5-1.7s0.9-0.9,1.7-1.4c-0.5-0.5-0.8-1-0.9-1.4c-0.2-0.4-0.3-0.8-0.3-1.2
				c0-0.7,0.3-1.3,0.8-1.8c0.5-0.4,1.2-0.6,2.1-0.6c0.9,0,1.5,0.2,2,0.6c0.5,0.4,0.7,1,0.7,1.7c0,0.6-0.2,1.1-0.5,1.5
				c-0.3,0.5-0.9,0.9-1.7,1.4l2.5,2.4c0.4-0.5,0.7-1.3,1-2.3h1.8c-0.3,1.4-0.9,2.5-1.6,3.4l2.2,2.1h-2.2l-1.1-1.1
				c-0.5,0.4-1,0.7-1.6,0.9s-1.2,0.3-1.9,0.3c-1.1,0-2-0.3-2.6-0.8S600.2,46.7,600.2,45.7z M603.9,47.2c0.9,0,1.7-0.3,2.3-0.8
				l-2.8-2.8c-0.5,0.3-0.9,0.6-1.1,0.9c-0.2,0.3-0.3,0.6-0.3,1c0,0.5,0.2,0.9,0.5,1.2C602.9,47.1,603.3,47.2,603.9,47.2z
				 M602.8,40.2c0,0.3,0.1,0.6,0.2,0.9c0.2,0.3,0.4,0.6,0.7,0.9c0.6-0.3,0.9-0.6,1.2-0.9c0.2-0.3,0.3-0.6,0.3-0.9
				c0-0.3-0.1-0.6-0.3-0.8s-0.5-0.3-0.8-0.3c-0.4,0-0.7,0.1-0.9,0.3C602.9,39.6,602.8,39.8,602.8,40.2z"/>
		</g>
		<g>
			<path class="st10" d="M621.2,39.2c-1,0-1.8,0.4-2.4,1.1s-0.9,1.7-0.9,3s0.3,2.3,0.8,3c0.6,0.7,1.4,1,2.4,1c0.5,0,0.9,0,1.3-0.1
				c0.4-0.1,0.9-0.2,1.3-0.3v1.5c-0.8,0.3-1.8,0.5-2.9,0.5c-1.6,0-2.8-0.5-3.6-1.4s-1.3-2.3-1.3-4.1c0-1.1,0.2-2.1,0.6-2.9
				c0.4-0.8,1-1.5,1.8-1.9s1.7-0.7,2.7-0.7c1.1,0,2.1,0.2,3,0.7l-0.6,1.5c-0.4-0.2-0.7-0.3-1.1-0.5
				C622.1,39.3,621.7,39.2,621.2,39.2z"/>
		</g>
		<g>
			<path class="st10" d="M628.2,44.3v4.3h-1.8V37.9h3c1.4,0,2.4,0.3,3.1,0.8s1,1.3,1,2.3c0,1.3-0.7,2.3-2.1,2.8l3,4.7h-2l-2.6-4.3
				L628.2,44.3L628.2,44.3z M628.2,42.8h1.2c0.8,0,1.4-0.2,1.8-0.5s0.5-0.8,0.5-1.3c0-0.6-0.2-1-0.6-1.3s-1-0.4-1.8-0.4h-1.2
				L628.2,42.8L628.2,42.8z"/>
		</g>
		<g>
			<path class="st10" d="M642.6,48.6h-6.1V37.9h6.1v1.5h-4.3v2.9h4v1.5h-4v3.4h4.3V48.6z"/>
		</g>
		<g>
			<path class="st10" d="M652.3,48.6l-1.1-3h-4.1l-1,3h-1.8l4-10.8h1.9l4,10.8H652.3z M650.8,44.1l-1-2.9c-0.1-0.2-0.2-0.5-0.3-0.9
				s-0.2-0.7-0.3-0.9c-0.1,0.6-0.3,1.3-0.6,2l-1,2.8L650.8,44.1L650.8,44.1z"/>
		</g>
		<g>
			<path class="st10" d="M658.9,48.6h-1.8v-9.2H654v-1.5h8v1.5h-3.1V48.6z"/>
		</g>
		<g>
			<path class="st10" d="M670.1,48.6H664V37.9h6.1v1.5h-4.3v2.9h4v1.5h-4v3.4h4.3V48.6z"/>
		</g>
		<g>
			<path class="st10" d="M605.5,65.6l-3.1-8.9h-0.1c0.1,1.3,0.1,2.6,0.1,3.7v5.2h-1.6V54.9h2.5l3,8.5l0,0l3.1-8.5h2.5v10.7h-1.7
				v-5.3c0-0.5,0-1.2,0-2.1c0-0.9,0-1.4,0.1-1.6h-0.1l-3.2,8.9L605.5,65.6L605.5,65.6z"/>
		</g>
		<g>
			<path class="st10" d="M621.9,65.6l-1.1-3h-4.1l-1,3h-1.8l4-10.8h1.9l4,10.8H621.9z M620.4,61.1l-1-2.9c-0.1-0.2-0.2-0.5-0.3-0.9
				s-0.2-0.7-0.3-0.9c-0.1,0.6-0.3,1.3-0.6,2l-1,2.8L620.4,61.1L620.4,61.1z"/>
		</g>
		<g>
			<path class="st10" d="M634.7,65.6h-2.1l-5.3-8.5h-0.1v0.5c0.1,0.9,0.1,1.7,0.1,2.5v5.6h-1.6V54.9h2.1l5.3,8.5l0,0
				c0-0.1,0-0.5-0.1-1.2c0-0.7,0-1.3,0-1.7v-5.6h1.6L634.7,65.6L634.7,65.6z"/>
		</g>
		<g>
			<path class="st10" d="M637.8,65.6V54.9h1.8v10.7H637.8z"/>
		</g>
		<g>
			<path class="st10" d="M644.4,65.6h-1.7V54.9h6v1.5h-4.3v3.3h4v1.5h-4V65.6z"/>
		</g>
		<g>
			<path class="st10" d="M657,65.6h-6.1V54.9h6.1v1.5h-4.3v2.9h4v1.5h-4v3.4h4.3V65.6z"/>
		</g>
		<g>
			<path class="st10" d="M665.9,62.7c0,1-0.3,1.7-1,2.2s-1.6,0.8-2.8,0.8s-2.2-0.2-3-0.6v-1.7c0.5,0.2,1,0.4,1.6,0.5
				c0.5,0.1,1.1,0.2,1.5,0.2c0.7,0,1.2-0.1,1.5-0.4c0.3-0.3,0.5-0.6,0.5-1.1c0-0.4-0.2-0.7-0.5-1s-0.9-0.6-1.9-1s-1.7-0.8-2.1-1.4
				s-0.6-1.1-0.6-1.8c0-0.9,0.3-1.6,1-2.1s1.5-0.8,2.6-0.8c1,0,2,0.2,3.1,0.7l-0.6,1.4c-1-0.4-1.8-0.6-2.5-0.6c-0.6,0-1,0.1-1.3,0.4
				s-0.4,0.6-0.4,1c0,0.3,0.1,0.5,0.2,0.7c0.1,0.2,0.3,0.4,0.6,0.6s0.8,0.4,1.5,0.7c0.8,0.3,1.4,0.6,1.7,0.9s0.6,0.6,0.8,1
				S665.9,62.2,665.9,62.7z"/>
		</g>
		<g>
			<path class="st10" d="M672.4,65.6h-1.8v-9.2h-3.1v-1.5h8v1.5h-3.1L672.4,65.6L672.4,65.6z"/>
		</g>
	</g>
</g>
<g id="_x33_" class="st0">
	<path class="st2" d="M164.9,78.4H40.3c-19.8,0-36-16.2-36-36l0,0c0-19.8,16.2-36,36-36h124.6c19.8,0,36,16.2,36,36l0,0
		C200.9,62.2,184.7,78.4,164.9,78.4z"/>
	<path class="st3" d="M164.9,80.4H40.3c-20.9,0-38-17-38-38s17-38,38-38h124.6c20.9,0,38,17,38,38S185.8,80.4,164.9,80.4z M40.3,8.5
		c-18.7,0-34,15.2-34,34s15.2,34,34,34h124.6c18.7,0,34-15.2,34-34s-15.2-34-34-34H40.3z"/>
	<g class="st4">
		<g>
			<path class="st5" d="M48.4,63.8h-4.7v-30c0-2.5,0.1-4.9,0.2-7.1c-0.4,0.4-0.9,0.8-1.4,1.3c-0.5,0.4-2.8,2.3-6.9,5.6l-2.5-3.3
				l11.1-8.6h4v42.1H48.4z"/>
		</g>
	</g>
	<g class="st4">
		<g>
			<path class="st6" d="M75.6,28.7c0,1-0.3,1.7-1,2.2s-1.6,0.8-2.8,0.8s-2.2-0.2-3-0.6v-1.7c0.5,0.2,1,0.4,1.6,0.5
				c0.5,0.1,1.1,0.2,1.5,0.2c0.7,0,1.2-0.1,1.5-0.4s0.5-0.6,0.5-1.1c0-0.4-0.2-0.7-0.5-1s-0.9-0.6-1.9-1s-1.7-0.8-2.1-1.4
				s-0.6-1.1-0.6-1.8c0-0.9,0.3-1.6,1-2.1s1.5-0.8,2.6-0.8c1,0,2,0.2,3.1,0.7l-0.6,1.4c-1-0.4-1.8-0.6-2.5-0.6c-0.6,0-1,0.1-1.3,0.4
				s-0.4,0.6-0.4,1c0,0.3,0.1,0.5,0.2,0.7s0.3,0.4,0.6,0.6s0.8,0.4,1.5,0.7c0.8,0.3,1.4,0.6,1.7,0.9s0.6,0.6,0.8,1
				S75.6,28.2,75.6,28.7z"/>
		</g>
		<g>
			<path class="st6" d="M84.1,31.6H78V20.9h6.1v1.5h-4.3v2.9h4v1.5h-4v3.4h4.3V31.6z"/>
		</g>
		<g>
			<path class="st6" d="M86.7,31.6V20.9h1.8v9.2H93v1.5C93,31.6,86.7,31.6,86.7,31.6z"/>
		</g>
		<g>
			<path class="st6" d="M101.2,31.6h-6.1V20.9h6.1v1.5h-4.3v2.9h4v1.5h-4v3.4h4.3V31.6z"/>
		</g>
		<g>
			<path class="st6" d="M108.3,22.2c-1,0-1.8,0.4-2.4,1.1s-0.9,1.7-0.9,3s0.3,2.3,0.8,3c0.6,0.7,1.4,1,2.4,1c0.5,0,0.9,0,1.3-0.1
				s0.9-0.2,1.3-0.3v1.5c-0.8,0.3-1.8,0.5-2.9,0.5c-1.6,0-2.8-0.5-3.6-1.4c-0.8-0.9-1.3-2.3-1.3-4.1c0-1.1,0.2-2.1,0.6-2.9
				s1-1.5,1.8-1.9s1.7-0.7,2.7-0.7c1.1,0,2.1,0.2,3,0.7l-0.6,1.5c-0.4-0.2-0.7-0.3-1.1-0.5C109.2,22.3,108.7,22.2,108.3,22.2z"/>
		</g>
		<g>
			<path class="st6" d="M117.8,31.6H116v-9.2h-3.1v-1.5h8v1.5h-3.1V31.6z"/>
		</g>
		<g>
			<path class="st6" d="M126.6,28.7c0-0.6,0.2-1.2,0.5-1.7s0.9-0.9,1.7-1.4c-0.5-0.5-0.8-1-0.9-1.4c-0.2-0.4-0.3-0.8-0.3-1.2
				c0-0.7,0.3-1.3,0.8-1.8c0.5-0.5,1.2-0.6,2.1-0.6c0.9,0,1.5,0.2,2,0.6s0.7,1,0.7,1.7c0,0.6-0.2,1.1-0.5,1.5
				c-0.3,0.5-0.9,0.9-1.7,1.4l2.5,2.4c0.4-0.5,0.7-1.3,1-2.3h1.8c-0.3,1.4-0.9,2.5-1.6,3.4l2.2,2.1h-2.2l-1.1-1.1
				c-0.5,0.4-1,0.7-1.6,0.9c-0.6,0.2-1.2,0.3-1.9,0.3c-1.1,0-2-0.3-2.6-0.8S126.6,29.7,126.6,28.7z M130.3,30.2
				c0.9,0,1.7-0.3,2.3-0.8l-2.8-2.8c-0.5,0.3-0.9,0.6-1.1,0.9c-0.2,0.3-0.3,0.6-0.3,1c0,0.5,0.2,0.9,0.5,1.2
				C129.2,30.1,129.7,30.2,130.3,30.2z M129.2,23.2c0,0.3,0.1,0.6,0.2,0.9c0.2,0.3,0.4,0.6,0.7,0.9c0.6-0.3,0.9-0.6,1.2-0.9
				c0.2-0.3,0.3-0.6,0.3-0.9s-0.1-0.6-0.3-0.8c-0.2-0.2-0.5-0.3-0.8-0.3c-0.4,0-0.7,0.1-0.9,0.3C129.3,22.6,129.2,22.8,129.2,23.2z"
				/>
		</g>
		<g>
			<path class="st6" d="M75.6,45.7c0,1-0.3,1.7-1,2.2s-1.6,0.8-2.8,0.8s-2.2-0.2-3-0.6v-1.7c0.5,0.2,1,0.4,1.6,0.5
				c0.5,0.1,1.1,0.2,1.5,0.2c0.7,0,1.2-0.1,1.5-0.4c0.3-0.3,0.5-0.6,0.5-1.1c0-0.4-0.2-0.7-0.5-1s-0.9-0.6-1.9-1s-1.7-0.8-2.1-1.4
				s-0.6-1.1-0.6-1.8c0-0.9,0.3-1.6,1-2.1s1.5-0.8,2.6-0.8c1,0,2,0.2,3.1,0.7l-0.6,1.4c-1-0.4-1.8-0.6-2.5-0.6c-0.6,0-1,0.1-1.3,0.4
				s-0.4,0.6-0.4,1c0,0.3,0.1,0.5,0.2,0.7s0.3,0.4,0.6,0.6s0.8,0.4,1.5,0.7c0.8,0.3,1.4,0.6,1.7,0.9s0.6,0.6,0.8,1
				S75.6,45.2,75.6,45.7z"/>
		</g>
		<g>
			<path class="st6" d="M84.9,48.6l-1.1-3h-4.1l-1,3h-1.8l4-10.8h1.9l4,10.8H84.9z M83.4,44.1l-1-2.9c-0.1-0.2-0.2-0.5-0.3-0.9
				c-0.1-0.4-0.2-0.7-0.3-0.9c-0.1,0.6-0.3,1.3-0.6,2l-1,2.8L83.4,44.1L83.4,44.1z"/>
		</g>
		<g>
			<path class="st6" d="M94.1,37.9h1.8l-3.8,10.7h-1.8l-3.7-10.7h1.8l2.2,6.7c0.1,0.3,0.2,0.7,0.4,1.2s0.2,0.9,0.3,1.1
				c0.1-0.4,0.2-0.8,0.3-1.3s0.2-0.8,0.3-1.1L94.1,37.9z"/>
		</g>
		<g>
			<path class="st6" d="M103.9,48.6h-6.1V37.9h6.1v1.5h-4.3v2.9h4v1.5h-4v3.4h4.3V48.6z"/>
		</g>
		<g>
			<path class="st6" d="M114.6,48.6h-1.8v-9.2h-3.1v-1.5h8v1.5h-3.1V48.6z"/>
		</g>
		<g>
			<path class="st6" d="M129.1,43.2c0,1.7-0.4,3.1-1.3,4.1c-0.9,1-2.1,1.5-3.7,1.5s-2.9-0.5-3.7-1.4c-0.9-1-1.3-2.3-1.3-4.1
				s0.4-3.1,1.3-4.1c0.9-0.9,2.1-1.4,3.7-1.4s2.8,0.5,3.7,1.4S129.1,41.4,129.1,43.2z M120.9,43.2c0,1.3,0.3,2.3,0.8,3s1.3,1,2.4,1
				c1,0,1.8-0.3,2.4-1c0.5-0.7,0.8-1.7,0.8-3s-0.3-2.3-0.8-3s-1.3-1-2.3-1s-1.8,0.3-2.4,1C121.2,40.9,120.9,41.9,120.9,43.2z"/>
		</g>
		<g>
			<path class="st6" d="M74.1,65.6l-3.1-9h-0.1c0.1,1.3,0.1,2.6,0.1,3.7v5.2h-1.6V54.9h2.5l3,8.5l0,0l3.1-8.5h2.5v10.7h-1.7v-5.3
				c0-0.5,0-1.2,0-2.1s0.1-1.4,0.1-1.6h-0.1l-3.2,8.9L74.1,65.6L74.1,65.6z"/>
		</g>
		<g>
			<path class="st6" d="M86.9,59.7l2.5-4.9h1.9l-3.6,6.6v4.2H86v-4.1l-3.6-6.6h1.9L86.9,59.7z"/>
		</g>
		<g>
			<path class="st6" d="M101.9,56.2c-1,0-1.8,0.4-2.4,1.1s-0.9,1.7-0.9,3s0.3,2.3,0.8,3c0.6,0.7,1.4,1,2.4,1c0.5,0,0.9,0,1.3-0.1
				s0.9-0.2,1.3-0.3v1.5c-0.8,0.3-1.8,0.5-2.9,0.5c-1.6,0-2.8-0.5-3.6-1.4c-0.8-0.9-1.3-2.3-1.3-4.1c0-1.1,0.2-2.1,0.6-2.9
				c0.4-0.8,1-1.5,1.8-1.9s1.7-0.7,2.7-0.7c1.1,0,2.1,0.2,3,0.7l-0.6,1.5c-0.4-0.2-0.7-0.3-1.1-0.5
				C102.8,56.3,102.4,56.2,101.9,56.2z"/>
		</g>
		<g>
			<path class="st6" d="M114.3,65.6l-1.1-3h-4.1l-1,3h-1.8l4-10.8h1.9l4,10.8H114.3z M112.8,61.1l-1-2.9c-0.1-0.2-0.2-0.5-0.3-0.9
				c-0.1-0.4-0.2-0.7-0.3-0.9c-0.1,0.6-0.3,1.3-0.6,2l-1,2.8L112.8,61.1L112.8,61.1z"/>
		</g>
		<g>
			<path class="st6" d="M124.6,62.7c0,1-0.3,1.7-1,2.2s-1.6,0.8-2.8,0.8s-2.2-0.2-3-0.6v-1.7c0.5,0.2,1,0.4,1.6,0.5
				c0.5,0.1,1.1,0.2,1.5,0.2c0.7,0,1.2-0.1,1.5-0.4c0.3-0.3,0.5-0.6,0.5-1.1c0-0.4-0.2-0.7-0.5-1s-0.9-0.6-1.9-1s-1.7-0.8-2.1-1.4
				s-0.6-1.1-0.6-1.8c0-0.9,0.3-1.6,1-2.1s1.5-0.8,2.6-0.8c1,0,2,0.2,3.1,0.7l-0.6,1.4c-1-0.4-1.8-0.6-2.5-0.6c-0.6,0-1,0.1-1.3,0.4
				s-0.4,0.6-0.4,1c0,0.3,0.1,0.5,0.2,0.7s0.3,0.4,0.6,0.6s0.8,0.4,1.5,0.7c0.8,0.3,1.4,0.6,1.7,0.9s0.6,0.6,0.8,1
				S124.6,62.2,124.6,62.7z"/>
		</g>
		<g>
			<path class="st6" d="M133.1,65.6H127V54.9h6.1v1.5h-4.3v2.9h4v1.5h-4v3.4h4.3V65.6z"/>
		</g>
		<g>
			<path class="st6" d="M142,62.7c0,1-0.3,1.7-1,2.2s-1.6,0.8-2.8,0.8s-2.2-0.2-3-0.6v-1.7c0.5,0.2,1,0.4,1.6,0.5
				c0.5,0.1,1.1,0.2,1.5,0.2c0.7,0,1.2-0.1,1.5-0.4c0.3-0.3,0.5-0.6,0.5-1.1c0-0.4-0.2-0.7-0.5-1s-0.9-0.6-1.9-1s-1.7-0.8-2.1-1.4
				s-0.6-1.1-0.6-1.8c0-0.9,0.3-1.6,1-2.1s1.5-0.8,2.6-0.8c1,0,2,0.2,3.1,0.7l-0.6,1.4c-1-0.4-1.8-0.6-2.5-0.6c-0.6,0-1,0.1-1.3,0.4
				s-0.4,0.6-0.4,1c0,0.3,0.1,0.5,0.2,0.7c0.1,0.2,0.3,0.4,0.6,0.6s0.8,0.4,1.5,0.7c0.8,0.3,1.4,0.6,1.7,0.9s0.6,0.6,0.8,1
				S142,62.2,142,62.7z"/>
		</g>
	</g>
	<g class="st4">
		<g>
			<polygon points="253.8,42.5 239.5,32.6 239.5,52.3 			"/>
		</g>
		<g>
			<rect x="213.1" y="38.5" width="27.4" height="7.9"/>
		</g>
	</g>
	<path class="st2" d="M424.5,78.4H299.8c-19.8,0-36-16.2-36-36l0,0c0-19.8,16.2-36,36-36h124.6c19.8,0,36,16.2,36,36l0,0
		C460.4,62.2,444.2,78.4,424.5,78.4z"/>
	<path class="st3" d="M424.5,80.4H299.8c-20.9,0-38-17-38-38s17-38,38-38h124.6c20.9,0,38,17,38,38S445.4,80.4,424.5,80.4z
		 M299.8,8.5c-18.7,0-34,15.2-34,34s15.2,34,34,34h124.6c18.7,0,34-15.2,34-34s-15.2-34-34-34H299.8z"/>
	<g class="st4">
		<g>
			<path class="st5" d="M324.7,63.8H297v-4.1l11.1-11.1c3.4-3.4,5.6-5.9,6.7-7.3c1.1-1.5,1.9-2.9,2.4-4.3c0.5-1.4,0.8-2.9,0.8-4.5
				c0-2.2-0.7-4-2-5.3c-1.4-1.3-3.3-2-5.7-2c-1.7,0-3.4,0.3-5,0.9s-3.3,1.6-5.2,3.1l-2.5-3.3c3.9-3.2,8.1-4.8,12.7-4.8
				c4,0,7.1,1,9.3,3s3.4,4.7,3.4,8.2c0,2.7-0.7,5.3-2.2,7.9c-1.5,2.6-4.3,5.9-8.4,9.9l-9.2,9v0.2h21.7v4.5H324.7z"/>
		</g>
	</g>
	<g class="st4">
		<g>
			<path class="st6" d="M344.7,27.3v4.3h-1.8V20.9h3c1.4,0,2.4,0.3,3.1,0.8s1,1.3,1,2.3c0,1.3-0.7,2.3-2.1,2.8l3,4.7h-2l-2.6-4.3
				h-1.6V27.3z M344.7,25.8h1.2c0.8,0,1.4-0.2,1.8-0.5s0.5-0.8,0.5-1.3c0-0.6-0.2-1-0.6-1.3s-1-0.4-1.8-0.4h-1.2v3.5H344.7z"/>
		</g>
		<g>
			<path class="st6" d="M359,31.6h-6V20.9h6.1v1.5h-4.3v2.9h4v1.5h-4v3.4h4.3v1.4H359z"/>
		</g>
		<g>
			<path class="st6" d="M368.2,20.9h1.8l-3.8,10.7h-1.8l-3.7-10.7h1.8l2.2,6.7c0.1,0.3,0.2,0.7,0.4,1.2s0.2,0.9,0.3,1.1
				c0.1-0.4,0.2-0.8,0.3-1.3s0.2-0.8,0.3-1.1L368.2,20.9z"/>
		</g>
		<g>
			<path class="st6" d="M372,31.6V20.9h1.8v10.7C373.8,31.6,372,31.6,372,31.6z"/>
		</g>
		<g>
			<path class="st6" d="M382.9,31.6h-6.1V20.9h6.1v1.5h-4.3v2.9h4v1.5h-4v3.4h4.3V31.6z"/>
		</g>
		<g>
			<path class="st6" d="M395.9,31.6H394l-1.8-6.4c-0.1-0.3-0.2-0.7-0.3-1.2c-0.1-0.5-0.2-0.9-0.2-1.1c0,0.3-0.1,0.7-0.2,1.2
				s-0.2,0.9-0.3,1.1l-1.8,6.4h-1.9l-1.4-5.4l-1.4-5.3h1.8l1.5,6.2c0.2,1,0.4,1.9,0.5,2.7c0.1-0.4,0.1-0.9,0.2-1.4s0.2-0.9,0.3-1.2
				l1.7-6.3h1.7l1.8,6.3c0.2,0.6,0.4,1.5,0.5,2.6c0.1-0.7,0.2-1.6,0.5-2.7l1.5-6.2h1.8L395.9,31.6z"/>
		</g>
		<g>
			<path class="st6" d="M347.5,48.6l-3.1-8.9h-0.1c0.1,1.3,0.1,2.6,0.1,3.7v5.2h-1.6V37.9h2.5l3,8.5l0,0l3.1-8.5h2.5v10.7h-1.7v-5.3
				c0-0.5,0-1.2,0-2.1s0.1-1.4,0.1-1.6h-0.1l-3.2,8.9L347.5,48.6L347.5,48.6z"/>
		</g>
		<g>
			<path class="st6" d="M360.3,42.7l2.5-4.9h1.9l-3.6,6.6v4.2h-1.8v-4.1l-3.6-6.6h1.9L360.3,42.7z"/>
		</g>
		<g>
			<path class="st6" d="M347.5,56.2c-1,0-1.8,0.4-2.4,1.1s-0.9,1.7-0.9,3s0.3,2.3,0.8,3c0.6,0.7,1.4,1,2.4,1c0.5,0,0.9,0,1.3-0.1
				s0.9-0.2,1.3-0.3v1.5c-0.8,0.3-1.8,0.5-2.9,0.5c-1.6,0-2.8-0.5-3.6-1.4c-0.8-0.9-1.3-2.3-1.3-4.1c0-1.1,0.2-2.1,0.6-2.9
				c0.4-0.8,1-1.5,1.8-1.9s1.7-0.7,2.7-0.7c1.1,0,2.1,0.2,3,0.7l-0.6,1.5c-0.4-0.2-0.7-0.3-1.1-0.5
				C348.3,56.3,347.9,56.2,347.5,56.2z"/>
		</g>
		<g>
			<path class="st6" d="M359.8,65.6l-1.1-3h-4.1l-1,3h-1.8l4-10.8h1.9l4,10.8H359.8z M358.3,61.1l-1-2.9c-0.1-0.2-0.2-0.5-0.3-0.9
				c-0.1-0.4-0.2-0.7-0.3-0.9c-0.1,0.6-0.3,1.3-0.6,2l-1,2.8L358.3,61.1L358.3,61.1z"/>
		</g>
		<g>
			<path class="st6" d="M370.1,62.7c0,1-0.3,1.7-1,2.2s-1.6,0.8-2.8,0.8s-2.2-0.2-3-0.6v-1.7c0.5,0.2,1,0.4,1.6,0.5
				c0.5,0.1,1.1,0.2,1.5,0.2c0.7,0,1.2-0.1,1.5-0.4c0.3-0.3,0.5-0.6,0.5-1.1c0-0.4-0.2-0.7-0.5-1s-0.9-0.6-1.9-1s-1.7-0.8-2.1-1.4
				s-0.6-1.1-0.6-1.8c0-0.9,0.3-1.6,1-2.1s1.5-0.8,2.6-0.8c1,0,2,0.2,3.1,0.7l-0.6,1.4c-1-0.4-1.8-0.6-2.5-0.6c-0.6,0-1,0.1-1.3,0.4
				s-0.4,0.6-0.4,1c0,0.3,0.1,0.5,0.2,0.7s0.3,0.4,0.6,0.6s0.8,0.4,1.5,0.7c0.8,0.3,1.4,0.6,1.7,0.9s0.6,0.6,0.8,1
				S370.1,62.2,370.1,62.7z"/>
		</g>
		<g>
			<path class="st6" d="M378.6,65.6h-6.1V54.9h6.1v1.5h-4.3v2.9h4v1.5h-4v3.4h4.3V65.6z"/>
		</g>
		<g>
			<path class="st6" d="M387.5,62.7c0,1-0.3,1.7-1,2.2s-1.6,0.8-2.8,0.8s-2.2-0.2-3-0.6v-1.7c0.5,0.2,1,0.4,1.6,0.5
				c0.5,0.1,1.1,0.2,1.5,0.2c0.7,0,1.2-0.1,1.5-0.4c0.3-0.3,0.5-0.6,0.5-1.1c0-0.4-0.2-0.7-0.5-1s-0.9-0.6-1.9-1s-1.7-0.8-2.1-1.4
				s-0.6-1.1-0.6-1.8c0-0.9,0.3-1.6,1-2.1s1.5-0.8,2.6-0.8c1,0,2,0.2,3.1,0.7l-0.6,1.4c-1-0.4-1.8-0.6-2.5-0.6c-0.6,0-1,0.1-1.3,0.4
				s-0.4,0.6-0.4,1c0,0.3,0.1,0.5,0.2,0.7s0.3,0.4,0.6,0.6s0.8,0.4,1.5,0.7c0.8,0.3,1.4,0.6,1.7,0.9s0.6,0.6,0.8,1
				S387.5,62.2,387.5,62.7z"/>
		</g>
	</g>
	<g class="st4">
		<polygon points="514,42.5 499.7,32.6 499.7,38.5 473.4,38.5 473.4,46.4 499.7,46.4 499.7,52.3 		"/>
	</g>
	<path class="st2" d="M685.3,78.4H560.7c-19.8,0-36-16.2-36-36l0,0c0-19.8,16.2-36,36-36h124.6c19.8,0,36,16.2,36,36l0,0
		C721.3,62.2,705.1,78.4,685.3,78.4z"/>
	<path class="st3" d="M685.3,80.4H560.7c-20.9,0-38-17-38-38s17-38,38-38h124.6c20.9,0,38,17,38,38S706.3,80.4,685.3,80.4z
		 M560.7,8.5c-18.7,0-34,15.2-34,34s15.2,34,34,34h124.6c18.7,0,34-15.2,34-34s-15.2-34-34-34H560.7z"/>
	<g class="st4">
		<g>
			<path class="st5" d="M582.1,31.6c0,2.7-0.8,4.9-2.3,6.6s-3.6,2.9-6.4,3.4v0.2c3.4,0.4,5.9,1.5,7.5,3.2s2.4,4,2.4,6.8
				c0,4-1.4,7.1-4.2,9.3s-6.7,3.2-11.9,3.2c-2.2,0-4.3-0.2-6.1-0.5c-1.9-0.3-3.7-0.9-5.4-1.8v-4.6c1.8,0.9,3.8,1.6,5.8,2.1
				s4,0.7,5.9,0.7c7.3,0,10.9-2.9,10.9-8.6c0-5.1-4-7.7-12-7.7h-4.1v-4.1h4.2c3.3,0,5.9-0.7,7.8-2.2c1.9-1.4,2.9-3.5,2.9-6
				c0-2.1-0.7-3.7-2.1-4.8c-1.4-1.2-3.3-1.8-5.7-1.8c-1.8,0-3.6,0.2-5.2,0.7c-1.6,0.5-3.5,1.4-5.6,2.8l-2.4-3.2
				c1.7-1.4,3.7-2.4,6-3.2c2.3-0.8,4.6-1.2,7.1-1.2c4.1,0,7.3,0.9,9.5,2.8C581,25.7,582.1,28.3,582.1,31.6z"/>
		</g>
	</g>
	<g class="st4">
		<g>
			<path class="st6" d="M607.1,28.7c0,1-0.3,1.7-1,2.2s-1.6,0.8-2.8,0.8s-2.2-0.2-3-0.6v-1.7c0.5,0.2,1,0.4,1.6,0.5
				c0.5,0.1,1.1,0.2,1.5,0.2c0.7,0,1.2-0.1,1.5-0.4s0.5-0.6,0.5-1.1c0-0.4-0.2-0.7-0.5-1s-0.9-0.6-1.9-1s-1.7-0.8-2.1-1.4
				s-0.6-1.1-0.6-1.8c0-0.9,0.3-1.6,1-2.1s1.5-0.8,2.6-0.8c1,0,2,0.2,3.1,0.7l-0.6,1.4c-1-0.4-1.8-0.6-2.5-0.6c-0.6,0-1,0.1-1.3,0.4
				s-0.4,0.6-0.4,1c0,0.3,0.1,0.5,0.2,0.7c0.1,0.2,0.3,0.4,0.6,0.6s0.8,0.4,1.5,0.7c0.8,0.3,1.4,0.6,1.7,0.9s0.6,0.6,0.8,1
				S607.1,28.2,607.1,28.7z"/>
		</g>
		<g>
			<path class="st6" d="M615.6,31.6h-6.1V20.9h6.1v1.5h-4.3v2.9h4v1.5h-4v3.4h4.3V31.6z"/>
		</g>
		<g>
			<path class="st6" d="M618.2,31.6V20.9h1.8v9.2h4.5v1.5C624.5,31.6,618.2,31.6,618.2,31.6z"/>
		</g>
		<g>
			<path class="st6" d="M632.7,31.6h-6.1V20.9h6.1v1.5h-4.3v2.9h4v1.5h-4v3.4h4.3V31.6z"/>
		</g>
		<g>
			<path class="st6" d="M639.7,22.2c-1,0-1.8,0.4-2.4,1.1s-0.9,1.7-0.9,3s0.3,2.3,0.8,3c0.6,0.7,1.4,1,2.4,1c0.5,0,0.9,0,1.3-0.1
				c0.4-0.1,0.9-0.2,1.3-0.3v1.5c-0.8,0.3-1.8,0.5-2.9,0.5c-1.6,0-2.8-0.5-3.6-1.4s-1.3-2.3-1.3-4.1c0-1.1,0.2-2.1,0.6-2.9
				c0.4-0.8,1-1.5,1.8-1.9s1.7-0.7,2.7-0.7c1.1,0,2.1,0.2,3,0.7l-0.6,1.5c-0.4-0.2-0.7-0.3-1.1-0.5
				C640.6,22.3,640.2,22.2,639.7,22.2z"/>
		</g>
		<g>
			<path class="st6" d="M649.3,31.6h-1.8v-9.2h-3.1v-1.5h8v1.5h-3.1L649.3,31.6L649.3,31.6z"/>
		</g>
		<g>
			<path class="st6" d="M660.5,31.6h-1.7V20.9h6v1.5h-4.3v3.3h4v1.5h-4V31.6z"/>
		</g>
		<g>
			<path class="st6" d="M667,31.6V20.9h1.8v10.7C668.8,31.6,667,31.6,667,31.6z"/>
		</g>
		<g>
			<path class="st6" d="M671.9,31.6V20.9h1.8v9.2h4.5v1.5C678.2,31.6,671.9,31.6,671.9,31.6z"/>
		</g>
		<g>
			<path class="st6" d="M686.4,31.6h-6.1V20.9h6.1v1.5h-4.3v2.9h4v1.5h-4v3.4h4.3V31.6z"/>
		</g>
		<g>
			<path class="st6" d="M695.3,28.7c0,1-0.3,1.7-1,2.2s-1.6,0.8-2.8,0.8s-2.2-0.2-3-0.6v-1.7c0.5,0.2,1,0.4,1.6,0.5
				c0.5,0.1,1.1,0.2,1.5,0.2c0.7,0,1.2-0.1,1.5-0.4s0.5-0.6,0.5-1.1c0-0.4-0.2-0.7-0.5-1s-0.9-0.6-1.9-1s-1.7-0.8-2.1-1.4
				s-0.6-1.1-0.6-1.8c0-0.9,0.3-1.6,1-2.1s1.5-0.8,2.6-0.8c1,0,2,0.2,3.1,0.7l-0.6,1.4c-1-0.4-1.8-0.6-2.5-0.6c-0.6,0-1,0.1-1.3,0.4
				s-0.4,0.6-0.4,1c0,0.3,0.1,0.5,0.2,0.7c0.1,0.2,0.3,0.4,0.6,0.6s0.8,0.4,1.5,0.7c0.8,0.3,1.4,0.6,1.7,0.9s0.6,0.6,0.8,1
				S695.3,28.2,695.3,28.7z"/>
		</g>
		<g>
			<path class="st6" d="M600.2,45.7c0-0.6,0.2-1.2,0.5-1.7s0.9-0.9,1.7-1.4c-0.5-0.5-0.8-1-0.9-1.4c-0.2-0.4-0.3-0.8-0.3-1.2
				c0-0.7,0.3-1.3,0.8-1.8c0.5-0.4,1.2-0.6,2.1-0.6c0.9,0,1.5,0.2,2,0.6c0.5,0.4,0.7,1,0.7,1.7c0,0.6-0.2,1.1-0.5,1.5
				c-0.3,0.5-0.9,0.9-1.7,1.4l2.5,2.4c0.4-0.5,0.7-1.3,1-2.3h1.8c-0.3,1.4-0.9,2.5-1.6,3.4l2.2,2.1h-2.2l-1.1-1.1
				c-0.5,0.4-1,0.7-1.6,0.9s-1.2,0.3-1.9,0.3c-1.1,0-2-0.3-2.6-0.8S600.2,46.7,600.2,45.7z M603.9,47.2c0.9,0,1.7-0.3,2.3-0.8
				l-2.8-2.8c-0.5,0.3-0.9,0.6-1.1,0.9c-0.2,0.3-0.3,0.6-0.3,1c0,0.5,0.2,0.9,0.5,1.2C602.9,47.1,603.3,47.2,603.9,47.2z
				 M602.8,40.2c0,0.3,0.1,0.6,0.2,0.9c0.2,0.3,0.4,0.6,0.7,0.9c0.6-0.3,0.9-0.6,1.2-0.9c0.2-0.3,0.3-0.6,0.3-0.9
				c0-0.3-0.1-0.6-0.3-0.8s-0.5-0.3-0.8-0.3c-0.4,0-0.7,0.1-0.9,0.3C602.9,39.6,602.8,39.8,602.8,40.2z"/>
		</g>
		<g>
			<path class="st6" d="M621.2,39.2c-1,0-1.8,0.4-2.4,1.1s-0.9,1.7-0.9,3s0.3,2.3,0.8,3c0.6,0.7,1.4,1,2.4,1c0.5,0,0.9,0,1.3-0.1
				c0.4-0.1,0.9-0.2,1.3-0.3v1.5c-0.8,0.3-1.8,0.5-2.9,0.5c-1.6,0-2.8-0.5-3.6-1.4s-1.3-2.3-1.3-4.1c0-1.1,0.2-2.1,0.6-2.9
				c0.4-0.8,1-1.5,1.8-1.9s1.7-0.7,2.7-0.7c1.1,0,2.1,0.2,3,0.7l-0.6,1.5c-0.4-0.2-0.7-0.3-1.1-0.5
				C622.1,39.3,621.7,39.2,621.2,39.2z"/>
		</g>
		<g>
			<path class="st6" d="M628.2,44.3v4.3h-1.8V37.9h3c1.4,0,2.4,0.3,3.1,0.8s1,1.3,1,2.3c0,1.3-0.7,2.3-2.1,2.8l3,4.7h-2l-2.6-4.3
				L628.2,44.3L628.2,44.3z M628.2,42.8h1.2c0.8,0,1.4-0.2,1.8-0.5s0.5-0.8,0.5-1.3c0-0.6-0.2-1-0.6-1.3s-1-0.4-1.8-0.4h-1.2
				L628.2,42.8L628.2,42.8z"/>
		</g>
		<g>
			<path class="st6" d="M642.6,48.6h-6.1V37.9h6.1v1.5h-4.3v2.9h4v1.5h-4v3.4h4.3V48.6z"/>
		</g>
		<g>
			<path class="st6" d="M652.3,48.6l-1.1-3h-4.1l-1,3h-1.8l4-10.8h1.9l4,10.8H652.3z M650.8,44.1l-1-2.9c-0.1-0.2-0.2-0.5-0.3-0.9
				s-0.2-0.7-0.3-0.9c-0.1,0.6-0.3,1.3-0.6,2l-1,2.8L650.8,44.1L650.8,44.1z"/>
		</g>
		<g>
			<path class="st6" d="M658.9,48.6h-1.8v-9.2H654v-1.5h8v1.5h-3.1V48.6z"/>
		</g>
		<g>
			<path class="st6" d="M670.1,48.6H664V37.9h6.1v1.5h-4.3v2.9h4v1.5h-4v3.4h4.3V48.6z"/>
		</g>
		<g>
			<path class="st6" d="M605.5,65.6l-3.1-8.9h-0.1c0.1,1.3,0.1,2.6,0.1,3.7v5.2h-1.6V54.9h2.5l3,8.5l0,0l3.1-8.5h2.5v10.7h-1.7v-5.3
				c0-0.5,0-1.2,0-2.1c0-0.9,0-1.4,0.1-1.6h-0.1l-3.2,8.9L605.5,65.6L605.5,65.6z"/>
		</g>
		<g>
			<path class="st6" d="M621.9,65.6l-1.1-3h-4.1l-1,3h-1.8l4-10.8h1.9l4,10.8H621.9z M620.4,61.1l-1-2.9c-0.1-0.2-0.2-0.5-0.3-0.9
				s-0.2-0.7-0.3-0.9c-0.1,0.6-0.3,1.3-0.6,2l-1,2.8L620.4,61.1L620.4,61.1z"/>
		</g>
		<g>
			<path class="st6" d="M634.7,65.6h-2.1l-5.3-8.5h-0.1v0.5c0.1,0.9,0.1,1.7,0.1,2.5v5.6h-1.6V54.9h2.1l5.3,8.5l0,0
				c0-0.1,0-0.5-0.1-1.2c0-0.7,0-1.3,0-1.7v-5.6h1.6L634.7,65.6L634.7,65.6z"/>
		</g>
		<g>
			<path class="st6" d="M637.8,65.6V54.9h1.8v10.7H637.8z"/>
		</g>
		<g>
			<path class="st6" d="M644.4,65.6h-1.7V54.9h6v1.5h-4.3v3.3h4v1.5h-4V65.6z"/>
		</g>
		<g>
			<path class="st6" d="M657,65.6h-6.1V54.9h6.1v1.5h-4.3v2.9h4v1.5h-4v3.4h4.3V65.6z"/>
		</g>
		<g>
			<path class="st6" d="M665.9,62.7c0,1-0.3,1.7-1,2.2s-1.6,0.8-2.8,0.8s-2.2-0.2-3-0.6v-1.7c0.5,0.2,1,0.4,1.6,0.5
				c0.5,0.1,1.1,0.2,1.5,0.2c0.7,0,1.2-0.1,1.5-0.4c0.3-0.3,0.5-0.6,0.5-1.1c0-0.4-0.2-0.7-0.5-1s-0.9-0.6-1.9-1s-1.7-0.8-2.1-1.4
				s-0.6-1.1-0.6-1.8c0-0.9,0.3-1.6,1-2.1s1.5-0.8,2.6-0.8c1,0,2,0.2,3.1,0.7l-0.6,1.4c-1-0.4-1.8-0.6-2.5-0.6c-0.6,0-1,0.1-1.3,0.4
				s-0.4,0.6-0.4,1c0,0.3,0.1,0.5,0.2,0.7c0.1,0.2,0.3,0.4,0.6,0.6s0.8,0.4,1.5,0.7c0.8,0.3,1.4,0.6,1.7,0.9s0.6,0.6,0.8,1
				S665.9,62.2,665.9,62.7z"/>
		</g>
		<g>
			<path class="st6" d="M672.4,65.6h-1.8v-9.2h-3.1v-1.5h8v1.5h-3.1L672.4,65.6L672.4,65.6z"/>
		</g>
	</g>
</g>
<path class="st13" d="M164.9,78.4H40.3c-19.8,0-36-16.2-36-36l0,0c0-19.8,16.2-36,36-36h124.6c19.8,0,36,16.2,36,36l0,0
	C200.9,62.2,184.7,78.4,164.9,78.4z"/>
<path class="st14" d="M164.9,80.4H40.3c-20.9,0-38-17-38-38s17-38,38-38h124.6c20.9,0,38,17,38,38S185.8,80.4,164.9,80.4z M40.3,8.5
	c-18.7,0-34,15.2-34,34s15.2,34,34,34h124.6c18.7,0,34-15.2,34-34s-15.2-34-34-34H40.3z"/>
<g>
	<g>
		<path class="st5" d="M48.4,63.8h-4.7v-30c0-2.5,0.1-4.9,0.2-7.1c-0.4,0.4-0.9,0.8-1.4,1.3c-0.5,0.4-2.8,2.3-6.9,5.6l-2.5-3.3
			l11.1-8.6h4v42.1H48.4z"/>
	</g>
</g>
<g>
	<g>
		<path class="st6" d="M75.6,28.7c0,1-0.3,1.7-1,2.2s-1.6,0.8-2.8,0.8s-2.2-0.2-3-0.6v-1.7c0.5,0.2,1,0.4,1.6,0.5
			c0.5,0.1,1.1,0.2,1.5,0.2c0.7,0,1.2-0.1,1.5-0.4s0.5-0.6,0.5-1.1c0-0.4-0.2-0.7-0.5-1s-0.9-0.6-1.9-1s-1.7-0.8-2.1-1.4
			s-0.6-1.1-0.6-1.8c0-0.9,0.3-1.6,1-2.1s1.5-0.8,2.6-0.8c1,0,2,0.2,3.1,0.7l-0.6,1.4c-1-0.4-1.8-0.6-2.5-0.6c-0.6,0-1,0.1-1.3,0.4
			s-0.4,0.6-0.4,1c0,0.3,0.1,0.5,0.2,0.7s0.3,0.4,0.6,0.6s0.8,0.4,1.5,0.7c0.8,0.3,1.4,0.6,1.7,0.9s0.6,0.6,0.8,1
			S75.6,28.2,75.6,28.7z"/>
	</g>
	<g>
		<path class="st6" d="M84.1,31.6H78V20.9h6.1v1.5h-4.3v2.9h4v1.5h-4v3.4h4.3V31.6z"/>
	</g>
	<g>
		<path class="st6" d="M86.7,31.6V20.9h1.8v9.2H93v1.5C93,31.6,86.7,31.6,86.7,31.6z"/>
	</g>
	<g>
		<path class="st6" d="M101.2,31.6h-6.1V20.9h6.1v1.5h-4.3v2.9h4v1.5h-4v3.4h4.3V31.6z"/>
	</g>
	<g>
		<path class="st6" d="M108.3,22.2c-1,0-1.8,0.4-2.4,1.1s-0.9,1.7-0.9,3s0.3,2.3,0.8,3c0.6,0.7,1.4,1,2.4,1c0.5,0,0.9,0,1.3-0.1
			s0.9-0.2,1.3-0.3v1.5c-0.8,0.3-1.8,0.5-2.9,0.5c-1.6,0-2.8-0.5-3.6-1.4c-0.8-0.9-1.3-2.3-1.3-4.1c0-1.1,0.2-2.1,0.6-2.9
			s1-1.5,1.8-1.9s1.7-0.7,2.7-0.7c1.1,0,2.1,0.2,3,0.7l-0.6,1.5c-0.4-0.2-0.7-0.3-1.1-0.5C109.2,22.3,108.7,22.2,108.3,22.2z"/>
	</g>
	<g>
		<path class="st6" d="M117.8,31.6H116v-9.2h-3.1v-1.5h8v1.5h-3.1V31.6z"/>
	</g>
	<g>
		<path class="st6" d="M126.6,28.7c0-0.6,0.2-1.2,0.5-1.7s0.9-0.9,1.7-1.4c-0.5-0.5-0.8-1-0.9-1.4c-0.2-0.4-0.3-0.8-0.3-1.2
			c0-0.7,0.3-1.3,0.8-1.8c0.5-0.5,1.2-0.6,2.1-0.6c0.9,0,1.5,0.2,2,0.6s0.7,1,0.7,1.7c0,0.6-0.2,1.1-0.5,1.5
			c-0.3,0.5-0.9,0.9-1.7,1.4l2.5,2.4c0.4-0.5,0.7-1.3,1-2.3h1.8c-0.3,1.4-0.9,2.5-1.6,3.4l2.2,2.1h-2.2l-1.1-1.1
			c-0.5,0.4-1,0.7-1.6,0.9c-0.6,0.2-1.2,0.3-1.9,0.3c-1.1,0-2-0.3-2.6-0.8S126.6,29.7,126.6,28.7z M130.3,30.2
			c0.9,0,1.7-0.3,2.3-0.8l-2.8-2.8c-0.5,0.3-0.9,0.6-1.1,0.9c-0.2,0.3-0.3,0.6-0.3,1c0,0.5,0.2,0.9,0.5,1.2
			C129.2,30.1,129.7,30.2,130.3,30.2z M129.2,23.2c0,0.3,0.1,0.6,0.2,0.9c0.2,0.3,0.4,0.6,0.7,0.9c0.6-0.3,0.9-0.6,1.2-0.9
			c0.2-0.3,0.3-0.6,0.3-0.9s-0.1-0.6-0.3-0.8c-0.2-0.2-0.5-0.3-0.8-0.3c-0.4,0-0.7,0.1-0.9,0.3C129.3,22.6,129.2,22.8,129.2,23.2z"
			/>
	</g>
	<g>
		<path class="st6" d="M75.6,45.7c0,1-0.3,1.7-1,2.2s-1.6,0.8-2.8,0.8s-2.2-0.2-3-0.6v-1.7c0.5,0.2,1,0.4,1.6,0.5
			c0.5,0.1,1.1,0.2,1.5,0.2c0.7,0,1.2-0.1,1.5-0.4c0.3-0.3,0.5-0.6,0.5-1.1c0-0.4-0.2-0.7-0.5-1s-0.9-0.6-1.9-1s-1.7-0.8-2.1-1.4
			s-0.6-1.1-0.6-1.8c0-0.9,0.3-1.6,1-2.1s1.5-0.8,2.6-0.8c1,0,2,0.2,3.1,0.7l-0.6,1.4c-1-0.4-1.8-0.6-2.5-0.6c-0.6,0-1,0.1-1.3,0.4
			s-0.4,0.6-0.4,1c0,0.3,0.1,0.5,0.2,0.7s0.3,0.4,0.6,0.6s0.8,0.4,1.5,0.7c0.8,0.3,1.4,0.6,1.7,0.9s0.6,0.6,0.8,1
			S75.6,45.2,75.6,45.7z"/>
	</g>
	<g>
		<path class="st6" d="M84.9,48.6l-1.1-3h-4.1l-1,3h-1.8l4-10.8h1.9l4,10.8H84.9z M83.4,44.1l-1-2.9c-0.1-0.2-0.2-0.5-0.3-0.9
			c-0.1-0.4-0.2-0.7-0.3-0.9c-0.1,0.6-0.3,1.3-0.6,2l-1,2.8L83.4,44.1L83.4,44.1z"/>
	</g>
	<g>
		<path class="st6" d="M94.1,37.9h1.8l-3.8,10.7h-1.8l-3.7-10.7h1.8l2.2,6.7c0.1,0.3,0.2,0.7,0.4,1.2s0.2,0.9,0.3,1.1
			c0.1-0.4,0.2-0.8,0.3-1.3s0.2-0.8,0.3-1.1L94.1,37.9z"/>
	</g>
	<g>
		<path class="st6" d="M103.9,48.6h-6.1V37.9h6.1v1.5h-4.3v2.9h4v1.5h-4v3.4h4.3V48.6z"/>
	</g>
	<g>
		<path class="st6" d="M114.6,48.6h-1.8v-9.2h-3.1v-1.5h8v1.5h-3.1V48.6z"/>
	</g>
	<g>
		<path class="st6" d="M129.1,43.2c0,1.7-0.4,3.1-1.3,4.1c-0.9,1-2.1,1.5-3.7,1.5s-2.9-0.5-3.7-1.4c-0.9-1-1.3-2.3-1.3-4.1
			s0.4-3.1,1.3-4.1c0.9-0.9,2.1-1.4,3.7-1.4s2.8,0.5,3.7,1.4S129.1,41.4,129.1,43.2z M120.9,43.2c0,1.3,0.3,2.3,0.8,3s1.3,1,2.4,1
			c1,0,1.8-0.3,2.4-1c0.5-0.7,0.8-1.7,0.8-3s-0.3-2.3-0.8-3s-1.3-1-2.3-1s-1.8,0.3-2.4,1C121.2,40.9,120.9,41.9,120.9,43.2z"/>
	</g>
	<g>
		<path class="st6" d="M74.1,65.6l-3.1-9h-0.1c0.1,1.3,0.1,2.6,0.1,3.7v5.2h-1.6V54.9h2.5l3,8.5l0,0l3.1-8.5h2.5v10.7h-1.7v-5.3
			c0-0.5,0-1.2,0-2.1s0.1-1.4,0.1-1.6h-0.1l-3.2,8.9L74.1,65.6L74.1,65.6z"/>
	</g>
	<g>
		<path class="st6" d="M86.9,59.7l2.5-4.9h1.9l-3.6,6.6v4.2H86v-4.1l-3.6-6.6h1.9L86.9,59.7z"/>
	</g>
	<g>
		<path class="st6" d="M101.9,56.2c-1,0-1.8,0.4-2.4,1.1s-0.9,1.7-0.9,3s0.3,2.3,0.8,3c0.6,0.7,1.4,1,2.4,1c0.5,0,0.9,0,1.3-0.1
			s0.9-0.2,1.3-0.3v1.5c-0.8,0.3-1.8,0.5-2.9,0.5c-1.6,0-2.8-0.5-3.6-1.4c-0.8-0.9-1.3-2.3-1.3-4.1c0-1.1,0.2-2.1,0.6-2.9
			c0.4-0.8,1-1.5,1.8-1.9s1.7-0.7,2.7-0.7c1.1,0,2.1,0.2,3,0.7l-0.6,1.5c-0.4-0.2-0.7-0.3-1.1-0.5C102.8,56.3,102.4,56.2,101.9,56.2
			z"/>
	</g>
	<g>
		<path class="st6" d="M114.3,65.6l-1.1-3h-4.1l-1,3h-1.8l4-10.8h1.9l4,10.8H114.3z M112.8,61.1l-1-2.9c-0.1-0.2-0.2-0.5-0.3-0.9
			c-0.1-0.4-0.2-0.7-0.3-0.9c-0.1,0.6-0.3,1.3-0.6,2l-1,2.8L112.8,61.1L112.8,61.1z"/>
	</g>
	<g>
		<path class="st6" d="M124.6,62.7c0,1-0.3,1.7-1,2.2s-1.6,0.8-2.8,0.8s-2.2-0.2-3-0.6v-1.7c0.5,0.2,1,0.4,1.6,0.5
			c0.5,0.1,1.1,0.2,1.5,0.2c0.7,0,1.2-0.1,1.5-0.4c0.3-0.3,0.5-0.6,0.5-1.1c0-0.4-0.2-0.7-0.5-1s-0.9-0.6-1.9-1s-1.7-0.8-2.1-1.4
			s-0.6-1.1-0.6-1.8c0-0.9,0.3-1.6,1-2.1s1.5-0.8,2.6-0.8c1,0,2,0.2,3.1,0.7l-0.6,1.4c-1-0.4-1.8-0.6-2.5-0.6c-0.6,0-1,0.1-1.3,0.4
			s-0.4,0.6-0.4,1c0,0.3,0.1,0.5,0.2,0.7s0.3,0.4,0.6,0.6s0.8,0.4,1.5,0.7c0.8,0.3,1.4,0.6,1.7,0.9s0.6,0.6,0.8,1
			S124.6,62.2,124.6,62.7z"/>
	</g>
	<g>
		<path class="st6" d="M133.1,65.6H127V54.9h6.1v1.5h-4.3v2.9h4v1.5h-4v3.4h4.3V65.6z"/>
	</g>
	<g>
		<path class="st6" d="M142,62.7c0,1-0.3,1.7-1,2.2s-1.6,0.8-2.8,0.8s-2.2-0.2-3-0.6v-1.7c0.5,0.2,1,0.4,1.6,0.5
			c0.5,0.1,1.1,0.2,1.5,0.2c0.7,0,1.2-0.1,1.5-0.4c0.3-0.3,0.5-0.6,0.5-1.1c0-0.4-0.2-0.7-0.5-1s-0.9-0.6-1.9-1s-1.7-0.8-2.1-1.4
			s-0.6-1.1-0.6-1.8c0-0.9,0.3-1.6,1-2.1s1.5-0.8,2.6-0.8c1,0,2,0.2,3.1,0.7l-0.6,1.4c-1-0.4-1.8-0.6-2.5-0.6c-0.6,0-1,0.1-1.3,0.4
			s-0.4,0.6-0.4,1c0,0.3,0.1,0.5,0.2,0.7c0.1,0.2,0.3,0.4,0.6,0.6s0.8,0.4,1.5,0.7c0.8,0.3,1.4,0.6,1.7,0.9s0.6,0.6,0.8,1
			S142,62.2,142,62.7z"/>
	</g>
</g>
<g>
	<g>
		<polygon class="st12" points="253.8,42.5 239.5,32.6 239.5,52.3 		"/>
	</g>
	<g>
		<rect x="213.1" y="38.5" class="st12" width="27.4" height="7.9"/>
	</g>
</g>
<path class="st13" d="M424.5,78.4H299.8c-19.8,0-36-16.2-36-36l0,0c0-19.8,16.2-36,36-36h124.6c19.8,0,36,16.2,36,36l0,0
	C460.4,62.2,444.2,78.4,424.5,78.4z"/>
<path class="st14" d="M424.5,80.4H299.8c-20.9,0-38-17-38-38s17-38,38-38h124.6c20.9,0,38,17,38,38S445.4,80.4,424.5,80.4z
	 M299.8,8.5c-18.7,0-34,15.2-34,34s15.2,34,34,34h124.6c18.7,0,34-15.2,34-34s-15.2-34-34-34H299.8z"/>
<g>
	<g>
		<path class="st5" d="M324.7,63.8H297v-4.1l11.1-11.1c3.4-3.4,5.6-5.9,6.7-7.3c1.1-1.5,1.9-2.9,2.4-4.3c0.5-1.4,0.8-2.9,0.8-4.5
			c0-2.2-0.7-4-2-5.3c-1.4-1.3-3.3-2-5.7-2c-1.7,0-3.4,0.3-5,0.9s-3.3,1.6-5.2,3.1l-2.5-3.3c3.9-3.2,8.1-4.8,12.7-4.8
			c4,0,7.1,1,9.3,3s3.4,4.7,3.4,8.2c0,2.7-0.7,5.3-2.2,7.9c-1.5,2.6-4.3,5.9-8.4,9.9l-9.2,9v0.2h21.7v4.5H324.7z"/>
	</g>
</g>
<g>
	<g>
		<path class="st6" d="M344.7,27.3v4.3h-1.8V20.9h3c1.4,0,2.4,0.3,3.1,0.8s1,1.3,1,2.3c0,1.3-0.7,2.3-2.1,2.8l3,4.7h-2l-2.6-4.3
			h-1.6V27.3z M344.7,25.8h1.2c0.8,0,1.4-0.2,1.8-0.5s0.5-0.8,0.5-1.3c0-0.6-0.2-1-0.6-1.3s-1-0.4-1.8-0.4h-1.2v3.5H344.7z"/>
	</g>
	<g>
		<path class="st6" d="M359,31.6h-6V20.9h6.1v1.5h-4.3v2.9h4v1.5h-4v3.4h4.3v1.4H359z"/>
	</g>
	<g>
		<path class="st6" d="M368.2,20.9h1.8l-3.8,10.7h-1.8l-3.7-10.7h1.8l2.2,6.7c0.1,0.3,0.2,0.7,0.4,1.2s0.2,0.9,0.3,1.1
			c0.1-0.4,0.2-0.8,0.3-1.3s0.2-0.8,0.3-1.1L368.2,20.9z"/>
	</g>
	<g>
		<path class="st6" d="M372,31.6V20.9h1.8v10.7C373.8,31.6,372,31.6,372,31.6z"/>
	</g>
	<g>
		<path class="st6" d="M382.9,31.6h-6.1V20.9h6.1v1.5h-4.3v2.9h4v1.5h-4v3.4h4.3V31.6z"/>
	</g>
	<g>
		<path class="st6" d="M395.9,31.6H394l-1.8-6.4c-0.1-0.3-0.2-0.7-0.3-1.2c-0.1-0.5-0.2-0.9-0.2-1.1c0,0.3-0.1,0.7-0.2,1.2
			s-0.2,0.9-0.3,1.1l-1.8,6.4h-1.9l-1.4-5.4l-1.4-5.3h1.8l1.5,6.2c0.2,1,0.4,1.9,0.5,2.7c0.1-0.4,0.1-0.9,0.2-1.4s0.2-0.9,0.3-1.2
			l1.7-6.3h1.7l1.8,6.3c0.2,0.6,0.4,1.5,0.5,2.6c0.1-0.7,0.2-1.6,0.5-2.7l1.5-6.2h1.8L395.9,31.6z"/>
	</g>
	<g>
		<path class="st6" d="M347.5,48.6l-3.1-8.9h-0.1c0.1,1.3,0.1,2.6,0.1,3.7v5.2h-1.6V37.9h2.5l3,8.5l0,0l3.1-8.5h2.5v10.7h-1.7v-5.3
			c0-0.5,0-1.2,0-2.1s0.1-1.4,0.1-1.6h-0.1l-3.2,8.9L347.5,48.6L347.5,48.6z"/>
	</g>
	<g>
		<path class="st6" d="M360.3,42.7l2.5-4.9h1.9l-3.6,6.6v4.2h-1.8v-4.1l-3.6-6.6h1.9L360.3,42.7z"/>
	</g>
	<g>
		<path class="st6" d="M347.5,56.2c-1,0-1.8,0.4-2.4,1.1s-0.9,1.7-0.9,3s0.3,2.3,0.8,3c0.6,0.7,1.4,1,2.4,1c0.5,0,0.9,0,1.3-0.1
			s0.9-0.2,1.3-0.3v1.5c-0.8,0.3-1.8,0.5-2.9,0.5c-1.6,0-2.8-0.5-3.6-1.4c-0.8-0.9-1.3-2.3-1.3-4.1c0-1.1,0.2-2.1,0.6-2.9
			c0.4-0.8,1-1.5,1.8-1.9s1.7-0.7,2.7-0.7c1.1,0,2.1,0.2,3,0.7l-0.6,1.5c-0.4-0.2-0.7-0.3-1.1-0.5C348.3,56.3,347.9,56.2,347.5,56.2
			z"/>
	</g>
	<g>
		<path class="st6" d="M359.8,65.6l-1.1-3h-4.1l-1,3h-1.8l4-10.8h1.9l4,10.8H359.8z M358.3,61.1l-1-2.9c-0.1-0.2-0.2-0.5-0.3-0.9
			c-0.1-0.4-0.2-0.7-0.3-0.9c-0.1,0.6-0.3,1.3-0.6,2l-1,2.8L358.3,61.1L358.3,61.1z"/>
	</g>
	<g>
		<path class="st6" d="M370.1,62.7c0,1-0.3,1.7-1,2.2s-1.6,0.8-2.8,0.8s-2.2-0.2-3-0.6v-1.7c0.5,0.2,1,0.4,1.6,0.5
			c0.5,0.1,1.1,0.2,1.5,0.2c0.7,0,1.2-0.1,1.5-0.4c0.3-0.3,0.5-0.6,0.5-1.1c0-0.4-0.2-0.7-0.5-1s-0.9-0.6-1.9-1s-1.7-0.8-2.1-1.4
			s-0.6-1.1-0.6-1.8c0-0.9,0.3-1.6,1-2.1s1.5-0.8,2.6-0.8c1,0,2,0.2,3.1,0.7l-0.6,1.4c-1-0.4-1.8-0.6-2.5-0.6c-0.6,0-1,0.1-1.3,0.4
			s-0.4,0.6-0.4,1c0,0.3,0.1,0.5,0.2,0.7s0.3,0.4,0.6,0.6s0.8,0.4,1.5,0.7c0.8,0.3,1.4,0.6,1.7,0.9s0.6,0.6,0.8,1
			S370.1,62.2,370.1,62.7z"/>
	</g>
	<g>
		<path class="st6" d="M378.6,65.6h-6.1V54.9h6.1v1.5h-4.3v2.9h4v1.5h-4v3.4h4.3V65.6z"/>
	</g>
	<g>
		<path class="st6" d="M387.5,62.7c0,1-0.3,1.7-1,2.2s-1.6,0.8-2.8,0.8s-2.2-0.2-3-0.6v-1.7c0.5,0.2,1,0.4,1.6,0.5
			c0.5,0.1,1.1,0.2,1.5,0.2c0.7,0,1.2-0.1,1.5-0.4c0.3-0.3,0.5-0.6,0.5-1.1c0-0.4-0.2-0.7-0.5-1s-0.9-0.6-1.9-1s-1.7-0.8-2.1-1.4
			s-0.6-1.1-0.6-1.8c0-0.9,0.3-1.6,1-2.1s1.5-0.8,2.6-0.8c1,0,2,0.2,3.1,0.7l-0.6,1.4c-1-0.4-1.8-0.6-2.5-0.6c-0.6,0-1,0.1-1.3,0.4
			s-0.4,0.6-0.4,1c0,0.3,0.1,0.5,0.2,0.7s0.3,0.4,0.6,0.6s0.8,0.4,1.5,0.7c0.8,0.3,1.4,0.6,1.7,0.9s0.6,0.6,0.8,1
			S387.5,62.2,387.5,62.7z"/>
	</g>
</g>
<g>
	<polygon class="st12" points="514,42.5 499.7,32.6 499.7,38.5 473.4,38.5 473.4,46.4 499.7,46.4 499.7,52.3 	"/>
</g>
<path class="st13" d="M685.3,78.4H560.7c-19.8,0-36-16.2-36-36l0,0c0-19.8,16.2-36,36-36h124.6c19.8,0,36,16.2,36,36l0,0
	C721.3,62.2,705.1,78.4,685.3,78.4z"/>
<path class="st14" d="M685.3,80.4H560.7c-20.9,0-38-17-38-38s17-38,38-38h124.6c20.9,0,38,17,38,38S706.3,80.4,685.3,80.4z
	 M560.7,8.5c-18.7,0-34,15.2-34,34s15.2,34,34,34h124.6c18.7,0,34-15.2,34-34s-15.2-34-34-34H560.7z"/>
<g>
	<g>
		<path class="st5" d="M582.1,31.6c0,2.7-0.8,4.9-2.3,6.6s-3.6,2.9-6.4,3.4v0.2c3.4,0.4,5.9,1.5,7.5,3.2s2.4,4,2.4,6.8
			c0,4-1.4,7.1-4.2,9.3s-6.7,3.2-11.9,3.2c-2.2,0-4.3-0.2-6.1-0.5c-1.9-0.3-3.7-0.9-5.4-1.8v-4.6c1.8,0.9,3.8,1.6,5.8,2.1
			s4,0.7,5.9,0.7c7.3,0,10.9-2.9,10.9-8.6c0-5.1-4-7.7-12-7.7h-4.1v-4.1h4.2c3.3,0,5.9-0.7,7.8-2.2c1.9-1.4,2.9-3.5,2.9-6
			c0-2.1-0.7-3.7-2.1-4.8c-1.4-1.2-3.3-1.8-5.7-1.8c-1.8,0-3.6,0.2-5.2,0.7c-1.6,0.5-3.5,1.4-5.6,2.8l-2.4-3.2
			c1.7-1.4,3.7-2.4,6-3.2c2.3-0.8,4.6-1.2,7.1-1.2c4.1,0,7.3,0.9,9.5,2.8C581,25.7,582.1,28.3,582.1,31.6z"/>
	</g>
</g>
<g>
	<g>
		<path class="st6" d="M607.1,28.7c0,1-0.3,1.7-1,2.2s-1.6,0.8-2.8,0.8s-2.2-0.2-3-0.6v-1.7c0.5,0.2,1,0.4,1.6,0.5
			c0.5,0.1,1.1,0.2,1.5,0.2c0.7,0,1.2-0.1,1.5-0.4s0.5-0.6,0.5-1.1c0-0.4-0.2-0.7-0.5-1s-0.9-0.6-1.9-1s-1.7-0.8-2.1-1.4
			s-0.6-1.1-0.6-1.8c0-0.9,0.3-1.6,1-2.1s1.5-0.8,2.6-0.8c1,0,2,0.2,3.1,0.7l-0.6,1.4c-1-0.4-1.8-0.6-2.5-0.6c-0.6,0-1,0.1-1.3,0.4
			s-0.4,0.6-0.4,1c0,0.3,0.1,0.5,0.2,0.7c0.1,0.2,0.3,0.4,0.6,0.6s0.8,0.4,1.5,0.7c0.8,0.3,1.4,0.6,1.7,0.9s0.6,0.6,0.8,1
			S607.1,28.2,607.1,28.7z"/>
	</g>
	<g>
		<path class="st6" d="M615.6,31.6h-6.1V20.9h6.1v1.5h-4.3v2.9h4v1.5h-4v3.4h4.3V31.6z"/>
	</g>
	<g>
		<path class="st6" d="M618.2,31.6V20.9h1.8v9.2h4.5v1.5C624.5,31.6,618.2,31.6,618.2,31.6z"/>
	</g>
	<g>
		<path class="st6" d="M632.7,31.6h-6.1V20.9h6.1v1.5h-4.3v2.9h4v1.5h-4v3.4h4.3V31.6z"/>
	</g>
	<g>
		<path class="st6" d="M639.7,22.2c-1,0-1.8,0.4-2.4,1.1s-0.9,1.7-0.9,3s0.3,2.3,0.8,3c0.6,0.7,1.4,1,2.4,1c0.5,0,0.9,0,1.3-0.1
			c0.4-0.1,0.9-0.2,1.3-0.3v1.5c-0.8,0.3-1.8,0.5-2.9,0.5c-1.6,0-2.8-0.5-3.6-1.4s-1.3-2.3-1.3-4.1c0-1.1,0.2-2.1,0.6-2.9
			c0.4-0.8,1-1.5,1.8-1.9s1.7-0.7,2.7-0.7c1.1,0,2.1,0.2,3,0.7l-0.6,1.5c-0.4-0.2-0.7-0.3-1.1-0.5C640.6,22.3,640.2,22.2,639.7,22.2
			z"/>
	</g>
	<g>
		<path class="st6" d="M649.3,31.6h-1.8v-9.2h-3.1v-1.5h8v1.5h-3.1L649.3,31.6L649.3,31.6z"/>
	</g>
	<g>
		<path class="st6" d="M660.5,31.6h-1.7V20.9h6v1.5h-4.3v3.3h4v1.5h-4V31.6z"/>
	</g>
	<g>
		<path class="st6" d="M667,31.6V20.9h1.8v10.7C668.8,31.6,667,31.6,667,31.6z"/>
	</g>
	<g>
		<path class="st6" d="M671.9,31.6V20.9h1.8v9.2h4.5v1.5C678.2,31.6,671.9,31.6,671.9,31.6z"/>
	</g>
	<g>
		<path class="st6" d="M686.4,31.6h-6.1V20.9h6.1v1.5h-4.3v2.9h4v1.5h-4v3.4h4.3V31.6z"/>
	</g>
	<g>
		<path class="st6" d="M695.3,28.7c0,1-0.3,1.7-1,2.2s-1.6,0.8-2.8,0.8s-2.2-0.2-3-0.6v-1.7c0.5,0.2,1,0.4,1.6,0.5
			c0.5,0.1,1.1,0.2,1.5,0.2c0.7,0,1.2-0.1,1.5-0.4s0.5-0.6,0.5-1.1c0-0.4-0.2-0.7-0.5-1s-0.9-0.6-1.9-1s-1.7-0.8-2.1-1.4
			s-0.6-1.1-0.6-1.8c0-0.9,0.3-1.6,1-2.1s1.5-0.8,2.6-0.8c1,0,2,0.2,3.1,0.7l-0.6,1.4c-1-0.4-1.8-0.6-2.5-0.6c-0.6,0-1,0.1-1.3,0.4
			s-0.4,0.6-0.4,1c0,0.3,0.1,0.5,0.2,0.7c0.1,0.2,0.3,0.4,0.6,0.6s0.8,0.4,1.5,0.7c0.8,0.3,1.4,0.6,1.7,0.9s0.6,0.6,0.8,1
			S695.3,28.2,695.3,28.7z"/>
	</g>
	<g>
		<path class="st6" d="M600.2,45.7c0-0.6,0.2-1.2,0.5-1.7s0.9-0.9,1.7-1.4c-0.5-0.5-0.8-1-0.9-1.4c-0.2-0.4-0.3-0.8-0.3-1.2
			c0-0.7,0.3-1.3,0.8-1.8c0.5-0.4,1.2-0.6,2.1-0.6c0.9,0,1.5,0.2,2,0.6c0.5,0.4,0.7,1,0.7,1.7c0,0.6-0.2,1.1-0.5,1.5
			c-0.3,0.5-0.9,0.9-1.7,1.4l2.5,2.4c0.4-0.5,0.7-1.3,1-2.3h1.8c-0.3,1.4-0.9,2.5-1.6,3.4l2.2,2.1h-2.2l-1.1-1.1
			c-0.5,0.4-1,0.7-1.6,0.9s-1.2,0.3-1.9,0.3c-1.1,0-2-0.3-2.6-0.8S600.2,46.7,600.2,45.7z M603.9,47.2c0.9,0,1.7-0.3,2.3-0.8
			l-2.8-2.8c-0.5,0.3-0.9,0.6-1.1,0.9c-0.2,0.3-0.3,0.6-0.3,1c0,0.5,0.2,0.9,0.5,1.2C602.9,47.1,603.3,47.2,603.9,47.2z M602.8,40.2
			c0,0.3,0.1,0.6,0.2,0.9c0.2,0.3,0.4,0.6,0.7,0.9c0.6-0.3,0.9-0.6,1.2-0.9c0.2-0.3,0.3-0.6,0.3-0.9c0-0.3-0.1-0.6-0.3-0.8
			s-0.5-0.3-0.8-0.3c-0.4,0-0.7,0.1-0.9,0.3C602.9,39.6,602.8,39.8,602.8,40.2z"/>
	</g>
	<g>
		<path class="st6" d="M621.2,39.2c-1,0-1.8,0.4-2.4,1.1s-0.9,1.7-0.9,3s0.3,2.3,0.8,3c0.6,0.7,1.4,1,2.4,1c0.5,0,0.9,0,1.3-0.1
			c0.4-0.1,0.9-0.2,1.3-0.3v1.5c-0.8,0.3-1.8,0.5-2.9,0.5c-1.6,0-2.8-0.5-3.6-1.4s-1.3-2.3-1.3-4.1c0-1.1,0.2-2.1,0.6-2.9
			c0.4-0.8,1-1.5,1.8-1.9s1.7-0.7,2.7-0.7c1.1,0,2.1,0.2,3,0.7l-0.6,1.5c-0.4-0.2-0.7-0.3-1.1-0.5C622.1,39.3,621.7,39.2,621.2,39.2
			z"/>
	</g>
	<g>
		<path class="st6" d="M628.2,44.3v4.3h-1.8V37.9h3c1.4,0,2.4,0.3,3.1,0.8s1,1.3,1,2.3c0,1.3-0.7,2.3-2.1,2.8l3,4.7h-2l-2.6-4.3
			L628.2,44.3L628.2,44.3z M628.2,42.8h1.2c0.8,0,1.4-0.2,1.8-0.5s0.5-0.8,0.5-1.3c0-0.6-0.2-1-0.6-1.3s-1-0.4-1.8-0.4h-1.2
			L628.2,42.8L628.2,42.8z"/>
	</g>
	<g>
		<path class="st6" d="M642.6,48.6h-6.1V37.9h6.1v1.5h-4.3v2.9h4v1.5h-4v3.4h4.3V48.6z"/>
	</g>
	<g>
		<path class="st6" d="M652.3,48.6l-1.1-3h-4.1l-1,3h-1.8l4-10.8h1.9l4,10.8H652.3z M650.8,44.1l-1-2.9c-0.1-0.2-0.2-0.5-0.3-0.9
			s-0.2-0.7-0.3-0.9c-0.1,0.6-0.3,1.3-0.6,2l-1,2.8L650.8,44.1L650.8,44.1z"/>
	</g>
	<g>
		<path class="st6" d="M658.9,48.6h-1.8v-9.2H654v-1.5h8v1.5h-3.1V48.6z"/>
	</g>
	<g>
		<path class="st6" d="M670.1,48.6H664V37.9h6.1v1.5h-4.3v2.9h4v1.5h-4v3.4h4.3V48.6z"/>
	</g>
	<g>
		<path class="st6" d="M605.5,65.6l-3.1-8.9h-0.1c0.1,1.3,0.1,2.6,0.1,3.7v5.2h-1.6V54.9h2.5l3,8.5l0,0l3.1-8.5h2.5v10.7h-1.7v-5.3
			c0-0.5,0-1.2,0-2.1c0-0.9,0-1.4,0.1-1.6h-0.1l-3.2,8.9L605.5,65.6L605.5,65.6z"/>
	</g>
	<g>
		<path class="st6" d="M621.9,65.6l-1.1-3h-4.1l-1,3h-1.8l4-10.8h1.9l4,10.8H621.9z M620.4,61.1l-1-2.9c-0.1-0.2-0.2-0.5-0.3-0.9
			s-0.2-0.7-0.3-0.9c-0.1,0.6-0.3,1.3-0.6,2l-1,2.8L620.4,61.1L620.4,61.1z"/>
	</g>
	<g>
		<path class="st6" d="M634.7,65.6h-2.1l-5.3-8.5h-0.1v0.5c0.1,0.9,0.1,1.7,0.1,2.5v5.6h-1.6V54.9h2.1l5.3,8.5l0,0
			c0-0.1,0-0.5-0.1-1.2c0-0.7,0-1.3,0-1.7v-5.6h1.6L634.7,65.6L634.7,65.6z"/>
	</g>
	<g>
		<path class="st6" d="M637.8,65.6V54.9h1.8v10.7H637.8z"/>
	</g>
	<g>
		<path class="st6" d="M644.4,65.6h-1.7V54.9h6v1.5h-4.3v3.3h4v1.5h-4V65.6z"/>
	</g>
	<g>
		<path class="st6" d="M657,65.6h-6.1V54.9h6.1v1.5h-4.3v2.9h4v1.5h-4v3.4h4.3V65.6z"/>
	</g>
	<g>
		<path class="st6" d="M665.9,62.7c0,1-0.3,1.7-1,2.2s-1.6,0.8-2.8,0.8s-2.2-0.2-3-0.6v-1.7c0.5,0.2,1,0.4,1.6,0.5
			c0.5,0.1,1.1,0.2,1.5,0.2c0.7,0,1.2-0.1,1.5-0.4c0.3-0.3,0.5-0.6,0.5-1.1c0-0.4-0.2-0.7-0.5-1s-0.9-0.6-1.9-1s-1.7-0.8-2.1-1.4
			s-0.6-1.1-0.6-1.8c0-0.9,0.3-1.6,1-2.1s1.5-0.8,2.6-0.8c1,0,2,0.2,3.1,0.7l-0.6,1.4c-1-0.4-1.8-0.6-2.5-0.6c-0.6,0-1,0.1-1.3,0.4
			s-0.4,0.6-0.4,1c0,0.3,0.1,0.5,0.2,0.7c0.1,0.2,0.3,0.4,0.6,0.6s0.8,0.4,1.5,0.7c0.8,0.3,1.4,0.6,1.7,0.9s0.6,0.6,0.8,1
			S665.9,62.2,665.9,62.7z"/>
	</g>
	<g>
		<path class="st6" d="M672.4,65.6h-1.8v-9.2h-3.1v-1.5h8v1.5h-3.1L672.4,65.6L672.4,65.6z"/>
	</g>
</g>
<g>
	<polygon class="st12" points="774.5,43.1 760.3,33.3 760.3,39.2 733.9,39.2 733.9,47.1 760.3,47.1 760.3,53 	"/>
</g>
<path class="st13" d="M945.9,79.1H821.2c-19.8,0-36-16.2-36-36l0,0c0-19.8,16.2-36,36-36h124.6c19.8,0,36,16.2,36,36l0,0
	C981.8,62.9,965.6,79.1,945.9,79.1z"/>
<path class="st14" d="M945.9,81.1H821.2c-20.9,0-38-17-38-38s17-38,38-38h124.6c20.9,0,38,17,38,38S966.8,81.1,945.9,81.1z
	 M821.2,9.2c-18.7,0-34,15.2-34,34s15.2,34,34,34h124.6c18.7,0,34-15.2,34-34s-15.2-34-34-34C945.8,9.2,821.2,9.2,821.2,9.2z"/>
<rect x="814.2" y="12.7" class="st15" width="40.4" height="72.8"/>
<g class="st16">
	<path class="st5" d="M835,64.3V54.1h-19.3v-4.7l21-27.2h3.6v27h5.3v4.8h-5.3v10.2H835z M821.1,49.3h14.4V30.4L821.1,49.3z"/>
</g>
<rect x="859" y="20.1" class="st15" width="78.8" height="60.7"/>
<g class="st16">
	<path class="st6" d="M860.4,31.7V20.8h1.8v9.4h4.6v1.5H860.4z"/>
	<path class="st6" d="M878.4,26.2c0,1.8-0.4,3.1-1.3,4.1c-0.9,1-2.1,1.5-3.8,1.5c-1.6,0-2.9-0.5-3.8-1.5c-0.9-1-1.3-2.4-1.3-4.2
		c0-1.8,0.4-3.2,1.3-4.1s2.2-1.4,3.8-1.4c1.6,0,2.9,0.5,3.8,1.5S878.4,24.4,878.4,26.2z M870,26.2c0,1.3,0.3,2.4,0.8,3s1.3,1,2.4,1
		c1.1,0,1.9-0.3,2.4-1c0.5-0.7,0.8-1.7,0.8-3.1c0-1.3-0.3-2.3-0.8-3c-0.5-0.7-1.3-1-2.4-1c-1.1,0-1.9,0.3-2.4,1
		C870.3,23.8,870,24.9,870,26.2z"/>
	<path class="st6" d="M887.4,31.7l-1.1-3h-4.2l-1.1,3h-1.9l4.1-10.9h1.9l4.1,10.9H887.4z M885.9,27.1l-1-3c-0.1-0.2-0.2-0.5-0.3-0.9
		s-0.2-0.7-0.3-0.9c-0.1,0.6-0.3,1.3-0.6,2l-1,2.8H885.9z"/>
	<path class="st6" d="M899.6,26.1c0,1.8-0.5,3.2-1.5,4.1c-1,1-2.4,1.4-4.3,1.4h-3V20.8h3.4c1.7,0,3.1,0.5,4,1.4
		C899.1,23.1,899.6,24.4,899.6,26.1z M897.7,26.2c0-2.6-1.2-3.9-3.7-3.9h-1.5v7.9h1.3C896.4,30.2,897.7,28.8,897.7,26.2z"/>
</g>
<g class="st16">
	<path class="st6" d="M865.1,48.7l-3.2-9.1h-0.1c0.1,1.4,0.1,2.6,0.1,3.8v5.3h-1.6V37.8h2.5l3,8.7h0l3.1-8.7h2.5v10.9h-1.7v-5.4
		c0-0.5,0-1.2,0-2.1c0-0.9,0.1-1.4,0.1-1.6H870l-3.3,9.1H865.1z"/>
	<path class="st6" d="M881.2,48.7l-1.1-3H876l-1.1,3h-1.9l4.1-10.9h1.9l4.1,10.9H881.2z M879.7,44.1l-1-3c-0.1-0.2-0.2-0.5-0.3-0.9
		s-0.2-0.7-0.3-0.9c-0.1,0.6-0.3,1.3-0.6,2l-1,2.8H879.7z"/>
	<path class="st6" d="M893.6,48.7h-2.2l-5.4-8.7H886l0,0.5c0.1,0.9,0.1,1.8,0.1,2.5v5.7h-1.6V37.8h2.2l5.3,8.6h0
		c0-0.1,0-0.5-0.1-1.2c0-0.7,0-1.3,0-1.7v-5.7h1.6V48.7z"/>
	<path class="st6" d="M896.5,48.7V37.8h1.8v10.9H896.5z"/>
	<path class="st6" d="M902.9,48.7h-1.8V37.8h6.1v1.5h-4.4v3.4h4.1v1.5h-4.1V48.7z"/>
	<path class="st6" d="M915.4,48.7h-6.2V37.8h6.2v1.5h-4.4v3h4.1v1.5h-4.1v3.4h4.4V48.7z"/>
	<path class="st6" d="M924.1,45.7c0,1-0.4,1.7-1,2.3c-0.7,0.6-1.7,0.8-2.9,0.8c-1.2,0-2.2-0.2-3-0.6v-1.7c0.5,0.2,1,0.4,1.6,0.6
		c0.6,0.1,1.1,0.2,1.6,0.2c0.7,0,1.2-0.1,1.6-0.4c0.3-0.3,0.5-0.6,0.5-1.1c0-0.4-0.2-0.8-0.5-1s-0.9-0.6-1.9-1
		c-1-0.4-1.7-0.9-2.1-1.4c-0.4-0.5-0.6-1.1-0.6-1.9c0-0.9,0.3-1.6,1-2.1c0.6-0.5,1.5-0.8,2.6-0.8c1,0,2.1,0.2,3.1,0.7l-0.6,1.5
		c-1-0.4-1.8-0.6-2.6-0.6c-0.6,0-1,0.1-1.3,0.4c-0.3,0.3-0.4,0.6-0.4,1c0,0.3,0.1,0.5,0.2,0.7s0.3,0.4,0.6,0.6
		c0.3,0.2,0.8,0.4,1.5,0.7c0.8,0.3,1.4,0.6,1.8,0.9c0.4,0.3,0.6,0.6,0.8,1S924.1,45.2,924.1,45.7z"/>
	<path class="st6" d="M929.9,48.7h-1.8v-9.4H925v-1.5h8.2v1.5h-3.2V48.7z"/>
</g>
<g class="st16">
	<path class="st6" d="M864.2,65.7h-1.8v-9.4h-3.2v-1.5h8.2v1.5h-3.2V65.7z"/>
	<path class="st6" d="M878.7,60.2c0,1.8-0.4,3.1-1.3,4.1c-0.9,1-2.1,1.5-3.8,1.5c-1.6,0-2.9-0.5-3.8-1.5c-0.9-1-1.3-2.4-1.3-4.2
		c0-1.8,0.4-3.2,1.3-4.1c0.9-1,2.2-1.4,3.8-1.4c1.6,0,2.9,0.5,3.8,1.5C878.3,57,878.7,58.4,878.7,60.2z M870.4,60.2
		c0,1.3,0.3,2.4,0.8,3s1.3,1,2.4,1c1.1,0,1.9-0.3,2.4-1c0.5-0.7,0.8-1.7,0.8-3.1c0-1.3-0.3-2.3-0.8-3c-0.5-0.7-1.3-1-2.4-1
		c-1.1,0-1.9,0.3-2.4,1C870.7,57.8,870.4,58.9,870.4,60.2z"/>
	<path class="st6" d="M891.3,62.7c0,1-0.3,1.7-1,2.3s-1.7,0.8-2.9,0.8s-2.2-0.2-3-0.6v-1.7c0.5,0.2,1,0.4,1.6,0.6
		c0.6,0.1,1.1,0.2,1.6,0.2c0.7,0,1.2-0.1,1.6-0.4c0.3-0.3,0.5-0.6,0.5-1.1c0-0.4-0.2-0.8-0.5-1c-0.3-0.3-0.9-0.6-1.9-1
		c-1-0.4-1.7-0.9-2.1-1.4s-0.6-1.1-0.6-1.9c0-0.9,0.3-1.6,1-2.1c0.6-0.5,1.5-0.8,2.6-0.8c1,0,2.1,0.2,3.1,0.7l-0.6,1.5
		c-1-0.4-1.8-0.6-2.6-0.6c-0.6,0-1,0.1-1.3,0.4c-0.3,0.3-0.4,0.6-0.4,1c0,0.3,0.1,0.5,0.2,0.7s0.3,0.4,0.6,0.6
		c0.3,0.2,0.8,0.4,1.5,0.7c0.8,0.3,1.4,0.6,1.8,0.9c0.4,0.3,0.6,0.6,0.8,1S891.3,62.2,891.3,62.7z"/>
	<path class="st6" d="M893.4,54.8h3.2c1.5,0,2.6,0.2,3.2,0.7c0.7,0.4,1,1.1,1,2.1c0,0.6-0.2,1.2-0.5,1.6c-0.3,0.4-0.8,0.7-1.4,0.8
		v0.1c0.8,0.1,1.3,0.4,1.7,0.9c0.4,0.4,0.5,1,0.5,1.7c0,1-0.3,1.7-1,2.3s-1.6,0.8-2.8,0.8h-3.9V54.8z M895.2,59.3h1.7
		c0.7,0,1.3-0.1,1.6-0.4c0.3-0.2,0.5-0.6,0.5-1.2c0-0.5-0.2-0.9-0.6-1.1s-1-0.3-1.8-0.3h-1.5V59.3z M895.2,60.7v3.4h1.9
		c0.7,0,1.3-0.1,1.7-0.4s0.6-0.7,0.6-1.4c0-0.6-0.2-1-0.6-1.3c-0.4-0.3-1-0.4-1.8-0.4H895.2z"/>
	<path class="st6" d="M907.9,59.7h4v5.5c-0.7,0.2-1.3,0.4-1.9,0.5c-0.6,0.1-1.3,0.1-2,0.1c-1.6,0-2.9-0.5-3.8-1.5s-1.3-2.4-1.3-4.1
		c0-1.8,0.5-3.1,1.5-4.1s2.4-1.5,4.2-1.5c1.1,0,2.2,0.2,3.2,0.7l-0.6,1.5c-0.9-0.4-1.8-0.6-2.7-0.6c-1.2,0-2.1,0.4-2.8,1.1
		s-1,1.7-1,3c0,1.3,0.3,2.3,0.9,3c0.6,0.7,1.5,1,2.6,1c0.6,0,1.2-0.1,1.8-0.2v-2.8h-2.3V59.7z"/>
</g>
</svg>
