<?xml version="1.0" encoding="utf-8"?>
<!-- Generator: Adobe Illustrator 24.0.0, SVG Export Plug-In . SVG Version: 6.00 Build 0)  -->
<svg version="1.1" id="Layer_1" xmlns="http://www.w3.org/2000/svg" xmlns:xlink="http://www.w3.org/1999/xlink" x="0px" y="0px"
	 viewBox="0 0 625.1 558.6" style="enable-background:new 0 0 625.1 558.6;" xml:space="preserve">
<style type="text/css">
	.st0{fill:#2EA048;}
</style>
<g transform="translate(0,-952.36218)">
	<path class="st0" d="M310.5,1015.7c-42.1,0-85.3,16.4-118,49.1c-24.5,24.5-38.5,53.7-44.4,85.3c-63.1,11.7-111,66.6-111,133.2
		c0,74.8,61.9,136.7,136.7,136.7h65.4c9.3,0,17.5-8.2,17.5-17.5s-8.2-17.5-17.5-17.5l0,0h-65.4c-56.1,0-100.5-44.4-100.5-100.5
		c0-52.6,39.7-95.8,91.1-100.5c8.2-1.2,15.2-7,16.4-15.2c3.5-28,15.2-56.1,37.4-77.1c25.7-25.7,58.4-38.5,92.3-38.5
		s66.6,12.8,92.3,38.5c29.2,29.2,42.1,70.1,37.4,108.6c-1.2,9.3,5.8,18.7,15.2,19.9c1.2,0,1.2,0,2.3,0h7c46.7,0,82.9,36.2,82.9,82.9
		c0,46.7-36.2,82.9-82.9,82.9h-82.9c-9.3,0-17.5,8.2-17.5,17.5s8.2,17.5,17.5,17.5l0,0h82.9c65.4,0,119.1-53.7,119.1-119.1
		c0-61.9-47.9-112.1-107.5-118c0-43.2-15.2-86.4-47.9-119.1C395.8,1030.9,352.5,1015.7,310.5,1015.7z M310.5,1229.5
		c-5.8,0-9.3,2.3-11.7,4.7l-65.4,59.6c-7,7-7,18.7-1.2,25.7s18.7,7,25.7,1.2l35-32.7v161.1c0,9.3,8.2,17.5,17.5,17.5
		s17.5-8.2,17.5-17.5v-162.4l35,32.7c7,5.8,18.7,5.8,25.7-1.2s5.8-18.7-1.2-25.7l-65.4-59.6C318.7,1230.7,316.3,1229.5,310.5,1229.5
		L310.5,1229.5z"/>
</g>
</svg>
