<?xml version="1.0" encoding="utf-8"?>
<!-- Generator: Adobe Illustrator 24.1.0, SVG Export Plug-In . SVG Version: 6.00 Build 0)  -->
<svg version="1.1" id="upside-chat-toggle" xmlns="http://www.w3.org/2000/svg" xmlns:xlink="http://www.w3.org/1999/xlink" x="0px"
	 y="0px" viewBox="0 0 60.1 60.2" style="enable-background:new 0 0 60.1 60.2;" xml:space="preserve">
<style type="text/css">
	.st0{fill:#5FCCFF;}
</style>
<desc>Created with Sketch.</desc>
<g>
	<path class="st0" d="M30.1,0.1c-16.6,0-30,13.5-30,30c0,16.6,13.5,30,30,30s30-13.5,30-30C60.1,13.5,46.6,0.1,30.1,0.1z M30.1,57.4
		c-15,0-27.3-12.2-27.3-27.3S15,2.8,30.1,2.8c15,0,27.3,12.2,27.3,27.3S45.1,57.4,30.1,57.4z"/>
	<polygon class="st0" points="32.3,19.3 30.1,17.1 12.4,34.8 14.6,37 30.1,21.5 45.5,37 47.8,34.8 	"/>
</g>
</svg>
