<?xml version="1.0" encoding="utf-8"?>
<!-- Generator: Adobe Illustrator 26.5.0, SVG Export Plug-In . SVG Version: 6.00 Build 0)  -->
<svg version="1.1" xmlns="http://www.w3.org/2000/svg" xmlns:xlink="http://www.w3.org/1999/xlink" x="0px" y="0px"
	 viewBox="0 0 42 35" style="enable-background:new 0 0 42 35;" xml:space="preserve">
<style type="text/css">
	.st0{display:none;}
	.st1{display:inline;}
	.st2{fill:#00AD0E;}
	.st3{display:inline;fill-rule:evenodd;clip-rule:evenodd;fill:#FFFFFF;}
	.st4{fill:#B533A9;}
	.st5{fill:#FFFFFF;}
	.st6{fill:#1C75BC;}
	.st7{display:inline;fill:#FFFFFF;}
	.st8{fill:#00785A;}
	.st9{fill:#FF7F15;}
	.st10{display:inline;fill:#00A1BB;}
	.st11{fill:#9875FF;}
	.st12{display:inline;fill:#9B2D20;}
</style>
<g id="data_file" class="st0">
	<g class="st1">
		<path class="st2" d="M42,34.9H9.1c-4.9,0-9-4-9-9V9.1c0-4.9,4-9,9-9H42c0,0,0,0,0,0L42,34.9C42,34.9,42,34.9,42,34.9z"/>
	</g>
	<path class="st3" d="M16.2,5.4c0.2-0.2,0.4-0.3,0.6-0.3h9.2c1.5,0,2.6,1.2,2.6,2.6v0.9h0.9c1.5,0,2.6,1.2,2.6,2.6v15.9
		c0,1.5-1.2,2.6-2.6,2.6H17.3c-1.5,0-2.6-1.2-2.6-2.6v-0.9h-0.9c-1.5,0-2.6-1.2-2.6-2.6V10.9c0-0.2,0.1-0.5,0.3-0.6L16.2,5.4z
		 M15.6,12.2h-2.6v11.5c0,0.5,0.4,0.9,0.9,0.9h12.3c0.5,0,0.9-0.4,0.9-0.9V7.8c0-0.5-0.4-0.9-0.9-0.9h-7.9v2.6
		C18.2,11,17,12.2,15.6,12.2z"/>
</g>
<g id="analysis" class="st0">
	<g class="st1">
		<path class="st4" d="M42,34.9H9.1c-4.9,0-9-4-9-9V9.1c0-4.9,4-9,9-9H42c0,0,0,0,0,0L42,34.9C42,34.9,42,34.9,42,34.9z"/>
	</g>
	<g class="st1">
		<path class="st5" d="M11.7,23.9H16c0.2,0,0.4-0.2,0.4-0.4v-9.3c0-0.2-0.2-0.4-0.4-0.4h-4.3c-0.3,0-0.4,0.2-0.4,0.4v9.3
			C11.2,23.7,11.4,23.9,11.7,23.9z"/>
		<path class="st5" d="M19.3,23.9h4.3c0.3,0,0.4-0.2,0.4-0.4V9.9c0-0.2-0.2-0.4-0.4-0.4l-4.3,0c-0.3,0-0.4,0.2-0.4,0.4v13.6
			C18.8,23.7,19,23.9,19.3,23.9L19.3,23.9z"/>
		<path class="st5" d="M26.9,23.9h4.3c0.3,0,0.4-0.2,0.4-0.4v-18c0-0.2-0.2-0.4-0.4-0.4h-4.3c-0.3,0-0.4,0.2-0.4,0.4v18
			C26.4,23.7,26.6,23.9,26.9,23.9z"/>
		<path class="st5" d="M31.5,25.6h-20c-0.2,0-0.3,0.2-0.3,0.4v2.2c0,0.2,0.1,0.4,0.3,0.4h20c0.2,0,0.3-0.2,0.3-0.4V26
			C31.8,25.8,31.7,25.6,31.5,25.6L31.5,25.6z"/>
	</g>
</g>
<g id="clinial_trial_copy_2" class="st0">
	<g class="st1">
		<path class="st6" d="M42,34.9H9.1c-4.9,0-9-4-9-9V9.1c0-4.9,4-9,9-9H42c0,0,0,0,0,0L42,34.9C42,34.9,42,34.9,42,34.9z"/>
	</g>
	<path class="st7" d="M16.7,10.4h-2.8V8.3c0-0.8,0.3-1.5,0.8-2c0.5-0.5,1.3-0.8,2-0.8h10.1c0.8,0,1.5,0.3,2,0.8
		c0.5,0.5,0.8,1.3,0.8,2v2.1h-2.8V8.3H16.7V10.4z M34.4,13l0,12.7c0,0.7-0.3,1.4-0.8,1.9c-0.5,0.5-1.2,0.8-1.9,0.8h-20
		c-0.7,0-1.4-0.3-1.9-0.8C9.3,27,9,26.3,9,25.6V13c0-0.7,0.3-1.4,0.8-1.9c0.5-0.5,1.2-0.8,1.9-0.8h20c0.7,0,1.4,0.3,1.9,0.8
		C34.1,11.6,34.4,12.2,34.4,13L34.4,13z M25.9,18c0-0.2-0.1-0.3-0.3-0.3h-2.2v-2.2c0-0.2-0.1-0.3-0.3-0.3h-2.5
		c-0.2,0-0.3,0.1-0.3,0.3v2.2l-2.2,0c-0.1,0-0.2,0-0.2,0.1c-0.1,0.1-0.1,0.1-0.1,0.2v2.5v0c0,0.2,0.1,0.3,0.3,0.3h2.2v2.2
		c0,0.2,0.1,0.3,0.3,0.3H23c0.2,0,0.3-0.1,0.3-0.3v-2.2h2.2c0.2,0,0.3-0.1,0.3-0.3V18z"/>
</g>
<g id="biospeciman_copy" class="st0">
	<g class="st1">
		<path class="st8" d="M42,34.9H9.1c-4.9,0-9-4-9-9V9.1c0-4.9,4-9,9-9H42c0,0,0,0,0,0L42,34.9C42,34.9,42,34.9,42,34.9z"/>
	</g>
	<path class="st7" d="M18.8,14.7L11,25.5c-0.2,0.3-0.4,0.7-0.4,1.1c0,1.1,0.9,1.9,1.9,1.9h19.3c1.1,0,1.9-0.9,1.9-1.9
		c0-0.4-0.1-0.8-0.4-1.1l-7.8-10.7V7.8h0.2c0.7,0,1.2-0.5,1.2-1.2s-0.5-1.2-1.2-1.2h-7.2c-0.7,0-1.2,0.5-1.2,1.2s0.5,1.2,1.2,1.2
		h0.2L18.8,14.7L18.8,14.7z M21.2,7.8h1.9V15l3.4,4.8h-8.7l3.4-4.8L21.2,7.8L21.2,7.8z"/>
</g>
<g id="case" class="st0">
	<g class="st1">
		<path class="st9" d="M42,34.9H9.1c-4.9,0-9-4-9-9V9.1c0-4.9,4-9,9-9H42c0,0,0,0,0,0L42,34.9C42,34.9,42,34.9,42,34.9z"/>
	</g>
	<g class="st1">
		<path class="st5" d="M26.6,16.8c1,0,1.9,0.5,2.2,1.3l1.4,3.6c0-2.3,0-6.4,0-8.5c0-1.5,0-3.1,0-4.2c0-0.6,0-1.1,0-1.4
			c0-0.7,0-0.8-0.2-1.1c-0.2-0.3-0.4-0.3-1.1-0.3c-0.3,0-0.8,0-1.4,0c-1,0-5.1,0-6.9,0c-3.1,0-6.1,0-6.1,0l0,0c-0.6,0-1,0.4-1,1v9.7
			h0.7H26.6z M17.4,10H20V7.6h3.1V10h2.6v3.1h-2.6v2.4H20v-2.4h-2.6V10z"/>
		<path class="st5" d="M27.4,19.8c-0.3-0.8-1.2-1.3-2.3-1.3H14.8H14h-0.2h-2.4c-1.4,0-1.9,0.5-1.8,1.6c0,0,0,0,0,0l3.1,8.2
			c0.2,0.2,0.2,0.2,0.3,0.2h17.9l-0.5-1L27.4,19.8z"/>
		<path class="st5" d="M32.1,17.8v6.5l0.4,1.1l0,0.1c0.1-0.1,0.2-0.3,0.3-0.4l2.4-6.3l0.4-0.8H32.1z"/>
	</g>
</g>
<g id="clinial_trial" class="st0">
	<path class="st10" d="M42,34.9H9.1c-4.9,0-9-4-9-9V9.1c0-4.9,4-9,9-9H42c0,0,0,0,0,0L42,34.9C42,34.9,42,34.9,42,34.9z"/>
	<g class="st1">
		<path class="st5" d="M29.4,5h-3.5v1.4c0,1.1-0.9,1.9-1.9,1.9h-5.2c-1.1,0-1.9-0.9-1.9-1.9V5h-3.6c-1.1,0-1.9,0.9-1.9,1.9v21.2
			c0,1.1,0.9,1.9,1.9,1.9h16.2c1.1,0,1.9-0.9,1.9-1.9V7C31.4,5.9,30.5,5,29.4,5L29.4,5z M18.2,26.1c-0.4-1.3-0.6-2.6-0.4-4
			c0.2-1.3,0.9-2.4,0.9-3.5s-1.3-0.9-2-1.3c-0.8-0.2-1.9-0.8-2.4-1.6c-0.5-0.8-0.2-1.4,0.6-1.6h2.4c1.1,0,1.1-0.5,2-0.6
			c0.6-0.2,1.3,0,1.6-0.6c0.2-0.6,0.3-1.3,0.6-1.7c0.9-2.7,1.6,1.6,1.7,2.4c0.8,4.6,1.2,7.2,4.5,11.9c0.2,0.2,0.3,0.4,0.5,0.6
			L18.2,26.1L18.2,26.1z"/>
		<path class="st5" d="M24.4,7.2h-6c-0.3,0-0.5-0.2-0.5-0.5V4c0-0.3,0.2-0.5,0.5-0.5h6c0.3,0,0.5,0.2,0.5,0.5v2.6
			C24.9,6.9,24.6,7.2,24.4,7.2z"/>
	</g>
</g>
<g id="study">
	<g>
		<path class="st11" d="M42,34.9H9.1c-4.9,0-9-4-9-9V9.1c0-4.9,4-9,9-9H42c0,0,0,0,0,0L42,34.9C42,34.9,42,34.9,42,34.9z"/>
	</g>
	<g>
		<polygon class="st5" points="20.6,10.8 11.1,7.5 11.1,10.8 11.1,21.4 20.9,24.9 20.9,10.9 20.8,10.8 		"/>
		<polygon class="st5" points="9.4,10.8 7.6,10.8 7.6,26.5 20.3,26.5 9.4,22.7 		"/>
		<polygon class="st5" points="34.1,10.8 34.1,22.7 23.3,26.5 36.3,26.5 36.3,10.8 		"/>
		<polygon class="st5" points="32.4,10.8 32.4,7.5 22.9,10.8 22.7,10.8 22.7,10.9 22.7,24.9 32.4,21.4 		"/>
	</g>
</g>
<g id="admin_00000021118846022989168060000001758371769246995117_" class="st0">
	<path class="st12" d="M42,34.9H9.1c-4.9,0-9-4-9-9V9.1c0-4.9,4-9,9-9H42c0,0,0,0,0,0L42,34.9C42,34.9,42,34.9,42,34.9z"/>
	<g class="st1">
		<path class="st5" d="M35.1,20.7L35.1,20.7c-0.1-0.2-0.3-0.4-0.5-0.5h0c-1-0.4-1.6-1.4-1.6-2.5c0-1.1,0.6-2,1.6-2.5
			c0.5-0.2,0.7-0.8,0.5-1.3l-1.3-3.1c-0.2-0.5-0.8-0.7-1.3-0.5c-1,0.4-2.1,0.2-2.9-0.6c-0.8-0.8-1-1.9-0.6-2.9
			c0.1-0.2,0.1-0.5,0-0.7c-0.1-0.2-0.3-0.4-0.5-0.5l-3.1-1.3c-0.2-0.1-0.5-0.1-0.7,0c-0.2,0.1-0.4,0.3-0.5,0.5
			c-0.4,1-1.4,1.6-2.5,1.6c-1.1,0-2-0.6-2.5-1.6c-0.1-0.2-0.3-0.4-0.5-0.5c-0.2-0.1-0.5-0.1-0.7,0l-3.1,1.3
			c-0.2,0.1-0.4,0.3-0.5,0.5c-0.1,0.2-0.1,0.5,0,0.7c0.4,1,0.2,2.1-0.6,2.9c-0.8,0.8-1.9,1-2.9,0.6c-0.2-0.1-0.5-0.1-0.7,0
			c-0.2,0.1-0.4,0.3-0.5,0.5L8.4,14c-0.1,0.2-0.1,0.5,0,0.7c0.1,0.2,0.3,0.4,0.5,0.5c1,0.4,1.6,1.4,1.6,2.5c0,1.1-0.6,2-1.6,2.5
			c-0.2,0.1-0.4,0.3-0.5,0.5c-0.1,0.2-0.1,0.5,0,0.7l1.3,3.1c0.2,0.5,0.8,0.7,1.3,0.5c1-0.4,2.1-0.2,2.9,0.6c0.8,0.8,1,1.9,0.6,2.9
			c-0.1,0.2-0.1,0.5,0,0.7c0.1,0.2,0.3,0.4,0.5,0.5L18,31c0.5,0.2,1.1,0,1.3-0.5c0.4-1,1.4-1.6,2.5-1.6c1.1,0,2,0.6,2.5,1.6
			c0.2,0.4,0.5,0.6,0.9,0.6c0.1,0,0.2,0,0.4-0.1l3.1-1.3c0.2-0.1,0.4-0.3,0.5-0.5c0.1-0.2,0.1-0.5,0-0.7c-0.4-1-0.2-2.1,0.6-2.9
			c0.8-0.8,1.9-1,2.9-0.6c0.5,0.2,1.1,0,1.3-0.5l1.3-3.1C35.2,21.2,35.2,20.9,35.1,20.7z M21.7,25.9c-4.5,0-8.2-3.7-8.2-8.2
			c0-4.5,3.7-8.2,8.2-8.2c4.5,0,8.2,3.7,8.2,8.2C29.9,22.2,26.2,25.9,21.7,25.9z"/>
		<path class="st5" d="M26.6,17.1C26.6,17.1,26.6,17.1,26.6,17.1C26.6,17.1,26.6,17.1,26.6,17.1h-2.3c0,0,0,0,0,0c0,0,0,0,0,0H22
			c-0.3-1.5-1.6-2.6-3.1-2.6c-1.8,0-3.2,1.4-3.2,3.2c0,1.8,1.4,3.2,3.2,3.2c1.6,0,2.9-1.1,3.1-2.6h1.8v1.3c0,0.3,0.3,0.6,0.6,0.6
			s0.6-0.3,0.6-0.6v-1.3H26v1c0,0.3,0.3,0.6,0.6,0.6c0.3,0,0.6-0.3,0.6-0.6v-1h0c0.3,0,0.6-0.3,0.6-0.6c0-0.3-0.3-0.6-0.6-0.6H26.6z
			 M18.8,19.7c-1.1,0-2-0.9-2-2c0-1.1,0.9-2,2-2c1.1,0,2,0.9,2,2c0,0,0,0,0,0c0,0,0,0,0,0C20.8,18.8,19.9,19.7,18.8,19.7z"/>
	</g>
</g>
</svg>
