<?xml version="1.0" encoding="utf-8"?>
<!-- Generator: Adobe Illustrator 24.0.3, SVG Export Plug-In . SVG Version: 6.00 Build 0)  -->
<svg version="1.1" id="Layer_1" xmlns="http://www.w3.org/2000/svg" xmlns:xlink="http://www.w3.org/1999/xlink" x="0px" y="0px"
	 viewBox="0 0 440.7 100" style="enable-background:new 0 0 440.7 100;" xml:space="preserve">
<style type="text/css">
	.st0{fill:#606061;}
	.st1{fill:#BA1F40;}
	.st2{fill:#FFFFFF;}
	.st3{fill:#606060;}
</style>
<g>
	<g>
		<path class="st0" d="M97.99,50l-15-27H28.76c-3.19,0-5.77,2.59-5.77,5.79v42.43c0,3.2,2.58,5.79,5.77,5.79h54.23L97.99,50z"/>
		<path class="st1" d="M96.5,25.81C95.44,24.07,93.54,23,91.48,23H87l15.2,27l-15.2,27h4.49c2.06,0,3.96-1.07,5.02-2.81L110,50
			L96.5,25.81z"/>
	</g>
	<g>
		<rect x="54.99" y="38" class="st2" width="4" height="24"/>
		<polygon class="st2" points="46.99,38 46.99,55.6 35.99,38 31.99,38 31.99,62 35.99,62 35.99,44.4 46.99,62 50.99,62 50.99,38 		
			"/>
		<polygon class="st2" points="77.99,38 77.99,48 66.99,48 66.99,38 62.99,38 62.99,62 66.99,62 66.99,52 77.99,52 77.99,62 
			81.99,62 81.99,38 		"/>
	</g>
</g>
<g>
	<path class="st1" d="M130.85,31h2.5v11.18h-2.5l-5.33-7.01v7.01h-2.5V31h2.34l5.49,7.2V31z"/>
	<path class="st1" d="M144.06,42.18l-1.04-2.42h-4.69l-1.04,2.42h-2.66L139.47,31h2.42l4.83,11.18H144.06z M140.69,34.33l-1.41,3.25
		h2.8L140.69,34.33z"/>
	<path class="st1" d="M151.94,33.16v9.02h-2.5v-9.02h-3.17V31h8.83v2.16H151.94z"/>
	<path class="st1" d="M156.93,31h2.5v11.18h-2.5V31z"/>
	<path class="st1" d="M171.58,40.64c-1.13,1.1-2.52,1.66-4.18,1.66s-3.05-0.55-4.18-1.66c-1.13-1.1-1.7-2.48-1.7-4.12
		c0-1.64,0.57-3.02,1.7-4.12c1.13-1.1,2.52-1.66,4.18-1.66s3.04,0.55,4.18,1.66c1.13,1.1,1.7,2.48,1.7,4.12
		C173.28,38.16,172.71,39.54,171.58,40.64z M170.74,36.53c0-1-0.32-1.85-0.96-2.55c-0.64-0.7-1.43-1.06-2.36-1.06
		s-1.72,0.35-2.36,1.06c-0.64,0.7-0.96,1.55-0.96,2.55c0,1,0.32,1.85,0.96,2.54c0.64,0.7,1.43,1.05,2.36,1.05s1.72-0.35,2.36-1.05
		C170.42,38.37,170.74,37.52,170.74,36.53z"/>
	<path class="st1" d="M183.22,31h2.5v11.18h-2.5l-5.33-7.01v7.01h-2.5V31h2.34l5.49,7.2V31z"/>
	<path class="st1" d="M196.43,42.18l-1.04-2.42h-4.69l-1.04,2.42h-2.66L191.84,31h2.42l4.83,11.18H196.43z M193.06,34.33l-1.41,3.25
		h2.8L193.06,34.33z"/>
	<path class="st1" d="M200.38,42.18V31h2.5v8.96h4.77v2.22H200.38z"/>
	<path class="st1" d="M218.83,39.98c1.23,0,2.23-0.49,3.01-1.46l1.6,1.65c-1.27,1.43-2.77,2.14-4.49,2.14s-3.14-0.54-4.26-1.63
		c-1.11-1.09-1.67-2.46-1.67-4.12c0-1.66,0.57-3.04,1.7-4.15c1.14-1.11,2.53-1.66,4.17-1.66c1.83,0,3.37,0.7,4.61,2.1l-1.55,1.76
		c-0.79-0.98-1.77-1.47-2.94-1.47c-0.94,0-1.74,0.31-2.41,0.92c-0.67,0.61-1,1.44-1,2.48s0.31,1.88,0.94,2.5
		C217.17,39.66,217.94,39.98,218.83,39.98z"/>
	<path class="st1" d="M233.3,42.18l-1.04-2.42h-4.69l-1.04,2.42h-2.66L228.7,31h2.42l4.83,11.18H233.3z M229.92,34.33l-1.41,3.25
		h2.8L229.92,34.33z"/>
	<path class="st1" d="M245.07,31h2.5v11.18h-2.5l-5.33-7.01v7.01h-2.5V31h2.34l5.49,7.2V31z"/>
	<path class="st1" d="M255.46,39.98c1.23,0,2.23-0.49,3.01-1.46l1.6,1.65c-1.27,1.43-2.77,2.14-4.49,2.14s-3.14-0.54-4.26-1.63
		c-1.12-1.09-1.67-2.46-1.67-4.12c0-1.66,0.57-3.04,1.7-4.15c1.14-1.11,2.52-1.66,4.17-1.66c1.83,0,3.37,0.7,4.61,2.1l-1.55,1.76
		c-0.79-0.98-1.77-1.47-2.94-1.47c-0.94,0-1.74,0.31-2.41,0.92c-0.67,0.61-1,1.44-1,2.48s0.32,1.88,0.94,2.5
		C253.8,39.66,254.56,39.98,255.46,39.98z"/>
	<path class="st1" d="M270.09,31v2.22h-5.57v2.3h5.01v2.13h-5.01v2.32h5.74v2.21h-8.24V31H270.09z"/>
	<path class="st1" d="M281.57,34.71c0,1.79-0.71,2.95-2.13,3.47l2.83,4h-3.07l-2.48-3.57h-1.73v3.57h-2.5V31h4.24
		c1.74,0,2.98,0.29,3.72,0.88S281.57,33.41,281.57,34.71z M278.56,36.04c0.31-0.28,0.46-0.72,0.46-1.32s-0.16-1.02-0.48-1.24
		s-0.88-0.34-1.68-0.34h-1.87v3.31h1.82C277.67,36.46,278.25,36.32,278.56,36.04z"/>
	<path class="st1" d="M288.35,31h2.5v11.18h-2.5V31z"/>
	<path class="st1" d="M301.42,31h2.5v11.18h-2.5l-5.33-7.01v7.01h-2.5V31h2.34l5.49,7.2V31z"/>
	<path class="st1" d="M309.29,33.23c-0.24,0.2-0.36,0.46-0.36,0.78s0.15,0.58,0.44,0.78c0.29,0.19,0.97,0.42,2.03,0.68
		s1.89,0.65,2.47,1.18c0.59,0.52,0.88,1.29,0.88,2.29c0,1-0.38,1.82-1.13,2.44s-1.74,0.94-2.97,0.94c-1.77,0-3.37-0.66-4.78-1.97
		l1.49-1.82c1.21,1.06,2.32,1.58,3.34,1.58c0.46,0,0.82-0.1,1.08-0.3c0.26-0.2,0.39-0.46,0.39-0.8s-0.14-0.6-0.42-0.8
		s-0.83-0.4-1.65-0.6c-1.3-0.31-2.25-0.71-2.86-1.21s-0.9-1.27-0.9-2.34s0.38-1.88,1.14-2.46c0.76-0.58,1.71-0.86,2.86-0.86
		c0.75,0,1.49,0.13,2.24,0.38c0.75,0.26,1.4,0.62,1.95,1.09l-1.26,1.82c-0.97-0.74-1.97-1.1-3.01-1.1
		C309.85,32.94,309.53,33.03,309.29,33.23z"/>
	<path class="st1" d="M321.52,33.16v9.02h-2.5v-9.02h-3.17V31h8.83v2.16H321.52z"/>
	<path class="st1" d="M326.51,31h2.5v11.18h-2.5V31z"/>
	<path class="st1" d="M336.49,33.16v9.02H334v-9.02h-3.17V31h8.83v2.16H336.49z"/>
	<path class="st1" d="M344.45,39.3c0.42,0.52,0.98,0.78,1.68,0.78s1.26-0.26,1.67-0.78c0.41-0.52,0.62-1.22,0.62-2.12V31h2.5v6.26
		c0,1.62-0.45,2.87-1.34,3.74c-0.9,0.87-2.04,1.3-3.44,1.3c-1.4,0-2.55-0.44-3.45-1.31c-0.9-0.87-1.35-2.12-1.35-3.73V31h2.5v6.18
		C343.82,38.07,344.03,38.78,344.45,39.3z"/>
	<path class="st1" d="M358.24,33.16v9.02h-2.5v-9.02h-3.17V31h8.83v2.16H358.24z"/>
	<path class="st1" d="M371.29,31v2.22h-5.57v2.3h5.01v2.13h-5.01v2.32h5.74v2.21h-8.24V31H371.29z"/>
</g>
<g>
	<path class="st3" d="M129.56,66.05c1.61,0,2.93-0.64,3.95-1.91l2.1,2.16c-1.67,1.88-3.63,2.81-5.89,2.81s-4.12-0.71-5.59-2.14
		c-1.46-1.43-2.19-3.23-2.19-5.41s0.75-3.99,2.24-5.45c1.49-1.46,3.31-2.18,5.47-2.18c2.41,0,4.42,0.92,6.05,2.75l-2.04,2.31
		c-1.04-1.29-2.32-1.93-3.86-1.93c-1.23,0-2.29,0.4-3.16,1.21c-0.88,0.81-1.31,1.89-1.31,3.26c0,1.36,0.41,2.46,1.24,3.29
		S128.39,66.05,129.56,66.05z"/>
	<path class="st3" d="M141.03,68.95h-3.15V53.37h3.15V68.95z"/>
	<path class="st3" d="M144.27,56.21c-0.36-0.36-0.54-0.79-0.54-1.31c0-0.52,0.18-0.96,0.54-1.31c0.36-0.36,0.79-0.54,1.31-0.54
		c0.52,0,0.96,0.18,1.31,0.54c0.36,0.36,0.54,0.79,0.54,1.31c0,0.52-0.18,0.96-0.54,1.31c-0.36,0.36-0.79,0.54-1.31,0.54
		C145.07,56.75,144.63,56.57,144.27,56.21z M147.16,68.95h-3.15v-11.3h3.15V68.95z"/>
	<path class="st3" d="M153.29,62.65v6.3h-3.15v-11.3h3.15v1.26c0.95-0.97,2.02-1.45,3.21-1.45c1.19,0,2.19,0.42,2.99,1.26
		c0.8,0.84,1.21,1.96,1.21,3.36v6.87h-3.15v-6.38c0-1.74-0.64-2.6-1.91-2.6c-0.63,0-1.18,0.23-1.65,0.68
		C153.53,61.1,153.29,61.77,153.29,62.65z"/>
	<path class="st3" d="M163.82,56.21c-0.36-0.36-0.54-0.79-0.54-1.31c0-0.52,0.18-0.96,0.54-1.31c0.36-0.36,0.79-0.54,1.31-0.54
		c0.52,0,0.96,0.18,1.31,0.54c0.36,0.36,0.54,0.79,0.54,1.31c0,0.52-0.18,0.96-0.54,1.31c-0.36,0.36-0.79,0.54-1.31,0.54
		C164.62,56.75,164.18,56.57,163.82,56.21z M166.71,68.95h-3.15v-11.3h3.15V68.95z"/>
	<path class="st3" d="M175.11,66.32c1.05,0,2-0.53,2.83-1.58l1.87,2.1c-1.46,1.51-3.03,2.27-4.73,2.27c-1.69,0-3.12-0.54-4.29-1.61
		s-1.75-2.47-1.75-4.2c0-1.73,0.59-3.14,1.77-4.22c1.18-1.08,2.59-1.63,4.21-1.63c0.81,0,1.63,0.17,2.47,0.5
		c0.83,0.34,1.56,0.83,2.19,1.49l-1.64,2.14c-0.36-0.43-0.81-0.77-1.33-1.01c-0.53-0.24-1.05-0.36-1.56-0.36
		c-0.83,0-1.54,0.27-2.13,0.81s-0.89,1.29-0.89,2.25s0.3,1.7,0.89,2.24S174.31,66.32,175.11,66.32z"/>
	<path class="st3" d="M191.51,68.95h-2.96v-1.37c-0.81,1.02-1.82,1.53-3.01,1.53s-2.2-0.35-3.01-1.04
		c-0.81-0.69-1.22-1.62-1.22-2.77s0.42-2.02,1.26-2.59c0.84-0.57,1.99-0.86,3.44-0.86h2.35v-0.06c0-1.2-0.64-1.81-1.91-1.81
		c-0.55,0-1.12,0.11-1.73,0.33c-0.61,0.22-1.12,0.49-1.54,0.81l-1.41-2.04c1.48-1.08,3.18-1.62,5.08-1.62
		c1.37,0,2.49,0.34,3.36,1.03c0.87,0.69,1.3,1.77,1.3,3.25V68.95z M188.34,64.64V64.1h-1.97c-1.26,0-1.89,0.39-1.89,1.18
		c0,0.41,0.15,0.72,0.45,0.93c0.3,0.22,0.73,0.33,1.29,0.33s1.05-0.17,1.48-0.51C188.13,65.67,188.34,65.22,188.34,64.64z"/>
	<path class="st3" d="M197.54,68.95h-3.15V53.37h3.15V68.95z"/>
	<path class="st3" d="M212.6,57.1v11.84h-3.28V57.1h-4.16v-2.83h11.59v2.83H212.6z"/>
	<path class="st3" d="M224.77,60.42c-0.94,0-1.64,0.33-2.1,1s-0.69,1.54-0.69,2.64v4.89h-3.15v-11.3h3.15v1.49
		c0.41-0.46,0.91-0.85,1.52-1.18c0.61-0.32,1.23-0.49,1.86-0.5l0.02,2.96H224.77z"/>
	<path class="st3" d="M227.73,56.21c-0.36-0.36-0.54-0.79-0.54-1.31c0-0.52,0.18-0.96,0.54-1.31c0.36-0.36,0.79-0.54,1.31-0.54
		c0.52,0,0.96,0.18,1.31,0.54c0.36,0.36,0.54,0.79,0.54,1.31c0,0.52-0.18,0.96-0.54,1.31c-0.36,0.36-0.79,0.54-1.31,0.54
		C228.52,56.75,228.08,56.57,227.73,56.21z M230.61,68.95h-3.15v-11.3h3.15V68.95z"/>
	<path class="st3" d="M243.19,68.95h-2.96v-1.37c-0.81,1.02-1.82,1.53-3.01,1.53s-2.2-0.35-3.01-1.04
		c-0.81-0.69-1.22-1.62-1.22-2.77s0.42-2.02,1.26-2.59c0.84-0.57,1.99-0.86,3.44-0.86h2.35v-0.06c0-1.2-0.64-1.81-1.91-1.81
		c-0.55,0-1.12,0.11-1.73,0.33c-0.61,0.22-1.12,0.49-1.54,0.81l-1.41-2.04c1.48-1.08,3.18-1.62,5.08-1.62
		c1.37,0,2.49,0.34,3.36,1.03c0.87,0.69,1.3,1.77,1.3,3.25V68.95z M240.02,64.64V64.1h-1.97c-1.26,0-1.89,0.39-1.89,1.18
		c0,0.41,0.15,0.72,0.45,0.93c0.3,0.22,0.73,0.33,1.29,0.33s1.05-0.17,1.48-0.51C239.81,65.67,240.02,65.22,240.02,64.64z"/>
	<path class="st3" d="M249.22,68.95h-3.15V53.37h3.15V68.95z"/>
	<path class="st3" d="M269.27,56.19c1.4,1.28,2.1,3.06,2.1,5.34c0,2.28-0.68,4.09-2.05,5.42s-3.45,2-6.25,2h-5.02V54.27h5.19
		C265.86,54.27,267.87,54.91,269.27,56.19z M266.87,64.92c0.8-0.76,1.21-1.85,1.21-3.3c0-1.44-0.4-2.55-1.21-3.33
		s-2.04-1.17-3.71-1.17h-1.83v8.92h2.08C264.91,66.05,266.06,65.67,266.87,64.92z"/>
	<path class="st3" d="M283.34,68.95h-2.96v-1.37c-0.81,1.02-1.82,1.53-3.01,1.53s-2.2-0.35-3.01-1.04
		c-0.81-0.69-1.22-1.62-1.22-2.77s0.42-2.02,1.26-2.59c0.84-0.57,1.99-0.86,3.44-0.86h2.35v-0.06c0-1.2-0.64-1.81-1.91-1.81
		c-0.55,0-1.12,0.11-1.73,0.33c-0.61,0.22-1.12,0.49-1.54,0.81l-1.41-2.04c1.48-1.08,3.18-1.62,5.08-1.62
		c1.37,0,2.49,0.34,3.36,1.03c0.87,0.69,1.3,1.77,1.3,3.25V68.95z M280.17,64.64V64.1h-1.97c-1.26,0-1.89,0.39-1.89,1.18
		c0,0.41,0.15,0.72,0.45,0.93c0.3,0.22,0.73,0.33,1.29,0.33s1.05-0.17,1.48-0.51C279.96,65.67,280.17,65.22,280.17,64.64z"/>
	<path class="st3" d="M289.85,59.92v5.06c0,0.43,0.11,0.77,0.34,1.02s0.49,0.37,0.8,0.37c0.59,0,1.08-0.27,1.49-0.8l1.18,2.21
		c-0.98,0.9-2.01,1.34-3.1,1.34s-2-0.36-2.75-1.07s-1.12-1.69-1.12-2.92v-5.21h-1.32v-2.27h1.32v-3.38h3.17v3.38h2.73v2.27H289.85z"
		/>
	<path class="st3" d="M304.93,68.95h-2.96v-1.37c-0.81,1.02-1.82,1.53-3.01,1.53s-2.2-0.35-3.01-1.04
		c-0.81-0.69-1.22-1.62-1.22-2.77s0.42-2.02,1.26-2.59c0.84-0.57,1.99-0.86,3.44-0.86h2.35v-0.06c0-1.2-0.64-1.81-1.91-1.81
		c-0.55,0-1.12,0.11-1.73,0.33c-0.61,0.22-1.12,0.49-1.54,0.81l-1.41-2.04c1.48-1.08,3.18-1.62,5.08-1.62
		c1.37,0,2.49,0.34,3.36,1.03c0.87,0.69,1.3,1.77,1.3,3.25V68.95z M301.76,64.64V64.1h-1.97c-1.26,0-1.89,0.39-1.89,1.18
		c0,0.41,0.15,0.72,0.45,0.93c0.3,0.22,0.73,0.33,1.29,0.33s1.05-0.17,1.48-0.51C301.55,65.67,301.76,65.22,301.76,64.64z"/>
	<path class="st3" d="M320.41,66.05c1.61,0,2.93-0.64,3.95-1.91l2.1,2.16c-1.67,1.88-3.63,2.81-5.89,2.81s-4.12-0.71-5.59-2.14
		c-1.46-1.43-2.19-3.23-2.19-5.41s0.75-3.99,2.24-5.45c1.49-1.46,3.31-2.18,5.47-2.18c2.41,0,4.42,0.92,6.05,2.75l-2.04,2.31
		c-1.04-1.29-2.32-1.93-3.86-1.93c-1.23,0-2.29,0.4-3.16,1.21c-0.88,0.81-1.31,1.89-1.31,3.26c0,1.36,0.41,2.46,1.24,3.29
		S319.23,66.05,320.41,66.05z"/>
	<path class="st3" d="M339.58,63.3c0,1.64-0.57,3.02-1.7,4.14s-2.56,1.68-4.27,1.68s-3.14-0.56-4.27-1.68s-1.7-2.5-1.7-4.14
		c0-1.64,0.57-3.02,1.7-4.15s2.56-1.69,4.27-1.69s3.14,0.56,4.27,1.69S339.58,61.66,339.58,63.3z M330.8,63.3
		c0,0.92,0.26,1.68,0.79,2.26c0.52,0.58,1.2,0.87,2.02,0.87s1.49-0.29,2.02-0.87c0.53-0.58,0.79-1.33,0.79-2.26
		c0-0.92-0.26-1.68-0.79-2.27c-0.52-0.59-1.2-0.88-2.02-0.88s-1.49,0.29-2.02,0.88C331.06,61.62,330.8,62.37,330.8,63.3z"/>
	<path class="st3" d="M352.28,62.86v6.09h-3.17v-6.17c0-0.9-0.14-1.55-0.41-1.97c-0.27-0.42-0.71-0.63-1.32-0.63
		c-0.61,0-1.15,0.23-1.62,0.68c-0.47,0.46-0.7,1.12-0.7,2.01v6.09h-3.15v-11.3h3.15v1.28c0.87-0.98,1.86-1.47,2.98-1.47
		c0.71,0,1.36,0.21,1.94,0.63s1.02,0.93,1.31,1.53c0.43-0.69,1.02-1.22,1.75-1.6c0.73-0.38,1.47-0.57,2.21-0.57
		c1.33,0,2.4,0.4,3.21,1.19c0.81,0.79,1.22,1.94,1.22,3.43v6.87h-3.17v-6.17c0-1.74-0.64-2.6-1.91-2.6c-0.63,0-1.18,0.23-1.64,0.68
		C352.52,61.31,352.28,61.98,352.28,62.86z"/>
	<path class="st3" d="M372.93,62.86v6.09h-3.17v-6.17c0-0.9-0.14-1.55-0.41-1.97c-0.27-0.42-0.71-0.63-1.32-0.63
		c-0.61,0-1.15,0.23-1.62,0.68c-0.47,0.46-0.7,1.12-0.7,2.01v6.09h-3.15v-11.3h3.15v1.28c0.87-0.98,1.86-1.47,2.98-1.47
		c0.71,0,1.36,0.21,1.94,0.63s1.02,0.93,1.31,1.53c0.43-0.69,1.02-1.22,1.75-1.6c0.73-0.38,1.47-0.57,2.21-0.57
		c1.33,0,2.4,0.4,3.21,1.19c0.81,0.79,1.22,1.94,1.22,3.43v6.87h-3.17v-6.17c0-1.74-0.64-2.6-1.91-2.6c-0.63,0-1.18,0.23-1.64,0.68
		C373.16,61.31,372.93,61.98,372.93,62.86z"/>
	<path class="st3" d="M394.49,63.3c0,1.64-0.57,3.02-1.7,4.14s-2.56,1.68-4.27,1.68s-3.14-0.56-4.27-1.68s-1.7-2.5-1.7-4.14
		c0-1.64,0.57-3.02,1.7-4.15s2.56-1.69,4.27-1.69s3.14,0.56,4.27,1.69S394.49,61.66,394.49,63.3z M385.72,63.3
		c0,0.92,0.26,1.68,0.79,2.26c0.52,0.58,1.2,0.87,2.02,0.87s1.49-0.29,2.02-0.87c0.53-0.58,0.79-1.33,0.79-2.26
		c0-0.92-0.26-1.68-0.79-2.27c-0.52-0.59-1.2-0.88-2.02-0.88s-1.49,0.29-2.02,0.88C385.98,61.62,385.72,62.37,385.72,63.3z"/>
	<path class="st3" d="M399.97,62.65v6.3h-3.15v-11.3h3.15v1.26c0.95-0.97,2.02-1.45,3.21-1.45c1.19,0,2.19,0.42,2.99,1.26
		c0.8,0.84,1.21,1.96,1.21,3.36v6.87h-3.15v-6.38c0-1.74-0.64-2.6-1.91-2.6c-0.63,0-1.18,0.23-1.65,0.68
		C400.21,61.1,399.97,61.77,399.97,62.65z"/>
	<path class="st3" d="M418.75,65.43c0,1.11-0.41,2.01-1.23,2.68s-1.86,1.01-3.12,1.01c-0.84,0-1.72-0.15-2.62-0.45
		c-0.91-0.3-1.73-0.75-2.46-1.33l1.39-1.97c1.18,0.91,2.43,1.37,3.76,1.37c0.41,0,0.73-0.08,0.97-0.24
		c0.24-0.16,0.36-0.37,0.36-0.64c0-0.27-0.17-0.51-0.49-0.73s-0.8-0.43-1.43-0.63s-1.1-0.36-1.43-0.5s-0.7-0.34-1.12-0.61
		c-0.85-0.53-1.28-1.32-1.28-2.36s0.42-1.89,1.26-2.55c0.84-0.66,1.92-0.99,3.25-0.99s2.66,0.45,3.99,1.34l-1.18,2.1
		c-0.98-0.67-1.96-1.01-2.93-1.01c-0.97,0-1.46,0.27-1.46,0.8c0,0.29,0.15,0.53,0.46,0.69c0.31,0.17,0.82,0.36,1.53,0.59
		s1.22,0.4,1.52,0.51s0.66,0.3,1.08,0.56C418.36,63.52,418.75,64.32,418.75,65.43z"/>
</g>
</svg>
