<?xml version="1.0" encoding="UTF-8"?><svg id="Layer_1" xmlns="http://www.w3.org/2000/svg" viewBox="0 0 20 20"><defs><style>.cls-1{fill:#fff;}</style></defs><g><path class="cls-1" d="M17.4,19.86H9.23c-.47,0-.82-.36-.82-.82s.36-.82,.82-.82h8.16c.22,0,.44-.08,.58-.25,.16-.16,.25-.36,.25-.58v-7.37c0-.47,.36-.82,.82-.82s.82,.36,.82,.82v7.37c0,.66-.25,1.29-.71,1.75-.47,.47-1.1,.71-1.75,.71Z"/><path class="cls-1" d="M17.4,20H9.23c-.54,0-.96-.42-.96-.96s.42-.96,.96-.96h8.16c.19,0,.37-.07,.47-.2,.15-.15,.21-.3,.21-.49v-7.37c0-.54,.42-.96,.96-.96s.96,.42,.96,.96v7.37c0,.71-.27,1.37-.75,1.85-.49,.49-1.14,.75-1.85,.75Zm-8.16-1.64c-.39,0-.68,.29-.68,.68s.29,.68,.68,.68h8.16c.63,0,1.22-.24,1.66-.67,.43-.43,.67-1.02,.67-1.66v-7.37c0-.39-.29-.68-.68-.68s-.68,.29-.68,.68v7.37c0,.26-.1,.48-.29,.67-.15,.18-.4,.29-.67,.29H9.23Z"/></g><g><path class="cls-1" d="M.96,11.04c-.47,0-.82-.36-.82-.82V2.6C.14,1.95,.38,1.32,.85,.85S1.95,.14,2.6,.14H10.66c.47,0,.82,.36,.82,.82s-.36,.82-.82,.82H2.6c-.22,0-.44,.08-.58,.25-.16,.16-.25,.36-.25,.58v7.62c0,.47-.36,.82-.82,.82Z"/><path class="cls-1" d="M.96,11.18c-.54,0-.96-.42-.96-.96V2.6C0,1.89,.27,1.24,.75,.75,1.24,.27,1.89,0,2.6,0H10.66C11.2,0,11.62,.42,11.62,.96s-.42,.96-.96,.96H2.6c-.19,0-.37,.07-.47,.2-.15,.15-.21,.3-.21,.49v7.62c0,.54-.42,.96-.96,.96ZM2.6,.27c-.63,0-1.22,.24-1.66,.67S.27,1.97,.27,2.6v7.62c0,.39,.29,.68,.68,.68s.68-.29,.68-.68V2.6c0-.26,.1-.48,.29-.67,.15-.18,.4-.29,.67-.29H10.66c.39,0,.68-.29,.68-.68s-.29-.68-.68-.68H2.6Z"/></g><g><path class="cls-1" d="M19.04,5.07c-.47,0-.82-.36-.82-.82V1.78h-2.47c-.47,0-.82-.36-.82-.82s.36-.82,.82-.82h3.29c.47,0,.82,.36,.82,.82v3.29c0,.47-.36,.82-.82,.82Z"/><path class="cls-1" d="M19.04,5.21c-.54,0-.96-.42-.96-.96V1.92h-2.33c-.54,0-.96-.42-.96-.96S15.22,0,15.75,0h3.29C19.58,0,20,.42,20,.96v3.29c0,.54-.42,.96-.96,.96ZM15.75,.27c-.39,0-.68,.29-.68,.68s.29,.68,.68,.68h2.6v2.6c0,.39,.29,.68,.68,.68s.68-.29,.68-.68V.96c0-.39-.29-.68-.68-.68h-3.29Z"/></g><g><path class="cls-1" d="M13.29,7.53c-.22,0-.41-.08-.58-.25-.33-.33-.33-.85,0-1.15L18.47,.38c.33-.33,.85-.33,1.15,0,.33,.33,.33,.85,0,1.15l-5.75,5.75c-.16,.16-.36,.25-.58,.25Z"/><path class="cls-1" d="M13.29,7.67c-.26,0-.48-.1-.67-.29-.19-.19-.29-.44-.29-.7,0-.25,.11-.48,.29-.65L18.37,.29C18.56,.1,18.82,0,19.07,0c.25,0,.48,.11,.65,.29,.18,.18,.29,.44,.28,.7,0,.25-.11,.48-.29,.65l-5.75,5.75c-.19,.19-.42,.29-.67,.29ZM19.05,.27c-.18,0-.35,.07-.49,.21l-5.75,5.75c-.13,.12-.2,.28-.21,.45,0,.19,.07,.37,.21,.5,.28,.28,.68,.28,.96,0L19.52,1.44c.13-.12,.2-.28,.21-.45,0-.19-.07-.37-.21-.5-.12-.13-.28-.2-.45-.21,0,0,0,0-.01,0Z"/></g><g><path class="cls-1" d="M4.25,19.86H.96c-.47,0-.82-.36-.82-.82v-3.29c0-.47,.36-.82,.82-.82s.82,.36,.82,.82v2.47h2.47c.47,0,.82,.36,.82,.82s-.36,.82-.82,.82Z"/><path class="cls-1" d="M4.25,20H.96c-.54,0-.96-.42-.96-.96v-3.29c0-.54,.42-.96,.96-.96s.96,.42,.96,.96v2.33h2.33c.54,0,.96,.42,.96,.96s-.42,.96-.96,.96ZM.96,15.07c-.39,0-.68,.29-.68,.68v3.29c0,.39,.29,.68,.68,.68h3.29c.39,0,.68-.29,.68-.68s-.29-.68-.68-.68H1.64v-2.6c0-.39-.29-.68-.68-.68Z"/></g><g><path class="cls-1" d="M.96,19.86c-.22,0-.41-.08-.58-.25-.33-.33-.33-.85,0-1.15l5.75-5.75c.33-.33,.85-.33,1.15,0,.33,.33,.33,.85,0,1.15L1.53,19.62c-.16,.16-.36,.25-.58,.25Z"/><path class="cls-1" d="M.96,20c-.26,0-.48-.1-.67-.29-.19-.19-.29-.44-.29-.7,0-.25,.11-.48,.29-.65l5.75-5.75c.19-.19,.44-.29,.7-.29,.25,0,.48,.11,.65,.29,.18,.18,.29,.44,.28,.7,0,.25-.11,.48-.29,.65L1.63,19.71c-.19,.19-.42,.29-.67,.29Zm5.76-7.4c-.18,0-.35,.07-.49,.21L.48,18.56c-.13,.12-.2,.28-.21,.45,0,.19,.07,.37,.21,.5,.28,.28,.68,.28,.96,0l5.75-5.75c.13-.12,.2-.28,.21-.45,0-.19-.07-.37-.21-.5-.12-.13-.28-.2-.45-.21,0,0,0,0-.01,0Z"/></g></svg>