<?xml version="1.0" encoding="UTF-8"?>
<svg width="31px" height="31px" id="Layer_1" xmlns="http://www.w3.org/2000/svg" viewBox="0 0 31 31">
<defs>
<style>.cls-1{fill:#fff;}.cls-2{fill:#b533a9;}</style>
    </defs>
    <g id="Layer_1-2">
        <g>
            <circle class="cls-2" cx="15.5" cy="15.5" r="15.16"/>
            <path style="fill:#FFFFFF;" d="M15.5,.68c8.18,0,14.82,6.63,14.82,14.82s-6.63,14.82-14.82,14.82S.68,23.68,.68,15.5,7.32,.68,15.5,.68M15.5,0C6.95,0,0,6.95,0,15.5s6.95,15.5,15.5,15.5,15.5-6.95,15.5-15.5S24.05,0,15.5,0h0Z"/>
        </g>
    </g>
    <g>
        <path style="fill:#FFFFFF;" d="M8.16,20.48h3.26c.17,0,.34-.12,.34-.28v-7.02c0-.16-.14-.28-.34-.28h-3.26c-.2,0-.34,.12-.34,.28v7.02c0,.16,.14,.28,.34,.28Z"/>
        <path style="fill:#FFFFFF;" d="M13.91,20.48h3.26c.2,0,.34-.12,.34-.28V9.9c0-.14-.14-.28-.34-.28h-3.26c-.2,0-.34,.12-.34,.28v10.3c0,.16,.14,.28,.34,.28h0Z"/>
        <path style="fill:#FFFFFF;" d="M19.65,20.48h3.26c.2,0,.34-.12,.34-.28V6.62c0-.14-.14-.28-.34-.28h-3.26c-.2,0-.34,.12-.34,.28v13.58c0,.16,.14,.28,.34,.28Z"/>
        <path style="fill:#FFFFFF;" d="M23.14,21.79H8.02c-.11,0-.2,.12-.2,.28v1.69c0,.14,.08,.28,.2,.28h15.12c.11,0,.2-.12,.2-.28v-1.69c0-.16-.08-.28-.2-.28h0Z"/>
    </g>
</svg>