<?xml version="1.0" encoding="UTF-8"?>
<svg width="31px" height="31px" id="Layer_1" xmlns="http://www.w3.org/2000/svg" viewBox="0 0 31 31">
    <defs><style>.cls-1{fill:#fff;}.cls-2{fill:#9b2d20;}</style></defs>
    <g id="Layer_1-2"><g><circle class="cls-2" cx="15.5" cy="15.5" r="15.16"/>
    </g></g>
    <g>
    <path class="cls-1" d="M15.5,.68c8.18,0,14.82,6.63,14.82,14.82s-6.63,14.82-14.82,14.82S.68,23.68,.68,15.5,7.32,.68,15.5,.68M15.5,0C6.95,0,0,6.95,0,15.5s6.95,15.5,15.5,15.5,15.5-6.95,15.5-15.5S24.05,0,15.5,0h0ZM25.98,17.84h0c-.08-.19-.23-.34-.41-.41h0c-.79-.33-1.29-1.07-1.29-1.93s.49-1.6,1.29-1.93c.39-.16,.58-.61,.41-1l-1-2.42c-.16-.39-.61-.58-1-.41-.79,.33-1.67,.16-2.27-.45-.61-.61-.78-1.48-.45-2.27,.08-.19,.08-.4,0-.59-.08-.19-.23-.34-.41-.41l-2.42-1c-.19-.08-.4-.08-.59,0-.19,.08-.34,.23-.41,.41-.33,.79-1.07,1.29-1.93,1.29-.86,0-1.6-.49-1.93-1.29-.08-.19-.23-.34-.41-.41-.19-.08-.4-.08-.59,0l-2.42,1c-.19,.08-.34,.23-.41,.41-.08,.19-.08,.4,0,.59,.33,.79,.16,1.67-.45,2.27-.61,.61-1.48,.78-2.27,.45-.19-.08-.4-.08-.59,0-.19,.08-.34,.23-.41,.41l-1,2.42c-.08,.19-.08,.4,0,.59,.08,.19,.23,.34,.41,.41,.79,.33,1.29,1.07,1.29,1.93s-.49,1.6-1.29,1.93c-.19,.08-.34,.23-.41,.41-.08,.19-.08,.4,0,.59l1,2.42c.16,.39,.61,.58,1,.41,.79-.33,1.67-.16,2.27,.45,.61,.61,.78,1.48,.45,2.27-.08,.19-.08,.4,0,.59,.08,.19,.23,.34,.41,.41l2.42,1c.39,.16,.84-.02,1-.41,.33-.79,1.07-1.29,1.93-1.29s1.6,.49,1.93,1.29c.12,.29,.41,.47,.71,.47,.1,0,.2-.02,.29-.06l2.42-1c.19-.08,.34-.23,.41-.41,.08-.19,.08-.4,0-.59-.33-.79-.16-1.67,.45-2.27,.61-.61,1.48-.78,2.27-.45,.39,.16,.84-.02,1-.41l1-2.42c.08-.19,.08-.4,0-.59Zm-10.48,4.1c-3.56,0-6.44-2.88-6.44-6.44s2.88-6.44,6.44-6.44,6.44,2.88,6.44,6.44-2.88,6.44-6.44,6.44Z M19.33,15.03s0,0,0,0,0,0,0,0h-1.78s0,0,0,0,0,0,0,0h-1.85c-.22-1.16-1.24-2.04-2.47-2.04-1.38,0-2.51,1.13-2.51,2.51s1.13,2.51,2.51,2.51c1.22,0,2.25-.88,2.47-2.04h1.39v1.06c0,.26,.21,.47,.47,.47s.47-.21,.47-.47v-1.06h.85v.77c0,.26,.21,.47,.47,.47s.47-.21,.47-.47v-.77h.03c.26,0,.47-.21,.47-.47s-.21-.47-.47-.47h-.49Zm-6.11,2.04c-.87,0-1.57-.71-1.57-1.57s.71-1.57,1.57-1.57,1.57,.71,1.57,1.57c0,0,0,0,0,0,0,0,0,0,0,0,0,.87-.71,1.57-1.57,1.57Z"/>
    
</g></svg>