<?xml version="1.0" encoding="UTF-8"?>
<svg width="31px" height="31px" id="Layer_1" xmlns="http://www.w3.org/2000/svg" viewBox="0 0 31 31">
    <defs>
        <style>.cls-1{fill:#fff;}.cls-2{fill:#ff7f15;}</style>
    </defs>
    <g id="Layer_1-2"><g>
    <path class="cls-2" d="M15.5,30.66C7.14,30.66,.34,23.86,.34,15.5S7.14,.34,15.5,.34s15.16,6.8,15.16,15.16-6.8,15.16-15.16,15.16Z"/>
    <path style="fill:#FFFFFF;" d="M15.5,.68c8.18,0,14.82,6.63,14.82,14.82s-6.63,14.82-14.82,14.82S.68,23.68,.68,15.5,7.32,.68,15.5,.68M15.5,0C6.95,0,0,6.95,0,15.5s6.95,15.5,15.5,15.5,15.5-6.95,15.5-15.5S24.05,0,15.5,0h0Z"/>
    </g></g>
    <path style="fill:#FFFFFF;" d="M22.36,16.57v4.41l.28,.73,.02,.04c.08-.09,.14-.19,.19-.3l1.67-4.31,.26-.57h-2.42Z"/>
    <path style="fill:#FFFFFF;" d="M9.98,17.01h.59s7.06,0,7.06,0c.75,0,1.34,.37,1.55,.91l2.03,5.24,.32,.7H9.34q-.11,0-.21-.11l-2.14-5.62s0,0,0-.01c-.08-.75,.3-1.11,1.23-1.11h1.77Z"/>
    <path style="fill:#FFFFFF;" d="M21.05,13.37c0-1.05,0-2.1-.01-2.89,0-.4,0-.73,0-.96,0-.51,0-.57-.14-.72-.16-.19-.28-.19-.77-.2-.23,0-.55-.01-.95-.01-.7,0-3.47-.01-4.68-.02-2.09,0-4.17-.01-4.17-.01h0c-.38,0-.68,.3-.68,.68v6.64h9c.71,0,1.27,.36,1.47,.86l.94,2.43c0-1.6,0-4.36,0-5.79Zm-3.05,.02h-1.76v1.64h-2.14v-1.64h-1.76v-2.14h1.76v-1.64h2.14v1.64h1.76v2.14Z"/>
</svg>