<?xml version="1.0" encoding="UTF-8"?>
<svg width="31px" height="31px" id="Layer_1" xmlns="http://www.w3.org/2000/svg" viewBox="0 0 31 31">
    <defs>
    <style>.cls-1{fill:#00b5d3;}.cls-2{fill:#fff;}</style>
    </defs>
    <g id="Layer_1-2">
        <g>
            <circle class="cls-1" cx="15.5" cy="15.5" r="15.16"/>
            <path style="fill:#FFFFFF;" d="M15.5,.68c8.18,0,14.82,6.63,14.82,14.82s-6.63,14.82-14.82,14.82S.68,23.68,.68,15.5,7.32,.68,15.5,.68M15.5,0C6.95,0,0,6.95,0,15.5s6.95,15.5,15.5,15.5,15.5-6.95,15.5-15.5S24.05,0,15.5,0h0Z"/>
        </g>
    </g>
    <g>
        <path style="fill:#FFFFFF;" d="M20.96,7.49h-2.39v.96c0,.75-.61,1.3-1.3,1.3h-3.55c-.75,0-1.3-.61-1.3-1.3v-.96h-2.46c-.75,0-1.3,.61-1.3,1.3v14.41c0,.75,.61,1.3,1.3,1.3h10.99c.75,0,1.3-.61,1.3-1.3V8.85c.07-.75-.55-1.37-1.3-1.37Zm-7.58,14.41c-.27-.89-.41-1.78-.27-2.73,.14-.89,.61-1.64,.61-2.39s-.89-.61-1.37-.89c-.55-.14-1.3-.55-1.64-1.09-.34-.55-.14-.96,.41-1.09h1.64c.75,0,.75-.34,1.37-.41,.41-.14,.89,0,1.09-.41,.14-.41,.2-.89,.41-1.16,.61-1.84,1.09,1.09,1.16,1.64,.55,3.14,.82,4.92,3.07,8.13,.14,.14,.2,.27,.34,.41h-6.83Z"/>
        <path style="fill:#FFFFFF;" d="M17.57,8.99h-4.1c-.2,0-.34-.14-.34-.34v-1.84c0-.2,.14-.34,.34-.34h4.1c.2,0,.34,.14,.34,.34v1.78c0,.2-.2,.41-.34,.41Z"/>
    </g>
</svg>