<?xml version="1.0" encoding="UTF-8"?>
<svg width="31px" height="31px" id="Layer_1" xmlns="http://www.w3.org/2000/svg" viewBox="0 0 31 31">
    <defs>
    <style>.cls-1{fill:#fff;}.cls-2{fill:#1c75bc;}</style>
    </defs>
    <g id="Layer_1-2">
        <g>
            <circle class="cls-2" cx="15.5" cy="15.5" r="15.16"/>
            <path style="fill:#FFFFFF;" d="M15.5,.68c8.18,0,14.82,6.63,14.82,14.82s-6.63,14.82-14.82,14.82S.68,23.68,.68,15.5,7.32,.68,15.5,.68M15.5,0C6.95,0,0,6.95,0,15.5s6.95,15.5,15.5,15.5,15.5-6.95,15.5-15.5S24.05,0,15.5,0h0Z"/>
        </g>
    </g>
    <path style="fill:#FFFFFF;" d="M12,10.68h-1.98v-1.46c0-.52,.21-1.03,.58-1.4,.37-.37,.87-.58,1.4-.58h7.02c.52,0,1.03,.21,1.4,.58,.37,.37,.58,.87,.58,1.4v1.46h-1.98v-1.46h-7.02v1.46Zm12.33,1.79v8.82c0,.49-.2,.96-.54,1.31-.35,.35-.82,.54-1.31,.54H8.55c-.49,0-.96-.2-1.31-.54-.35-.35-.54-.82-.54-1.31V12.47c0-.49,.2-.96,.54-1.31,.35-.35,.82-.54,1.31-.54h13.92c.49,0,.96,.2,1.31,.54,.35,.35,.54,.82,.54,1.31h0Zm-5.92,3.52c0-.13-.1-.23-.23-.23h-1.55v-1.55c0-.13-.1-.23-.23-.23h-1.77c-.13,0-.23,.1-.23,.23v1.55h-1.55c-.06,0-.12,.02-.16,.07-.04,.04-.07,.1-.07,.16v1.77h0c0,.13,.1,.23,.23,.23h1.55v1.55c0,.13,.1,.23,.23,.23h1.77c.13,0,.23-.1,.23-.23v-1.55h1.55c.13,0,.23-.1,.23-.23v-1.77Z"/>
</svg>