<?xml version="1.0" encoding="UTF-8"?>
<svg width="31px" height="31px" id="Layer_1" xmlns="http://www.w3.org/2000/svg" viewBox="0 0 31 31">
<defs>
<style>.cls-1{fill:#00ad0e;}.cls-2,.cls-3{fill:#fff;}.cls-3{fill-rule:evenodd;}</style>
</defs>
<g id="Layer_1-2">
    <g>
        <circle class="cls-1" cx="15.5" cy="15.5" r="15.16"/>
        <path class="cls-2" d="M15.5,.68c8.18,0,14.82,6.63,14.82,14.82s-6.63,14.82-14.82,14.82S.68,23.68,.68,15.5,7.32,.68,15.5,.68M15.5,0C6.95,0,0,6.95,0,15.5s6.95,15.5,15.5,15.5,15.5-6.95,15.5-15.5S24.05,0,15.5,0h0Z"/>
    </g>
</g>
    <path class="cls-3" d="M10.7,5.59c.13-.13,.3-.2,.49-.2h7.22c1.14,0,2.06,.92,2.06,2.06v.69h.69c1.14,0,2.06,.92,2.06,2.06v12.38c0,1.14-.92,2.06-2.06,2.06H11.53c-1.14,0-2.06-.92-2.06-2.06v-.69h-.69c-1.14,0-2.06-.92-2.06-2.06V9.86c0-.18,.07-.36,.2-.49l3.78-3.78Zm-.55,5.3h-2.06v8.94c0,.38,.31,.69,.69,.69h9.63c.38,0,.69-.31,.69-.69V7.45c0-.38-.31-.69-.69-.69h-6.19v2.06c0,1.14-.92,2.06-2.06,2.06Z"/>
</svg>