<?xml version="1.0" encoding="UTF-8"?>
<svg width="38px" height="24px" id="Layer_1" xmlns="http://www.w3.org/2000/svg" viewBox="0 0 85 85"><defs>
<style>.cls-1{fill:#fff;}</style>
</defs>
<path style="fill:#fff;" d="M69.98,16.15H37.68c-8.22,0-15.02,6.52-15.02,15.02v3.97h-7.65c-8.22,0-15.02,6.8-15.02,15.02v3.68c0,8.22,6.8,15.02,15.02,15.02H47.32c8.22,0,15.02-6.8,15.02-15.02v-3.97h7.65c8.22,0,15.02-6.8,15.02-15.02v-3.68c0-8.5-6.8-15.02-15.02-15.02Zm-13.32,37.68c0,5.1-4.25,9.35-9.35,9.35H15.02c-5.1,0-9.35-3.97-9.35-9.35v-3.97c0-5.1,4.25-9.35,9.35-9.35h8.78c2.27,5.38,7.65,9.35,13.88,9.35h18.98v3.97Zm-26.35-13.32h17c3.12,0,5.67,1.42,7.37,3.68h-17c-3.12,.28-5.67-1.42-7.37-3.68Zm49.02-5.38c0,5.1-4.25,9.35-9.35,9.35h-8.78c-2.27-5.38-7.65-9.35-13.88-9.35H28.33v-3.97c0-5.1,4.25-9.35,9.35-9.35h32.3c5.1,0,9.35,4.25,9.35,9.35v3.97Z"/>
</svg>