<?xml version="1.0" encoding="UTF-8"?>
<svg width="31px" height="31px" id="Layer_1" xmlns="http://www.w3.org/2000/svg" viewBox="0 0 31 31">
    <defs>
        <style>.cls-1{fill:#fff;}.cls-2{fill:none;stroke:#000;stroke-miterlimit:10;stroke-width:1.37px;}</style>
    </defs>
    <g id="Layer_1-2">
        <g>
            <path class="cls-1" d="M15.5,30.66C7.14,30.66,.34,23.86,.34,15.5S7.14,.34,15.5,.34s15.16,6.8,15.16,15.16-6.8,15.16-15.16,15.16Z"/>
            <path class="cls-1" d="M15.5,.68c8.18,0,14.82,6.63,14.82,14.82s-6.63,14.82-14.82,14.82S.68,23.68,.68,15.5,7.32,.68,15.5,.68M15.5,0C6.95,0,0,6.95,0,15.5s6.95,15.5,15.5,15.5,15.5-6.95,15.5-15.5S24.05,0,15.5,0h0Z"/>
        </g>
    </g>
    <line class="cls-2" x1=".68" y1="15.5" x2="30.07" y2="15.5"/>
</svg>