<?xml version="1.0" encoding="UTF-8"?>
<svg width="31px" height="31px" id="Layer_1" xmlns="http://www.w3.org/2000/svg" viewBox="0 0 31 31">
    <defs>
        <style>.cls-1{fill:#fff;}.cls-2{fill:#9875ff;}</style>
    </defs>
    <g id="Layer_1-2">
</g>
    <circle class="cls-2" cx="15.5" cy="15.5" r="15.16"/>
    <g>
    <path style="fill:#FFFFFF;" d="M15.5,.68c8.18,0,14.82,6.63,14.82,14.82s-6.63,14.82-14.82,14.82S.68,23.68,.68,15.5,7.32,.68,15.5,.68M15.5,0C6.95,0,0,6.95,0,15.5s6.95,15.5,15.5,15.5,15.5-6.95,15.5-15.5S24.05,0,15.5,0h0Z"/>
    <polygon style="fill:#FFFFFF;" points="14.79 11.02 7.92 8.62 7.92 11.02 7.92 18.62 14.98 21.08 14.98 11.09 14.92 11.02 14.79 11.02"/>
    <polygon style="fill:#FFFFFF;" points="6.72 11.02 5.45 11.02 5.45 22.22 14.52 22.22 6.72 19.55 6.72 11.02"/>
    <polygon style="fill:#FFFFFF;" points="24.45 11.02 24.45 19.55 16.71 22.22 25.98 22.22 25.98 11.02 24.45 11.02"/>
    <polygon style="fill:#FFFFFF;" points="23.18 11.02 23.18 8.62 16.44 11.02 16.25 11.02 16.25 11.09 16.25 21.08 23.18 18.62 23.18 11.02"/>
    </g>
</svg>