<?xml version="1.0" encoding="utf-8"?>
<!-- Generator: Adobe Illustrator 24.0.3, SVG Export Plug-In . SVG Version: 6.00 Build 0)  -->
<svg version="1.1" id="Layer_1" xmlns="http://www.w3.org/2000/svg" xmlns:xlink="http://www.w3.org/1999/xlink" x="0px" y="0px"
	 viewBox="0 0 83.5 83.5" style="enable-background:new 0 0 83.5 83.5;" xml:space="preserve">
<style type="text/css">
	.st0{fill:#FFFFFF;}
	.st1{fill:url(#SVGID_1_);}
</style>
<g>
	<circle class="st0" cx="41.8" cy="41.7" r="41.4"/>
</g>
<g>
	
		<linearGradient id="SVGID_1_" gradientUnits="userSpaceOnUse" x1="70.8785" y1="18.4115" x2="12.5973" y2="67.3153" gradientTransform="matrix(1 0 0 -1 0 84.582)">
		<stop  offset="0" style="stop-color:#89B5D3"/>
		<stop  offset="0.3364" style="stop-color:#7E99B0"/>
		<stop  offset="0.7718" style="stop-color:#757C90"/>
		<stop  offset="1" style="stop-color:#717486"/>
	</linearGradient>
	<circle class="st1" cx="41.8" cy="41.7" r="38"/>
	<g>
		<g>
			<g>
				<path class="st0" d="M57.2,23.1h-7.9c-0.3-0.8-0.2-1.4-0.6-1.4h-4c-0.1-1.6-1.4-2.8-3-2.8s-2.9,1.2-3,2.8
					c-3.9,0.1-4.2-0.2-4.4,0.3L34,23.1h-7.9c-0.2,0-0.3,0.1-0.3,0.3v38.1c0,0.2,0.1,0.3,0.3,0.3h31c0.2,0,0.3-0.1,0.3-0.3v-38
					C57.6,23.3,57.4,23.1,57.2,23.1z M49.5,58.1v-4.3h4.3L52.6,55L49.5,58.1z M54.2,53.2h-5.1c-0.2,0-0.3,0.1-0.3,0.3v5.1H29.2V26.4
					h4.1C33,27.7,32.9,27.8,33,28c0.1,0.1,0.2,0.1,0.3,0.1c17.9,0,17,0.1,17.2-0.1c0.2-0.2,0-0.4-0.3-1.6h4.1L54.2,53.2L54.2,53.2z
					 M34.9,22.4H39c0.2,0,0.3-0.1,0.3-0.3c0,0,0,0,0-0.1c0-1.3,1.1-2.4,2.4-2.4s2.4,1.1,2.3,2.4c0,0,0,0,0,0.1
					c0,0.2,0.1,0.3,0.3,0.3h4.1c0.2,0.6,1.1,4.5,1.3,5.1h-16C34,26.3,34.7,23.2,34.9,22.4z M56.9,61.2H26.5V23.8h7.4l-0.5,2h-4.6
					c-0.2,0-0.3,0.1-0.3,0.3v32.8c0,0.2,0.1,0.3,0.3,0.3h20.4c0.1,0,0.2,0,0.2-0.1l4-4.1l1.3-1.3c0,0,0-0.1,0.1-0.1l0,0v-0.1l0,0
					V26.1c0-0.2-0.1-0.3-0.3-0.3h-4.6l-0.5-2h7.5V61.2z"/>
				<path class="st0" d="M57.2,62.3h-31c-0.4,0-0.7-0.3-0.7-0.7V23.5c0-0.4,0.3-0.7,0.7-0.7h7.6l0.2-0.9c0.1-0.6,0.5-0.6,1.6-0.5
					c0.6,0,1.5,0,2.8,0c0.3-1.6,1.7-2.8,3.3-2.8s3,1.2,3.3,2.8h3.7c0.6,0,0.7,0.5,0.8,1c0,0.1,0.1,0.3,0.1,0.4h7.6
					c0.4,0,0.7,0.3,0.7,0.7v38.1C57.9,61.9,57.6,62.3,57.2,62.3z M26.9,60.9h29.6V24.2H50l0.3,1.2h4.3c0.4,0,0.7,0.3,0.7,0.7v27.5
					v0.1c-0.1,0.1-0.1,0.2-0.2,0.3l-5.4,5.4c-0.1,0.1-0.3,0.2-0.5,0.2H28.8c-0.4,0-0.7-0.3-0.7-0.7V26.1c0-0.4,0.3-0.7,0.7-0.7h4.3
					l0.3-1.2h-6.5V60.9z M29.5,58.2h19v-4.7c0-0.4,0.3-0.7,0.7-0.7h4.7v-26h-3.3c0.1,0.2,0.1,0.4,0.1,0.5c0.1,0.4,0.2,0.7,0,1
					s-0.2,0.3-3.6,0.3c-2.4,0-6.6,0-13.8,0c-0.2,0-0.4-0.1-0.6-0.3c-0.2-0.3-0.2-0.5,0-1c0-0.1,0.1-0.3,0.1-0.5h-3.3V58.2z
					 M49.9,54.2v3l3-3H49.9z M34.1,27.2h15.1c-0.3-1.1-0.9-3.5-1.1-4.4h-3.8c-0.4,0-0.7-0.3-0.7-0.7c0-0.6-0.2-1.1-0.6-1.5
					c-0.4-0.4-0.9-0.6-1.4-0.6c-1.1,0-2,0.9-2,2v0.1c0,0.4-0.3,0.7-0.7,0.7h-3.8L34.1,27.2z"/>
			</g>
		</g>
		<g>
			<g>
				<path class="st0" d="M41.7,23.1c0.6,0,1.2-0.5,1.2-1.2c0-0.6-0.5-1.2-1.2-1.2c-0.6,0-1.2,0.5-1.2,1.2
					C40.6,22.6,41.1,23.1,41.7,23.1z M41.7,21.4c0.4,0,0.6,0.3,0.6,0.6c0,0.4-0.3,0.6-0.6,0.6c-0.4,0-0.6-0.3-0.6-0.6
					C41.1,21.6,41.4,21.4,41.7,21.4z"/>
			</g>
		</g>
		<g>
			<g>
				<path class="st0" d="M34.8,30.8l-2.7,2.7L31,32.4c-0.1-0.1-0.3-0.1-0.5,0s-0.1,0.3,0,0.5l1.3,1.3c0.1,0.1,0.1,0.1,0.2,0.1
					c0.1,0,0.2,0,0.2-0.1l2.9-2.9c0.1-0.1,0.1-0.3,0-0.5S34.9,30.6,34.8,30.8z"/>
				<path class="st0" d="M32.1,34.6c-0.2,0-0.4-0.1-0.5-0.2l-1.3-1.3c-0.1-0.1-0.2-0.3-0.2-0.5s0.1-0.4,0.2-0.5c0.3-0.3,0.7-0.3,1,0
					l0.8,0.8l2.4-2.4c0.3-0.3,0.7-0.3,1,0c0.1,0.1,0.2,0.3,0.2,0.5s-0.1,0.4-0.2,0.5l-2.9,2.9C32.4,34.6,32.3,34.6,32.1,34.6z
					 M34.8,30.8L35,31l0,0L34.8,30.8z"/>
			</g>
		</g>
		<g>
			<g>
				<path class="st0" d="M36.6,34.3H44c0.2,0,0.3-0.1,0.3-0.3s-0.1-0.3-0.3-0.3h-7.4c-0.2,0-0.3,0.1-0.3,0.3S36.4,34.3,36.6,34.3z"
					/>
				<path class="st0" d="M44,34.6h-7.4c-0.4,0-0.7-0.3-0.7-0.7s0.3-0.7,0.7-0.7H44c0.4,0,0.7,0.3,0.7,0.7S44.4,34.6,44,34.6z"/>
			</g>
		</g>
		<g>
			<g>
				<path class="st0" d="M36.3,31c0,0.2,0.1,0.3,0.3,0.3h16c0.2,0,0.3-0.1,0.3-0.3s-0.1-0.3-0.3-0.3h-16
					C36.4,30.7,36.3,30.8,36.3,31z"/>
				<path class="st0" d="M52.6,31.7h-16c-0.4,0-0.7-0.3-0.7-0.7s0.3-0.7,0.7-0.7h16c0.4,0,0.7,0.3,0.7,0.7
					C53.3,31.4,53,31.7,52.6,31.7z"/>
			</g>
		</g>
		<g>
			<g>
				<path class="st0" d="M34.8,37.5l-2.7,2.7L31,39.1c-0.1-0.1-0.3-0.1-0.5,0s-0.1,0.3,0,0.5l1.3,1.3C31.9,41,31.9,41,32,41
					c0.1,0,0.2,0,0.2-0.1l2.9-2.9c0.1-0.1,0.1-0.3,0-0.5S34.9,37.3,34.8,37.5z"/>
				<path class="st0" d="M32.1,41.3c-0.2,0-0.4-0.1-0.5-0.2l-1.3-1.3c-0.1-0.1-0.2-0.3-0.2-0.5s0.1-0.4,0.2-0.5c0.3-0.3,0.7-0.3,1,0
					l0.8,0.8l2.4-2.5c0.3-0.3,0.7-0.3,1,0c0.1,0.1,0.2,0.3,0.2,0.5s-0.1,0.4-0.2,0.5L32.6,41C32.4,41.3,32.3,41.3,32.1,41.3z"/>
			</g>
		</g>
		<g>
			<g>
				<path class="st0" d="M36.6,41H44c0.2,0,0.3-0.1,0.3-0.3s-0.1-0.3-0.3-0.3h-7.4c-0.2,0-0.3,0.1-0.3,0.3S36.4,41,36.6,41z"/>
				<path class="st0" d="M44,41.3h-7.4c-0.4,0-0.7-0.3-0.7-0.7s0.3-0.7,0.7-0.7H44c0.4,0,0.7,0.3,0.7,0.7C44.7,41,44.4,41.3,44,41.3
					z"/>
			</g>
		</g>
		<g>
			<g>
				<path class="st0" d="M52.6,37.4h-16c-0.2,0-0.3,0.1-0.3,0.3s0.1,0.3,0.3,0.3h16c0.2,0,0.3-0.1,0.3-0.3S52.8,37.4,52.6,37.4z"/>
				<path class="st0" d="M52.6,38.4h-16c-0.4,0-0.7-0.3-0.7-0.7s0.3-0.7,0.7-0.7h16c0.4,0,0.7,0.3,0.7,0.7
					C53.3,38.1,53,38.4,52.6,38.4z"/>
			</g>
		</g>
		<g>
			<g>
				<path class="st0" d="M34.8,44.2l-2.7,2.7L31,45.8c-0.1-0.1-0.3-0.1-0.5,0c-0.1,0.1-0.1,0.3,0,0.5l1.3,1.3
					c0.1,0.1,0.1,0.1,0.2,0.1c0.1,0,0.2,0,0.2-0.1l2.9-2.9c0.1-0.1,0.1-0.3,0-0.5S34.9,44,34.8,44.2z"/>
				<path class="st0" d="M32.1,48c-0.2,0-0.4-0.1-0.5-0.2l-1.3-1.3c-0.1-0.1-0.2-0.3-0.2-0.5c0-0.2,0.1-0.4,0.2-0.5
					c0.3-0.3,0.7-0.3,1,0l0.8,0.8l2.4-2.4c0.3-0.3,0.7-0.3,1,0c0.1,0.1,0.2,0.3,0.2,0.5s-0.1,0.4-0.2,0.5l-2.9,2.9
					C32.4,48,32.3,48,32.1,48z"/>
			</g>
		</g>
		<g>
			<g>
				<path class="st0" d="M36.6,47.7H44c0.2,0,0.3-0.1,0.3-0.3s-0.1-0.3-0.3-0.3h-7.4c-0.2,0-0.3,0.1-0.3,0.3S36.4,47.7,36.6,47.7z"
					/>
				<path class="st0" d="M44,48h-7.4c-0.4,0-0.7-0.3-0.7-0.7s0.3-0.7,0.7-0.7H44c0.4,0,0.7,0.3,0.7,0.7S44.4,48,44,48z"/>
			</g>
		</g>
		<g>
			<g>
				<path class="st0" d="M52.6,44.1h-16c-0.2,0-0.3,0.1-0.3,0.3s0.1,0.3,0.3,0.3h16c0.2,0,0.3-0.1,0.3-0.3S52.8,44.1,52.6,44.1z"/>
				<path class="st0" d="M52.6,45.1h-16c-0.4,0-0.7-0.3-0.7-0.7s0.3-0.7,0.7-0.7h16c0.4,0,0.7,0.3,0.7,0.7S53,45.1,52.6,45.1z"/>
			</g>
		</g>
		<g>
			<g>
				<path class="st0" d="M34.8,50.9l-2.7,2.7L31,52.5c-0.1-0.1-0.3-0.1-0.5,0s-0.1,0.3,0,0.5l1.3,1.3c0.1,0.1,0.1,0.1,0.2,0.1
					c0.1,0,0.2,0,0.2-0.1l2.9-2.9c0.1-0.1,0.1-0.3,0-0.5S34.9,50.7,34.8,50.9z"/>
				<path class="st0" d="M32.1,54.7c-0.2,0-0.4-0.1-0.5-0.2l-1.3-1.3c-0.1-0.1-0.2-0.3-0.2-0.5s0.1-0.4,0.2-0.5c0.3-0.3,0.7-0.3,1,0
					l0.8,0.8l2.4-2.4c0.3-0.3,0.7-0.3,1,0c0.1,0.1,0.2,0.3,0.2,0.5s-0.1,0.4-0.2,0.5l-2.9,2.9C32.4,54.7,32.3,54.7,32.1,54.7z"/>
			</g>
		</g>
		<g>
			<g>
				<path class="st0" d="M44,53.7h-7.4c-0.2,0-0.3,0.1-0.3,0.3s0.1,0.3,0.3,0.3H44c0.2,0,0.3-0.1,0.3-0.3S44.2,53.7,44,53.7z"/>
				<path class="st0" d="M44,54.7h-7.4c-0.4,0-0.7-0.3-0.7-0.7s0.3-0.7,0.7-0.7H44c0.4,0,0.7,0.3,0.7,0.7S44.4,54.7,44,54.7z"/>
			</g>
		</g>
		<g>
			<g>
				<path class="st0" d="M52.6,50.8h-16c-0.2,0-0.3,0.1-0.3,0.3s0.1,0.3,0.3,0.3h16c0.2,0,0.3-0.1,0.3-0.3S52.8,50.8,52.6,50.8z"/>
				<path class="st0" d="M52.6,51.8h-16c-0.4,0-0.7-0.3-0.7-0.7c0-0.4,0.3-0.7,0.7-0.7h16c0.4,0,0.7,0.3,0.7,0.7
					C53.3,51.5,53,51.8,52.6,51.8z"/>
			</g>
		</g>
	</g>
</g>
</svg>
