<svg width="17" height="17" viewBox="0 0 17 17" fill="none" xmlns="http://www.w3.org/2000/svg">
<g clip-path="url(#clip0_13350_324)">
<path d="M9.3951 10.3787V3.48926H7.69511V10.3787L5.45826 8.23136L4.2951 9.39452L8.50037 13.5998L12.7056 9.39452L11.5425 8.23136L9.3951 10.3787Z" fill="#7CB1B6"/>
<path d="M14.4056 0.0893555H2.59511C1.16353 0.0893555 0.0898438 1.16304 0.0898438 2.59462V14.4051C0.0898438 15.8367 1.16353 16.9104 2.59511 16.9104H14.4056C15.8372 16.9104 16.9109 15.8367 16.9109 14.4051V2.59462C16.9109 1.16304 15.8372 0.0893555 14.4056 0.0893555ZM15.3004 14.4051C15.3004 14.942 14.9425 15.2104 14.4951 15.2104H2.59511C2.05827 15.2104 1.78984 14.8525 1.78984 14.4051V2.59462C1.78984 2.05778 2.05827 1.78936 2.59511 1.78936H14.4056C14.9425 1.78936 15.2109 2.14725 15.2109 2.59462V14.4051H15.3004Z" fill="#7CB1B6"/>
</g>
<defs>
<clipPath id="clip0_13350_324">
<rect width="17" height="17" fill="white"/>
</clipPath>
</defs>
</svg>
