<?xml version="1.0" encoding="utf-8"?>
<!-- Generator: Adobe Illustrator 24.0.3, SVG Export Plug-In . SVG Version: 6.00 Build 0)  -->
<svg version="1.1" id="Layer_1" xmlns="http://www.w3.org/2000/svg" xmlns:xlink="http://www.w3.org/1999/xlink" x="0px" y="0px"
	 viewBox="0 0 80 80" style="enable-background:new 0 0 80 80;" xml:space="preserve">
<style type="text/css">
	.st0{fill:none;stroke:#FCB817;stroke-width:0.5;stroke-miterlimit:10;}
	.st1{fill:#8C5B98;}
</style>
<circle class="st0" cx="39.9" cy="40" r="39.4"/>
<g>
	<g>
		<g>
			<rect x="27.8" y="35.1" class="st1" width="24.2" height="0.6"/>
			<path class="st1" d="M52.3,36H27.6v-1.2h24.8V36z M28.1,35.4h23.6v-0.1L28.1,35.4L28.1,35.4z"/>
		</g>
		<g>
			<rect x="27.5" y="34.7" class="st1" width="24.9" height="1.3"/>
			<path class="st1" d="M52.7,36.3H27.2v-1.9h25.5V36.3z M27.8,35.8h24.4V35H27.8V35.8z"/>
		</g>
	</g>
	<g>
		<g>
			<rect x="27.8" y="39.4" class="st1" width="24.2" height="0.6"/>
			<path class="st1" d="M52.3,40.3H27.6v-1.2h24.8V40.3z M28.1,39.7h23.6v-0.1L28.1,39.7L28.1,39.7z"/>
		</g>
		<g>
			<rect x="27.5" y="39" class="st1" width="24.9" height="1.3"/>
			<path class="st1" d="M52.7,40.6H27.2v-1.9h25.5V40.6z M27.8,40.1h24.4v-0.8H27.8V40.1z"/>
		</g>
	</g>
	<g>
		<g>
			<rect x="27.8" y="43.7" class="st1" width="24.2" height="0.6"/>
			<path class="st1" d="M52.3,44.6H27.6v-1.2h24.8V44.6z M28.1,44h23.6V44L28.1,44L28.1,44z"/>
		</g>
		<g>
			<rect x="27.5" y="43.3" class="st1" width="24.9" height="1.3"/>
			<path class="st1" d="M52.7,44.9H27.2V43h25.5V44.9z M27.8,44.4h24.4v-0.8H27.8V44.4z"/>
		</g>
	</g>
	<g>
		<g>
			<rect x="27.8" y="48" class="st1" width="24.2" height="0.6"/>
			<path class="st1" d="M52.3,48.9H27.6v-1.2h24.8V48.9z M28.1,48.3h23.6v-0.1L28.1,48.3L28.1,48.3z"/>
		</g>
		<g>
			<rect x="27.5" y="47.6" class="st1" width="24.9" height="1.3"/>
			<path class="st1" d="M52.7,49.2H27.2v-1.9h25.5V49.2z M27.8,48.7h24.4v-0.8H27.8V48.7z"/>
		</g>
	</g>
	<g>
		<g>
			<path class="st1" d="M59.6,28.2H36.7l-2.4-3.6H20.2v3.6v0.4v26.8h39.4V28.2z M20.9,25.3H34l2,2.9H20.9V25.3z M59,54.8H20.9V28.9
				H59V54.8z"/>
			<path class="st1" d="M59.9,55.7H20V24.4h14.5l2.4,3.6h23.1V55.7z M20.5,55.1h38.8V28.5H36.6L34.2,25H20.5V55.1z M59.3,55.1H20.6
				V28.6h38.7V55.1z M21.1,54.5h37.6V29.1H21.1V54.5z M36.5,28.5H20.6V25h13.5L36.5,28.5z M21.1,28h14.3l-1.6-2.4H21.1V28z"/>
		</g>
		<g>
			<path class="st1" d="M60,55.8H19.9V24.3h14.6l2.4,3.5H60V55.8z M21.2,54.4h37.4V29.2H21.2V54.4z M21.2,27.9h14.1l-1.5-2.2H21.2
				V27.9z"/>
			<path class="st1" d="M60.3,56.1H19.6V24h15l2.4,3.5h23.2V56.1z M20.2,55.5h39.5V28.2h-23l-2.4-3.5H20.2V55.5z M58.9,54.7h-38
				V28.9h38V54.7z M21.5,54.1h36.9V29.5H21.5V54.1z M35.8,28.2H20.9v-2.8h13L35.8,28.2z M21.5,27.6h13.2L33.6,26H21.5V27.6z"/>
		</g>
	</g>
</g>
</svg>
