<?xml version="1.0" encoding="UTF-8"?>
<svg width="39px" height="39px" id="Layer_1" xmlns="http://www.w3.org/2000/svg" viewBox="0 0 39 39">
    <defs>
    <style>.cls-1{fill:#fff;}.cls-2{fill:#b533a9;}</style>
    </defs>
    <g id="Layer_1-2">
        <g>
            <circle style="fill:#b533a9;" cx="19.5" cy="19.5" r="19.07"/>
            <path style="fill:#FFFFFF;" d="M19.5,.86c10.3,0,18.64,8.35,18.64,18.64s-8.35,18.64-18.64,18.64S.86,29.8,.86,19.5,9.2,.86,19.5,.86m0-.86C8.75,0,0,8.75,0,19.5s8.75,19.5,19.5,19.5,19.5-8.75,19.5-19.5S30.25,0,19.5,0h0Z"/>
        </g>
    </g>
    <g>
        <path style="fill:#FFFFFF;" d="M10.27,25.77h4.1c.21,0,.43-.15,.43-.35v-8.84c0-.21-.18-.35-.43-.35h-4.1c-.25,0-.43,.15-.43,.35v8.84c0,.21,.18,.35,.43,.35Z"/>
        <path style="fill:#FFFFFF;" d="M17.5,25.77h4.1c.25,0,.43-.15,.43-.35V12.45c0-.18-.18-.35-.43-.35h-4.1c-.25,0-.43,.15-.43,.35v12.96c0,.21,.18,.35,.43,.35h0Z"/>
        <path style="fill:#FFFFFF;" d="M24.73,25.77h4.1c.25,0,.43-.15,.43-.35V8.33c0-.18-.18-.35-.43-.35h-4.1c-.25,0-.43,.15-.43,.35V25.41c0,.21,.18,.35,.43,.35Z"/>
        <path style="fill:#FFFFFF;" d="M29.11,27.42H10.08c-.14,0-.25,.15-.25,.35v2.12c0,.18,.1,.35,.25,.35H29.11c.14,0,.25-.15,.25-.35v-2.12c0-.21-.1-.35-.25-.35h0Z"/>
    </g>
</svg>