<?xml version="1.0" encoding="UTF-8"?>
<svg width="39px" height="39px" id="Layer_1" xmlns="http://www.w3.org/2000/svg" viewBox="0 0 39 39">
    <defs>
        <style>
            .cls-1{fill:#fff;}
            .cls-2{fill:#9b2d20;}
        </style>
    </defs>
    <g id="Layer_1-2">
        <g>
            <circle class="cls-2" cx="19.5" cy="19.5" r="19.07"/>
            <path style="fill:#FFFFFF;" d="M19.5,.86c10.3,0,18.64,8.35,18.64,18.64s-8.35,18.64-18.64,18.64S.86,29.8,.86,19.5,9.2,.86,19.5,.86m0-.86C8.75,0,0,8.75,0,19.5s8.75,19.5,19.5,19.5,19.5-8.75,19.5-19.5S30.25,0,19.5,0h0Z"/>
        </g>
    </g>
    <g>
        <path style="fill:#FFFFFF;" d="M32.69,22.45h0c-.1-.24-.28-.42-.52-.52h0c-1-.41-1.62-1.34-1.62-2.42s.62-2.01,1.62-2.42c.49-.2,.72-.77,.52-1.26l-1.26-3.04c-.2-.49-.77-.72-1.26-.52-1,.41-2.1,.2-2.86-.57-.76-.76-.98-1.86-.57-2.86,.1-.24,.1-.5,0-.74-.1-.24-.28-.42-.52-.52l-3.04-1.26c-.24-.1-.5-.1-.74,0-.24,.1-.42,.28-.52,.52-.41,1-1.34,1.62-2.42,1.62-1.08,0-2.01-.62-2.42-1.62-.1-.24-.28-.42-.52-.52-.24-.1-.5-.1-.74,0l-3.04,1.26c-.24,.1-.42,.28-.52,.52-.1,.24-.1,.5,0,.74,.41,1,.2,2.09-.57,2.86-.76,.76-1.86,.98-2.86,.57-.24-.1-.5-.1-.74,0-.24,.1-.42,.28-.52,.52l-1.26,3.04c-.1,.24-.1,.5,0,.74,.1,.24,.28,.42,.52,.52,1,.41,1.62,1.34,1.62,2.42s-.62,2.01-1.62,2.42c-.24,.1-.42,.28-.52,.52-.1,.24-.1,.5,0,.74l1.26,3.04c.2,.49,.77,.72,1.26,.52,1-.41,2.1-.2,2.86,.57,.76,.76,.98,1.86,.57,2.86-.1,.24-.1,.5,0,.74,.1,.24,.28,.42,.52,.52l3.04,1.26c.49,.2,1.06-.03,1.26-.52,.41-1,1.34-1.62,2.42-1.62s2.01,.62,2.42,1.62c.15,.37,.51,.59,.89,.59,.12,0,.25-.02,.37-.07l3.04-1.26c.24-.1,.42-.28,.52-.52,.1-.24,.1-.5,0-.74-.41-1-.2-2.09,.57-2.86,.76-.76,1.86-.98,2.86-.57,.49,.2,1.06-.03,1.26-.52l1.26-3.04c.1-.24,.1-.5,0-.74Zm-13.19,5.16c-4.48,0-8.11-3.63-8.11-8.11s3.63-8.11,8.11-8.11,8.11,3.63,8.11,8.11-3.63,8.11-8.11,8.11Z"/>
        <path style="fill:#FFFFFF;" d="M24.32,18.91s0,0,0,0,0,0,0,0h-2.24s0,0,0,0,0,0,0,0h-2.33c-.28-1.46-1.56-2.57-3.1-2.57-1.74,0-3.16,1.42-3.16,3.16s1.42,3.16,3.16,3.16c1.54,0,2.82-1.11,3.1-2.57h1.75v1.33c0,.33,.26,.59,.59,.59s.59-.26,.59-.59v-1.33h1.07v.97c0,.33,.26,.59,.59,.59s.59-.26,.59-.59v-.97h.03c.33,0,.59-.26,.59-.59s-.26-.59-.59-.59h-.62Zm-7.69,2.57c-1.09,0-1.98-.89-1.98-1.98s.89-1.98,1.98-1.98,1.98,.89,1.98,1.98c0,0,0,0,0,0,0,0,0,0,0,0,0,1.09-.89,1.98-1.98,1.98Z"/>
    </g>
</svg>