<?xml version="1.0" encoding="UTF-8"?>
<svg width="39px" height="39px" id="Layer_1" xmlns="http://www.w3.org/2000/svg" viewBox="0 0 39 39">
<defs>
    <style>.cls-1{fill:#00785a;}.cls-2{fill:#fff;}</style>
</defs>
<g id="Layer_1-2">
    <g>
        <circle style="fill:#00785a;" cx="19.5" cy="19.5" r="19.07"/>
        <path style="fill:#FFFFFF;" d="M19.5,.86c10.3,0,18.64,8.35,18.64,18.64s-8.35,18.64-18.64,18.64S.86,29.8,.86,19.5,9.2,.86,19.5,.86m0-.86C8.75,0,0,8.75,0,19.5s8.75,19.5,19.5,19.5,19.5-8.75,19.5-19.5S30.25,0,19.5,0h0Z"/>
    </g>
</g>
<path style="fill:#FFFFFF;" d="M16.29,16.52l-7.43,10.19c-.22,.31-.36,.68-.36,1.09,0,1.01,.82,1.83,1.83,1.83H28.66c1.01,0,1.83-.82,1.83-1.83,0-.41-.13-.78-.36-1.09l-7.43-10.19v-6.58h.23c.63,0,1.14-.51,1.14-1.14s-.51-1.14-1.14-1.14h-6.87c-.63,0-1.14,.51-1.14,1.14s.51,1.14,1.14,1.14h.23v6.58h0Zm2.29-6.58h1.83v6.87l3.21,4.58H15.38l3.21-4.58v-6.87h0Z"/>
</svg>