<?xml version="1.0" encoding="UTF-8"?>
<svg width="39px" height="39px" id="Layer_1" xmlns="http://www.w3.org/2000/svg" viewBox="0 0 39 39">
<defs>
    <style>.cls-1{fill:#fff;}.cls-2{fill:#ff7f15;}</style>
</defs>
<g id="Layer_1-2">
    <g>
        <path style="fill:#ff7f15;" d="M19.5,38.57C8.98,38.57,.43,30.02,.43,19.5S8.98,.43,19.5,.43s19.07,8.56,19.07,19.07-8.56,19.07-19.07,19.07Z"/>
        <path style="fill:#FFFFFF;" d="M19.5,.86c10.3,0,18.64,8.35,18.64,18.64s-8.35,18.64-18.64,18.64S.86,29.8,.86,19.5,9.2,.86,19.5,.86m0-.86C8.75,0,0,8.75,0,19.5s8.75,19.5,19.5,19.5,19.5-8.75,19.5-19.5S30.25,0,19.5,0h0Z"/>
    </g>
</g>
<path style="fill:#FFFFFF;" d="M28.13,20.84v5.55l.36,.92,.02,.05c.1-.11,.18-.24,.24-.38l2.1-5.42,.33-.72h-3.05Z"/>
<path style="fill:#FFFFFF;" d="M12.56,21.4h.74s8.89,0,8.89,0c.94,0,1.68,.47,1.95,1.14l2.56,6.6,.4,.88H11.75q-.13,0-.27-.13l-2.69-7.07s0-.01,0-.02c-.1-.95,.38-1.4,1.55-1.4h2.09s.13,0,.13,0Z"/>
<path style="fill:#FFFFFF;" d="M26.48,16.82c0-1.32,0-2.65-.01-3.64,0-.5,0-.92,0-1.21,0-.64,0-.71-.18-.91-.21-.24-.35-.24-.97-.25-.29,0-.7-.01-1.19-.01-.88,0-4.37-.01-5.89-.02-2.62,0-5.24-.01-5.24-.01h0c-.48,0-.86,.38-.86,.86v8.35h11.32c.89,0,1.6,.45,1.85,1.09l1.19,3.06c0-2.01,0-5.48-.01-7.29Zm-3.84,.02h-2.22v2.06h-2.69v-2.06h-2.22v-2.69h2.22v-2.06h2.69v2.06h2.22v2.69Z"/>
</svg>