<?xml version="1.0" encoding="utf-8"?>
<!-- Generator: Adobe Illustrator 26.5.0, SVG Export Plug-In . SVG Version: 6.00 Build 0)  -->
<svg width="39px" height="39px" version="1.1" id="Layer_1" xmlns="http://www.w3.org/2000/svg" xmlns:xlink="http://www.w3.org/1999/xlink" x="0px" y="0px"
	 viewBox="0 0 39 39" style="enable-background:new 0 0 39 39;" xml:space="preserve">
<style type="text/css">
	.st0{fill:#00A1BB;}
	.st1{fill:#FFFFFF;}
</style>
<g id="Layer_1-2">
	<g>
		<circle style="fill:#00A1BB;" cx="19.5" cy="19.5" r="19.1"/>
		<path style="fill:#FFFFFF;" d="M19.5,0.9c10.3,0,18.6,8.4,18.6,18.6s-8.4,18.6-18.6,18.6S0.9,29.8,0.9,19.5S9.2,0.9,19.5,0.9 M19.5,0
			C8.8,0,0,8.8,0,19.5S8.8,39,19.5,39S39,30.2,39,19.5S30.2,0,19.5,0L19.5,0z"/>
	</g>
</g>
<g>
	<path style="fill:#FFFFFF;" d="M26.4,9.4h-3v1.2c0,0.9-0.8,1.6-1.6,1.6h-4.5c-0.9,0-1.6-0.8-1.6-1.6V9.4h-3.1c-0.9,0-1.6,0.8-1.6,1.6v18.1
		c0,0.9,0.8,1.6,1.6,1.6h13.8c0.9,0,1.6-0.8,1.6-1.6v-18C28.1,10.2,27.3,9.4,26.4,9.4z M16.8,27.5c-0.3-1.1-0.5-2.2-0.3-3.4
		c0.2-1.1,0.8-2.1,0.8-3s-1.1-0.8-1.7-1.1c-0.7-0.2-1.6-0.7-2.1-1.4c-0.4-0.7-0.2-1.2,0.5-1.4h2.1c0.9,0,0.9-0.4,1.7-0.5
		c0.5-0.2,1.1,0,1.4-0.5c0.2-0.5,0.3-1.1,0.5-1.5c0.8-2.3,1.4,1.4,1.5,2.1c0.7,4,1,6.2,3.9,10.2c0.2,0.2,0.3,0.3,0.4,0.5L16.8,27.5
		L16.8,27.5z"/>
	<path style="fill:#FFFFFF;" d="M22.1,11.3H17c-0.3,0-0.4-0.2-0.4-0.4V8.6c0-0.3,0.2-0.4,0.4-0.4h5.1c0.3,0,0.4,0.2,0.4,0.4v2.2
		C22.5,11.1,22.3,11.3,22.1,11.3z"/>
</g>
</svg>
