<?xml version="1.0" encoding="UTF-8"?>
<svg width="39px" height="39px" id="Layer_1" xmlns="http://www.w3.org/2000/svg" viewBox="0 0 39 39">
<defs>
    <style>.cls-1{fill:#fff;}.cls-2{fill:#1c75bc;}</style>
</defs>
<g id="Layer_1-2">
    <g>
        <circle style="fill:#1c75bc;" cx="19.5" cy="19.5" r="19.07"/>
        <path style="fill:#FFFFFF;" d="M19.5,.86c10.3,0,18.64,8.35,18.64,18.64s-8.35,18.64-18.64,18.64S.86,29.8,.86,19.5,9.2,.86,19.5,.86m0-.86C8.75,0,0,8.75,0,19.5s8.75,19.5,19.5,19.5,19.5-8.75,19.5-19.5S30.25,0,19.5,0h0Z"/>
    </g>
</g>
<path style="fill:#FFFFFF;" d="M15.1,13.44h-2.49v-1.84c0-.66,.26-1.29,.73-1.76,.47-.47,1.1-.73,1.76-.73h8.84c.66,0,1.29,.26,1.76,.73,.47,.47,.73,1.1,.73,1.76v1.84h-2.49v-1.84H15.1v1.84Zm15.51,2.25v11.09c0,.62-.25,1.21-.68,1.65-.44,.44-1.03,.68-1.65,.68H10.76c-.62,0-1.21-.25-1.65-.68-.44-.44-.68-1.03-.68-1.65V15.69c0-.62,.25-1.21,.68-1.65,.44-.44,1.03-.68,1.65-.68H28.28c.62,0,1.21,.25,1.65,.68,.44,.44,.68,1.03,.68,1.65h0Zm-7.44,4.43c0-.16-.13-.29-.29-.29h-1.95v-1.95c0-.16-.13-.29-.29-.29h-2.22c-.16,0-.29,.13-.29,.29v1.95h-1.95c-.08,0-.15,.03-.21,.09-.05,.05-.09,.13-.09,.21v2.22h0c0,.16,.13,.29,.29,.29h1.95v1.95c0,.16,.13,.29,.29,.29h2.22c.16,0,.29-.13,.29-.29v-1.95h1.95c.16,0,.29-.13,.29-.29v-2.22Z"/>
</svg>