<?xml version="1.0" encoding="UTF-8"?>
<svg width="39px" height="39px" id="Layer_1" xmlns="http://www.w3.org/2000/svg" viewBox="0 0 39 39">
<defs>
<style>.cls-1{fill:#00ad0e;}.cls-2,.cls-3{fill:#fff;}.cls-3{fill-rule:evenodd;}</style>
</defs>
<g id="Layer_1-2">
    <g>
        <circle style="fill:#00ad0e;" cx="19.5" cy="19.5" r="19.07"/>
        <path style="fill:#FFFFFF;" class="cls-2" d="M19.5,.86c10.3,0,18.64,8.35,18.64,18.64s-8.35,18.64-18.64,18.64S.86,29.8,.86,19.5,9.2,.86,19.5,.86m0-.86C8.75,0,0,8.75,0,19.5s8.75,19.5,19.5,19.5,19.5-8.75,19.5-19.5S30.25,0,19.5,0h0Z"/>
    </g>
</g>
<path style="fill:#FFFFFF;" class="cls-3" d="M13.46,7.03c.16-.16,.38-.25,.61-.25h9.08c1.43,0,2.6,1.16,2.6,2.6v.87h.87c1.43,0,2.6,1.16,2.6,2.6v15.57c0,1.43-1.16,2.6-2.6,2.6H14.51c-1.43,0-2.6-1.16-2.6-2.6v-.87h-.87c-1.43,0-2.6-1.16-2.6-2.6V12.4c0-.23,.09-.45,.25-.61l4.76-4.76Zm-.69,6.67h-2.6v11.25c0,.48,.39,.87,.87,.87h12.11c.48,0,.87-.39,.87-.87V9.38c0-.48-.39-.87-.87-.87h-7.79v2.6c0,1.43-1.16,2.6-2.6,2.6Z"/>
</svg>