<?xml version="1.0" encoding="UTF-8"?>
<svg width="39px" height="39px" id="Layer_1" xmlns="http://www.w3.org/2000/svg" viewBox="0 0 39 39">
<defs>
<style>.cls-1{fill:#fff;}.cls-2{fill:#9875ff;}</style>
</defs>
<g id="Layer_1-2">
    <g>
        <circle style="fill:#9875ff;" cx="19.5" cy="19.5" r="19.07"/>
        <path style="fill:#FFFFFF;" d="M19.5,.86c10.3,0,18.64,8.35,18.64,18.64s-8.35,18.64-18.64,18.64S.86,29.8,.86,19.5,9.2,.86,19.5,.86m0-.86C8.75,0,0,8.75,0,19.5s8.75,19.5,19.5,19.5,19.5-8.75,19.5-19.5S30.25,0,19.5,0h0Z"/>
    </g>
</g>
<g>
    <polygon style="fill:#FFFFFF;" points="18.61 13.87 9.96 10.85 9.96 13.87 9.96 23.42 18.85 26.53 18.85 13.95 18.76 13.87 18.61 13.87"/>
    <polygon style="fill:#FFFFFF;" points="8.45 13.87 6.86 13.87 6.86 27.95 18.26 27.95 8.45 24.6 8.45 13.87"/>
    <polygon style="fill:#FFFFFF;" points="30.75 13.87 30.75 24.6 21.03 27.95 32.68 27.95 32.68 13.87 30.75 13.87"/>
    <polygon style="fill:#FFFFFF;" points="29.16 13.87 29.16 10.85 20.68 13.87 20.44 13.87 20.44 13.95 20.44 26.53 29.16 23.42 29.16 13.87"/>
</g>
</svg>