<?xml version="1.0" encoding="utf-8"?>
<!-- Generator: Adobe Illustrator 26.0.0, SVG Export Plug-In . SVG Version: 6.00 Build 0)  -->
<svg version="1.1" id="Layer_1" xmlns="http://www.w3.org/2000/svg" xmlns:xlink="http://www.w3.org/1999/xlink" x="0px" y="0px"
	 viewBox="0 0 25.7 26.7" style="enable-background:new 0 0 25.7 26.7;" xml:space="preserve">
<style type="text/css">
	.st0{fill:#0A4A6D;}
	.st1{fill:#FFFFFF;}
	.st2{fill:none;}
	.st3{enable-background:new    ;}
</style>
<g>
	<path class="st0" d="M21.5,26.6H4.1c-2.2,0-4-1.8-4-4V4.2c0-2.2,1.8-4,4-4h17.4c2.2,0,4,1.8,4,4v18.4
		C25.5,24.8,23.7,26.6,21.5,26.6z"/>
</g>
<g>
	<g>
		<path class="st1" d="M12.7,14.7c-0.3,0-0.6-0.1-0.8-0.3L7.4,9.9C6.9,9.5,6.8,8.8,7.2,8.3c0.4-0.5,1.1-0.6,1.6-0.2
			c0.1,0,0.1,0.1,0.2,0.2l3.7,3.7l3.7-3.7c0.5-0.4,1.2-0.4,1.6,0.1c0.4,0.4,0.4,1.1,0,1.5l-4.5,4.5C13.3,14.6,13,14.7,12.7,14.7z"/>
	</g>
	<g>
		<path class="st1" d="M12.7,14.7c-0.5,0-0.9-0.4-0.9-1V4.3c-0.1-0.5,0.3-1,0.8-1.1s1,0.3,1.1,0.8c0,0.1,0,0.1,0,0.2v9.5
			C13.7,14.3,13.3,14.7,12.7,14.7z"/>
	</g>
</g>
<g>
	<rect x="-0.8" y="17.4" class="st2" width="26.7" height="13.8"/>
</g>
<g class="st3">
	<g>
		<path class="st1" d="M7.2,20.7h-1v1.5c0,0.2-0.1,0.4-0.2,0.5c-0.1,0.1-0.2,0.2-0.4,0.2c-0.2,0-0.3-0.1-0.4-0.2
			c-0.1-0.1-0.2-0.3-0.2-0.5v-4.2c0-0.2,0.1-0.4,0.2-0.5c0.1-0.1,0.3-0.2,0.5-0.2h1.4c0.4,0,0.7,0,1,0.1c0.2,0.1,0.4,0.2,0.6,0.3
			C8.9,18,9,18.1,9.1,18.3c0.1,0.2,0.1,0.4,0.1,0.7c0,0.5-0.2,1-0.5,1.2S7.8,20.7,7.2,20.7z M6.9,18.2H6.2v1.7h0.7
			c0.3,0,0.5,0,0.6-0.1s0.3-0.1,0.4-0.3c0.1-0.1,0.1-0.3,0.1-0.5c0-0.2-0.1-0.4-0.2-0.6C7.7,18.3,7.4,18.2,6.9,18.2z"/>
	</g>
	<g>
		<path class="st1" d="M10.8,17.4h1.4c0.4,0,0.7,0,1,0.1c0.3,0.1,0.5,0.2,0.7,0.4c0.6,0.5,0.8,1.2,0.8,2.2c0,0.3,0,0.6-0.1,0.9
			c-0.1,0.3-0.1,0.5-0.3,0.7s-0.3,0.4-0.5,0.6c-0.1,0.1-0.3,0.2-0.5,0.3c-0.2,0.1-0.4,0.1-0.6,0.2s-0.4,0-0.7,0h-1.4
			c-0.2,0-0.3,0-0.4-0.1c-0.1-0.1-0.2-0.1-0.2-0.3c0-0.1,0-0.3,0-0.4v-4c0-0.2,0.1-0.4,0.2-0.5S10.5,17.4,10.8,17.4z M11.2,18.3V22
			H12c0.2,0,0.3,0,0.4,0c0.1,0,0.2,0,0.3-0.1c0.1,0,0.2-0.1,0.3-0.2c0.4-0.3,0.5-0.8,0.5-1.6c0-0.5-0.1-0.9-0.2-1.2
			c-0.2-0.3-0.4-0.4-0.6-0.5c-0.2-0.1-0.5-0.1-0.9-0.1H11.2z"/>
	</g>
	<g>
		<path class="st1" d="M18.9,18.3h-2.2v1.4h1.8c0.2,0,0.3,0,0.4,0.1c0.1,0.1,0.1,0.2,0.1,0.3c0,0.1,0,0.2-0.1,0.3
			c-0.1,0.1-0.2,0.1-0.4,0.1h-1.8v1.8c0,0.2-0.1,0.4-0.2,0.5c-0.1,0.1-0.2,0.2-0.4,0.2c-0.2,0-0.3-0.1-0.4-0.2
			c-0.1-0.1-0.2-0.3-0.2-0.5v-4.2c0-0.2,0-0.3,0.1-0.4c0-0.1,0.1-0.2,0.2-0.2c0.1,0,0.2-0.1,0.4-0.1h2.6c0.2,0,0.3,0,0.4,0.1
			s0.1,0.2,0.1,0.3c0,0.1,0,0.2-0.1,0.3S19.1,18.3,18.9,18.3z"/>
	</g>
</g>
<g class="st3">
	<g>
		<path class="st1" d="M5.6,23c-0.2,0-0.4-0.1-0.5-0.2c-0.1-0.1-0.2-0.3-0.2-0.6v-4.2c0-0.3,0.1-0.5,0.2-0.6
			c0.1-0.1,0.3-0.2,0.6-0.2h1.4c0.4,0,0.8,0,1,0.1c0.2,0.1,0.4,0.2,0.6,0.3c0.2,0.2,0.3,0.3,0.4,0.6c0.1,0.2,0.1,0.5,0.1,0.7
			c0,0.6-0.2,1-0.6,1.3c-0.4,0.3-0.9,0.5-1.6,0.5H6.3v1.4c0,0.2-0.1,0.4-0.2,0.6C6,23,5.8,23,5.6,23z M5.8,17.5
			c-0.2,0-0.4,0-0.4,0.1c-0.1,0.1-0.1,0.2-0.1,0.4v4.2c0,0.2,0,0.3,0.1,0.4c0.1,0.2,0.4,0.2,0.6,0C6,22.6,6,22.4,6,22.2v-1.7h1.1
			c0.6,0,1.1-0.1,1.4-0.4c0.3-0.3,0.5-0.6,0.5-1.2c0-0.2,0-0.5-0.1-0.6c-0.1-0.2-0.2-0.3-0.3-0.5c-0.1-0.1-0.3-0.2-0.5-0.3
			c-0.2-0.1-0.5-0.1-0.9-0.1H5.8z M6.9,20H6v-1.9h0.9c0.5,0,0.9,0.1,1.1,0.3c0.2,0.2,0.2,0.4,0.2,0.7c0,0.2-0.1,0.4-0.2,0.6
			c-0.1,0.1-0.3,0.2-0.5,0.3C7.4,20,7.2,20,6.9,20z M6.3,19.8h0.6c0.2,0,0.4,0,0.6-0.1c0.1,0,0.3-0.1,0.3-0.2
			c0.1-0.1,0.1-0.2,0.1-0.4c0-0.2-0.1-0.4-0.2-0.5c-0.1-0.1-0.3-0.2-0.9-0.2H6.3V19.8z"/>
	</g>
	<g>
		<path class="st1" d="M12.2,22.9h-1.4c-0.2,0-0.4,0-0.5-0.1c-0.1-0.1-0.2-0.2-0.3-0.3c0-0.1-0.1-0.3-0.1-0.5v-4
			c0-0.3,0.1-0.5,0.2-0.6c0.1-0.1,0.3-0.2,0.6-0.2h1.4c0.4,0,0.7,0,1,0.1c0.3,0.1,0.5,0.2,0.8,0.4c0.6,0.5,0.9,1.3,0.9,2.3
			c0,0.3,0,0.6-0.1,0.9c-0.1,0.3-0.2,0.5-0.3,0.8c-0.1,0.2-0.3,0.4-0.5,0.6c-0.2,0.1-0.3,0.3-0.5,0.3c-0.2,0.1-0.4,0.1-0.6,0.2
			C12.7,22.9,12.5,22.9,12.2,22.9z M10.8,17.5c-0.2,0-0.3,0-0.4,0.1c-0.1,0.1-0.1,0.2-0.1,0.4v4c0,0.2,0,0.3,0,0.4
			c0,0.1,0.1,0.1,0.1,0.2c0.1,0,0.2,0.1,0.4,0.1h1.4c0.2,0,0.5,0,0.6,0c0.2,0,0.4-0.1,0.5-0.2c0.2-0.1,0.3-0.2,0.4-0.3
			c0.2-0.2,0.3-0.3,0.4-0.5c0.1-0.2,0.2-0.4,0.2-0.7c0.1-0.3,0.1-0.5,0.1-0.9c0-0.9-0.3-1.6-0.8-2.1c-0.2-0.2-0.4-0.3-0.7-0.4
			c-0.3-0.1-0.6-0.1-0.9-0.1H10.8z M12,22.1h-1v-3.9h0.8c0.3,0,0.6,0,0.9,0.1c0.3,0.1,0.5,0.3,0.7,0.6c0.2,0.3,0.3,0.7,0.3,1.3
			c0,0.8-0.2,1.4-0.6,1.7c-0.1,0.1-0.2,0.1-0.3,0.2c-0.1,0-0.2,0.1-0.4,0.1C12.4,22.1,12.2,22.1,12,22.1z M11.3,21.8H12
			c0.2,0,0.3,0,0.4,0c0.1,0,0.2,0,0.3-0.1c0.1,0,0.2-0.1,0.2-0.1c0.3-0.3,0.5-0.8,0.5-1.5c0-0.5-0.1-0.9-0.2-1.1
			c-0.1-0.2-0.3-0.4-0.5-0.5c-0.2-0.1-0.5-0.1-0.8-0.1h-0.6V21.8z"/>
	</g>
	<g>
		<path class="st1" d="M16.2,23c-0.2,0-0.4-0.1-0.5-0.2c-0.1-0.1-0.2-0.3-0.2-0.6v-4.2c0-0.2,0-0.3,0.1-0.4c0.1-0.1,0.2-0.2,0.3-0.3
			c0.1-0.1,0.3-0.1,0.4-0.1h2.6c0.2,0,0.4,0,0.5,0.1c0.1,0.1,0.2,0.2,0.2,0.4c0,0.2-0.1,0.3-0.2,0.4c-0.1,0.1-0.3,0.1-0.5,0.1h-2
			v1.1h1.7c0.2,0,0.4,0,0.5,0.1c0.1,0.1,0.2,0.2,0.2,0.4c0,0.2-0.1,0.3-0.2,0.4c-0.1,0.1-0.3,0.1-0.5,0.1h-1.7v1.7
			c0,0.3-0.1,0.5-0.2,0.6C16.6,23,16.4,23,16.2,23z M16.3,17.5c-0.1,0-0.2,0-0.3,0.1c-0.1,0-0.1,0.1-0.2,0.2c0,0.1-0.1,0.2-0.1,0.3
			v4.2c0,0.2,0,0.3,0.1,0.4c0.2,0.2,0.4,0.2,0.6,0c0.1-0.1,0.1-0.2,0.1-0.4v-1.9h1.9c0.1,0,0.2,0,0.3-0.1c0.1,0,0.1-0.1,0.1-0.2
			c0-0.1,0-0.2-0.1-0.2c-0.1-0.1-0.2-0.1-0.3-0.1h-1.9v-1.6h2.3c0.1,0,0.2,0,0.3-0.1c0.1-0.1,0.1-0.1,0.1-0.2c0-0.1,0-0.2-0.1-0.2
			c-0.1-0.1-0.2-0.1-0.3-0.1H16.3z"/>
	</g>
</g>
</svg>
