<svg width="23" height="21" viewBox="0 0 23 21" fill="none" xmlns="http://www.w3.org/2000/svg">
<g clip-path="url(#clip0_12066_12050)">
<path d="M19.0973 13.2173C16.943 13.2173 15.1948 14.9585 15.1948 17.1042C15.1948 19.2499 16.943 20.9912 19.0973 20.9912C21.2516 20.9912 22.9998 19.2499 22.9998 17.1042C22.9998 14.9585 21.2516 13.2173 19.0973 13.2173Z" fill="#006A8F"/>
<path d="M19.389 18.8806L21.5609 16.4447C21.7905 16.1897 21.6051 15.7939 21.2696 15.7939H16.9256C16.5813 15.7939 16.4047 16.1985 16.6343 16.4447L18.8062 18.8806C18.9652 19.0565 19.2389 19.0565 19.3978 18.8806H19.389Z" fill="white"/>
<g clip-path="url(#clip1_12066_12050)">
<path d="M5.995 10.579C6.49826 10.579 6.96621 10.4734 7.4165 10.3239C6.15393 9.06641 5.36813 7.31641 5.36813 5.39933C5.36813 4.19455 5.67715 3.06013 6.21573 2.07521C6.1451 2.07521 6.07446 2.05762 6.00383 2.05762C3.63761 2.05762 1.72168 3.96591 1.72168 6.32269C1.72168 8.67948 3.63761 10.5878 6.00383 10.5878L5.995 10.579Z" fill="#006A8F"/>
<path d="M16.1916 9.19803C18.3053 7.09283 18.3053 3.67963 16.1916 1.57443C14.078 -0.530773 10.6511 -0.530773 8.53751 1.57443C6.42388 3.67963 6.42388 7.09283 8.53751 9.19803C10.6511 11.3032 14.078 11.3032 16.1916 9.19803Z" fill="#006A8F"/>
<path d="M13.6409 17.1395C13.6409 14.6948 15.3272 12.6458 17.5963 12.0742C17.1637 11.7312 16.6869 11.4498 16.166 11.2388C15.0712 11.9511 13.7645 12.3732 12.3518 12.3732C10.9391 12.3732 9.64124 11.9511 8.5376 11.2388C6.3303 12.1445 4.77637 14.2991 4.77637 16.8229V17.6848C4.77637 18.3267 5.22666 18.8807 5.86236 19.0038C7.67234 19.3468 9.86197 19.6194 12.3518 19.6194C13.0052 19.6194 13.6232 19.593 14.2324 19.5579C13.8528 18.8368 13.6409 18.0189 13.6409 17.1483V17.1395Z" fill="#006A8F"/>
<path d="M2.63109 11.0981C1.07716 11.8896 0 13.4901 0 15.3544V16.0404C0 16.5504 0.361996 16.9901 0.85643 17.0868C1.56276 17.2187 2.34856 17.3419 3.19616 17.4298V16.823C3.19616 15.0378 3.83186 13.3758 4.90019 12.0567C4.07025 11.8984 3.29328 11.573 2.62227 11.1069L2.63109 11.0981Z" fill="#006A8F"/>
<path d="M15.1948 17.1043C15.1948 19.25 16.943 20.9912 19.0973 20.9912C21.2516 20.9912 22.9998 19.25 22.9998 17.1043C22.9998 14.9585 21.2516 13.2173 19.0973 13.2173C16.943 13.2173 15.1948 14.9585 15.1948 17.1043Z" fill="#006A8F"/>
<path d="M20.8808 16.8143L18.4351 14.651C18.1791 14.4224 17.7817 14.607 17.7817 14.9412L17.7817 19.2678C17.7817 19.6108 18.1879 19.7867 18.4351 19.558L20.8808 17.3947C21.0574 17.2364 21.0574 16.9638 20.8808 16.8055L20.8808 16.8143Z" fill="white"/>
</g>
</g>
<defs>
<clipPath id="clip0_12066_12050">
<rect width="23" height="21" fill="white"/>
</clipPath>
<clipPath id="clip1_12066_12050">
<rect width="23" height="21" fill="white"/>
</clipPath>
</defs>
</svg>
