<?xml version="1.0" encoding="utf-8"?>
<!-- Generator: Adobe Illustrator 24.0.0, SVG Export Plug-In . SVG Version: 6.00 Build 0)  -->
<svg version="1.1" id="Layer_1" xmlns="http://www.w3.org/2000/svg" xmlns:xlink="http://www.w3.org/1999/xlink" x="0px" y="0px"
	 viewBox="0 0 500 231.3" style="enable-background:new 0 0 500 231.3;" xml:space="preserve">
<style type="text/css">
	.st0{fill-rule:evenodd;clip-rule:evenodd;fill:#FFFFFF;}
	.st1{fill-rule:evenodd;clip-rule:evenodd;fill:#010101;}
</style>
<path class="st0" d="M362.7,45.7c38.2,0,69.5,31.1,69.5,69.4c0,38.2-31.3,69.5-69.5,69.5c-38.2,0-69.4-31.3-69.4-69.5
	C293.3,76.8,324.4,45.7,362.7,45.7z"/>
<g>
	<g transform="translate(0,-952.36218)">
		<path class="st0" d="M361.5,1176.9c59.6,0,108.5-48.8,108.5-108.5c0-59.7-48.9-108.5-108.5-108.5H140.2
			c-59.7,0-108.5,48.8-108.5,108.5c0,59.7,48.8,108.5,108.5,108.5C140.2,1176.9,361.5,1176.9,361.5,1176.9z M138,1137.9
			c-38.3,0-69.7-31.2-69.7-69.6c0-38.3,31.4-69.7,69.7-69.7c38.4,0,69.6,31.4,69.6,69.7C207.6,1106.7,176.4,1137.9,138,1137.9z"/>
	</g>
	<path class="st1" d="M138.7,186.2c-38.3,0-69.7-31.2-69.7-69.6c0-38.3,31.4-69.7,69.7-69.7c38.4,0,69.6,31.4,69.6,69.7
		C208.3,155,177,186.2,138.7,186.2z"/>
</g>
</svg>
