<?xml version="1.0" encoding="utf-8"?>
<!-- Generator: Adobe Illustrator 24.0.0, SVG Export Plug-In . SVG Version: 6.00 Build 0)  -->
<svg version="1.1" id="Layer_1" xmlns="http://www.w3.org/2000/svg" xmlns:xlink="http://www.w3.org/1999/xlink" x="0px" y="0px"
	 viewBox="0 0 500 500" style="enable-background:new 0 0 500 500;" xml:space="preserve">
<style type="text/css">
	.st0{fill:#FFFFFF;stroke:#000000;stroke-width:2;stroke-miterlimit:10;}
	.st1{fill-rule:evenodd;clip-rule:evenodd;}
	.st2{fill-rule:evenodd;clip-rule:evenodd;fill:#519CCC;}
	.st3{fill:none;stroke:#000000;stroke-width:2;stroke-miterlimit:10;}
</style>
<g>
	<ellipse class="st0" cx="182.7" cy="376.3" rx="141.2" ry="76.1"/>
	<ellipse class="st0" cx="182.7" cy="349.3" rx="141.2" ry="76.1"/>
	<g>
		<g transform="translate(-240.000000, -1221.000000)">
			<g transform="translate(240.000000, 1221.000000)">
				<path class="st1" d="M405.5,109.4L405.5,109.4L384,87.9l8.6,8.6l0,0l-17.2-17.2l0,0l-12.9-12.9l8.6-8.6L384,70.7l0,0l17.2,17.2
					l0,0l12.9,12.9L405.5,109.4z M449,57.2l-8.6-8.6l0,0l-17.2-17.2l0,0l-8.6-8.6c-2.5-2.5-6.1-2.5-8.6,0s-2.5,6.1,0,8.6l3.7,4.3
					l-21.5,21.5l-12.9-12.9c-2.5-2.5-6.1-2.5-8.6,0l-17.2,17.2c-2.5,2.5-2.5,6.1,0,8.6l-19,19L344,102l18.4-18.4l8.6,8.6l-17.2,17.2
					l8.6,8.6l17.2-17.2l8.6,8.6l-17.8,17.8l13.5,12.9l17.8-17.8l0,0c1.2,1.2,2.5,1.8,4.3,1.8s3.1-0.6,4.3-1.8l17.2-17.2
					c2.5-2.5,2.5-6.1,0-8.6l-12.9-12.9l21.5-21.5l4.3,4.3c1.2,1.2,3.1,1.8,4.3,1.8c1.8,0,3.1-0.6,4.3-1.8
					C451.5,63.9,451.5,59.7,449,57.2L449,57.2z"/>
				<path class="st2" d="M161.8,328.5c-2.5-2.5-6.1-2.5-8.6,0l-12.3,12.3c-4.3,4.3-6.8,10.4-6.8,16.6s2.5,12.3,6.8,16.6
					c4.3,4.3,10.4,6.8,16.6,6.8s12.3-2.5,16.6-6.8c9.2-9.2,9.2-23.9,0-33.1L161.8,328.5z"/>
				<path class="st1" d="M218.3,228.4c-3.1,3.1-4.9,7.4-4.9,11.7c0,2.5,0.6,4.9,1.8,7.4l-61.4,61.4c-2.5,2.5-2.5,6.1,0,8.6
					c1.2,1.2,3.1,1.8,4.3,1.8c1.8,0,3.1-0.6,4.3-1.8l61.4-60.8c2.5,1.8,5.5,2.5,8.6,2.5c4.3,0,8.6-1.8,11.7-4.9l13.5-13.5
					l-25.8-26.4L218.3,228.4z"/>
				<polygon class="st1" points="265.5,154.2 369.9,154.2 374.8,148.6 322,97.7 				"/>
				<path class="st1" d="M253.3,193.4L241,205.7l25.8,26.4l13.5-13.5c3.1,0.6,5.5,1.2,8.6,1.2c9.8,0,19-3.7,25.8-11l43-43H256.4
					C251.4,174.4,250.8,184.2,253.3,193.4"/>
			</g>
		</g>
	</g>
	<path class="st2" d="M449.7,57.2l-8.6-8.6l-17.2-17.2l-8.6-8.6c-2.5-2.5-6.1-2.5-8.6,0s-2.5,6.1,0,8.6l3.7,4.3l-21.5,21.5
		l26.4,26.4l21.5-21.5l4.3,4.3c1.2,1.2,3.1,1.8,4.3,1.8c1.8,0,3.1-0.6,4.3-1.8C452.1,63.9,452.1,59.7,449.7,57.2z"/>
	<line class="st3" x1="41.5" y1="349.3" x2="41.5" y2="380.6"/>
	<line class="st3" x1="324.5" y1="350" x2="324.5" y2="375.7"/>
</g>
</svg>
