<svg width="16" height="19" viewBox="0 0 16 19" fill="none" xmlns="http://www.w3.org/2000/svg">
<path d="M13 9.75715C13 10.0452 12.78 10.2714 12.5 10.2714H7.5C7.22 10.2714 7 10.0452 7 9.75715C7 9.46915 7.22 9.24287 7.5 9.24287H12.5C12.78 9.24287 13 9.46915 13 9.75715ZM12.5 11.3H7.5C7.22 11.3 7 11.5263 7 11.8143C7 12.1023 7.22 12.3286 7.5 12.3286H12.5C12.78 12.3286 13 12.1023 13 11.8143C13 11.5263 12.78 11.3 12.5 11.3ZM12.5 13.3572H7.5C7.22 13.3572 7 13.5834 7 13.8714C7 14.1594 7.22 14.3857 7.5 14.3857H12.5C12.78 14.3857 13 14.1594 13 13.8714C13 13.5834 12.78 13.3572 12.5 13.3572ZM16 8.21429V16.4429C16 17.5743 15.1 18.5 14 18.5H6C4.9 18.5 4 17.5743 4 16.4429V15.4143H2C0.9 15.4143 0 14.4886 0 13.3572V4.10001C0 2.96858 0.9 2.04286 2 2.04286H4.5C4.5 1.18915 5.17 0.500008 6 0.500008C6.83 0.500008 7.5 1.18915 7.5 2.04286H10C11.1 2.04286 12 2.96858 12 4.10001V6.15715H14C15.1 6.15715 16 7.08287 16 8.21429ZM6 6.15715H11V4.10001C11 3.53429 10.55 3.07144 10 3.07144H9V4.10001H3V3.07144H2C1.45 3.07144 1 3.53429 1 4.10001V13.3572C1 13.9229 1.45 14.3857 2 14.3857H4V8.21429C4 7.08287 4.9 6.15715 6 6.15715ZM15 8.21429C15 7.64858 14.55 7.18572 14 7.18572H6C5.45 7.18572 5 7.64858 5 8.21429V16.4429C5 17.0086 5.45 17.4714 6 17.4714H14C14.55 17.4714 15 17.0086 15 16.4429V8.21429Z" fill="#142D64"/>
</svg>
