<?xml version="1.0" encoding="utf-8"?>
<!-- Generator: Adobe Illustrator 26.0.0, SVG Export Plug-In . SVG Version: 6.00 Build 0)  -->
<svg width="42px" height="42px" id="Administrative" version="1.1" xmlns="http://www.w3.org/2000/svg" xmlns:xlink="http://www.w3.org/1999/xlink" x="0px" y="0px"
	 viewBox="0 0 44 44" style="enable-background:new 0 0 44 44;" xml:space="preserve">
<style type="text/css">
	.st0{fill:#9B2D20;}
	.st1{fill:#FFFFFF;}
	.st2{display:none;}
	.st3{display:inline;fill:#AD91FF;}
	.st4{display:inline;}
	.st5{display:inline;fill:#1C75BC;}
	.st6{display:inline;fill:#FFFFFF;}
	.st7{display:inline;fill:#FF7F15;}
	.st8{fill:#FF7F15;}
</style>
<g id="Layer_1">
	<circle class="st0" cx="22.1" cy="22" r="21.7"/>
	<path class="st1" d="M25.8,16.5L25.8,16.5c-0.4,0-0.7,0-0.9-0.2c-0.9-0.2-1.5-0.7-2.4-1.1c-0.2,0-0.2-0.2-0.4-0.2
		c-0.2,0-0.4,0-0.4,0.2c-1.1,0.9-2.2,1.1-3.3,1.3c-0.2,0-0.7,0.2-0.7,0.9v1.1c0,0.7,0,1.5,0,2.2c0,0.2,0,0.7,0.2,0.9
		c0.2,0.7,0.7,1.3,1.1,2c0.7,0.7,1.8,1.3,3.1,1.8h0.2l0,0c0.2,0,0.2,0,0.4,0l0.2-0.2c0.2-0.2,0.4-0.2,0.9-0.4
		c0.9-0.4,1.8-1.1,2.2-1.8c0.4-0.7,0.7-1.3,0.9-2c0-0.4,0-0.9,0-1.5v-2.2C26.5,17,26.3,16.7,25.8,16.5z M25.4,20.9
		c0,0.4-0.2,0.9-0.7,1.5s-1.1,1.1-2,1.5c-0.2,0.2-0.4,0.2-0.7,0.4h-0.2v-3.9h-3.5c0-0.7,0-1.3,0-2v-0.9c1.1-0.2,2.2-0.7,3.5-1.3v4.2
		h3.5C25.4,20.5,25.4,20.7,25.4,20.9z M35.5,27.7C35.2,27.5,35,27,35,26.8v-1.5v-0.9v-3.1l0,0v-7.7c0-1.5-1.1-2.6-2.6-2.6h-9.7H11.6
		c-1.5,0-2.6,1.1-2.6,2.6v10.5v0.7v2c0,0.4-0.2,0.7-0.4,0.9l-1.3,1.8c0,0.2-0.2,0.2-0.2,0.4v0.7c0,0.9,0.9,1.8,1.8,1.8h26.1
		c0.9,0,1.8-0.9,1.8-1.8v-0.7c0-0.2,0-0.2-0.2-0.4L35.5,27.7z M24.9,29.7c0,0.4-0.4,0.9-0.9,0.9h-3.9c-0.4,0-0.9-0.4-0.9-0.9v-0.2
		L24.9,29.7L24.9,29.7L24.9,29.7z M32.4,25.3V27H11.6v-2v-0.7V13.7l0,0h12.3h8.6l0,0v10.5v0.7V25.3L32.4,25.3L32.4,25.3L32.4,25.3z"
		/>
</g>
<!-- <g id="Layer_2" class="st2">
	<ellipse transform="matrix(0.3827 -0.9239 0.9239 0.3827 -6.6855 33.9431)" class="st3" cx="22.1" cy="22" rx="21.7" ry="21.7"/>
	<g class="st4">
		<polygon class="st1" points="21.2,14.4 21.1,14.3 9.6,14.3 9.6,26.7 21.2,30.7 		"/>
		<polygon class="st1" points="34.7,14.3 23.3,14.3 23.2,14.4 23.2,30.8 34.7,26.7 		"/>
		<polygon class="st1" points="7.6,28.3 7.6,14.3 5.6,14.3 5.6,32.7 20.4,32.7 		"/>
		<polygon class="st1" points="36.7,14.3 36.7,28.3 24.1,32.7 39.3,32.7 39.3,14.3 		"/>
	</g>
	<g class="st4">
		<polygon class="st1" points="34.7,26.8 34.7,10.4 23.2,14.4 23.2,30.8 		"/>
		<polygon class="st1" points="9.6,10.4 9.6,26.8 21.2,30.8 21.2,14.4 		"/>
	</g>
</g>
<g id="Layer_3" class="st2">
	<circle class="st5" cx="21.9" cy="21.9" r="21.8"/>
	<path class="st6" d="M31.2,8.6h-4v1.6c0,1.2-1,2.2-2.2,2.2h-5.9c-1.2,0-2.2-1-2.2-2.2V8.6h-4c-1.2,0-2.2,1-2.2,2.2v23.8
		c0,1.2,1,2.2,2.2,2.2h18.2c1.2,0,2.2-1,2.2-2.2V10.8C33.4,9.6,32.4,8.6,31.2,8.6z M18.6,32.4c-0.5-1.5-0.7-3-0.5-4.6
		c0.2-1.4,1.1-2.7,1.1-3.9c0-1.2-1.4-1.1-2.3-1.4c-0.9-0.2-2.1-0.9-2.7-1.8c-0.5-0.9-0.2-1.6,0.7-1.8c0.7,0,2,0,2.7,0
		c1.2,0,1.2-0.5,2.3-0.7c0.7-0.2,1.4,0,1.8-0.7c0.2-0.7,0.4-1.4,0.7-2c1.1-3,1.8,1.8,2,2.7c0.9,5.2,1.4,8.1,5.1,13.4
		c0.2,0.3,0.4,0.5,0.6,0.7H18.6z"/>
	<path class="st6" d="M25.5,11.1h-6.9c-0.3,0-0.5-0.2-0.5-0.5V7.4c0-0.3,0.2-0.5,0.5-0.5h6.9c0.3,0,0.5,0.2,0.5,0.5v3.1
		C26,10.8,25.8,11.1,25.5,11.1z"/>
</g> -->
<!-- <g id="Layer_4" class="st2">
	<circle class="st7" cx="21.9" cy="22" r="21.8"/>
	<g class="st4">
		<path class="st1" d="M38.4,19.8h-3.7v-4.6c0-2-1.1-2.9-2.9-2.9h-7.9c-0.7,0-1.1-0.2-1.3-0.7l-2-2C20.1,9.2,19.6,9,19.2,9h-8.8
			c-1.8,0-2.9,1.1-2.9,3.1v21.4c0,0.7,0.4,1.1,1.1,1.1h27.3c0.2,0,0.2,0,0.4-0.2L41,22.2C41.2,20.7,40.4,19.8,38.4,19.8z"/>
		<g>
			<path class="st1" d="M8.9,35.1l1-2.2l4.4-11.2c0.5-1.4,2.1-2.3,3.8-2.3h20.5c1.4,0,2.4,0.4,2.8,1.1c0.3,0.4,0.5,1.1,0.1,2
				l-4.7,12.2l-0.1,0.1c-0.3,0.3-0.4,0.4-0.8,0.4H8.9z"/>
			<path class="st8" d="M38.5,19.8c2,0,3.1,0.9,2.4,2.4l-4.6,12.1c-0.2,0.2-0.2,0.2-0.4,0.2H9.6l0.7-1.5l4.4-11.2
				c0.4-1.1,1.8-2,3.3-2h15.2h1.5H38.5 M38.5,18.8h-3.7h-1.5H18c-1.9,0-3.6,1.1-4.2,2.6L9.4,32.7l-0.6,1.5l-0.6,1.4h1.5h26.2
				c0.5,0,0.8-0.2,1.1-0.5l0.2-0.2l0.1-0.2l4.6-12.1c0.5-1.2,0.2-2.1-0.1-2.5C41.4,19.5,40.5,18.8,38.5,18.8L38.5,18.8z"/>
		</g>
	</g>
</g> -->
</svg>
