<?xml version="1.0" encoding="utf-8"?>
<!-- Generator: Adobe Illustrator 26.0.0, SVG Export Plug-In . SVG Version: 6.00 Build 0)  -->
<svg width="42px" height="42px" version="1.1" xmlns="http://www.w3.org/2000/svg" xmlns:xlink="http://www.w3.org/1999/xlink" x="0px" y="0px"
	 viewBox="0 0 44 44" style="enable-background:new 0 0 44 44;" xml:space="preserve">
<style type="text/css">
	.st0{display:none;}
	.st1{display:inline;fill:#9B2D20;}
	.st2{display:inline;fill:#FFFFFF;}
	.st3{display:inline;fill:#AD91FF;}
	.st4{display:inline;}
	.st5{fill:#FFFFFF;}
	.st6{fill:#1C75BC;}
	.st7{display:inline;fill:#FF7F15;}
	.st8{fill:#FF7F15;}
</style>
<!-- <g id="Layer_1" class="st0">
	<circle class="st1" cx="22.1" cy="22" r="21.7"/>
	<path class="st2" d="M25.8,16.5L25.8,16.5c-0.4,0-0.7,0-0.9-0.2c-0.9-0.2-1.5-0.7-2.4-1.1c-0.2,0-0.2-0.2-0.4-0.2
		c-0.2,0-0.4,0-0.4,0.2c-1.1,0.9-2.2,1.1-3.3,1.3c-0.2,0-0.7,0.2-0.7,0.9v1.1c0,0.7,0,1.5,0,2.2c0,0.2,0,0.7,0.2,0.9
		c0.2,0.7,0.7,1.3,1.1,2c0.7,0.7,1.8,1.3,3.1,1.8h0.2l0,0c0.2,0,0.2,0,0.4,0l0.2-0.2c0.2-0.2,0.4-0.2,0.9-0.4
		c0.9-0.4,1.8-1.1,2.2-1.8c0.4-0.7,0.7-1.3,0.9-2c0-0.4,0-0.9,0-1.5v-2.2C26.5,17,26.3,16.7,25.8,16.5z M25.4,20.9
		c0,0.4-0.2,0.9-0.7,1.5s-1.1,1.1-2,1.5c-0.2,0.2-0.4,0.2-0.7,0.4h-0.2v-3.9h-3.5c0-0.7,0-1.3,0-2v-0.9c1.1-0.2,2.2-0.7,3.5-1.3v4.2
		h3.5C25.4,20.5,25.4,20.7,25.4,20.9z M35.5,27.7C35.2,27.5,35,27,35,26.8v-1.5v-0.9v-3.1l0,0v-7.7c0-1.5-1.1-2.6-2.6-2.6h-9.7H11.6
		c-1.5,0-2.6,1.1-2.6,2.6v10.5v0.7v2c0,0.4-0.2,0.7-0.4,0.9l-1.3,1.8c0,0.2-0.2,0.2-0.2,0.4v0.7c0,0.9,0.9,1.8,1.8,1.8h26.1
		c0.9,0,1.8-0.9,1.8-1.8v-0.7c0-0.2,0-0.2-0.2-0.4L35.5,27.7z M24.9,29.7c0,0.4-0.4,0.9-0.9,0.9h-3.9c-0.4,0-0.9-0.4-0.9-0.9v-0.2
		L24.9,29.7L24.9,29.7L24.9,29.7z M32.4,25.3V27H11.6v-2v-0.7V13.7l0,0h12.3h8.6l0,0v10.5v0.7V25.3L32.4,25.3L32.4,25.3L32.4,25.3z"
		/>
</g>
<g id="Layer_2" class="st0">
	<ellipse transform="matrix(0.3827 -0.9239 0.9239 0.3827 -6.6855 33.9431)" class="st3" cx="22.1" cy="22" rx="21.7" ry="21.7"/>
	<g class="st4">
		<polygon class="st5" points="21.3,14.9 21.2,14.8 10.7,14.8 10.7,26.2 21.3,29.9 		"/>
		<polygon class="st5" points="33.6,14.8 23.2,14.8 23.2,14.9 23.2,29.9 33.6,26.2 		"/>
		<polygon class="st5" points="8.9,27.6 8.9,14.8 7,14.8 7,31.6 20.6,31.6 		"/>
		<polygon class="st5" points="35.5,14.8 35.5,27.6 23.9,31.6 37.8,31.6 37.8,14.8 		"/>
	</g>
	<g class="st4">
		<polygon class="st5" points="33.6,26.2 33.6,11.2 23.2,14.9 23.2,29.9 		"/>
		<polygon class="st5" points="10.7,11.2 10.7,26.2 21.3,29.9 21.3,14.9 		"/>
	</g>
</g> -->
<g id="Layer_3">
	<circle class="st6" cx="21.9" cy="21.9" r="21.8"/>
	<path style="fill:#FFFFFF;" d="M30.1,9.5h-3.5v1.4c0,1.1-0.9,1.9-1.9,1.9h-5.2c-1.1,0-1.9-0.9-1.9-1.9V9.5H14c-1.1,0-1.9,0.9-1.9,1.9v21.1
		c0,1.1,0.9,1.9,1.9,1.9h16.1c1.1,0,1.9-0.9,1.9-1.9V11.5C32.1,10.4,31.2,9.5,30.1,9.5z M19,30.6c-0.4-1.3-0.6-2.6-0.4-4
		c0.2-1.3,0.9-2.4,0.9-3.5s-1.3-0.9-2-1.3c-0.8-0.2-1.9-0.8-2.4-1.6c-0.5-0.8-0.2-1.4,0.6-1.6c0.6,0,1.7,0,2.4,0
		c1.1,0,1.1-0.5,2-0.6c0.6-0.2,1.3,0,1.6-0.6c0.2-0.6,0.3-1.3,0.6-1.7c0.9-2.7,1.6,1.6,1.7,2.4c0.8,4.6,1.2,7.2,4.5,11.9
		c0.2,0.2,0.3,0.4,0.5,0.6H19z"/>
	<path style="fill:#FFFFFF;" d="M25.1,11.7h-6c-0.3,0-0.5-0.2-0.5-0.5V8.5c0-0.3,0.2-0.5,0.5-0.5h6c0.3,0,0.5,0.2,0.5,0.5v2.6
		C25.6,11.4,25.3,11.7,25.1,11.7z"/>
</g>
<!-- <g id="Layer_4" class="st0">
	<circle class="st7" cx="21.9" cy="22" r="21.8"/>
	<g class="st4">
		<path class="st5" d="M35.9,19.9h-3.3v-4c0-1.7-1-2.5-2.5-2.5h-6.9c-0.6,0-1-0.2-1.1-0.6l-1.7-1.7c-0.4-0.4-0.8-0.6-1.1-0.6h-7.7
			c-1.5,0-2.5,1-2.5,2.7v18.6c0,0.6,0.4,1,1,1h23.7c0.2,0,0.2,0,0.4-0.2l4-10.5C38.4,20.6,37.7,19.9,35.9,19.9z"/>
		<g>
			<path class="st5" d="M10.2,33.2l0.9-2l3.8-9.8c0.5-1.2,1.9-2,3.3-2h17.8c1.2,0,2.1,0.4,2.5,1c0.2,0.3,0.4,0.9,0.1,1.8l-4.1,10.6
				l-0.1,0.1c-0.2,0.2-0.4,0.3-0.7,0.3H10.2z"/>
			<path class="st8" d="M36.1,19.9c1.7,0,2.7,0.8,2.1,2.1l-4,10.5c-0.2,0.2-0.2,0.2-0.4,0.2H11l0.6-1.3l3.8-9.8
				c0.4-1,1.5-1.7,2.9-1.7h13.2h1.3H36.1 M36.1,18.9h-3.3h-1.3H18.3c-1.7,0-3.2,1-3.8,2.4L10.6,31l-0.6,1.3l-0.6,1.4H11h22.8
				c0.5,0,0.8-0.1,1.1-0.5l0.2-0.2l0.1-0.2l4-10.5c0.5-1.1,0.1-1.9-0.1-2.3C38.6,19.5,37.8,18.9,36.1,18.9L36.1,18.9z"/>
		</g>
	</g>
</g> -->
</svg>
