<?xml version="1.0" encoding="utf-8"?>
<!-- Generator: Adobe Illustrator 25.2.3, SVG Export Plug-In . SVG Version: 6.00 Build 0)  -->
<svg height="30px" width="30px" version="1.1" id="Layer_1" xmlns="http://www.w3.org/2000/svg" xmlns:xlink="http://www.w3.org/1999/xlink" x="0px" y="0px"
	 viewBox="0 0 29.38 29.29" style="enable-background:new 0 0 29.38 29.29;" xml:space="preserve">
<style type="text/css">
	.st0{fill-rule:evenodd;clip-rule:evenodd;fill:#FF7F15;}
	.st1{fill-rule:evenodd;clip-rule:evenodd;fill:#FFFFFF;}
</style>
<g id="Clinical_Trial">
	<circle style="fill-rule:evenodd;clip-rule:evenodd;fill:#1C75BC;" cx="10" cy="10" r="9.9"/>
	<path style="fill-rule:evenodd;clip-rule:evenodd;fill:#FFFFFF;" d="M14.3,4h-1.8v0.7c0,0.6-0.4,1-1,1H8.8c-0.6,0-1-0.4-1-1V4H6C5.4,4,5,4.4,5,5v10.9c0,0.5,0.5,1,1,1h8.3
		c0.5,0,1-0.5,1-1V5C15.3,4.4,14.8,4,14.3,4z M8.5,14.8c-0.2-0.7-0.3-1.3-0.2-2.1c0.1-0.6,0.5-1.2,0.5-1.8s-0.6-0.5-1.1-0.6
		c-0.4-0.1-1-0.4-1.2-0.8C6.3,9.1,6.5,8.8,6.9,8.7c0.3,0,0.9,0,1.2,0c0.6,0,0.6-0.2,1.1-0.3c0.3-0.1,0.6,0,0.8-0.3
		c0.1-0.3,0.2-0.6,0.3-0.9c0.5-1.4,0.8,0.8,0.9,1.2c0.4,2.4,0.6,3.7,2.3,6.1c0.1,0.1,0.2,0.2,0.3,0.3H8.5z"/>
	<path style="fill-rule:evenodd;clip-rule:evenodd;fill:#FFFFFF;" d="M11.4,5.1H8.8c-0.3,0-0.5-0.2-0.5-0.5V3.7c0-0.3,0.2-0.5,0.5-0.5h2.6c0.3,0,0.5,0.2,0.5,0.5v0.9
		C11.9,4.9,11.7,5.1,11.4,5.1z"/>
</g>
</svg>