<?xml version="1.0" encoding="utf-8"?>
<!-- Generator: Adobe Illustrator 24.0.0, SVG Export Plug-In . SVG Version: 6.00 Build 0)  -->
<svg version="1.1" id="Layer_1" xmlns="http://www.w3.org/2000/svg" xmlns:xlink="http://www.w3.org/1999/xlink" x="0px" y="0px"
	 viewBox="0 0 347.9 77.6" style="enable-background:new 0 0 347.9 77.6;" xml:space="preserve">
<style type="text/css">
	.st0{fill:#FFFFFF;}
</style>
<g>
	<path class="st0" d="M291.1,12.2c0.1-0.1,0.2-0.2,0.2-0.3C291.2,12,291.2,12.1,291.1,12.2z"/>
	<path class="st0" d="M286.3,38c2.6,1.8,5.2,3.3,7.4,5.6c0.7,0.7,1.7,0.7,2.5,0.1c2.1-1.5,3.2-3.6,3.5-6.2c0.3-2.8-0.4-5.4-1.4-7.9
		c-1.5-4-3-7.9-4.4-11.9c-0.7-1.9-1.1-4-0.6-6c0.2-1,0.7-1.9,1-2.7c-0.9,0.7-1.4,1.7-1.9,2.8c-0.5,1.8-0.5,3.6,0,5.4
		c0.6,2.3,1.4,4.5,2.1,6.8c1.2,4,2.3,8,2,12.2c-0.1,1.1-0.4,2.2-0.8,3.2c-0.3,0.8-1,0.9-1.8,0.6c-0.3-0.1-0.7-0.3-1-0.5
		c-1.3-1-2.8-2-4.1-3.1c-1.8-1.5-3.4-3.2-4.7-5.3c-0.7-1.2-1.2-2.5-0.8-3.9c0.4-1.3,0.7-2.6,1.2-3.8c0.6-1.4,1.4-2.7,2.1-4.1
		c0.1,0,0.1,0.1,0.2,0.1c0,0.8-0.1,1.6-0.1,2.4c0,0.8,0.1,1.6,0.1,2.4c0.2-2.2,0.6-4.4,1.5-6.4c0.9-1.9,1.9-3.7,2.8-5.6
		c-0.1,0.1-0.1,0.1-0.1,0.2c-1.4,1.6-2.8,3.3-4.1,5c-2.3,2.9-4.5,6-6,9.4c-0.4,0.8-0.7,1.6-0.9,2.5c-0.5,2,0.1,3.7,1.5,5
		C283,35.6,284.6,36.9,286.3,38z"/>
	<path class="st0" d="M326.1,10.4c-0.9-0.1-1.8-0.3-2.7-0.5c2.8,1.2,5.8,1.2,9.1,1.2c-0.3,0.2-0.4,0.4-0.6,0.5
		c-0.7,0.6-1.5,1.2-2.1,1.9c-1,1-0.9,2,0,3c1.1,1.1,2.4,1.6,3.9,1.5c1.1-0.1,1.7-0.7,1.6-1.8c0-0.3-0.1-0.6-0.1-0.9
		c0-0.5,0-1,0.2-1.4c0.3-0.8,1.1-0.9,1.7-0.3c0.7,0.6,0.9,1.6,0.4,2.4c-0.4,0.6-1,1.2-1.6,1.7c-0.5,0.5-0.6,0.8-0.2,1.3
		c0.7,0.9,1.7,1.2,2.8,1.3c0.2-1.2,0.4-2.4,0.6-3.6h0.1c-0.1,1.2-0.1,2.4-0.2,3.8c0.7-0.2,1.4-0.2,1.9-0.5c0.8-0.4,1-1.2,0.4-2
		c-0.7-1.1-1.1-2.3-0.8-3.6c0-0.3,0.3-0.6,0.6-0.7c0.2-0.1,0.6,0.2,0.7,0.4c0.1,0.2,0.1,0.7-0.1,0.9c-0.8,1.1-0.8,1.8,0,2.9
		c0.1-0.3,0.3-0.7,0.5-1.1c1-2.1,0.5-3.9-1.6-5.1c-1.7-0.9-3.5-1.3-5.4-1.2C332.2,10.7,329.1,10.8,326.1,10.4z"/>
	<path class="st0" d="M341.1,27c-0.5,1-1.6,0.9-2.1,0c-0.2-0.5-0.4-1-0.5-1.5c-0.1-0.9-0.2-1.7-0.3-2.7c-0.2,0.2-0.2,0.3-0.3,0.4
		c-1.4,2.2-3,4.2-5.1,5.7c-2.9,2.2-5.9,4.2-8.9,6.3c-2.2,1.5-4.7,2.3-7.3,2.5c-1.2,0.1-2.5,0.2-3.7,0.4c-0.8,0.1-1.3,0.7-1.2,1.3
		c0.1,0.7,0.7,1.4,1.5,1.4c1.1,0,2.1-0.4,3.1-1c0.4-0.3,1-0.5,1.5-0.6c2.2-0.2,4.2-0.9,5.9-2.1c2.3-1.6,4.4-3.3,6.6-5
		c1.7-1.4,3.4-2.9,5.1-4.4c0.6-0.6,1.1-0.6,1.6-0.2c1.3,1,2.1,2.3,1.7,3.9c-0.2,0.8-0.6,1.7-1.1,2.4c-0.6,0.9-1.5,1.7-2.2,2.6
		c1.6,0.9,3.2,0.7,4.5-0.8c0.6-0.9,1.2-1.9,1.5-3c1.2-3.8,1.4-7.8,1.4-11.7c0-0.1-0.1-0.1-0.1-0.2c-0.2,1.2-0.3,2.4-0.6,3.5
		C341.9,25.2,341.6,26.1,341.1,27z"/>
	<path class="st0" d="M329.9,50.8c-0.4-2.4-1.8-4.7-1.6-7.3c0-0.2-0.1-0.4-0.1-0.6c0,5.6-2.1,10.5-6.2,14.4c3.1-1.9,5.3-4.6,6.1-8.4
		c1.2,3.6,1.2,6.9,0.2,10.3C329.8,56.6,330.4,53.8,329.9,50.8z"/>
	<path class="st0" d="M326.5,40.2c2.9,1.5,6-0.3,7.6-2.8c-3.1,3.1-6.5,2.9-8.4,1.3c2-0.5,3.7-1.5,4.9-3.3c-2,1.7-2.6,2-4.5,2.6
		c-0.8,0.2-1.6,0.5-2.4,0.6c-3.7,0.6-6,3.1-7.8,6.1c0.2-0.2,0.4-0.4,0.6-0.6c1.4-1.6,2.9-3,4.9-3.9
		C323.1,39.5,324.7,39.3,326.5,40.2z"/>
	<path class="st0" d="M307.3,4c3.6-2.4,8.1-1.6,11.1,0.7c0.3,0.2,0.5,0.4,0.8,0.6c-0.1-0.3-0.3-0.5-0.5-0.7c-3-2.6-6.3-3.5-10.1-2.2
		c-1.5,0.5-2.9,1.4-4.3,2.2c-1,0.5-1.9,1-3.1,1.1C298.9,6,297,7,295.6,8.8c1.7-1.3,3.7-2.2,5.9-2.4c1.5-0.1,2.8-0.7,4.1-1.4
		C306.2,4.7,306.7,4.4,307.3,4z"/>
	<path class="st0" d="M292.9,55.1c0.9-2.8,0.8-5.6,0.4-8.5c0,6-2.2,10.8-8,13.7C288.7,60.5,291.6,58.4,292.9,55.1z"/>
	<path class="st0" d="M325.3,5.2c0.9,0.9,1.8,1.8,2.9,2.5c0.7,0.3,0.7,0.7,0.1,1.2c-0.3,0.3-0.6,0.7-0.8,1c0,0,0.1,0.1,0.1,0.2
		c1.5,0,2.9,0.1,4.6,0.2c-0.3-0.5-0.4-0.9-0.7-1.1c-0.6-1-1.5-1.6-2.5-2.2c-0.7-0.4-1.4-0.8-1.9-1.4c-2.5-2.6-5.7-2.7-8.8-2.8
		c1.6,0.3,3.3,0.6,4.9,1.1C324,4.1,324.8,4.6,325.3,5.2z"/>
	<path class="st0" d="M304.2,17.5c1.8,0.6,3.5,0,5.2-0.7c-2.5,0.5-4.9,0.5-7.2-1.3C302.6,16.6,303.3,17.3,304.2,17.5z"/>
	<path class="st0" d="M309.9,4.5c-0.6-0.1-1.1,0.1-1.5,0.6c2.1,0.3,2.1,0.3,3.3,1.3C311.4,5.5,310.5,4.6,309.9,4.5z"/>
	<path class="st0" d="M318.2,27.6c0.1,0.2,0.4,0.5,0.6,0.5s0.5-0.3,0.6-0.5c0-0.1-0.3-0.4-0.6-0.7C318.5,27.2,318.2,27.4,318.2,27.6
		z"/>
	<path class="st0" d="M321.4,30.6c0.2,0,0.5-0.3,0.7-0.4c0-0.1,0-0.2,0-0.2c-0.2-0.2-0.5-0.4-0.7-0.4s-0.4,0.3-0.6,0.5
		C321,30.3,321.2,30.6,321.4,30.6z"/>
	<path class="st0" d="M319.6,24.2c0.3,0.1,0.5-0.2,0.9-0.4c-0.4-0.2-0.6-0.5-0.8-0.6c-0.2,0.1-0.4,0.3-0.6,0.5
		C319.3,23.9,319.4,24.2,319.6,24.2z"/>
	<path class="st0" d="M321.4,26.1c-0.2,0-0.4,0.3-0.6,0.4c0.2,0.2,0.4,0.5,0.6,0.5c0.2,0,0.4-0.3,0.8-0.5
		C321.8,26.2,321.6,26,321.4,26.1z"/>
	<path class="st0" d="M323.7,29c0.2,0,0.4-0.3,0.8-0.5c-0.4-0.2-0.6-0.4-0.8-0.4c-0.2,0.1-0.4,0.3-0.6,0.5
		C323.3,28.7,323.5,29,323.7,29z"/>
	<path class="st0" d="M325.5,27.3c0.2,0,0.4-0.2,0.6-0.3c0.1-0.1,0.1-0.2,0-0.1c-0.1-0.1-0.3-0.3-0.5-0.3c-0.1,0-0.3,0.2-0.5,0.3
		C325.2,27,325.3,27.3,325.5,27.3z"/>
	<path class="st0" d="M323.6,25.7c0.2-0.2,0.4-0.4,0.6-0.6c-0.1-0.1-0.3-0.4-0.5-0.4s-0.5,0.2-0.5,0.4
		C323.1,25.3,323.4,25.4,323.6,25.7z"/>
	<path class="st0" d="M322.3,23.2c0.1,0,0.4-0.2,0.4-0.4c0-0.1-0.3-0.3-0.5-0.6c-0.2,0.3-0.5,0.5-0.4,0.6
		C321.9,23,322.1,23.2,322.3,23.2z"/>
	<path class="st0" d="M328.1,25.3c-0.3-0.2-0.4-0.4-0.6-0.4c-0.1,0-0.3,0.2-0.4,0.3c0.1,0.1,0.3,0.4,0.4,0.4
		C327.6,25.7,327.8,25.5,328.1,25.3z"/>
	<path class="st0" d="M324.3,22.1c0.1,0.1,0.3,0.3,0.4,0.3c0.1,0,0.3-0.2,0.6-0.4c-0.3-0.2-0.5-0.3-0.6-0.3
		C324.6,21.8,324.4,22,324.3,22.1z"/>
	<path class="st0" d="M325.9,24.2c0.1,0.1,0.3-0.1,0.6-0.3c-0.3-0.2-0.5-0.4-0.5-0.4c-0.2,0-0.3,0.2-0.5,0.3
		C325.6,23.9,325.8,24.2,325.9,24.2z"/>
	<path class="st0" d="M304.7,12.6c0,0.1,0,0.2,0.1,0.3c0.9-0.7,1.7-0.3,2.6,0.1c0.2,0.1,0.4,0.2,0.6,0.2c1.2,0.2,2.3,0.2,3.1-0.9
		c0.4-0.6,0.8-1.1,1.7-0.7c-0.7-0.8-1.2-1.5-1.9-2c-0.9-0.7-1.9-0.7-2.8,0C306.9,10.6,305.8,11.6,304.7,12.6z M309.1,10.4
		c0.1-0.3,0.1-0.2,0.3-0.4c0.3,0.2,0.3,0.1,0.4,0.4c0.2,0.2,0,0.2-0.1,0.4c-0.2,0-0.4,0-0.5,0C309.1,10.4,309,10.6,309.1,10.4z
		 M310.5,11.7c-0.3,1-1.5,1.3-2.5,0.6C309,12.6,309.8,12.4,310.5,11.7z"/>
	<ellipse transform="matrix(0.9871 -0.1602 0.1602 0.9871 -3.7703 3.2337)" class="st0" cx="18.2" cy="25" rx="5.3" ry="5.3"/>
	<ellipse transform="matrix(0.9871 -0.1602 0.1602 0.9871 -3.4733 6.9178)" class="st0" cx="41.2" cy="25" rx="5.3" ry="5.3"/>
	<ellipse transform="matrix(0.9871 -0.1602 0.1602 0.9871 -10.3377 3.7631)" class="st0" cx="18.2" cy="66" rx="5.3" ry="5.3"/>
	<ellipse transform="matrix(0.9871 -0.1602 0.1602 0.9871 -10.0408 7.4473)" class="st0" cx="41.2" cy="66" rx="5.3" ry="5.3"/>
	<circle class="st0" cx="7.5" cy="45.5" r="5.3"/>
	<ellipse transform="matrix(0.3827 -0.9239 0.9239 0.3827 -10.0174 76.0128)" class="st0" cx="51.9" cy="45.5" rx="5.3" ry="5.3"/>
	<path class="st0" d="M29.6,28.1c-2,0-3.6,1.6-3.6,3.6s1.6,3.6,3.6,3.6s3.6-1.6,3.6-3.6S31.6,28.1,29.6,28.1z"/>
	<path class="st0" d="M29.6,55.3c-2,0-3.6,1.6-3.6,3.6s1.6,3.6,3.6,3.6s3.6-1.6,3.6-3.6S31.6,55.3,29.6,55.3z"/>
	<path class="st0" d="M41.2,41.9c2,0,3.6-1.6,3.6-3.6s-1.6-3.6-3.6-3.6s-3.6,1.6-3.6,3.6S39.2,41.9,41.2,41.9z"/>
	<path class="st0" d="M18.2,41.9c2,0,3.6-1.6,3.6-3.6s-1.6-3.6-3.6-3.6s-3.6,1.6-3.6,3.6S16.2,41.9,18.2,41.9z"/>
	<path class="st0" d="M41.2,56.1c2,0,3.6-1.6,3.6-3.6s-1.6-3.6-3.6-3.6s-3.6,1.6-3.6,3.6S39.2,56.1,41.2,56.1z"/>
	<path class="st0" d="M18.2,56.1c2,0,3.6-1.6,3.6-3.6s-1.6-3.6-3.6-3.6s-3.6,1.6-3.6,3.6S16.2,56.1,18.2,56.1z"/>
	<circle class="st0" cx="29.6" cy="17.2" r="2.5"/>
	<circle class="st0" cx="29.6" cy="73.9" r="2.5"/>
	<circle class="st0" cx="53.9" cy="31.1" r="2.5"/>
	<circle class="st0" cx="53.9" cy="59.4" r="2.5"/>
	<circle class="st0" cx="5.6" cy="31.1" r="2.5"/>
	<circle class="st0" cx="5.6" cy="59.4" r="2.5"/>
	<rect x="73" y="48.3" class="st0" width="199.4" height="2.2"/>
	<polygon class="st0" points="70.1,62.9 71.5,63.2 71.5,72.3 70.1,72.6 70.1,74 74.9,74 74.9,72.6 73.5,72.3 73.5,63.2 74.9,62.9 
		74.9,61.6 70.1,61.6 	"/>
	<path class="st0" d="M81.5,64.4c-0.7,0-1.3,0.2-1.8,0.4c-0.4,0.1-0.7,0.4-1,0.8l-0.2-1h-1.7v9.5h2v-4.8c0-1.1,0.2-1.9,0.5-2.3
		c0.4-0.5,1-0.7,1.8-0.7c0.7,0,1.1,0.1,1.3,0.4c0.3,0.3,0.4,0.8,0.4,1.4v6h2v-6c0-1.1-0.3-2.1-0.9-2.7
		C83.5,64.7,82.6,64.4,81.5,64.4z"/>
	<path class="st0" d="M91.7,72.2c-0.1,0-0.2,0-0.3,0l-0.1,0c-0.3,0.1-0.4,0.1-0.6,0.1c-0.4,0-0.7-0.1-0.8-0.2
		c-0.2-0.2-0.3-0.5-0.3-1v-5h2.6v-1.6h-2.6v-2.1h-1.2l-0.6,2L86.3,65v1h1.3v5c0,2.1,0.9,3,2.9,3c0.3,0,0.6,0,1-0.1
		c0.1,0,0.2-0.1,0.3-0.1c0.2,0,0.3-0.1,0.4-0.2l0.1-0.1v-1.5H92C91.8,72.2,91.8,72.2,91.7,72.2z"/>
	<path class="st0" d="M97.6,64.3c-1.3,0-2.4,0.5-3.1,1.4c-0.7,0.9-1.2,2.1-1.2,3.6c0,1.7,0.4,2.8,1.2,3.6c0.8,0.8,2,1.3,3.4,1.3
		c0.4,0,0.7-0.1,1.1-0.1c0.2,0,0.5-0.1,0.6-0.1c0.4,0,1-0.2,1.5-0.4l0.2-0.1v-1.9l-0.4,0.2c-0.5,0.2-0.9,0.4-1.3,0.4l-0.1,0
		c-0.5,0.1-0.9,0.1-1.4,0.1c-0.8,0-1.4-0.2-1.9-0.7c-0.4-0.4-0.7-1.1-0.7-1.9h6.1v-1.2c0-1.3-0.4-2.4-1.1-3.1
		C99.7,64.6,98.7,64.3,97.6,64.3z M99.4,68.2h-4.1c0-0.5,0.3-1,0.6-1.5c0.3-0.4,0.8-0.6,1.5-0.6c0.6,0,1.1,0.2,1.4,0.6
		C99.2,67,99.4,67.5,99.4,68.2z"/>
	<path class="st0" d="M109.6,65.5c-0.7-0.8-1.6-1.2-2.7-1.2c-1.2,0-2.1,0.4-2.9,1.3c-0.7,0.8-1.1,2-1.1,3.6c0,1.6,0.3,2.7,1,3.6
		c0.6,0.9,1.6,1.3,2.9,1.3c1.2,0,2-0.3,2.6-1v0.8c0,0.7-0.2,1.3-0.6,1.7c-0.3,0.4-0.8,0.6-1.6,0.6c-1.3,0-2.4-0.2-3.2-0.7l-0.4-0.2
		v2l0.1,0.1c0.8,0.4,1.9,0.6,3.3,0.6c1.3,0,2.5-0.4,3.2-1.1c0.7-0.7,1.1-1.7,1.1-3.1v-9.4h-1.7L109.6,65.5z M109,66.8
		c0.4,0.4,0.5,1.3,0.5,2.4v0.4c0,1-0.2,1.7-0.5,2.1c-0.3,0.4-0.9,0.6-1.8,0.6c-0.8,0-1.2-0.2-1.5-0.7l0-0.1
		c-0.4-0.4-0.5-1.3-0.5-2.3c0-1,0.2-1.8,0.6-2.4c0.4-0.6,0.8-0.8,1.5-0.8C108,66.1,108.6,66.3,109,66.8z"/>
	<path class="st0" d="M118.5,64.4c-0.4,0-1,0.1-1.6,0.5c-0.4,0.2-0.7,0.5-1,0.9l-0.2-1.2H114v9.5h2v-5c0-0.5,0.1-0.9,0.3-1.4
		c0.3-0.5,0.6-0.8,0.9-1c0.3-0.2,0.7-0.4,1.2-0.4c0.3,0,0.7,0,0.9,0.1l0.3,0.1l0.3-1.9l-0.2-0.1C119.2,64.4,118.9,64.4,118.5,64.4z"
		/>
	<path class="st0" d="M124.8,64.2c-0.4,0-1,0.1-1.7,0.2c-0.4,0.1-0.7,0.3-1,0.4c-0.2,0.1-0.3,0.1-0.5,0.2l-0.2,0.1l0.5,1.3l0.1,0.3
		l0.3-0.1c0.4-0.2,0.8-0.4,1.1-0.5c0.4-0.1,0.8-0.2,1.2-0.2c0.5,0,1,0.2,1.2,0.4c0.2,0.2,0.3,0.6,0.3,1.3v0.3l-1.3,0.1
		c-3,0.1-4.5,1.2-4.5,3.2c0,0.9,0.3,1.6,0.9,2.2c0.5,0.5,1.3,0.8,2.3,0.8c0.8,0,1.4-0.1,1.8-0.3c0.3-0.2,0.8-0.4,1.1-0.9l0.7,3v-2.1
		h1.1v-6.3c0-1.1-0.3-1.9-0.9-2.5C126.8,64.4,126,64.2,124.8,64.2z M126.2,69.6v0.5c0,0.6-0.1,1.3-0.6,1.7c-0.4,0.5-1.1,0.6-1.7,0.6
		c-0.3,0-0.6-0.1-0.9-0.2c-0.1,0-0.1,0-0.2-0.1c-0.2-0.2-0.3-0.5-0.3-0.9c0-0.6,0.2-0.9,0.6-1.2c0.4-0.3,1.2-0.5,2.1-0.5L126.2,69.6
		z"/>
	<path class="st0" d="M133,62.5h-1.3l-0.6,2l-1.3,0.6v1h1.3v5c0,2.1,0.9,3,2.9,3c0.3,0,0.6,0,1-0.1c0.1,0,0.2-0.1,0.3-0.1
		c0.2,0,0.3-0.1,0.4-0.2l0.1-0.1v-1.5h-0.2c-0.1,0-0.2,0-0.3,0.1c-0.1,0-0.2,0-0.3,0l-0.1,0c-0.3,0.1-0.4,0.1-0.6,0.1
		c-0.6,0-0.7-0.1-0.7-0.2l0-0.1c-0.2-0.2-0.3-0.5-0.3-1v-5h2.6v-1.6H133V62.5z"/>
	<path class="st0" d="M140.9,64.3c-1.3,0-2.4,0.5-3.1,1.4c-0.7,0.9-1.2,2.1-1.2,3.6c0,1.7,0.4,2.8,1.2,3.6c0.8,0.8,2,1.3,3.4,1.3
		c0.6,0,1.1,0,1.7-0.2c0.4,0,1-0.2,1.5-0.4l0.2-0.1v-1.9l-0.4,0.2c-0.6,0.3-1,0.4-1.4,0.5c-0.5,0.1-0.9,0.1-1.4,0.1
		c-0.8,0-1.4-0.2-1.9-0.7c-0.4-0.4-0.7-1.1-0.7-1.9h6.1v-1.2c0-1.3-0.4-2.4-1.1-3.1C143,64.6,142,64.3,140.9,64.3z M142.7,68.2h-4.1
		c0-0.5,0.3-1,0.6-1.5c0.3-0.4,0.8-0.6,1.5-0.6c0.6,0,1.1,0.2,1.4,0.6C142.5,67,142.7,67.5,142.7,68.2z"/>
	<path class="st0" d="M152.8,64.5l0,0.8c0,0,0,0,0,0c-0.7-0.6-1.5-0.9-2.6-0.9c-1.2,0-2.3,0.5-2.9,1.3c-0.7,0.8-1.1,2-1.1,3.6
		c0,1.4,0.4,2.6,1,3.6c0.6,0.9,1.6,1.3,2.9,1.3c1.2,0,2-0.4,2.7-1.2l0.2,1h1.7V60.7h-2V64.5z M152.3,66.6c0.4,0.6,0.6,1.4,0.6,2.6
		v0.3c0,1-0.2,1.8-0.5,2.2c-0.4,0.4-1,0.6-1.8,0.6c-0.7,0-1.1-0.2-1.6-0.8c-0.4-0.6-0.6-1.3-0.6-2.4c0-1.1,0.2-1.9,0.5-2.4
		c0.5-0.6,0.9-0.8,1.6-0.8C151.3,66,151.9,66.2,152.3,66.6z"/>
	<path class="st0" d="M167.6,63.2c1,0,1.8,0.2,2.7,0.8l0.2,0.1l0.8-1.8l-0.2-0.1c-0.9-0.5-2-0.7-3.4-0.7c-1.2,0-2.2,0.3-3.2,0.8
		c-0.9,0.5-1.5,1.2-2.1,2.2c-0.5,0.9-0.7,2-0.7,3.3c0,1.9,0.5,3.5,1.5,4.7c1,1.1,2.4,1.7,4.3,1.7c0.6,0,1.1,0,1.6-0.1
		c0.5-0.1,1-0.2,1.5-0.4l0.2-0.1v-1.8l-0.3,0.1c-1.2,0.3-2.1,0.5-2.8,0.5c-1.1,0-2.1-0.4-2.8-1.2c-0.7-0.9-1-2.1-1-3.4
		c0-1.4,0.3-2.4,1-3.3C165.4,63.5,166.3,63.2,167.6,63.2z"/>
	<path class="st0" d="M176.6,64.2c-0.4,0-1,0.1-1.7,0.2c-0.4,0.1-0.7,0.3-1,0.4c-0.2,0.1-0.3,0.1-0.5,0.2l-0.2,0.1l0.5,1.3l0.1,0.3
		l0.3-0.1c0.4-0.2,0.8-0.4,1.1-0.5c0.4-0.1,0.8-0.2,1.2-0.2c0.5,0,1,0.2,1.2,0.4c0.2,0.2,0.3,0.6,0.3,1.3v0.3l-1.3,0.1
		c-3,0.1-4.5,1.2-4.5,3.2c0,0.9,0.3,1.6,0.9,2.2c0.5,0.5,1.3,0.8,2.3,0.8c0.8,0,1.4-0.1,1.8-0.3c0.3-0.2,0.8-0.4,1.1-0.9l0.7,3v-2.1
		h1.1v-6.3c0-1.1-0.3-1.9-0.9-2.5C178.6,64.4,177.8,64.2,176.6,64.2z M178,69.6v0.5c0,0.6-0.1,1.3-0.6,1.7c-0.4,0.5-1.1,0.6-1.7,0.6
		c-0.4,0-0.6-0.1-0.9-0.2c-0.1,0-0.1,0-0.2-0.1c-0.2-0.2-0.3-0.5-0.3-0.9c0-0.6,0.2-0.9,0.6-1.2c0.4-0.3,1.2-0.5,2.1-0.5L178,69.6z"
		/>
	<path class="st0" d="M187.3,64.4c-0.7,0-1.3,0.2-1.8,0.4c-0.4,0.1-0.7,0.4-1,0.8l-0.2-1h-1.7v9.5h2v-4.8c0-1.1,0.2-1.9,0.5-2.3
		c0.4-0.5,1-0.7,1.8-0.7c0.7,0,1.1,0.1,1.3,0.4c0.3,0.3,0.4,0.8,0.4,1.4v6h2v-6c0-1.1-0.3-2.1-0.9-2.7
		C189.3,64.7,188.4,64.4,187.3,64.4z"/>
	<path class="st0" d="M194.9,61.4c-0.2-0.1-0.5-0.2-0.7-0.2c-0.3,0-0.5,0.1-0.7,0.2l-0.1,0c-0.2,0.2-0.3,0.5-0.3,0.9
		s0.1,0.7,0.3,0.9c0.2,0.2,0.5,0.3,0.8,0.3c0.2,0,0.5,0,0.7-0.2c0.3-0.2,0.4-0.6,0.4-0.9C195.3,62,195.2,61.5,194.9,61.4z"/>
	<rect x="193.2" y="64.5" class="st0" width="2" height="9.5"/>
	<path class="st0" d="M202.5,64.4c-0.7,0-1.3,0.2-1.8,0.4c-0.4,0.1-0.7,0.4-1,0.8l-0.2-1h-1.7v9.5h2v-4.8c0-1.1,0.2-1.9,0.5-2.3
		c0.4-0.5,1-0.7,1.8-0.7c0.7,0,1.1,0.1,1.3,0.4c0.3,0.3,0.4,0.8,0.4,1.4v6h2v-6c0-1.1-0.3-2.1-0.9-2.7
		C204.5,64.7,203.6,64.4,202.5,64.4z"/>
	<path class="st0" d="M212.2,64.3c-1.3,0-2.4,0.5-3.1,1.4c-0.7,0.9-1.2,2.1-1.2,3.6c0,1.7,0.4,2.8,1.2,3.6c0.8,0.8,2,1.3,3.4,1.3
		c0.6,0,1.1,0,1.7-0.2c0.4,0,1-0.2,1.5-0.4l0.2-0.1v-1.9l-0.4,0.2c-0.5,0.2-0.9,0.4-1.3,0.4l-0.1,0c-0.5,0.1-0.9,0.1-1.4,0.1
		c-0.8,0-1.4-0.2-1.9-0.7c-0.4-0.4-0.7-1.1-0.7-1.9h6.1v-1.2c0-1.3-0.4-2.4-1.1-3.1C214.3,64.6,213.3,64.3,212.2,64.3z M210,68.2
		c0-0.5,0.3-1,0.6-1.5c0.3-0.4,0.8-0.6,1.5-0.6c0.6,0,1.1,0.2,1.4,0.6c0.3,0.3,0.5,0.8,0.5,1.5H210z"/>
	<path class="st0" d="M227,61.6h-4V74h3.5c1.9,0,3.6-0.6,4.8-1.7c1.1-1,1.7-2.6,1.7-4.7c0-2-0.5-3.4-1.6-4.5
		C230.4,62.1,228.9,61.6,227,61.6z M225,72.3v-8.9h1.8c1.5,0,2.6,0.4,3.2,1.1c0.7,0.7,1,1.8,1,3.2c0,2.9-1.6,4.5-4.7,4.5H225z"/>
	<path class="st0" d="M239,64.2c-0.4,0-1,0.1-1.7,0.2c-0.4,0.1-0.7,0.3-1,0.4c-0.2,0.1-0.3,0.1-0.5,0.2l-0.2,0.1l0.5,1.3l0.1,0.3
		l0.3-0.1c0.4-0.2,0.8-0.4,1.1-0.5c0.4-0.1,0.8-0.2,1.2-0.2c0.5,0,1,0.2,1.2,0.4c0.2,0.2,0.3,0.6,0.3,1.3v0.3l-1.3,0.1
		c-3,0.1-4.5,1.2-4.5,3.2c0,0.9,0.3,1.6,0.9,2.2c0.5,0.5,1.3,0.8,2.3,0.8c0.8,0,1.4-0.1,1.8-0.3c0.3-0.2,0.8-0.4,1.1-0.8l0.7,3v-2.1
		h1.1v-6.3c0-1.1-0.3-1.9-0.9-2.5C241,64.4,240.2,64.2,239,64.2z M240.4,69.6v0.5c0,0.6-0.1,1.3-0.6,1.7c-0.4,0.5-1.1,0.6-1.7,0.6
		c-0.5,0-0.8,0-1-0.2c-0.2-0.2-0.3-0.5-0.3-0.9c0-0.6,0.2-0.9,0.6-1.2c0.4-0.3,1.2-0.5,2.1-0.5L240.4,69.6z"/>
	<path class="st0" d="M247.1,62.5h-1.3l-0.6,2l-1.3,0.6v1h1.3v5c0,2.1,0.9,3,2.9,3c0.3,0,0.6,0,1-0.1c0.1,0,0.2-0.1,0.3-0.1
		c0.2,0,0.3-0.1,0.4-0.2l0.1-0.1v-1.5h-0.2c-0.1,0-0.2,0-0.3,0.1c-0.1,0-0.2,0-0.3,0l-0.1,0c-0.3,0.1-0.4,0.1-0.6,0.1
		c-0.3,0-0.6-0.1-0.7-0.2c-0.2-0.2-0.3-0.5-0.3-1v-5h2.6v-1.6h-2.6V62.5z"/>
	<path class="st0" d="M255,64.2c-0.4,0-1,0.1-1.7,0.2c-0.4,0.1-0.7,0.3-1,0.4c-0.2,0.1-0.3,0.1-0.5,0.2l-0.2,0.1l0.5,1.3l0.1,0.3
		l0.3-0.1c0.4-0.2,0.8-0.4,1.1-0.5c0.4-0.1,0.8-0.2,1.2-0.2c0.5,0,1,0.2,1.2,0.4c0.2,0.2,0.3,0.6,0.3,1.3v0.3l-1.3,0.1
		c-3,0.1-4.5,1.2-4.5,3.2c0,0.9,0.3,1.6,0.9,2.2c0.5,0.5,1.3,0.8,2.3,0.8c0.8,0,1.4-0.1,1.8-0.3c0.3-0.2,0.8-0.4,1.1-0.8l0.7,3v-2.1
		h1.1v-6.3c0-1.1-0.3-1.9-0.9-2.5C257,64.4,256.2,64.2,255,64.2z M256.4,69.6v0.5c0,0.6-0.1,1.3-0.6,1.7c-0.4,0.5-1.1,0.6-1.7,0.6
		c-0.5,0-0.8,0-1-0.2c-0.2-0.2-0.3-0.5-0.3-0.9c0-0.6,0.2-0.9,0.6-1.2c0.4-0.3,1.2-0.5,2.1-0.5L256.4,69.6z"/>
	<path class="st0" d="M271.2,63.2c1,0,1.8,0.2,2.7,0.8l0.2,0.1l0.8-1.8l-0.2-0.1c-0.9-0.5-2-0.7-3.4-0.7c-1.2,0-2.2,0.3-3.2,0.8
		c-0.9,0.5-1.5,1.2-2.1,2.2c-0.5,0.9-0.7,2-0.7,3.3c0,1.9,0.5,3.5,1.5,4.7c1,1.1,2.4,1.7,4.3,1.7c0.6,0,1.1,0,1.6-0.1
		c0.5-0.1,1-0.2,1.5-0.4l0.2-0.1v-1.8l-0.3,0.1c-1.2,0.3-2.1,0.5-2.8,0.5c-1.1,0-2.1-0.4-2.8-1.2c-0.7-0.9-1-2.1-1-3.4
		c0-1.4,0.3-2.4,1-3.3C269,63.5,269.9,63.2,271.2,63.2z"/>
	<path class="st0" d="M280.4,64.3c-1.4,0-2.6,0.4-3.3,1.3c-0.8,0.9-1.2,2.1-1.2,3.6c0,0.9,0.2,1.8,0.5,2.6c0.3,0.7,0.8,1.2,1.5,1.7
		c0.8,0.4,1.5,0.6,2.3,0.6c1.4,0,2.6-0.4,3.3-1.3c0.8-0.9,1.2-2.1,1.2-3.6c0-1.6-0.4-2.8-1.2-3.7C282.8,64.7,281.7,64.3,280.4,64.3z
		 M282.8,69.2c0,1-0.2,1.8-0.7,2.5c-0.4,0.5-0.9,0.8-1.7,0.8c-0.6,0-1.4-0.1-1.8-0.8c-0.4-0.5-0.6-1.3-0.6-2.4
		c0-2.2,0.7-3.2,2.3-3.2c0.6,0,1.4,0.1,1.8,0.8C282.6,67.3,282.8,68.1,282.8,69.2z"/>
	<path class="st0" d="M297,64.2c-0.7,0-1.3,0.1-1.8,0.4c-0.4,0.3-0.8,0.5-1.1,0.9c-0.5-0.9-1.4-1.3-2.8-1.3c-0.6,0-1.2,0.2-1.7,0.4
		c-0.4,0.2-0.7,0.4-0.9,0.7l-0.2-1h-1.7v9.5h2V69c0-1.1,0.2-1.9,0.5-2.3c0.4-0.5,0.9-0.7,1.6-0.7c0.6,0,1,0.1,1.2,0.4
		c0.2,0.3,0.4,0.8,0.4,1.4v6.1h2v-5.2c0-0.9,0.2-1.6,0.5-2c0.3-0.4,0.8-0.6,1.6-0.6c1.1,0,1.5,0.6,1.5,1.9v5.8h0.2h0h0v0h1.8v-6
		c0-1.1-0.3-2.1-0.9-2.7C298.9,64.5,298,64.2,297,64.2z"/>
	<path class="st0" d="M313,64.2c-0.7,0-1.3,0.1-1.8,0.4c-0.4,0.3-0.8,0.5-1.1,0.9c-0.5-0.9-1.4-1.3-2.8-1.3c-0.6,0-1.2,0.2-1.7,0.4
		c-0.4,0.2-0.7,0.4-0.9,0.7l-0.2-1h-1.7v9.5h2V69c0-1.1,0.2-1.9,0.5-2.3c0.4-0.5,0.9-0.7,1.6-0.7c0.6,0,1,0.1,1.2,0.4
		c0.2,0.3,0.4,0.8,0.4,1.4v6.1h2v-5.2c0-0.9,0.2-1.6,0.5-2c0.3-0.4,0.8-0.6,1.6-0.6c1.1,0,1.5,0.6,1.5,1.9v5.8h0.2h0h0v0h1.8v-6
		c0-1.1-0.3-2.1-0.9-2.7C314.9,64.5,314,64.2,313,64.2z"/>
	<path class="st0" d="M322.7,64.3c-1.4,0-2.6,0.4-3.3,1.3c-0.8,0.9-1.2,2.1-1.2,3.6c0,0.9,0.2,1.8,0.5,2.6c0.3,0.7,0.8,1.2,1.5,1.7
		c0.8,0.4,1.5,0.6,2.3,0.6c1.4,0,2.6-0.4,3.3-1.3c0.8-0.9,1.2-2.1,1.2-3.6c0-1.4-0.4-2.7-1.2-3.7C325.1,64.7,324,64.3,322.7,64.3z
		 M325,69.2c0,1-0.2,1.8-0.7,2.5c-0.4,0.5-0.9,0.8-1.7,0.8c-0.6,0-1.4-0.1-1.8-0.8c-0.4-0.5-0.6-1.3-0.6-2.4c0-2.1,0.8-3.2,2.3-3.2
		c0.6,0,1.4,0.1,1.8,0.8C324.8,67.3,325,68.1,325,69.2z"/>
	<path class="st0" d="M333.8,64.4c-0.7,0-1.3,0.2-1.8,0.4c-0.4,0.1-0.7,0.4-1,0.8l-0.2-1h-1.7v9.5h2v-4.8c0-1.1,0.2-1.9,0.5-2.3
		c0.4-0.5,1-0.7,1.8-0.7c0.7,0,1.1,0.1,1.3,0.4c0.3,0.3,0.4,0.8,0.4,1.4v6h2v-6c0-1.1-0.3-2.1-0.9-2.7
		C335.8,64.7,334.9,64.4,333.8,64.4z"/>
	<path class="st0" d="M345.9,70L345.9,70c-0.2-0.4-0.5-0.7-0.9-0.9c-0.3-0.2-0.8-0.4-1.3-0.6c-0.2-0.1-0.3-0.1-0.5-0.2
		c-1.2-0.5-1.7-0.7-1.9-0.9c-0.2-0.1-0.3-0.3-0.3-0.6c0-0.2,0.1-0.4,0.4-0.6c0.2-0.2,0.7-0.3,1.3-0.3c0.7,0,1.5,0.2,2.4,0.6l0.2,0.1
		l0.7-1.7l-0.2-0.1c-0.9-0.4-2-0.6-3-0.6c-1.1,0-2,0.2-2.6,0.6c-0.7,0.4-1,1.1-1,1.9c0,0.5,0,0.9,0.2,1.2c0.2,0.3,0.5,0.7,0.9,0.9
		c0.4,0.2,1,0.5,1.8,0.8c0.8,0.3,1.4,0.6,1.6,0.8c0.3,0.2,0.4,0.4,0.4,0.7c0,0.3-0.2,0.6-0.4,0.8c-0.1,0.1-0.5,0.3-1.4,0.3
		c-0.9,0-1.8-0.2-2.7-0.7l-0.4-0.2v1.8l0.1,0.1c0.7,0.4,1.7,0.6,2.9,0.6c1.2,0,2.1-0.2,2.7-0.7c0.6-0.4,1-1.2,1-2.1
		C346.1,70.8,346.1,70.4,345.9,70z"/>
	<rect x="72.8" y="17.9" class="st0" width="3.4" height="23.2"/>
	<path class="st0" d="M91.4,41.4c5.4,0,8.4-3,9.4-7h-3.3c-0.8,2.1-2.3,4.2-5.8,4.2c-5.2,0-7.1-4.7-7.1-9.1c0-4.6,2-9.1,6.9-9.1
		c3.5,0,5.1,1.9,5.9,4.3h3.4c-0.6-3.9-3.6-7.1-9.2-7.1c-7.2,0-10.7,5.7-10.7,12C80.9,36.1,84.4,41.4,91.4,41.4z"/>
	<path class="st0" d="M113.6,41.1c6.8,0,11.1-5,11.1-11.8c0-7-4.4-11.4-11-11.4h-8.5l0.1,23.2H113.6z M108.7,20.8h4.7
		c5.4,0,7.7,4.1,7.7,8.5c0,5.1-2.4,8.9-7.7,8.9h-4.7V20.8z"/>
	<path class="st0" d="M138.6,41.4c5.4,0,8.4-3,9.4-7h-3.3c-0.8,2.1-2.3,4.2-5.8,4.2c-5.2,0-7.1-4.7-7.1-9.1c0-4.6,2-9.1,6.9-9.1
		c3.5,0,5.1,1.9,5.9,4.3h3.4c-0.6-3.9-3.6-7.1-9.2-7.1c-7.2,0-10.7,5.7-10.7,12C128.1,36.1,131.6,41.4,138.6,41.4z"/>
</g>
</svg>
