<?xml version="1.0" encoding="utf-8"?>
<!-- Generator: Adobe Illustrator 24.0.0, SVG Export Plug-In . SVG Version: 6.00 Build 0)  -->
<svg version="1.1" id="Layer_1" xmlns="http://www.w3.org/2000/svg" xmlns:xlink="http://www.w3.org/1999/xlink" x="0px" y="0px"
	 viewBox="0 0 972 117" style="enable-background:new 0 0 972 117;" xml:space="preserve">
<style type="text/css">
	.st0{fill:#5E5F5F;}
	.st1{fill:#BA1F40;}
	.st2{fill:none;}
	.st3{enable-background:new    ;}
</style>
<g>
	<path class="st0" d="M157.4,58.5l-29.9,53.9H17.8c-5.5,0-9.9-4.4-9.9-9.9v-88c0-5.5,4.4-9.9,9.9-9.9h109.7L157.4,58.5L157.4,58.5z
		 M63.7,82.7V34.5h-8V70h-0.1l-22-35.5l0,0h-8.9l0,0v48.2l0,0h8V47.3h0.2l21.9,35.4H63.7L63.7,82.7L63.7,82.7z M80.4,82.7V34.5H72
		v48.2H80.4L80.4,82.7L80.4,82.7z M127.7,34.5h-8.4l0,0v19.2h-22V34.5h-8.4v48.2h8.4V61h21.9v21.7l0,0h8.4L127.7,34.5L127.7,34.5z"
		/>
	<path class="st1" d="M135,112.4l29.9-53.9L135.1,4.6h7.5c4.1,0,9,2.9,11,6.5l26.2,47.3l-26.3,47.4c-2,3.6-6.9,6.5-11,6.5L135,112.4
		L135,112.4z"/>
</g>
<rect x="203.2" y="18.5" class="st2" width="471.9" height="28"/>
<g class="st3">
	<path class="st1" d="M219.4,42l-8.8-14.4h-0.1l0.1,14.4h-5.1V20h6l8.8,14.3h0.1L220.3,20h5.1V42H219.4z"/>
	<path class="st1" d="M244.8,42l-1.7-4.3h-8.5L233,42h-5.8l9.2-21.9h5.1l9.1,21.9H244.8z M238.9,25.9l-2.8,7.5h5.5L238.9,25.9z"/>
	<path class="st1" d="M260.1,24.5V42h-5.3V24.5h-6.2V20h17.7v4.5H260.1z"/>
	<path class="st1" d="M268.7,42V20h5.3V42H268.7z"/>
	<path class="st1" d="M301.4,30.9c0,1.7-0.3,3.3-0.9,4.8c-0.6,1.4-1.4,2.7-2.5,3.7c-1.1,1-2.3,1.8-3.8,2.4c-1.5,0.6-3.1,0.8-4.8,0.8
		s-3.3-0.3-4.8-0.8s-2.7-1.3-3.8-2.4c-1.1-1-1.9-2.3-2.5-3.7c-0.6-1.4-0.9-3-0.9-4.8c0-1.8,0.3-3.3,0.9-4.8c0.6-1.4,1.4-2.6,2.5-3.6
		c1.1-1,2.3-1.8,3.8-2.3c1.5-0.5,3-0.8,4.8-0.8s3.3,0.3,4.8,0.8c1.5,0.5,2.7,1.3,3.8,2.3c1.1,1,1.9,2.2,2.5,3.6
		C301.1,27.6,301.4,29.1,301.4,30.9z M295.8,30.9c0-1-0.2-1.8-0.5-2.7c-0.3-0.8-0.7-1.5-1.3-2.1c-0.5-0.6-1.2-1.1-2-1.4
		c-0.8-0.3-1.6-0.5-2.6-0.5c-0.9,0-1.8,0.2-2.5,0.5c-0.8,0.3-1.4,0.8-2,1.4s-1,1.3-1.3,2.1c-0.3,0.8-0.4,1.7-0.4,2.7
		c0,1,0.2,1.9,0.5,2.7s0.7,1.6,1.3,2.2c0.5,0.6,1.2,1.1,2,1.4s1.6,0.5,2.5,0.5c0.9,0,1.8-0.2,2.5-0.5s1.4-0.8,2-1.4
		c0.6-0.6,1-1.3,1.3-2.2S295.8,31.9,295.8,30.9z"/>
	<path class="st1" d="M318.9,42L310,27.6h-0.1l0.1,14.4h-5.1V20h6l8.8,14.3h0.1L319.7,20h5.1V42H318.9z"/>
	<path class="st1" d="M344.3,42l-1.7-4.3h-8.5l-1.6,4.3h-5.8l9.2-21.9h5.1l9.1,21.9H344.3z M338.4,25.9l-2.8,7.5h5.5L338.4,25.9z"/>
	<path class="st1" d="M352,42V20h5.3v17.3h8.5V42H352z"/>
	<path class="st1" d="M391,41.6c-1.4,0.7-3.1,1-4.9,1c-1.7,0-3.3-0.3-4.7-0.8c-1.4-0.6-2.7-1.3-3.7-2.4c-1.1-1-1.9-2.2-2.5-3.7
		c-0.6-1.4-0.9-3-0.9-4.7c0-1.8,0.3-3.3,0.9-4.8c0.6-1.4,1.5-2.6,2.5-3.6c1.1-1,2.3-1.8,3.8-2.3c1.4-0.5,3-0.8,4.7-0.8
		c1.6,0,3.1,0.3,4.6,0.8c1.5,0.5,2.7,1.3,3.6,2.4l-3.6,3.6c-0.5-0.7-1.1-1.2-2-1.5c-0.8-0.3-1.6-0.5-2.5-0.5c-0.9,0-1.8,0.2-2.6,0.5
		c-0.8,0.3-1.4,0.8-2,1.4s-1,1.3-1.3,2.1c-0.3,0.8-0.5,1.7-0.5,2.7c0,1,0.2,1.9,0.5,2.7c0.3,0.8,0.7,1.5,1.3,2.1
		c0.5,0.6,1.2,1,2,1.4c0.8,0.3,1.6,0.5,2.5,0.5c1.1,0,2-0.2,2.8-0.6c0.8-0.4,1.4-1,1.9-1.6l3.7,3.5C393.7,40,392.5,40.9,391,41.6z"
		/>
	<path class="st1" d="M411.4,42l-1.7-4.3h-8.5l-1.6,4.3h-5.8L403,20h5.1l9.1,21.9H411.4z M405.5,25.9l-2.8,7.5h5.5L405.5,25.9z"/>
	<path class="st1" d="M433.1,42l-8.8-14.4h-0.1l0.1,14.4h-5.1V20h6l8.8,14.3h0.1L433.9,20h5.1V42H433.1z"/>
	<path class="st1" d="M459.3,41.6c-1.4,0.7-3.1,1-4.9,1c-1.7,0-3.3-0.3-4.7-0.8s-2.7-1.3-3.7-2.4c-1.1-1-1.9-2.2-2.5-3.7
		s-0.9-3-0.9-4.7c0-1.8,0.3-3.3,0.9-4.8c0.6-1.4,1.5-2.6,2.5-3.6c1.1-1,2.3-1.8,3.8-2.3c1.4-0.5,3-0.8,4.7-0.8
		c1.6,0,3.1,0.3,4.6,0.8c1.5,0.5,2.7,1.3,3.6,2.4l-3.6,3.6c-0.5-0.7-1.1-1.2-2-1.5c-0.8-0.3-1.6-0.5-2.5-0.5c-0.9,0-1.8,0.2-2.6,0.5
		s-1.4,0.8-2,1.4c-0.6,0.6-1,1.3-1.3,2.1c-0.3,0.8-0.5,1.7-0.5,2.7c0,1,0.2,1.9,0.5,2.7c0.3,0.8,0.7,1.5,1.3,2.1
		c0.5,0.6,1.2,1,2,1.4c0.8,0.3,1.6,0.5,2.5,0.5c1.1,0,2-0.2,2.8-0.6c0.8-0.4,1.4-1,1.9-1.6l3.7,3.5C462,40,460.8,40.9,459.3,41.6z"
		/>
	<path class="st1" d="M465.2,42V20H480v4.5h-9.6v4.2h9.1v4.2h-9.1v4.6h10.2V42H465.2z"/>
	<path class="st1" d="M495.8,42l-4.8-8.7h-1.8V42H484V20h8.4c1.1,0,2.1,0.1,3.1,0.3c1,0.2,1.9,0.6,2.7,1.1c0.8,0.5,1.4,1.2,1.9,2
		c0.5,0.8,0.7,1.9,0.7,3.2c0,1.5-0.4,2.7-1.2,3.8c-0.8,1-1.9,1.7-3.3,2.2L502,42H495.8z M495.5,26.8c0-0.5-0.1-0.9-0.3-1.3
		s-0.5-0.6-0.8-0.7c-0.3-0.2-0.7-0.3-1.2-0.4c-0.4-0.1-0.8-0.1-1.2-0.1h-2.8v5.1h2.5c0.4,0,0.9,0,1.3-0.1s0.9-0.2,1.2-0.4
		c0.4-0.2,0.7-0.5,0.9-0.8C495.4,27.8,495.5,27.3,495.5,26.8z"/>
	<path class="st1" d="M512.3,42V20h5.3V42H512.3z"/>
	<path class="st1" d="M536.1,42l-8.8-14.4h-0.1l0.1,14.4h-5.1V20h6l8.8,14.3h0.1L537,20h5.1V42H536.1z"/>
	<path class="st1" d="M558.3,25.7c-0.5-0.6-1-1-1.8-1.4c-0.7-0.3-1.4-0.5-2.1-0.5c-0.4,0-0.7,0-1.1,0.1c-0.4,0.1-0.7,0.2-1,0.4
		c-0.3,0.2-0.5,0.4-0.7,0.7c-0.2,0.3-0.3,0.6-0.3,1.1c0,0.4,0.1,0.7,0.2,0.9c0.2,0.2,0.4,0.5,0.7,0.7c0.3,0.2,0.7,0.4,1.1,0.5
		c0.4,0.2,0.9,0.3,1.4,0.5c0.7,0.2,1.5,0.5,2.3,0.8s1.5,0.7,2.2,1.2c0.7,0.5,1.2,1.1,1.6,1.8c0.4,0.7,0.7,1.6,0.7,2.7
		c0,1.3-0.2,2.4-0.7,3.3s-1.1,1.7-1.9,2.3s-1.7,1-2.7,1.3s-2.1,0.4-3.1,0.4c-1.6,0-3.1-0.3-4.6-0.8c-1.5-0.5-2.7-1.3-3.7-2.3
		l3.5-3.5c0.5,0.7,1.2,1.2,2.1,1.7c0.9,0.4,1.8,0.7,2.6,0.7c0.4,0,0.8,0,1.1-0.1c0.4-0.1,0.7-0.2,1-0.4c0.3-0.2,0.5-0.4,0.7-0.7
		s0.2-0.7,0.2-1.1c0-0.4-0.1-0.8-0.3-1.1c-0.2-0.3-0.5-0.6-0.9-0.8c-0.4-0.2-0.9-0.5-1.4-0.7s-1.2-0.4-1.9-0.6
		c-0.7-0.2-1.4-0.5-2.1-0.8c-0.7-0.3-1.3-0.7-1.8-1.2c-0.5-0.5-1-1.1-1.3-1.8s-0.5-1.5-0.5-2.5c0-1.2,0.2-2.3,0.7-3.1s1.1-1.6,2-2.1
		c0.8-0.6,1.7-1,2.7-1.2s2-0.4,3.1-0.4c1.2,0,2.5,0.2,3.8,0.7c1.3,0.5,2.4,1.1,3.4,2L558.3,25.7z"/>
	<path class="st1" d="M574,24.5V42h-5.3V24.5h-6.2V20h17.7v4.5H574z"/>
	<path class="st1" d="M582.6,42V20h5.3V42H582.6z"/>
	<path class="st1" d="M601.8,24.5V42h-5.3V24.5h-6.2V20H608v4.5H601.8z"/>
	<path class="st1" d="M628.4,37.3c-0.4,1.1-1.1,2-1.9,2.8c-0.8,0.8-1.8,1.4-3,1.8c-1.2,0.4-2.5,0.7-3.9,0.7c-1.4,0-2.7-0.2-3.9-0.7
		c-1.2-0.4-2.1-1-2.9-1.8c-0.8-0.8-1.4-1.7-1.9-2.8c-0.4-1.1-0.7-2.3-0.7-3.6V20h5.3v13.2c0,0.6,0.1,1.2,0.2,1.7
		c0.2,0.5,0.4,1,0.7,1.4c0.3,0.4,0.7,0.8,1.3,1c0.5,0.2,1.2,0.4,1.9,0.4c0.7,0,1.4-0.1,1.9-0.4c0.5-0.2,1-0.6,1.3-1
		c0.3-0.4,0.6-0.9,0.7-1.4s0.2-1.1,0.2-1.7V20h5.3v13.7C629.1,35,628.8,36.2,628.4,37.3z"/>
	<path class="st1" d="M642.7,24.5V42h-5.3V24.5h-6.2V20h17.7v4.5H642.7z"/>
	<path class="st1" d="M651.3,42V20h14.8v4.5h-9.6v4.2h9.1v4.2h-9.1v4.6h10.2V42H651.3z"/>
</g>
<rect x="203.2" y="64.2" class="st2" width="768.8" height="39.8"/>
<g class="st3">
	<path class="st0" d="M206.1,94.4V66.1h6.9v28.3H206.1z"/>
	<path class="st0" d="M239.1,93.9c-1.8,0.8-4,1.3-6.4,1.3c-2.2,0-4.2-0.4-6.1-1.1c-1.9-0.7-3.5-1.7-4.8-3.1s-2.4-2.9-3.2-4.7
		s-1.2-3.9-1.2-6.1c0-2.3,0.4-4.3,1.2-6.2c0.8-1.8,1.9-3.4,3.3-4.7c1.4-1.3,3-2.3,4.9-3c1.9-0.7,3.9-1,6-1c2,0,4,0.4,5.9,1.1
		c1.9,0.7,3.5,1.7,4.7,3.1l-4.6,4.6c-0.6-0.9-1.5-1.5-2.5-2c-1-0.4-2.1-0.6-3.2-0.6c-1.2,0-2.3,0.2-3.3,0.7c-1,0.4-1.9,1-2.6,1.8
		c-0.7,0.8-1.3,1.7-1.7,2.7c-0.4,1.1-0.6,2.2-0.6,3.5c0,1.3,0.2,2.5,0.6,3.5s1,2,1.7,2.7c0.7,0.8,1.6,1.4,2.5,1.8
		c1,0.4,2.1,0.6,3.2,0.6c1.4,0,2.5-0.3,3.6-0.8c1-0.5,1.8-1.2,2.4-2.1l4.8,4.5C242.5,91.9,240.9,93.1,239.1,93.9z"/>
	<path class="st0" d="M273.1,80.2c0,2.5-0.5,4.6-1.4,6.4c-0.9,1.8-2.1,3.3-3.6,4.4c-1.5,1.2-3.2,2-5.1,2.6c-1.9,0.5-3.8,0.8-5.8,0.8
		h-10.6V66.1h10.2c2,0,4,0.2,5.9,0.7c1.9,0.5,3.7,1.2,5.2,2.3s2.7,2.5,3.7,4.3C272.6,75.3,273.1,77.5,273.1,80.2z M266,80.2
		c0-1.6-0.3-2.9-0.8-4s-1.2-1.9-2.1-2.5c-0.9-0.6-1.9-1.1-3-1.3c-1.1-0.3-2.2-0.4-3.4-0.4h-3.4v16.6h3.2c1.2,0,2.4-0.1,3.5-0.4
		c1.1-0.3,2.1-0.7,3-1.4c0.9-0.6,1.6-1.5,2.1-2.6C265.7,83.1,266,81.7,266,80.2z"/>
	<path class="st0" d="M297.9,93.9c-1.8,0.8-4,1.3-6.4,1.3c-2.2,0-4.2-0.4-6.1-1.1c-1.9-0.7-3.5-1.7-4.8-3.1s-2.4-2.9-3.2-4.7
		s-1.2-3.9-1.2-6.1c0-2.3,0.4-4.3,1.2-6.2c0.8-1.8,1.9-3.4,3.3-4.7c1.4-1.3,3-2.3,4.9-3c1.9-0.7,3.9-1,6-1c2,0,4,0.4,5.9,1.1
		c1.9,0.7,3.5,1.7,4.7,3.1l-4.6,4.6c-0.6-0.9-1.5-1.5-2.5-2c-1-0.4-2.1-0.6-3.2-0.6c-1.2,0-2.3,0.2-3.3,0.7c-1,0.4-1.9,1-2.6,1.8
		c-0.7,0.8-1.3,1.7-1.7,2.7c-0.4,1.1-0.6,2.2-0.6,3.5c0,1.3,0.2,2.5,0.6,3.5s1,2,1.7,2.7c0.7,0.8,1.6,1.4,2.5,1.8
		c1,0.4,2.1,0.6,3.2,0.6c1.4,0,2.5-0.3,3.6-0.8c1-0.5,1.8-1.2,2.4-2.1l4.8,4.5C301.3,91.9,299.7,93.1,297.9,93.9z"/>
	<path class="st0" d="M315.5,94.4V66.1h6.9v28.3H315.5z"/>
	<path class="st0" d="M340.9,94.4V83.5c0-0.6,0-1.1-0.1-1.6c-0.1-0.5-0.2-1-0.5-1.3c-0.2-0.4-0.5-0.7-0.9-0.9
		c-0.4-0.2-0.9-0.3-1.5-0.3c-0.6,0-1.1,0.1-1.5,0.3c-0.4,0.2-0.8,0.5-1.1,0.9c-0.3,0.4-0.5,0.9-0.7,1.4c-0.1,0.5-0.2,1.1-0.2,1.6
		v10.8h-6.6V74.5h6.4v2.8h0.1c0.2-0.4,0.6-0.8,0.9-1.3c0.4-0.4,0.8-0.8,1.4-1.1c0.5-0.3,1.1-0.5,1.7-0.7c0.6-0.2,1.3-0.3,2-0.3
		c1.3,0,2.5,0.2,3.4,0.7c0.9,0.5,1.7,1.1,2.3,1.9c0.6,0.8,1,1.6,1.2,2.6c0.3,1,0.4,2,0.4,3v12.3H340.9z"/>
	<path class="st0" d="M359.6,79.4V87c0,0.9,0.2,1.6,0.5,2.1c0.4,0.5,1,0.7,1.9,0.7c0.3,0,0.7,0,1-0.1c0.4-0.1,0.7-0.1,0.9-0.2
		l0.1,4.8c-0.5,0.2-1,0.3-1.7,0.4c-0.7,0.1-1.4,0.2-2.1,0.2c-1.3,0-2.5-0.2-3.4-0.5c-0.9-0.3-1.6-0.8-2.2-1.4
		c-0.5-0.6-0.9-1.4-1.2-2.2c-0.2-0.9-0.4-1.8-0.4-2.9v-8.4H350v-4.9h3.2v-5.2h6.4v5.2h4.7v4.9H359.6z"/>
	<path class="st0" d="M387.1,84.7c0,0.3,0,0.5,0,0.8s0,0.5,0,0.8h-14.4c0.1,0.6,0.2,1.1,0.5,1.5c0.3,0.5,0.6,0.8,1.1,1.2
		c0.4,0.3,0.9,0.6,1.5,0.8c0.5,0.2,1.1,0.3,1.7,0.3c1,0,1.9-0.2,2.6-0.6c0.7-0.4,1.3-0.9,1.8-1.5l4.6,2.9c-0.9,1.4-2.2,2.4-3.7,3.1
		s-3.3,1.1-5.3,1.1c-1.5,0-2.9-0.2-4.2-0.7c-1.3-0.5-2.5-1.1-3.5-2s-1.8-2-2.4-3.3c-0.6-1.3-0.9-2.8-0.9-4.5c0-1.6,0.3-3.1,0.8-4.4
		c0.6-1.3,1.3-2.4,2.3-3.4s2.1-1.6,3.4-2.1c1.3-0.5,2.7-0.8,4.2-0.8c1.5,0,2.8,0.2,4,0.7c1.2,0.5,2.3,1.2,3.2,2.1
		c0.9,0.9,1.6,2.1,2.1,3.4C386.9,81.5,387.1,83,387.1,84.7z M381.1,82.2c0-1-0.3-1.9-1-2.7c-0.7-0.7-1.6-1.1-2.9-1.1
		c-0.6,0-1.2,0.1-1.8,0.3c-0.5,0.2-1,0.5-1.4,0.8c-0.4,0.3-0.7,0.8-1,1.2c-0.2,0.5-0.4,1-0.4,1.5H381.1z"/>
	<path class="st0" d="M412.3,92.5c0,1.9-0.3,3.6-0.8,5.1c-0.6,1.4-1.3,2.6-2.4,3.6c-1,0.9-2.2,1.7-3.7,2.1c-1.5,0.5-3.1,0.7-4.8,0.7
		s-3.6-0.3-5.4-0.8s-3.5-1.3-4.8-2.3l3.3-4.7c1,0.9,2,1.5,3.2,1.9c1.2,0.4,2.3,0.6,3.4,0.6c1.9,0,3.3-0.5,4.3-1.5s1.4-2.4,1.4-4V92
		h-0.1c-0.6,0.8-1.4,1.4-2.5,1.9c-1,0.5-2.2,0.7-3.6,0.7c-1.5,0-2.9-0.3-4-0.8c-1.2-0.5-2.2-1.3-3-2.2s-1.4-2-1.9-3.3
		c-0.4-1.2-0.6-2.6-0.6-3.9c0-1.4,0.2-2.7,0.6-4c0.4-1.3,1-2.4,1.9-3.3s1.8-1.7,3-2.3c1.2-0.6,2.5-0.9,4-0.9c1.3,0,2.5,0.3,3.6,0.8
		s2.1,1.3,2.8,2.4h0.1v-2.6h6.2V92.5z M406.1,84.3c0-0.7-0.1-1.3-0.3-1.9s-0.6-1.2-1-1.6c-0.4-0.5-0.9-0.8-1.5-1.1s-1.3-0.4-2-0.4
		c-0.7,0-1.4,0.1-2,0.4c-0.6,0.3-1.1,0.6-1.5,1.1c-0.4,0.5-0.7,1-0.9,1.6c-0.2,0.6-0.3,1.3-0.3,2c0,0.7,0.1,1.3,0.3,1.9
		c0.2,0.6,0.5,1.2,0.9,1.6c0.4,0.5,0.9,0.8,1.5,1.1c0.6,0.3,1.2,0.4,2,0.4c0.7,0,1.4-0.1,2-0.4c0.6-0.3,1.1-0.6,1.5-1.1s0.7-1,1-1.6
		C406,85.7,406.1,85,406.1,84.3z"/>
	<path class="st0" d="M430.4,79.9c-0.3-0.1-0.6-0.1-0.9-0.2s-0.6,0-0.8,0c-0.9,0-1.6,0.2-2.2,0.5c-0.6,0.3-1.1,0.7-1.4,1.2
		c-0.4,0.5-0.6,0.9-0.8,1.5c-0.2,0.5-0.2,1-0.2,1.4v10.2h-6.6V74.5h6.3v2.9h0.1c0.5-1,1.2-1.9,2.2-2.5c0.9-0.6,2-1,3.2-1
		c0.3,0,0.5,0,0.8,0c0.3,0,0.5,0.1,0.6,0.1L430.4,79.9z"/>
	<path class="st0" d="M432.4,77.2c1.2-1.1,2.5-2,4.1-2.5c1.6-0.6,3.2-0.8,4.8-0.8c1.7,0,3.1,0.2,4.3,0.6c1.2,0.4,2.1,1.1,2.8,1.9
		c0.7,0.9,1.2,2,1.6,3.3c0.3,1.3,0.5,2.9,0.5,4.7v10h-6v-2.1h-0.1c-0.5,0.8-1.3,1.5-2.3,1.9c-1,0.5-2.1,0.7-3.3,0.7
		c-0.8,0-1.6-0.1-2.5-0.3s-1.6-0.6-2.3-1c-0.7-0.5-1.3-1.1-1.7-1.9c-0.5-0.8-0.7-1.8-0.7-3c0-1.4,0.4-2.6,1.2-3.5
		c0.8-0.9,1.8-1.6,3-2c1.2-0.5,2.6-0.8,4.1-1c1.5-0.2,3-0.2,4.4-0.2v-0.3c0-1-0.3-1.7-1-2.2c-0.7-0.5-1.5-0.7-2.6-0.7
		c-0.9,0-1.8,0.2-2.7,0.6c-0.9,0.4-1.6,0.9-2.2,1.4L432.4,77.2z M444.5,85.7h-0.8c-0.7,0-1.4,0-2.2,0.1c-0.7,0.1-1.4,0.2-2,0.4
		c-0.6,0.2-1,0.5-1.4,0.8c-0.4,0.4-0.6,0.8-0.6,1.4c0,0.4,0.1,0.7,0.3,1c0.2,0.3,0.4,0.5,0.7,0.6c0.3,0.2,0.6,0.3,0.9,0.3
		c0.3,0.1,0.7,0.1,1,0.1c1.3,0,2.4-0.4,3.1-1.1c0.7-0.7,1.1-1.7,1.1-3V85.7z"/>
	<path class="st0" d="M462.1,79.4V87c0,0.9,0.2,1.6,0.5,2.1c0.4,0.5,1,0.7,1.9,0.7c0.3,0,0.7,0,1-0.1c0.4-0.1,0.7-0.1,0.9-0.2
		l0.1,4.8c-0.5,0.2-1,0.3-1.7,0.4c-0.7,0.1-1.4,0.2-2.1,0.2c-1.3,0-2.5-0.2-3.4-0.5c-0.9-0.3-1.6-0.8-2.2-1.4
		c-0.5-0.6-0.9-1.4-1.2-2.2c-0.2-0.9-0.4-1.8-0.4-2.9v-8.4h-3.2v-4.9h3.2v-5.2h6.4v5.2h4.7v4.9H462.1z"/>
	<path class="st0" d="M489.6,84.7c0,0.3,0,0.5,0,0.8s0,0.5,0,0.8h-14.4c0.1,0.6,0.2,1.1,0.5,1.5s0.6,0.8,1.1,1.2
		c0.4,0.3,0.9,0.6,1.5,0.8c0.5,0.2,1.1,0.3,1.7,0.3c1,0,1.9-0.2,2.6-0.6c0.7-0.4,1.3-0.9,1.8-1.5l4.6,2.9c-0.9,1.4-2.2,2.4-3.7,3.1
		c-1.5,0.7-3.3,1.1-5.3,1.1c-1.5,0-2.9-0.2-4.2-0.7c-1.3-0.5-2.5-1.1-3.5-2s-1.8-2-2.4-3.3c-0.6-1.3-0.9-2.8-0.9-4.5
		c0-1.6,0.3-3.1,0.8-4.4c0.6-1.3,1.3-2.4,2.3-3.4s2.1-1.6,3.4-2.1s2.7-0.8,4.2-0.8c1.5,0,2.8,0.2,4,0.7c1.2,0.5,2.3,1.2,3.2,2.1
		c0.9,0.9,1.6,2.1,2.1,3.4C489.3,81.5,489.6,83,489.6,84.7z M483.5,82.2c0-1-0.3-1.9-1-2.7c-0.7-0.7-1.6-1.1-2.9-1.1
		c-0.6,0-1.2,0.1-1.8,0.3s-1,0.5-1.4,0.8c-0.4,0.3-0.7,0.8-1,1.2c-0.2,0.5-0.4,1-0.4,1.5H483.5z"/>
	<path class="st0" d="M508.7,94.4v-2.6h-0.1c-0.6,1-1.6,1.8-2.7,2.3c-1.2,0.5-2.4,0.8-3.8,0.8c-1.5,0-2.8-0.3-4-0.9
		c-1.2-0.6-2.2-1.4-3-2.3c-0.8-1-1.4-2.1-1.9-3.4c-0.4-1.3-0.6-2.6-0.6-4c0-1.4,0.2-2.7,0.7-4c0.4-1.3,1.1-2.4,1.9-3.3
		s1.8-1.7,3-2.3c1.2-0.6,2.5-0.8,3.9-0.8c1.5,0,2.7,0.3,3.7,0.8c1,0.6,1.8,1.2,2.4,1.8h0.1V64.2h6.6v30.2H508.7z M508.5,84.4
		c0-0.6-0.1-1.3-0.3-1.9s-0.5-1.2-1-1.6c-0.4-0.5-0.9-0.9-1.5-1.2s-1.3-0.4-2-0.4c-0.8,0-1.5,0.1-2,0.4s-1.1,0.7-1.5,1.1
		c-0.4,0.5-0.7,1-0.9,1.6c-0.2,0.6-0.3,1.2-0.3,1.9s0.1,1.3,0.3,1.9c0.2,0.6,0.5,1.2,0.9,1.7c0.4,0.5,0.9,0.9,1.5,1.2
		c0.6,0.3,1.3,0.4,2,0.4c0.7,0,1.4-0.1,2-0.4c0.6-0.3,1.1-0.7,1.5-1.2c0.4-0.5,0.7-1,1-1.6C508.4,85.7,508.5,85,508.5,84.4z"/>
	<path class="st0" d="M550.6,93.9c-1.8,0.8-4,1.3-6.4,1.3c-2.2,0-4.2-0.4-6.1-1.1c-1.9-0.7-3.5-1.7-4.8-3.1s-2.4-2.9-3.2-4.7
		s-1.2-3.9-1.2-6.1c0-2.3,0.4-4.3,1.2-6.2c0.8-1.8,1.9-3.4,3.3-4.7c1.4-1.3,3-2.3,4.9-3c1.9-0.7,3.9-1,6-1c2,0,4,0.4,5.9,1.1
		c1.9,0.7,3.5,1.7,4.7,3.1l-4.6,4.6c-0.6-0.9-1.5-1.5-2.5-2c-1-0.4-2.1-0.6-3.2-0.6c-1.2,0-2.3,0.2-3.3,0.7c-1,0.4-1.9,1-2.6,1.8
		c-0.7,0.8-1.3,1.7-1.7,2.7c-0.4,1.1-0.6,2.2-0.6,3.5c0,1.3,0.2,2.5,0.6,3.5c0.4,1.1,1,2,1.7,2.7c0.7,0.8,1.6,1.4,2.5,1.8
		c1,0.4,2.1,0.6,3.2,0.6c1.4,0,2.5-0.3,3.6-0.8c1-0.5,1.8-1.2,2.4-2.1l4.8,4.5C554,91.9,552.5,93.1,550.6,93.9z"/>
	<path class="st0" d="M556.8,77.2c1.2-1.1,2.5-2,4.1-2.5c1.6-0.6,3.2-0.8,4.8-0.8c1.7,0,3.1,0.2,4.3,0.6c1.2,0.4,2.1,1.1,2.8,1.9
		c0.7,0.9,1.2,2,1.6,3.3c0.3,1.3,0.5,2.9,0.5,4.7v10h-6v-2.1h-0.1c-0.5,0.8-1.3,1.5-2.3,1.9c-1,0.5-2.1,0.7-3.3,0.7
		c-0.8,0-1.6-0.1-2.5-0.3s-1.6-0.6-2.3-1c-0.7-0.5-1.3-1.1-1.7-1.9c-0.5-0.8-0.7-1.8-0.7-3c0-1.4,0.4-2.6,1.2-3.5
		c0.8-0.9,1.8-1.6,3-2c1.2-0.5,2.6-0.8,4.1-1c1.5-0.2,3-0.2,4.4-0.2v-0.3c0-1-0.3-1.7-1-2.2c-0.7-0.5-1.5-0.7-2.6-0.7
		c-0.9,0-1.8,0.2-2.7,0.6c-0.9,0.4-1.6,0.9-2.2,1.4L556.8,77.2z M568.9,85.7H568c-0.7,0-1.4,0-2.2,0.1c-0.7,0.1-1.4,0.2-2,0.4
		c-0.6,0.2-1,0.5-1.4,0.8c-0.4,0.4-0.6,0.8-0.6,1.4c0,0.4,0.1,0.7,0.3,1c0.2,0.3,0.4,0.5,0.7,0.6c0.3,0.2,0.6,0.3,0.9,0.3
		c0.3,0.1,0.7,0.1,1,0.1c1.3,0,2.4-0.4,3.1-1.1c0.7-0.7,1.1-1.7,1.1-3V85.7z"/>
	<path class="st0" d="M592.8,94.4V83.5c0-0.6,0-1.1-0.1-1.6c-0.1-0.5-0.2-1-0.5-1.3c-0.2-0.4-0.5-0.7-0.9-0.9
		c-0.4-0.2-0.9-0.3-1.5-0.3s-1.1,0.1-1.5,0.3c-0.4,0.2-0.8,0.5-1.1,0.9c-0.3,0.4-0.5,0.9-0.7,1.4c-0.1,0.5-0.2,1.1-0.2,1.6v10.8
		h-6.6V74.5h6.4v2.8h0.1c0.2-0.4,0.6-0.8,0.9-1.3c0.4-0.4,0.8-0.8,1.4-1.1c0.5-0.3,1.1-0.5,1.7-0.7c0.6-0.2,1.3-0.3,2-0.3
		c1.3,0,2.5,0.2,3.4,0.7c0.9,0.5,1.7,1.1,2.3,1.9c0.6,0.8,1,1.6,1.2,2.6c0.3,1,0.4,2,0.4,3v12.3H592.8z"/>
	<path class="st0" d="M611.5,68.1c0,0.5-0.1,1-0.3,1.4c-0.2,0.4-0.5,0.8-0.8,1.1c-0.3,0.3-0.7,0.6-1.2,0.8s-1,0.3-1.5,0.3
		c-1.1,0-2-0.4-2.7-1.1c-0.7-0.7-1.1-1.6-1.1-2.5c0-0.5,0.1-0.9,0.3-1.4c0.2-0.4,0.5-0.8,0.8-1.1c0.3-0.3,0.7-0.6,1.2-0.8
		c0.5-0.2,0.9-0.3,1.5-0.3c0.5,0,1,0.1,1.5,0.3s0.9,0.4,1.2,0.8c0.3,0.3,0.6,0.7,0.8,1.1C611.4,67.1,611.5,67.6,611.5,68.1z
		 M604.5,94.4V74.5h6.6v19.9H604.5z"/>
	<path class="st0" d="M629.3,94.4V83.5c0-0.6,0-1.1-0.1-1.6c-0.1-0.5-0.2-1-0.5-1.3c-0.2-0.4-0.5-0.7-0.9-0.9
		c-0.4-0.2-0.9-0.3-1.5-0.3s-1.1,0.1-1.5,0.3c-0.4,0.2-0.8,0.5-1.1,0.9c-0.3,0.4-0.5,0.9-0.7,1.4c-0.1,0.5-0.2,1.1-0.2,1.6v10.8
		h-6.6V74.5h6.4v2.8h0.1c0.2-0.4,0.6-0.8,0.9-1.3c0.4-0.4,0.8-0.8,1.4-1.1c0.5-0.3,1.1-0.5,1.7-0.7c0.6-0.2,1.3-0.3,2-0.3
		c1.3,0,2.5,0.2,3.4,0.7c0.9,0.5,1.7,1.1,2.3,1.9c0.6,0.8,1,1.6,1.2,2.6c0.3,1,0.4,2,0.4,3v12.3H629.3z"/>
	<path class="st0" d="M660.6,84.7c0,0.3,0,0.5,0,0.8s0,0.5,0,0.8h-14.4c0.1,0.6,0.2,1.1,0.5,1.5s0.6,0.8,1.1,1.2
		c0.4,0.3,0.9,0.6,1.5,0.8c0.5,0.2,1.1,0.3,1.7,0.3c1,0,1.9-0.2,2.6-0.6c0.7-0.4,1.3-0.9,1.8-1.5l4.6,2.9c-0.9,1.4-2.2,2.4-3.7,3.1
		c-1.5,0.7-3.3,1.1-5.3,1.1c-1.5,0-2.9-0.2-4.2-0.7c-1.3-0.5-2.5-1.1-3.5-2s-1.8-2-2.4-3.3c-0.6-1.3-0.9-2.8-0.9-4.5
		c0-1.6,0.3-3.1,0.8-4.4c0.6-1.3,1.3-2.4,2.3-3.4s2.1-1.6,3.4-2.1s2.7-0.8,4.2-0.8c1.5,0,2.8,0.2,4,0.7c1.2,0.5,2.3,1.2,3.2,2.1
		c0.9,0.9,1.6,2.1,2.1,3.4C660.4,81.5,660.6,83,660.6,84.7z M654.6,82.2c0-1-0.3-1.9-1-2.7c-0.7-0.7-1.6-1.1-2.9-1.1
		c-0.6,0-1.2,0.1-1.8,0.3s-1,0.5-1.4,0.8c-0.4,0.3-0.7,0.8-1,1.2c-0.2,0.5-0.4,1-0.4,1.5H654.6z"/>
	<path class="st0" d="M701.5,80.2c0,2.5-0.5,4.6-1.4,6.4c-0.9,1.8-2.1,3.3-3.6,4.4s-3.2,2-5.1,2.6c-1.9,0.5-3.8,0.8-5.8,0.8h-10.6
		V66.1h10.2c2,0,4,0.2,5.9,0.7c1.9,0.5,3.7,1.2,5.2,2.3c1.5,1.1,2.7,2.5,3.7,4.3S701.5,77.5,701.5,80.2z M694.4,80.2
		c0-1.6-0.3-2.9-0.8-4c-0.5-1.1-1.2-1.9-2.1-2.5c-0.9-0.6-1.9-1.1-3-1.3s-2.2-0.4-3.4-0.4h-3.4v16.6h3.2c1.2,0,2.4-0.1,3.5-0.4
		c1.1-0.3,2.1-0.7,3-1.4c0.9-0.6,1.6-1.5,2.1-2.6C694.1,83.1,694.4,81.7,694.4,80.2z"/>
	<path class="st0" d="M705.4,77.2c1.2-1.1,2.5-2,4.1-2.5c1.6-0.6,3.2-0.8,4.8-0.8c1.7,0,3.1,0.2,4.3,0.6c1.2,0.4,2.1,1.1,2.8,1.9
		c0.7,0.9,1.2,2,1.6,3.3c0.3,1.3,0.5,2.9,0.5,4.7v10h-6v-2.1h-0.1c-0.5,0.8-1.3,1.5-2.3,1.9c-1,0.5-2.1,0.7-3.3,0.7
		c-0.8,0-1.6-0.1-2.5-0.3s-1.6-0.6-2.3-1c-0.7-0.5-1.3-1.1-1.7-1.9c-0.5-0.8-0.7-1.8-0.7-3c0-1.4,0.4-2.6,1.2-3.5
		c0.8-0.9,1.8-1.6,3-2c1.2-0.5,2.6-0.8,4.1-1c1.5-0.2,3-0.2,4.4-0.2v-0.3c0-1-0.3-1.7-1-2.2c-0.7-0.5-1.5-0.7-2.6-0.7
		c-0.9,0-1.8,0.2-2.7,0.6c-0.9,0.4-1.6,0.9-2.2,1.4L705.4,77.2z M717.4,85.7h-0.8c-0.7,0-1.4,0-2.2,0.1c-0.7,0.1-1.4,0.2-2,0.4
		c-0.6,0.2-1,0.5-1.4,0.8c-0.4,0.4-0.6,0.8-0.6,1.4c0,0.4,0.1,0.7,0.3,1c0.2,0.3,0.4,0.5,0.7,0.6c0.3,0.2,0.6,0.3,0.9,0.3
		c0.3,0.1,0.7,0.1,1,0.1c1.3,0,2.4-0.4,3.1-1.1c0.7-0.7,1.1-1.7,1.1-3V85.7z"/>
	<path class="st0" d="M735,79.4V87c0,0.9,0.2,1.6,0.5,2.1c0.4,0.5,1,0.7,1.9,0.7c0.3,0,0.7,0,1-0.1c0.4-0.1,0.7-0.1,0.9-0.2l0.1,4.8
		c-0.5,0.2-1,0.3-1.7,0.4c-0.7,0.1-1.4,0.2-2.1,0.2c-1.3,0-2.5-0.2-3.4-0.5c-0.9-0.3-1.6-0.8-2.2-1.4c-0.5-0.6-0.9-1.4-1.2-2.2
		c-0.2-0.9-0.4-1.8-0.4-2.9v-8.4h-3.2v-4.9h3.2v-5.2h6.4v5.2h4.7v4.9H735z"/>
	<path class="st0" d="M742.5,77.2c1.2-1.1,2.5-2,4.1-2.5c1.6-0.6,3.2-0.8,4.8-0.8c1.7,0,3.1,0.2,4.3,0.6c1.2,0.4,2.1,1.1,2.8,1.9
		c0.7,0.9,1.2,2,1.6,3.3c0.3,1.3,0.5,2.9,0.5,4.7v10h-6v-2.1h-0.1c-0.5,0.8-1.3,1.5-2.3,1.9c-1,0.5-2.1,0.7-3.3,0.7
		c-0.8,0-1.6-0.1-2.5-0.3s-1.6-0.6-2.3-1c-0.7-0.5-1.3-1.1-1.7-1.9c-0.5-0.8-0.7-1.8-0.7-3c0-1.4,0.4-2.6,1.2-3.5
		c0.8-0.9,1.8-1.6,3-2c1.2-0.5,2.6-0.8,4.1-1c1.5-0.2,3-0.2,4.4-0.2v-0.3c0-1-0.3-1.7-1-2.2c-0.7-0.5-1.5-0.7-2.6-0.7
		c-0.9,0-1.8,0.2-2.7,0.6c-0.9,0.4-1.6,0.9-2.2,1.4L742.5,77.2z M754.5,85.7h-0.8c-0.7,0-1.4,0-2.2,0.1c-0.7,0.1-1.4,0.2-2,0.4
		c-0.6,0.2-1,0.5-1.4,0.8c-0.4,0.4-0.6,0.8-0.6,1.4c0,0.4,0.1,0.7,0.3,1c0.2,0.3,0.4,0.5,0.7,0.6c0.3,0.2,0.6,0.3,0.9,0.3
		c0.3,0.1,0.7,0.1,1,0.1c1.3,0,2.4-0.4,3.1-1.1c0.7-0.7,1.1-1.7,1.1-3V85.7z"/>
	<path class="st0" d="M796.1,93.9c-1.8,0.8-4,1.3-6.4,1.3c-2.2,0-4.2-0.4-6.1-1.1c-1.9-0.7-3.5-1.7-4.8-3.1s-2.4-2.9-3.2-4.7
		s-1.2-3.9-1.2-6.1c0-2.3,0.4-4.3,1.2-6.2c0.8-1.8,1.9-3.4,3.3-4.7c1.4-1.3,3-2.3,4.9-3c1.9-0.7,3.9-1,6-1c2,0,4,0.4,5.9,1.1
		c1.9,0.7,3.5,1.7,4.7,3.1l-4.6,4.6c-0.6-0.9-1.5-1.5-2.5-2c-1-0.4-2.1-0.6-3.2-0.6c-1.2,0-2.3,0.2-3.3,0.7c-1,0.4-1.9,1-2.6,1.8
		c-0.7,0.8-1.3,1.7-1.7,2.7c-0.4,1.1-0.6,2.2-0.6,3.5c0,1.3,0.2,2.5,0.6,3.5c0.4,1.1,1,2,1.7,2.7c0.7,0.8,1.6,1.4,2.5,1.8
		c1,0.4,2.1,0.6,3.2,0.6c1.4,0,2.5-0.3,3.6-0.8c1-0.5,1.8-1.2,2.4-2.1l4.8,4.5C799.4,91.9,797.9,93.1,796.1,93.9z"/>
	<path class="st0" d="M823.9,84.4c0,1.6-0.3,3.1-0.9,4.4s-1.4,2.4-2.4,3.4c-1,0.9-2.2,1.6-3.5,2.1c-1.3,0.5-2.8,0.8-4.3,0.8
		c-1.5,0-2.9-0.3-4.3-0.8c-1.3-0.5-2.5-1.2-3.5-2.1s-1.8-2-2.4-3.4c-0.6-1.3-0.9-2.8-0.9-4.4c0-1.6,0.3-3.1,0.9-4.4
		c0.6-1.3,1.4-2.4,2.4-3.3s2.2-1.6,3.5-2.1c1.3-0.5,2.8-0.7,4.3-0.7c1.5,0,2.9,0.2,4.3,0.7c1.3,0.5,2.5,1.2,3.5,2.1
		c1,0.9,1.8,2,2.4,3.3C823.6,81.3,823.9,82.7,823.9,84.4z M817.6,84.4c0-0.6-0.1-1.3-0.3-1.9c-0.2-0.6-0.5-1.2-0.9-1.6
		c-0.4-0.5-0.9-0.8-1.5-1.1s-1.3-0.4-2-0.4s-1.5,0.1-2,0.4s-1.1,0.7-1.5,1.1c-0.4,0.5-0.7,1-0.9,1.6s-0.3,1.2-0.3,1.9
		s0.1,1.3,0.3,1.9c0.2,0.6,0.5,1.2,0.9,1.7c0.4,0.5,0.9,0.9,1.5,1.2c0.6,0.3,1.3,0.4,2,0.4s1.5-0.1,2-0.4c0.6-0.3,1.1-0.7,1.5-1.2
		c0.4-0.5,0.7-1,0.9-1.7C817.5,85.6,817.6,85,817.6,84.4z"/>
	<path class="st0" d="M853.5,94.4V83.5c0-0.6,0-1.1-0.1-1.6s-0.2-1-0.4-1.3c-0.2-0.4-0.5-0.7-0.9-0.9c-0.4-0.2-0.8-0.3-1.4-0.3
		c-0.6,0-1,0.1-1.5,0.4c-0.4,0.2-0.8,0.6-1,1c-0.3,0.4-0.5,0.9-0.6,1.4c-0.1,0.5-0.2,1.1-0.2,1.6v10.8h-6.6V83
		c0-1.1-0.2-2.1-0.7-2.7c-0.5-0.7-1.2-1-2.2-1c-1,0-1.8,0.4-2.4,1.2c-0.6,0.8-0.9,1.8-0.9,3v10.8h-6.6V74.5h6.4v2.8h0.1
		c0.2-0.4,0.5-0.8,0.9-1.2c0.4-0.4,0.8-0.8,1.3-1.1c0.5-0.3,1.1-0.6,1.7-0.7c0.6-0.2,1.3-0.3,2.1-0.3c1.4,0,2.7,0.3,3.7,0.9
		s1.8,1.4,2.3,2.5c0.7-1,1.5-1.9,2.6-2.5c1-0.6,2.3-0.9,3.8-0.9c1.4,0,2.5,0.2,3.4,0.7c0.9,0.5,1.7,1.1,2.2,1.9
		c0.6,0.8,1,1.7,1.2,2.6s0.4,1.9,0.4,2.9v12.3H853.5z"/>
	<path class="st0" d="M890.5,94.4V83.5c0-0.6,0-1.1-0.1-1.6s-0.2-1-0.4-1.3c-0.2-0.4-0.5-0.7-0.9-0.9c-0.4-0.2-0.8-0.3-1.4-0.3
		c-0.6,0-1,0.1-1.5,0.4c-0.4,0.2-0.8,0.6-1,1c-0.3,0.4-0.5,0.9-0.6,1.4c-0.1,0.5-0.2,1.1-0.2,1.6v10.8h-6.6V83
		c0-1.1-0.2-2.1-0.7-2.7c-0.5-0.7-1.2-1-2.2-1c-1,0-1.8,0.4-2.4,1.2c-0.6,0.8-0.9,1.8-0.9,3v10.8H865V74.5h6.4v2.8h0.1
		c0.2-0.4,0.5-0.8,0.9-1.2c0.4-0.4,0.8-0.8,1.3-1.1c0.5-0.3,1.1-0.6,1.7-0.7c0.6-0.2,1.3-0.3,2.1-0.3c1.4,0,2.7,0.3,3.7,0.9
		s1.8,1.4,2.3,2.5c0.7-1,1.5-1.9,2.6-2.5c1-0.6,2.3-0.9,3.8-0.9c1.4,0,2.5,0.2,3.4,0.7c0.9,0.5,1.7,1.1,2.2,1.9
		c0.6,0.8,1,1.7,1.2,2.6s0.4,1.9,0.4,2.9v12.3H890.5z"/>
	<path class="st0" d="M923.1,84.4c0,1.6-0.3,3.1-0.9,4.4s-1.4,2.4-2.4,3.4c-1,0.9-2.2,1.6-3.5,2.1c-1.3,0.5-2.8,0.8-4.3,0.8
		c-1.5,0-2.9-0.3-4.3-0.8c-1.3-0.5-2.5-1.2-3.5-2.1s-1.8-2-2.4-3.4c-0.6-1.3-0.9-2.8-0.9-4.4c0-1.6,0.3-3.1,0.9-4.4
		c0.6-1.3,1.4-2.4,2.4-3.3s2.2-1.6,3.5-2.1c1.3-0.5,2.8-0.7,4.3-0.7c1.5,0,2.9,0.2,4.3,0.7c1.3,0.5,2.5,1.2,3.5,2.1
		c1,0.9,1.8,2,2.4,3.3C922.8,81.3,923.1,82.7,923.1,84.4z M916.8,84.4c0-0.6-0.1-1.3-0.3-1.9c-0.2-0.6-0.5-1.2-0.9-1.6
		c-0.4-0.5-0.9-0.8-1.5-1.1s-1.3-0.4-2-0.4s-1.5,0.1-2,0.4s-1.1,0.7-1.5,1.1c-0.4,0.5-0.7,1-0.9,1.6s-0.3,1.2-0.3,1.9
		s0.1,1.3,0.3,1.9c0.2,0.6,0.5,1.2,0.9,1.7c0.4,0.5,0.9,0.9,1.5,1.2c0.6,0.3,1.3,0.4,2,0.4s1.5-0.1,2-0.4c0.6-0.3,1.1-0.7,1.5-1.2
		c0.4-0.5,0.7-1,0.9-1.7C916.7,85.6,916.8,85,916.8,84.4z"/>
	<path class="st0" d="M940.3,94.4V83.5c0-0.6,0-1.1-0.1-1.6c-0.1-0.5-0.2-1-0.5-1.3c-0.2-0.4-0.5-0.7-0.9-0.9
		c-0.4-0.2-0.9-0.3-1.5-0.3s-1.1,0.1-1.5,0.3c-0.4,0.2-0.8,0.5-1.1,0.9c-0.3,0.4-0.5,0.9-0.7,1.4c-0.1,0.5-0.2,1.1-0.2,1.6v10.8
		h-6.6V74.5h6.4v2.8h0.1c0.2-0.4,0.6-0.8,0.9-1.3c0.4-0.4,0.8-0.8,1.4-1.1c0.5-0.3,1.1-0.5,1.7-0.7c0.6-0.2,1.3-0.3,2-0.3
		c1.3,0,2.5,0.2,3.4,0.7c0.9,0.5,1.7,1.1,2.3,1.9c0.6,0.8,1,1.6,1.2,2.6c0.3,1,0.4,2,0.4,3v12.3H940.3z"/>
	<path class="st0" d="M963.6,80.4c-0.5-0.5-1.2-0.9-1.9-1.3c-0.7-0.3-1.5-0.5-2.3-0.5c-0.6,0-1.2,0.1-1.7,0.4
		c-0.5,0.2-0.8,0.7-0.8,1.2c0,0.6,0.3,1,0.9,1.2c0.6,0.2,1.5,0.5,2.8,0.8c0.7,0.2,1.5,0.4,2.3,0.7c0.8,0.3,1.4,0.7,2.1,1.2
		c0.6,0.5,1.1,1.1,1.5,1.8c0.4,0.7,0.6,1.5,0.6,2.5c0,1.3-0.3,2.3-0.8,3.2c-0.5,0.9-1.2,1.6-2,2.1c-0.8,0.5-1.7,0.9-2.7,1.2
		c-1,0.2-2,0.4-3,0.4c-1.6,0-3.2-0.3-4.8-0.8c-1.6-0.5-2.9-1.3-3.9-2.3l3.7-3.9c0.6,0.6,1.3,1.2,2.2,1.6c0.9,0.4,1.8,0.6,2.7,0.6
		c0.5,0,1.1-0.1,1.6-0.4c0.5-0.3,0.8-0.7,0.8-1.3c0-0.6-0.3-1.1-1-1.4c-0.6-0.3-1.6-0.6-3-0.9c-0.7-0.2-1.4-0.4-2.1-0.6
		c-0.7-0.3-1.3-0.6-1.9-1.1c-0.5-0.5-1-1-1.3-1.7c-0.3-0.7-0.5-1.5-0.5-2.4c0-1.2,0.3-2.2,0.8-3.1c0.5-0.8,1.2-1.5,2-2.1
		c0.8-0.5,1.7-0.9,2.7-1.2c1-0.3,1.9-0.4,2.9-0.4c1.5,0,3,0.2,4.4,0.7c1.4,0.5,2.6,1.2,3.6,2.1L963.6,80.4z"/>
</g>
</svg>
