<?xml version="1.0" encoding="utf-8"?>
<!-- Generator: Adobe Illustrator 24.0.0, SVG Export Plug-In . SVG Version: 6.00 Build 0)  -->
<svg version="1.1" id="Layer_1" xmlns="http://www.w3.org/2000/svg" xmlns:xlink="http://www.w3.org/1999/xlink" x="0px" y="0px"
	 viewBox="0 0 360 89.5" style="enable-background:new 0 0 360 89.5;" xml:space="preserve">
<style type="text/css">
	.st0{stroke:#000000;stroke-width:0.5;stroke-miterlimit:10;}
</style>
<g>
	<path d="M299,14.8c-0.3,0.8-0.8,1.7-1,2.7c-0.5,2-0.1,4.1,0.6,6c1.4,4,2.9,7.9,4.4,11.9c1,2.5,1.7,5.1,1.4,7.9
		c-0.3,2.6-1.4,4.7-3.5,6.2c-0.8,0.6-1.8,0.6-2.5-0.1c-2.2-2.3-4.8-3.8-7.4-5.6c-1.7-1.1-3.3-2.4-4.8-3.7c-1.4-1.3-2-3-1.5-5
		c0.2-0.9,0.5-1.7,0.9-2.5c1.5-3.4,3.7-6.5,6-9.4c1.3-1.7,2.7-3.4,4.1-5c0.1-0.2,0.3-0.3,0.3-0.5c-1,2-2.1,3.9-3,5.9
		s-1.3,4.2-1.5,6.4c0-0.8-0.1-1.6-0.1-2.4s0.1-1.6,0.1-2.4c-0.1,0-0.1-0.1-0.2-0.1c-0.7,1.4-1.5,2.7-2.1,4.1
		c-0.5,1.2-0.8,2.5-1.2,3.8c-0.4,1.4,0.1,2.7,0.8,3.9c1.3,2.1,2.9,3.8,4.7,5.3c1.3,1.1,2.8,2.1,4.1,3.1c0.3,0.2,0.7,0.4,1,0.5
		c0.8,0.3,1.5,0.2,1.8-0.6c0.4-1,0.7-2.1,0.8-3.2c0.3-4.2-0.8-8.2-2-12.2c-0.7-2.3-1.5-4.5-2.1-6.8c-0.5-1.8-0.5-3.6,0-5.4
		C297.6,16.5,298.1,15.5,299,14.8z"/>
	<path d="M328.1,15.7c0.9,0.2,1.8,0.4,2.7,0.5c3,0.4,6.1,0.3,9.1,0.1c1.9-0.1,3.7,0.3,5.4,1.2c2.1,1.2,2.6,3,1.6,5.1
		c-0.2,0.4-0.4,0.8-0.5,1.1c-0.8-1.1-0.8-1.8,0-2.9c0.2-0.2,0.2-0.7,0.1-0.9c-0.1-0.2-0.5-0.5-0.7-0.4c-0.3,0.1-0.6,0.4-0.6,0.7
		c-0.3,1.3,0.1,2.5,0.8,3.6c0.6,0.8,0.4,1.6-0.4,2c-0.5,0.3-1.2,0.3-1.9,0.5c0.1-1.4,0.1-2.6,0.2-3.8h-0.1c-0.2,1.2-0.4,2.4-0.6,3.6
		c-1.1-0.1-2.1-0.4-2.8-1.3c-0.4-0.5-0.3-0.8,0.2-1.3c0.6-0.5,1.2-1.1,1.6-1.7c0.5-0.8,0.3-1.8-0.4-2.4c-0.6-0.6-1.4-0.5-1.7,0.3
		c-0.2,0.4-0.2,0.9-0.2,1.4c0,0.3,0.1,0.6,0.1,0.9c0.1,1.1-0.5,1.7-1.6,1.8c-1.5,0.1-2.8-0.4-3.9-1.5c-0.9-1-1-2,0-3
		c0.6-0.7,1.4-1.3,2.1-1.9c0.2-0.1,0.3-0.3,0.6-0.5C333.9,16.9,330.9,16.9,328.1,15.7z"/>
	<path d="M340.1,42.2c0.7-0.9,1.6-1.7,2.2-2.6c0.5-0.7,0.9-1.6,1.1-2.4c0.4-1.6-0.4-2.9-1.7-3.9c-0.5-0.4-1-0.4-1.6,0.2
		c-1.7,1.5-3.4,3-5.1,4.4c-2.2,1.7-4.3,3.4-6.6,5c-1.7,1.2-3.7,1.9-5.9,2.1c-0.5,0.1-1.1,0.3-1.5,0.6c-1,0.6-2,1-3.1,1
		c-0.8,0-1.4-0.7-1.5-1.4c-0.1-0.6,0.4-1.2,1.2-1.3c1.2-0.2,2.5-0.3,3.7-0.4c2.6-0.2,5.1-1,7.3-2.5c3-2.1,6-4.1,8.9-6.3
		c2.1-1.5,3.7-3.5,5.1-5.7c0.1-0.1,0.1-0.2,0.3-0.4c0.1,1,0.2,1.8,0.3,2.7c0.1,0.5,0.3,1,0.5,1.5c0.5,0.9,1.6,1,2.1,0
		c0.5-0.9,0.8-1.8,1-2.8c0.3-1.1,0.4-2.3,0.6-3.5c0,0.1,0.1,0.1,0.1,0.2c0,3.9-0.2,7.9-1.4,11.7c-0.3,1.1-0.9,2.1-1.5,3
		C343.3,42.9,341.7,43.1,340.1,42.2z"/>
	<path d="M332.9,48.7c0,0.2,0.1,0.4,0.1,0.6c-0.2,2.6,1.2,4.9,1.6,7.3c0.5,3-0.1,5.8-1.6,8.4c1-3.4,1-6.7-0.2-10.3
		c-0.8,3.8-3,6.5-6.1,8.4C330.8,59.2,332.9,54.3,332.9,48.7z"/>
	<path d="M320.6,50.5c1.8-3,4.1-5.5,7.8-6.1c0.8-0.1,1.6-0.4,2.4-0.6c1.9-0.6,2.5-0.9,4.5-2.6c-1.2,1.8-2.9,2.8-4.9,3.3
		c1.9,1.6,5.3,1.8,8.4-1.3c-1.6,2.5-4.7,4.3-7.6,2.8c-1.8-0.9-3.4-0.7-5.1,0c-2,0.9-3.5,2.3-4.9,3.9C321,50.1,320.8,50.3,320.6,50.5
		C320.7,50.5,320.6,50.5,320.6,50.5z"/>
	<path d="M300.3,14.6c1.4-1.8,3.3-2.8,5.6-3.1c1.2-0.1,2.1-0.6,3.1-1.1c1.4-0.8,2.8-1.7,4.3-2.2c3.8-1.3,7.1-0.4,10.1,2.2
		c0.2,0.2,0.4,0.4,0.5,0.7c-0.3-0.2-0.5-0.4-0.8-0.6c-3-2.3-7.5-3.1-11.1-0.7c-0.6,0.4-1.1,0.7-1.7,1c-1.3,0.7-2.6,1.3-4.1,1.4
		C304,12.4,302,13.3,300.3,14.6z"/>
	<path d="M290,66.1c5.8-2.9,8-7.7,8-13.7c0.4,2.9,0.5,5.7-0.4,8.5C296.3,64.2,293.4,66.3,290,66.1z"/>
	<path d="M336.9,16.1c-1.7-0.1-3.1-0.2-4.6-0.2c0-0.1-0.1-0.2-0.1-0.2c0.2-0.3,0.5-0.7,0.8-1c0.6-0.5,0.6-0.9-0.1-1.2
		c-1.1-0.7-2-1.6-2.9-2.5c-0.5-0.6-1.3-1.1-2.1-1.3c-1.6-0.5-3.3-0.8-4.9-1.1c3.1,0.1,6.3,0.2,8.8,2.8c0.5,0.6,1.2,1,1.9,1.4
		c1,0.6,1.9,1.2,2.5,2.2C336.5,15.2,336.6,15.6,336.9,16.1z"/>
	<path d="M306.9,21.3c2.3,1.8,4.7,1.8,7.2,1.3c-1.7,0.7-3.4,1.3-5.2,0.7C308,23.1,307.3,22.4,306.9,21.3z"/>
	<path d="M316.4,12.2c-1.2-1-1.2-1-3.3-1.3c0.4-0.5,0.9-0.7,1.5-0.6C315.2,10.4,316.1,11.3,316.4,12.2z"/>
	<path d="M323.5,32.7c0.3,0.3,0.6,0.6,0.6,0.7c-0.1,0.2-0.4,0.5-0.6,0.5s-0.5-0.3-0.6-0.5C322.9,33.2,323.2,33,323.5,32.7z"/>
	<path d="M326.8,36c-0.2,0.1-0.5,0.4-0.7,0.4s-0.4-0.3-0.6-0.5c0.2-0.2,0.4-0.5,0.6-0.5s0.5,0.2,0.7,0.4
		C326.8,35.8,326.8,35.9,326.8,36z"/>
	<path d="M325.2,29.6c-0.4,0.2-0.6,0.5-0.9,0.4c-0.2,0-0.3-0.3-0.5-0.5c0.2-0.2,0.4-0.4,0.6-0.5C324.6,29.1,324.8,29.4,325.2,29.6z"
		/>
	<path d="M326.9,32.3c-0.4,0.2-0.6,0.5-0.8,0.5c-0.2,0-0.4-0.3-0.6-0.5c0.2-0.1,0.4-0.4,0.6-0.4C326.3,31.8,326.5,32,326.9,32.3z"/>
	<path d="M329.2,34.3c-0.4,0.2-0.6,0.5-0.8,0.5c-0.2,0-0.4-0.3-0.6-0.4c0.2-0.2,0.4-0.4,0.6-0.5C328.6,33.9,328.8,34.1,329.2,34.3z"
		/>
	<path d="M330.8,32.8c-0.2,0.1-0.4,0.3-0.6,0.3s-0.3-0.3-0.4-0.4c0.2-0.1,0.4-0.3,0.5-0.3c0.2,0,0.4,0.2,0.5,0.3
		C330.9,32.6,330.9,32.7,330.8,32.8z"/>
	<path d="M328.3,31.5c-0.2-0.3-0.5-0.4-0.4-0.6c0-0.2,0.3-0.4,0.5-0.4s0.4,0.3,0.5,0.4C328.7,31.1,328.5,31.3,328.3,31.5z"/>
	<path d="M326.9,28c0.2,0.3,0.5,0.5,0.5,0.6c0,0.2-0.3,0.4-0.4,0.4c-0.2,0-0.4-0.2-0.5-0.4C326.4,28.5,326.7,28.3,326.9,28z"/>
	<path d="M332.8,31.1c-0.3,0.2-0.5,0.4-0.6,0.3c-0.1,0-0.3-0.3-0.4-0.4c0.1-0.1,0.3-0.3,0.4-0.3C332.4,30.7,332.5,30.9,332.8,31.1z"
		/>
	<path d="M330,27.8c-0.3,0.2-0.5,0.4-0.6,0.4s-0.3-0.2-0.4-0.3c0.1-0.1,0.3-0.3,0.4-0.4C329.5,27.5,329.7,27.6,330,27.8z"/>
	<path d="M331.2,29.7c-0.3,0.2-0.5,0.4-0.6,0.3c-0.1,0-0.3-0.3-0.4-0.4c0.2-0.1,0.3-0.3,0.5-0.3C330.7,29.3,330.9,29.5,331.2,29.7z"
		/>
	<path d="M315.6,15.4c-0.9-0.7-1.9-0.7-2.8,0c-1.2,1-2.3,2-3.4,3c0,0.1,0,0.2,0.1,0.3c0.9-0.7,1.7-0.3,2.6,0.1
		c0.2,0.1,0.4,0.2,0.6,0.2c1.2,0.2,2.3,0.2,3.1-0.9c0.4-0.6,0.8-1.1,1.7-0.7C316.8,16.6,316.3,15.9,315.6,15.4z M313.8,16.2
		c0.1-0.3,0.1-0.2,0.3-0.4c0.3,0.2,0.3,0.1,0.4,0.4c0.2,0.2,0,0.2-0.1,0.4c-0.2,0-0.4,0-0.5,0C313.8,16.2,313.7,16.4,313.8,16.2z
		 M312.7,18.1c1,0.3,1.8,0.1,2.5-0.6C314.9,18.5,313.7,18.8,312.7,18.1z"/>
	<g>
		<circle cx="22.9" cy="30.8" r="5.3"/>
		<circle cx="45.9" cy="30.8" r="5.3"/>
		<circle cx="22.9" cy="71.8" r="5.3"/>
		<circle cx="45.9" cy="71.8" r="5.3"/>
		<circle cx="12.2" cy="51.3" r="5.3"/>
		<circle cx="56.6" cy="51.3" r="5.3"/>
		<circle cx="34.3" cy="37.5" r="3.6"/>
		<circle cx="34.3" cy="64.7" r="3.6"/>
		<circle cx="45.9" cy="44.1" r="3.6"/>
		<circle cx="22.9" cy="44.1" r="3.6"/>
		<circle cx="45.9" cy="58.3" r="3.6"/>
		<circle cx="22.9" cy="58.3" r="3.6"/>
		<circle cx="34.3" cy="23" r="2.5"/>
		<circle cx="34.3" cy="79.7" r="2.5"/>
		<circle cx="58.6" cy="36.9" r="2.5"/>
		<circle cx="58.6" cy="65.2" r="2.5"/>
		<circle cx="10.3" cy="36.9" r="2.5"/>
		<circle cx="10.3" cy="65.2" r="2.5"/>
	</g>
	<rect x="77.7" y="54.1" width="199.4" height="2.2"/>
	<g>
		<path class="st0" d="M79.4,79.5h-4.3v-0.9l1.4-0.3v-9.5l-1.4-0.3v-0.9h4.3v0.9L78,68.8v9.5l1.4,0.3V79.5z"/>
		<path class="st0" d="M87.9,79.5v-5.7c0-0.7-0.2-1.3-0.5-1.6c-0.3-0.4-0.8-0.5-1.5-0.5c-0.9,0-1.6,0.3-2,0.8s-0.6,1.3-0.6,2.5v4.6
			h-1.5v-9H83l0.2,1.2h0.1c0.3-0.4,0.7-0.8,1.2-1s1.1-0.4,1.7-0.4c1.1,0,1.9,0.3,2.4,0.8s0.8,1.4,0.8,2.5v5.8
			C89.4,79.5,87.9,79.5,87.9,79.5z"/>
		<path class="st0" d="M95.4,78.4c0.2,0,0.4,0,0.7-0.1c0.3,0,0.4-0.1,0.6-0.1v1.1c-0.1,0.1-0.3,0.1-0.6,0.2
			c-0.3,0.1-0.6,0.1-0.9,0.1c-1.8,0-2.6-0.9-2.6-2.8v-5.2h-1.3V71l1.3-0.6l0.6-1.9H94v2.1h2.6v1.1H94v5.2c0,0.5,0.1,0.9,0.4,1.2
			C94.6,78.3,95,78.4,95.4,78.4z"/>
		<path class="st0" d="M102.6,79.6c-1.3,0-2.4-0.4-3.2-1.2c-0.8-0.8-1.1-1.9-1.1-3.4c0-1.4,0.4-2.6,1.1-3.4c0.7-0.9,1.7-1.3,2.9-1.3
			c1.1,0,2,0.4,2.7,1.1s1,1.7,1,2.9v0.9h-6.1c0,1,0.3,1.8,0.8,2.3s1.2,0.8,2.1,0.8c0.5,0,0.9,0,1.4-0.1c0.4-0.1,0.9-0.2,1.5-0.5V79
			c-0.5,0.2-1,0.4-1.4,0.4S103.2,79.6,102.6,79.6z M102.2,71.6c-0.7,0-1.3,0.2-1.7,0.7c-0.4,0.5-0.7,1.1-0.7,1.9h4.6
			c0-0.8-0.2-1.5-0.6-1.9C103.4,71.8,102.9,71.6,102.2,71.6z"/>
		<path class="st0" d="M114.5,79.4v-1.1h-0.1c-0.6,0.9-1.5,1.3-2.8,1.3c-1.2,0-2.1-0.4-2.7-1.2c-0.7-0.8-1-1.9-1-3.4
			c0-1.4,0.3-2.6,1-3.4s1.6-1.2,2.7-1.2c1.2,0,2.1,0.5,2.8,1.4h0.1l0.2-1.2h1.2v9.1c0,1.3-0.3,2.2-1,2.9c-0.6,0.6-1.7,1-3,1
			s-2.4-0.2-3.2-0.6v-1.4c0.9,0.5,2,0.7,3.3,0.7c0.8,0,1.4-0.2,1.8-0.7c0.4-0.4,0.7-1.1,0.7-1.9V79.4z M111.9,78.4
			c0.9,0,1.6-0.2,2-0.7s0.6-1.3,0.6-2.3V75c0-1.2-0.2-2.1-0.6-2.6s-1.1-0.8-2-0.8c-0.8,0-1.3,0.3-1.7,0.9c-0.4,0.6-0.6,1.4-0.6,2.5
			s0.2,2,0.6,2.5C110.5,78.2,111.1,78.4,111.9,78.4z"/>
		<path class="st0" d="M123.2,70.4c0.4,0,0.7,0,1.1,0.1l-0.2,1.4c-0.3-0.1-0.7-0.1-1-0.1c-0.5,0-0.9,0.1-1.3,0.4s-0.7,0.6-1,1.1
			c-0.2,0.5-0.3,1-0.3,1.5v4.8H119v-9h1.2l0.2,1.6h0.1c0.3-0.6,0.7-1,1.2-1.3C122.2,70.5,122.7,70.4,123.2,70.4z"/>
		<path class="st0" d="M131.6,79.5l-0.3-1.3h-0.1c-0.4,0.6-0.9,0.9-1.3,1.1c-0.4,0.2-1,0.3-1.7,0.3c-0.9,0-1.6-0.2-2.1-0.7
			s-0.8-1.1-0.8-2c0-1.8,1.4-2.8,4.3-2.9l1.5-0.1v-0.5c0-0.7-0.1-1.2-0.4-1.5c-0.3-0.3-0.8-0.5-1.4-0.5c-0.5,0-0.9,0.1-1.3,0.2
			c-0.4,0.1-0.8,0.3-1.2,0.5l-0.4-1.1c0.5-0.2,0.9-0.4,1.5-0.6c0.5-0.1,1.1-0.2,1.6-0.2c1.1,0,1.9,0.2,2.4,0.7s0.8,1.2,0.8,2.3v6.1
			h-1.1V79.5z M128.6,78.5c0.8,0,1.5-0.2,1.9-0.7c0.5-0.4,0.7-1.1,0.7-1.9v-0.8l-1.3,0.1c-1,0-1.8,0.2-2.2,0.5
			c-0.5,0.3-0.7,0.7-0.7,1.4c0,0.5,0.1,0.8,0.4,1.1C127.7,78.3,128.1,78.5,128.6,78.5z"/>
		<path class="st0" d="M138.8,78.4c0.2,0,0.4,0,0.7-0.1c0.3,0,0.4-0.1,0.6-0.1v1.1c-0.1,0.1-0.3,0.1-0.6,0.2s-0.6,0.1-0.9,0.1
			c-1.8,0-2.6-0.9-2.6-2.8v-5.2h-1.3V71l1.3-0.6l0.6-1.9h0.9v2.1h2.6v1.1h-2.6v5.2c0,0.5,0.1,0.9,0.4,1.2
			C138,78.3,138.3,78.4,138.8,78.4z"/>
		<path class="st0" d="M145.9,79.6c-1.3,0-2.4-0.4-3.2-1.2c-0.8-0.8-1.1-1.9-1.1-3.4c0-1.4,0.4-2.6,1.1-3.4c0.7-0.9,1.7-1.3,2.9-1.3
			c1.1,0,2,0.4,2.7,1.1s1,1.7,1,2.9v0.9h-6.1c0,1,0.3,1.8,0.8,2.3s1.2,0.8,2.1,0.8c0.5,0,0.9,0,1.4-0.1s0.9-0.2,1.5-0.5V79
			c-0.5,0.2-1,0.4-1.4,0.4C147,79.6,146.5,79.6,145.9,79.6z M145.5,71.6c-0.7,0-1.3,0.2-1.7,0.7s-0.7,1.1-0.7,1.9h4.6
			c0-0.8-0.2-1.5-0.6-1.9C146.7,71.8,146.2,71.6,145.5,71.6z"/>
		<path class="st0" d="M155,79.6c-1.2,0-2.1-0.4-2.7-1.2c-0.6-0.8-1-1.9-1-3.4s0.3-2.6,1-3.4c0.6-0.8,1.6-1.2,2.7-1.2
			c1.2,0,2.1,0.4,2.8,1.3h0.1c0-0.1,0-0.3-0.1-0.7c0-0.3,0-0.6,0-0.7v-3.6h1.5v12.7h-1.2l-0.2-1.2h-0.1
			C157.1,79.2,156.2,79.6,155,79.6z M155.2,78.4c0.9,0,1.5-0.2,2-0.7c0.4-0.5,0.6-1.3,0.6-2.4V75c0-1.2-0.2-2.1-0.6-2.7
			c-0.4-0.5-1.1-0.8-2-0.8c-0.8,0-1.3,0.3-1.8,0.9c-0.4,0.6-0.6,1.5-0.6,2.6s0.2,1.9,0.6,2.5C153.9,78.1,154.4,78.4,155.2,78.4z"/>
		<path class="st0" d="M172.3,68.7c-1.3,0-2.3,0.4-3,1.3s-1.1,2-1.1,3.5s0.4,2.7,1.1,3.6c0.7,0.8,1.7,1.3,3,1.3
			c0.8,0,1.8-0.2,2.9-0.5v1.3c-0.5,0.2-1,0.3-1.5,0.4s-1,0.1-1.6,0.1c-1.8,0-3.1-0.5-4.1-1.6c-0.9-1.1-1.4-2.6-1.4-4.5
			c0-1.2,0.2-2.3,0.7-3.2c0.5-0.9,1.1-1.6,2-2.1s1.9-0.8,3.1-0.8c1.3,0,2.4,0.2,3.3,0.7l-0.6,1.3C174.1,68.9,173.2,68.7,172.3,68.7z
			"/>
		<path class="st0" d="M183.4,79.5l-0.3-1.3H183c-0.4,0.6-0.9,0.9-1.3,1.1c-0.4,0.2-1,0.3-1.7,0.3c-0.9,0-1.6-0.2-2.1-0.7
			s-0.8-1.1-0.8-2c0-1.8,1.4-2.8,4.3-2.9l1.5-0.1v-0.5c0-0.7-0.1-1.2-0.4-1.5c-0.3-0.3-0.8-0.5-1.4-0.5c-0.5,0-0.9,0.1-1.3,0.2
			c-0.4,0.1-0.8,0.3-1.2,0.5l-0.4-1.1c0.5-0.2,0.9-0.4,1.5-0.6c0.5-0.1,1.1-0.2,1.6-0.2c1.1,0,1.9,0.2,2.4,0.7s0.8,1.2,0.8,2.3v6.1
			h-1.1V79.5z M180.4,78.5c0.8,0,1.5-0.2,1.9-0.7c0.5-0.4,0.7-1.1,0.7-1.9v-0.8l-1.3,0.1c-1,0-1.8,0.2-2.2,0.5
			c-0.5,0.3-0.7,0.7-0.7,1.4c0,0.5,0.1,0.8,0.4,1.1C179.5,78.3,179.9,78.5,180.4,78.5z"/>
		<path class="st0" d="M193.7,79.5v-5.7c0-0.7-0.2-1.3-0.5-1.6c-0.3-0.4-0.8-0.5-1.5-0.5c-0.9,0-1.6,0.3-2,0.8s-0.6,1.3-0.6,2.5v4.6
			h-1.5v-9h1.2l0.2,1.2h0.1c0.3-0.4,0.7-0.8,1.2-1s1.1-0.4,1.7-0.4c1.1,0,1.9,0.3,2.4,0.8s0.8,1.4,0.8,2.5v5.8
			C195.2,79.5,193.7,79.5,193.7,79.5z"/>
		<path class="st0" d="M198.1,68.1c0-0.3,0.1-0.6,0.2-0.7c0.2-0.1,0.4-0.2,0.6-0.2c0.2,0,0.4,0.1,0.6,0.2c0.2,0.1,0.3,0.4,0.3,0.7
			c0,0.3-0.1,0.6-0.3,0.7c-0.2,0.2-0.4,0.2-0.6,0.2c-0.2,0-0.5-0.1-0.6-0.2S198.1,68.4,198.1,68.1z M199.7,79.5h-1.5v-9h1.5V79.5z"
			/>
		<path class="st0" d="M208.9,79.5v-5.7c0-0.7-0.2-1.3-0.5-1.6c-0.3-0.4-0.8-0.5-1.5-0.5c-0.9,0-1.6,0.3-2,0.8s-0.6,1.3-0.6,2.5v4.6
			h-1.5v-9h1.2l0.2,1.2h0.1c0.3-0.4,0.7-0.8,1.2-1s1.1-0.4,1.7-0.4c1.1,0,1.9,0.3,2.4,0.8s0.8,1.4,0.8,2.5v5.8
			C210.4,79.5,208.9,79.5,208.9,79.5z"/>
		<path class="st0" d="M217.2,79.6c-1.3,0-2.4-0.4-3.2-1.2s-1.1-1.9-1.1-3.4c0-1.4,0.4-2.6,1.1-3.4c0.7-0.9,1.7-1.3,2.9-1.3
			c1.1,0,2,0.4,2.7,1.1s1,1.7,1,2.9v0.9h-6.1c0,1,0.3,1.8,0.8,2.3s1.2,0.8,2.1,0.8c0.5,0,0.9,0,1.4-0.1c0.4-0.1,0.9-0.2,1.5-0.5V79
			c-0.5,0.2-1,0.4-1.4,0.4C218.3,79.6,217.8,79.6,217.2,79.6z M216.9,71.6c-0.7,0-1.3,0.2-1.7,0.7s-0.7,1.1-0.7,1.9h4.6
			c0-0.8-0.2-1.5-0.6-1.9C218.1,71.8,217.5,71.6,216.9,71.6z"/>
		<path class="st0" d="M237.5,73.4c0,2-0.5,3.5-1.6,4.5s-2.6,1.6-4.6,1.6H228V67.6h3.7c1.9,0,3.3,0.5,4.3,1.5S237.5,71.5,237.5,73.4
			z M236,73.5c0-1.5-0.4-2.7-1.1-3.4c-0.7-0.8-1.9-1.2-3.4-1.2h-2v9.4h1.6C234.3,78.2,236,76.6,236,73.5z"/>
		<path class="st0" d="M245.8,79.5l-0.3-1.3h-0.1c-0.4,0.6-0.9,0.9-1.3,1.1c-0.4,0.2-1,0.3-1.7,0.3c-0.9,0-1.6-0.2-2.1-0.7
			s-0.8-1.1-0.8-2c0-1.8,1.4-2.8,4.3-2.9l1.5-0.1v-0.5c0-0.7-0.1-1.2-0.4-1.5c-0.3-0.3-0.8-0.5-1.4-0.5c-0.5,0-0.9,0.1-1.3,0.2
			c-0.4,0.1-0.8,0.3-1.2,0.5l-0.4-1.1c0.5-0.2,0.9-0.4,1.5-0.6c0.5-0.1,1.1-0.2,1.6-0.2c1.1,0,1.9,0.2,2.4,0.7s0.8,1.2,0.8,2.3v6.1
			h-1.1V79.5z M242.8,78.5c0.8,0,1.5-0.2,1.9-0.7c0.5-0.4,0.7-1.1,0.7-1.9v-0.8l-1.3,0.1c-1,0-1.8,0.2-2.2,0.5
			c-0.5,0.3-0.7,0.7-0.7,1.4c0,0.5,0.1,0.8,0.4,1.1S242.3,78.5,242.8,78.5z"/>
		<path class="st0" d="M252.9,78.4c0.2,0,0.4,0,0.7-0.1c0.3,0,0.4-0.1,0.6-0.1v1.1c-0.1,0.1-0.3,0.1-0.6,0.2s-0.6,0.1-0.9,0.1
			c-1.8,0-2.6-0.9-2.6-2.8v-5.2h-1.3V71l1.3-0.6l0.6-1.9h0.9v2.1h2.6v1.1h-2.6v5.2c0,0.5,0.1,0.9,0.4,1.2
			C252.2,78.3,252.5,78.4,252.9,78.4z"/>
		<path class="st0" d="M261.8,79.5l-0.3-1.3h-0.1c-0.4,0.6-0.9,0.9-1.3,1.1s-1,0.3-1.7,0.3c-0.9,0-1.6-0.2-2.1-0.7s-0.8-1.1-0.8-2
			c0-1.8,1.4-2.8,4.3-2.9l1.5-0.1v-0.5c0-0.7-0.1-1.2-0.4-1.5s-0.8-0.5-1.4-0.5c-0.5,0-0.9,0.1-1.3,0.2s-0.8,0.3-1.2,0.5l-0.4-1.1
			c0.5-0.2,0.9-0.4,1.5-0.6c0.5-0.1,1.1-0.2,1.6-0.2c1.1,0,1.9,0.2,2.4,0.7s0.8,1.2,0.8,2.3v6.1h-1.1V79.5z M258.8,78.5
			c0.8,0,1.5-0.2,1.9-0.7c0.5-0.4,0.7-1.1,0.7-1.9v-0.8l-1.3,0.1c-1,0-1.8,0.2-2.2,0.5c-0.5,0.3-0.7,0.7-0.7,1.4
			c0,0.5,0.1,0.8,0.4,1.1S258.3,78.5,258.8,78.5z"/>
		<path class="st0" d="M275.9,68.7c-1.3,0-2.3,0.4-3,1.3s-1.1,2-1.1,3.5s0.4,2.7,1.1,3.6c0.7,0.8,1.7,1.3,3,1.3
			c0.8,0,1.8-0.2,2.9-0.5v1.3c-0.5,0.2-1,0.3-1.5,0.4s-1,0.1-1.6,0.1c-1.8,0-3.1-0.5-4.1-1.6c-0.9-1.1-1.4-2.6-1.4-4.5
			c0-1.2,0.2-2.3,0.7-3.2c0.5-0.9,1.1-1.6,2-2.1s1.9-0.8,3.1-0.8c1.3,0,2.4,0.2,3.3,0.7l-0.6,1.3C277.7,68.9,276.8,68.7,275.9,68.7z
			"/>
		<path class="st0" d="M289.2,75c0,1.5-0.4,2.6-1.1,3.4s-1.8,1.2-3.1,1.2c-0.8,0-1.5-0.2-2.2-0.6c-0.6-0.4-1.1-0.9-1.4-1.6
			s-0.5-1.5-0.5-2.5c0-1.5,0.4-2.6,1.1-3.4s1.8-1.2,3.1-1.2c1.3,0,2.3,0.4,3,1.2C288.9,72.4,289.2,73.6,289.2,75z M282.5,75
			c0,1.1,0.2,2,0.7,2.6c0.4,0.6,1.1,0.9,2,0.9s1.5-0.3,1.9-0.9s0.7-1.4,0.7-2.6c0-1.1-0.2-2-0.7-2.5c-0.4-0.6-1.1-0.9-2-0.9
			C283.3,71.6,282.5,72.7,282.5,75z"/>
		<path class="st0" d="M303.2,79.5v-5.8c0-1.4-0.6-2.1-1.8-2.1c-0.8,0-1.4,0.2-1.8,0.7s-0.6,1.2-0.6,2.2v4.9h-1.5v-5.8
			c0-0.7-0.1-1.2-0.4-1.6s-0.8-0.5-1.4-0.5c-0.8,0-1.4,0.3-1.8,0.8s-0.6,1.3-0.6,2.5v4.6h-1.5v-9h1.2l0.2,1.2h0.1
			c0.3-0.4,0.6-0.8,1.1-1s1-0.4,1.6-0.4c1.4,0,2.3,0.5,2.7,1.5h0.1c0.3-0.5,0.7-0.8,1.2-1.1c0.5-0.3,1.1-0.4,1.7-0.4
			c1,0,1.8,0.3,2.3,0.8s0.8,1.4,0.8,2.5v5.8h-1.6V79.5z"/>
		<path class="st0" d="M319.2,79.5v-5.8c0-1.4-0.6-2.1-1.8-2.1c-0.8,0-1.4,0.2-1.8,0.7s-0.6,1.2-0.6,2.2v4.9h-1.5v-5.8
			c0-0.7-0.1-1.2-0.4-1.6s-0.8-0.5-1.4-0.5c-0.8,0-1.4,0.3-1.8,0.8s-0.6,1.3-0.6,2.5v4.6h-1.5v-9h1.2l0.2,1.2h0.1
			c0.3-0.4,0.6-0.8,1.1-1s1-0.4,1.6-0.4c1.4,0,2.3,0.5,2.7,1.5h0.1c0.3-0.5,0.7-0.8,1.2-1.1c0.5-0.3,1.1-0.4,1.7-0.4
			c1,0,1.8,0.3,2.3,0.8s0.8,1.4,0.8,2.5v5.8h-1.6V79.5z"/>
		<path class="st0" d="M331.5,75c0,1.5-0.4,2.6-1.1,3.4s-1.8,1.2-3.1,1.2c-0.8,0-1.5-0.2-2.2-0.6c-0.6-0.4-1.1-0.9-1.4-1.6
			s-0.5-1.5-0.5-2.5c0-1.5,0.4-2.6,1.1-3.4s1.8-1.2,3.1-1.2c1.3,0,2.3,0.4,3,1.2C331.1,72.4,331.5,73.6,331.5,75z M324.7,75
			c0,1.1,0.2,2,0.7,2.6c0.4,0.6,1.1,0.9,2,0.9s1.5-0.3,1.9-0.9s0.7-1.4,0.7-2.6c0-1.1-0.2-2-0.7-2.5c-0.4-0.6-1.1-0.9-2-0.9
			C325.6,71.6,324.7,72.7,324.7,75z"/>
		<path class="st0" d="M340.2,79.5v-5.7c0-0.7-0.2-1.3-0.5-1.6c-0.3-0.4-0.8-0.5-1.5-0.5c-0.9,0-1.6,0.3-2,0.8s-0.6,1.3-0.6,2.5v4.6
			h-1.5v-9h1.2l0.2,1.2h0.1c0.3-0.4,0.7-0.8,1.2-1s1.1-0.4,1.7-0.4c1.1,0,1.9,0.3,2.4,0.8s0.8,1.4,0.8,2.5v5.8
			C341.7,79.5,340.2,79.5,340.2,79.5z"/>
		<path class="st0" d="M350.6,77c0,0.8-0.3,1.5-0.9,1.9c-0.6,0.5-1.5,0.7-2.6,0.7c-1.2,0-2.1-0.2-2.8-0.6v-1.3
			c1,0.5,1.9,0.7,2.8,0.7c0.7,0,1.3-0.1,1.6-0.4c0.3-0.2,0.5-0.6,0.5-1s-0.2-0.7-0.5-0.9c-0.3-0.2-0.9-0.5-1.7-0.8
			c-0.8-0.3-1.4-0.6-1.8-0.8c-0.3-0.2-0.6-0.5-0.8-0.8c-0.2-0.3-0.2-0.6-0.2-1.1c0-0.7,0.3-1.3,0.9-1.7c0.6-0.4,1.4-0.6,2.5-0.6
			c1,0,2,0.2,2.9,0.6l-0.5,1.2c-0.9-0.4-1.7-0.6-2.5-0.6c-0.6,0-1.1,0.1-1.4,0.3c-0.3,0.2-0.5,0.5-0.5,0.8s0.1,0.6,0.4,0.8
			c0.3,0.2,0.9,0.5,1.9,0.9c0.7,0.3,1.3,0.5,1.7,0.8c0.4,0.2,0.6,0.5,0.8,0.8C350.5,76.2,350.6,76.6,350.6,77z"/>
	</g>
	<g>
		<path d="M80.9,23.7v23.2h-3.4V23.7H80.9z"/>
		<path d="M105.5,40.2c-1,4-4,7-9.4,7c-7,0-10.5-5.3-10.5-11.8c0-6.3,3.5-12,10.7-12c5.6,0,8.6,3.2,9.2,7.1h-3.4
			c-0.8-2.4-2.4-4.3-5.9-4.3c-4.9,0-6.9,4.5-6.9,9.1c0,4.4,1.9,9.1,7.1,9.1c3.5,0,5-2.1,5.8-4.2H105.5z"/>
		<path d="M109.9,23.7h8.5c6.6,0,11,4.4,11,11.4c0,6.8-4.3,11.8-11.1,11.8H110L109.9,23.7L109.9,23.7z M113.4,44h4.7
			c5.3,0,7.7-3.8,7.7-8.9c0-4.4-2.3-8.5-7.7-8.5h-4.7V44z"/>
		<path d="M152.7,40.2c-1,4-4,7-9.4,7c-7,0-10.5-5.3-10.5-11.8c0-6.3,3.5-12,10.7-12c5.6,0,8.6,3.2,9.2,7.1h-3.4
			c-0.8-2.4-2.4-4.3-5.9-4.3c-4.9,0-6.9,4.5-6.9,9.1c0,4.4,1.9,9.1,7.1,9.1c3.5,0,5-2.1,5.8-4.2H152.7z"/>
	</g>
</g>
</svg>
