<?xml version="1.0" encoding="utf-8"?>
<!-- Generator: Adobe Illustrator 25.1.0, SVG Export Plug-In . SVG Version: 6.00 Build 0)  -->
<svg version="1.1" id="Layer_1" xmlns="http://www.w3.org/2000/svg" xmlns:xlink="http://www.w3.org/1999/xlink" x="0px" y="0px"
	 viewBox="0 0 12 12" style="enable-background:new 0 0 12 12;" xml:space="preserve">
<style type="text/css">
	.st0{fill-rule:evenodd;clip-rule:evenodd;fill:#638FB5;}
</style>
<g>
	<path class="st0" d="M11.74,5.98c0-3.17-2.56-5.73-5.73-5.74c-1.6,0-3.13,0.67-4.21,1.84V1.01c0-0.42-0.34-0.77-0.77-0.77
		S0.26,0.59,0.26,1.01v3.06c0,0.42,0.34,0.77,0.77,0.77h3.06c0.42,0,0.77-0.34,0.77-0.77S4.52,3.3,4.09,3.3H2.76
		c1.48-1.79,4.13-2.04,5.92-0.56s2.04,4.13,0.56,5.92C8.45,9.63,7.26,10.19,6,10.19l0,0c-0.42,0-0.77,0.34-0.77,0.77
		c0,0.42,0.34,0.77,0.77,0.77h0.02C9.18,11.72,11.74,9.15,11.74,5.98z"/>
</g>
</svg>
