<svg width="15" height="15" viewBox="0 0 15 15" fill="none" xmlns="http://www.w3.org/2000/svg">
<path d="M6.4134 1C3.43007 1 1 3.43007 1 6.4134C1 9.39672 3.43007 11.8268 6.4134 11.8268C7.71072 11.8268 8.90214 11.3661 9.83589 10.6014L13.0681 13.8336C13.118 13.8855 13.1777 13.927 13.2438 13.9556C13.3099 13.9841 13.3811 13.9992 13.4531 14C13.5251 14.0007 13.5966 13.9871 13.6632 13.9598C13.7299 13.9326 13.7905 13.8924 13.8414 13.8414C13.8924 13.7905 13.9326 13.7299 13.9598 13.6632C13.9871 13.5966 14.0007 13.5251 14 13.4531C13.9992 13.3811 13.9841 13.3099 13.9556 13.2438C13.927 13.1777 13.8855 13.118 13.8336 13.0681L10.6014 9.83589C11.3661 8.90214 11.8268 7.71072 11.8268 6.4134C11.8268 3.43007 9.39672 1 6.4134 1ZM6.4134 2.08268C8.8116 2.08268 10.7441 4.0152 10.7441 6.4134C10.7441 8.8116 8.8116 10.7441 6.4134 10.7441C4.0152 10.7441 2.08268 8.8116 2.08268 6.4134C2.08268 4.0152 4.0152 2.08268 6.4134 2.08268Z" fill="#4D889E" stroke="#4D889E"/>
</svg>
