<svg width="20" height="19" viewBox="0 0 20 19" fill="none" xmlns="http://www.w3.org/2000/svg">
<rect x="10" y="0.928786" width="12.2783" height="12.2783" rx="2.5" transform="rotate(45 10 0.928786)" fill="#FFEB13" stroke="black"/>
<path d="M9.99994 7.14529C9.74072 7.14529 9.52354 7.06575 9.3484 6.90667C9.18026 6.74068 9.09619 6.53664 9.09619 6.29457C9.09619 6.05249 9.18026 5.85192 9.3484 5.69284C9.52354 5.52684 9.74072 5.44385 9.99994 5.44385C10.2592 5.44385 10.4728 5.52684 10.641 5.69284C10.8161 5.85192 10.9037 6.05249 10.9037 6.29457C10.9037 6.53664 10.8161 6.74068 10.641 6.90667C10.4728 7.06575 10.2592 7.14529 9.99994 7.14529ZM10.725 7.83001V13.5776H9.25382V7.83001H10.725Z" fill="black"/>
</svg>
