<?xml version="1.0" encoding="utf-8"?>
<!-- Generator: Adobe Illustrator 24.2.0, SVG Export Plug-In . SVG Version: 6.00 Build 0)  -->
<svg version="1.1" id="Layer_1" xmlns="http://www.w3.org/2000/svg" xmlns:xlink="http://www.w3.org/1999/xlink" x="0px" y="0px"
	 viewBox="0 0 195 56" style="enable-background:new 0 0 195 56;" xml:space="preserve">
<style type="text/css">
	.st0{fill:#1A4072;}
	.st1{fill:url(#SVGID_1_);}
</style>
<path class="st0" d="M48.6,13.1c-0.3-0.7-0.9-1.1-1.6-1.3l-32.8-10c-1.4-0.4-3,0.3-3.5,1.6l-9.5,27c-0.5,1.3,0.3,2.9,1.8,3.4
	l32.7,12.8c0.3,0.1,0.7,0.2,1,0.2c0.4,0,0.8-0.1,1.1-0.3c0.7-0.3,1.1-0.9,1.4-1.6l9.6-29.7C49,14.5,48.9,13.8,48.6,13.1z M45.3,14.8
	l-2.1,6.5l-20.3-6.7L25,8.4L45.3,14.8z M42.1,24.6l-6,18.5l-20.3-7.8l6-17.5L42.1,24.6z M8.1,21L13.7,5l8,2.5l-5.6,16.4L8.1,21z
	 M15,26.9L12.6,34l-8-3L7,24L15,26.9z"/>
<linearGradient id="SVGID_1_" gradientUnits="userSpaceOnUse" x1="4.407" y1="35.7987" x2="193.8982" y2="35.7987">
	<stop  offset="0" style="stop-color:#5FCAF0"/>
	<stop  offset="1" style="stop-color:#3A54A4"/>
</linearGradient>
<path class="st1" d="M76.5,30.6L76.5,30.6c2.9-0.7,4.7-3,4.7-5.9c0-5-4.1-6.6-8.5-6.6h-7.9v26.4h8.1c8.5,0,9.6-5.6,9.6-7.3
	C82.5,33.4,80.2,30.9,76.5,30.6z M67.5,20.6h5.1c5.1,0,5.6,3.4,5.6,4.5c0,3.4-2.8,4.6-5.4,4.6h-5.4V20.6z M72.7,42.1h-5.1V32H73
	c4.3,0,6.6,1.7,6.6,5.1C79.6,40.6,76.5,42.1,72.7,42.1z M180.1,17.5c-7.9,0-13.8,5.9-13.8,13.9c0,8,5.9,13.9,13.8,13.9
	c7.9,0,13.8-5.9,13.8-13.9C193.9,23.3,188,17.5,180.1,17.5z M180.1,42.8c-6.8,0-10.8-5.3-10.8-11.4s4.1-11.4,10.8-11.4
	c6.8,0,10.8,5.3,10.8,11.4S186.9,42.8,180.1,42.8z M143.2,18.2h20.4v2.5h-8.8v23.9H152V20.6h-8.8V18.2z M92.8,42.1h14.1v2.5H90.1
	V18.2h16.4v2.5H92.8v9h12.8v2.5H92.8V42.1z M134.5,18.2h2.7v26.4h-3.4L118.1,22H118v22.6h-2.7V18.2h3.4l15.7,22.4h0.1V18.2z
	 M52,20.5c0.3,0.7,0.4,1.4,0.2,2.1l-9.6,29.7c-0.2,0.7-0.7,1.2-1.4,1.6c-0.4,0.2-0.7,0.3-1.1,0.3c-0.3,0-0.7-0.1-1-0.2L6.3,41.2
	c-1.4-0.6-2.2-2.1-1.8-3.4l0.3-1l32.4,12.6c0.3,0.1,0.7,0.2,1,0.2c0.4,0,0.8-0.1,1.1-0.3c0.7-0.3,1.1-0.9,1.4-1.6l9.3-28.7l0.3,0.1
	C51.1,19.4,51.6,19.9,52,20.5z"/>
</svg>
