<svg width="31" height="30" viewBox="0 0 31 30" fill="none" xmlns="http://www.w3.org/2000/svg">
<g clip-path="url(#clip0_746_609)">
<path fill-rule="evenodd" clip-rule="evenodd" d="M15.5004 0C7.41273 0 0.857117 6.55561 0.857117 14.6432C0.857117 22.7309 7.41273 29.2865 15.5004 29.2865C23.588 29.2865 30.1436 22.7309 30.1436 14.6432C30.1436 6.55561 23.5872 0 15.5004 0ZM19.3763 8.80462H17.86C17.0222 8.80462 16.1436 9.32314 16.1436 10.2417V12.7167H19.2571L18.7386 15.9894H16.1444V24.0919H12.6324V15.9894H9.67899V12.7167H12.6324V10.2817C12.6324 7.84681 14.0695 5.81196 16.6637 5.9712L19.3779 6.09122V8.8054L19.3763 8.80462Z" fill="#FACE00"/>
</g>
<defs>
<clipPath id="clip0_746_609">
<rect width="29.2857" height="29.2857" fill="white" transform="translate(0.857117)"/>
</clipPath>
</defs>
</svg>
