<svg width="30" height="30" viewBox="0 0 30 30" fill="none" xmlns="http://www.w3.org/2000/svg">
<g clip-path="url(#clip0_746_611)">
<path d="M18.5263 7.65308H10.7603C9.01173 7.65308 7.58875 9.07606 7.58875 10.8246V18.5498C7.58875 20.2983 9.01173 21.7213 10.7603 21.7213H18.5263C20.2748 21.7213 21.6978 20.2983 21.6978 18.5498V10.8246C21.6978 9.07606 20.2748 7.65308 18.5263 7.65308ZM14.6637 19.3225H14.6229C12.1017 19.3225 10.0284 17.2492 10.0284 14.6872C10.0284 12.1252 12.1017 10.0519 14.6229 10.0519H14.6637C17.1849 10.0519 19.299 12.166 19.299 14.6872C19.299 17.2084 17.1849 19.3225 14.6637 19.3225ZM19.2174 11.1093C18.6479 11.1093 18.2415 10.6622 18.2415 10.1335C18.2415 9.60478 18.6479 9.15764 19.2174 9.15764C19.7461 9.15764 20.1932 9.60478 20.1932 10.1335C20.1932 10.6622 19.7461 11.1093 19.2174 11.1093Z" fill="#FACE00"/>
<path d="M14.6637 11.6372H14.6229C12.9559 11.6372 11.5737 13.0194 11.5737 14.6863C11.5737 16.3533 12.9559 17.7763 14.6229 17.7763H14.6637C16.3306 17.7763 17.7128 16.3941 17.7128 14.6863C17.7128 12.9786 16.3306 11.6372 14.6637 11.6372Z" fill="#FACE00"/>
<path d="M14.6432 0C6.55561 0 0 6.55561 0 14.6432C0 22.7309 6.55561 29.2865 14.6432 29.2865C22.7309 29.2865 29.2865 22.7309 29.2865 14.6432C29.2865 6.55561 22.7301 0 14.6432 0ZM23.1615 18.5906C23.1615 21.1118 21.0883 23.1851 18.567 23.1851H10.7195C8.19824 23.1851 6.12495 21.1118 6.12495 18.5906V10.7838C6.12495 8.26257 8.19824 6.18928 10.7195 6.18928H18.567C21.0883 6.18928 23.1615 8.26257 23.1615 10.7838V18.5906Z" fill="#FACE00"/>
</g>
<defs>
<clipPath id="clip0_746_611">
<rect width="29.2857" height="29.2857" fill="white"/>
</clipPath>
</defs>
</svg>
