<?xml version="1.0" encoding="utf-8"?>
<!-- Generator: Adobe Illustrator 24.2.0, SVG Export Plug-In . SVG Version: 6.00 Build 0)  -->
<svg version="1.1" id="Layer_1" xmlns="http://www.w3.org/2000/svg" xmlns:xlink="http://www.w3.org/1999/xlink" x="0px" y="0px"
	 viewBox="0 0 22 22" style="enable-background:new 0 0 22 22;" xml:space="preserve">
<style type="text/css">
	.st0{fill:#FFFFFF;}
</style>
<path class="st0" d="M21.7,11c0-3,0-6.1,0-9.1c0-0.5-0.2-0.9-0.6-1.2c-0.3-0.2-0.6-0.3-1-0.3c-6.1,0-12.1,0-18.2,0c0,0,0,0,0,0
	c-0.4,0-0.7,0.1-1,0.3C0.5,1,0.3,1.4,0.3,1.9c0,4.3,0,8.5,0,12.8c0,1.8,0,3.7,0,5.5c0,0.2,0,0.4,0.1,0.5c0.2,0.6,0.8,1,1.5,1
	c6.1,0,12.1,0,18.2,0c0.1,0,0.2,0,0.3,0c0.4-0.1,0.7-0.2,0.9-0.5c0.3-0.3,0.4-0.6,0.4-1C21.7,17.1,21.7,14.1,21.7,11z M6.5,18.6
	c-1,0-1.9,0-2.9,0c0,0-0.1,0-0.1,0c0-0.1,0-0.1,0-0.1c0-0.5,0-1,0-1.6c0-2.8,0-5.6,0-8.4c0-0.2,0-0.2,0.2-0.2c1,0,1.9,0,2.9,0
	c0.1,0,0.1,0,0.1,0.2c0,3.3,0,6.6,0,9.9C6.7,18.6,6.7,18.6,6.5,18.6z M5.1,7C4,7,3.2,6.1,3.2,5.1c0-1,0.8-1.9,1.9-1.8
	c1.1,0,1.9,0.9,1.8,1.8C6.9,6.1,6.2,7,5.1,7z M18.5,18.4c0,0,0,0.1,0,0.1c-0.1,0-3.1,0-3.2,0c0,0,0-0.1,0-0.1c0-0.5,0-1,0-1.5
	c0-1.1,0-2.3,0-3.4c0-0.3,0-0.6,0-1c0-0.3-0.1-0.6-0.2-0.9c-0.2-0.5-0.5-0.7-1-0.8c-0.4-0.1-0.7,0-1,0.1c-0.4,0.1-0.7,0.4-0.9,0.8
	c-0.1,0.3-0.2,0.5-0.2,0.8c0,0.3-0.1,0.7-0.1,1c0,1.6,0,3.2,0,4.7c0,0,0,0.1,0,0.1c-1.1,0-2.1,0-3.2,0c0,0,0-0.1,0-0.1
	c0,0,0-0.1,0-0.1c0-3.3,0-6.6,0-9.9c0-0.2,0-0.2,0.2-0.2c0.9,0,1.8,0,2.8,0c0.2,0,0.2,0,0.2,0.1c0,0.4,0,0.8,0,1.1c0,0,0,0.1,0,0.1
	c0,0,0,0,0,0c0,0,0,0,0,0C12,9.2,12.5,8.8,13,8.5c0.4-0.2,0.8-0.3,1.3-0.4c0.3,0,0.6,0,0.9,0c0.3,0,0.6,0.1,0.9,0.2
	c0.5,0.1,1,0.4,1.4,0.8c0.3,0.3,0.5,0.7,0.7,1.1c0.1,0.4,0.2,0.7,0.3,1.1c0.1,0.5,0.1,1,0.1,1.6C18.5,14.7,18.5,16.6,18.5,18.4z"/>
</svg>
