<svg width="30" height="30" viewBox="0 0 30 30" fill="none" xmlns="http://www.w3.org/2000/svg">
<g clip-path="url(#clip0_746_620)">
<path d="M15.3575 0C7.26991 0 0.714294 6.55561 0.714294 14.6432C0.714294 22.7309 7.26991 29.2865 15.3575 29.2865C23.4452 29.2865 30.0008 22.7309 30.0008 14.6432C30.0008 6.55561 23.4444 0 15.3575 0ZM10.9984 21.8013H8.08808V12.0295H10.9984V21.8013ZM9.52519 10.5924C8.55483 10.5924 7.80098 9.80165 7.80098 8.83208C7.80098 7.8625 8.55561 7.07178 9.52519 7.07178C10.4948 7.07178 11.2855 7.8625 11.2855 8.83208C11.2855 9.80165 10.4948 10.5924 9.52519 10.5924ZM22.4583 16.7001V21.8013H19.5841V16.5204C19.5481 15.4065 18.7934 14.5444 17.6803 14.5444C16.5672 14.5444 15.6329 15.4065 15.5968 16.5204V21.8013H12.7226V12.0295H15.5968V13.3944C16.2079 12.4962 17.2135 11.9212 18.3628 11.9212H19.1535C20.9859 11.9212 22.4583 13.4305 22.4583 15.2261V16.6993V16.7001Z" fill="#FACE00"/>
</g>
<defs>
<clipPath id="clip0_746_620">
<rect width="29.2857" height="29.2857" fill="white" transform="translate(0.714294)"/>
</clipPath>
</defs>
</svg>
