<svg width="31" height="30" viewBox="0 0 31 30" fill="none" xmlns="http://www.w3.org/2000/svg">
<g clip-path="url(#clip0_746_615)">
<path fill-rule="evenodd" clip-rule="evenodd" d="M15.5718 0C7.4842 0 0.928589 6.55561 0.928589 14.6432C0.928589 22.7309 7.4842 29.2865 15.5718 29.2865C23.6595 29.2865 30.2151 22.7309 30.2151 14.6432C30.2151 6.55561 23.6587 0 15.5718 0ZM22.7982 11.2458C23.3943 19.55 14.4477 24.5971 7.19866 20.4678C7.19866 20.4678 10.7773 20.6513 12.2913 18.9075C12.2913 18.9075 10.0893 19.0911 8.98798 16.4302C8.98798 16.4302 9.81401 16.7511 10.64 16.3384C10.64 16.3384 8.07097 15.9258 7.84113 12.8516C7.84113 12.8516 8.66715 13.494 9.58495 13.2642C9.58495 13.2642 6.74055 11.5667 8.34631 8.49241C8.34631 8.49241 11.3743 12.3464 15.7334 12.2091C15.0455 8.58419 19.4039 6.42775 21.9729 9.04309C21.9729 9.04309 23.1198 8.72225 24.1294 8.07979C24.1294 8.07979 23.7622 9.31843 22.5236 10.099C22.5236 10.099 23.9003 9.91539 24.4965 9.54827C24.4965 9.54827 23.9003 10.7869 22.7989 11.2458H22.7982Z" fill="#FACE00"/>
</g>
<defs>
<clipPath id="clip0_746_615">
<rect width="29.2857" height="29.2857" fill="white" transform="translate(0.928589)"/>
</clipPath>
</defs>
</svg>
