<svg width="31" height="30" viewBox="0 0 31 30" fill="none" xmlns="http://www.w3.org/2000/svg">
<g clip-path="url(#clip0_746_617)">
<path d="M15.429 0C7.34132 0 0.785706 6.55561 0.785706 14.6432C0.785706 22.7309 7.34132 29.2865 15.429 29.2865C23.5166 29.2865 30.0722 22.7309 30.0722 14.6432C30.0722 6.55561 23.5158 0 15.429 0ZM23.6554 17.9536C23.3942 19.9147 22.4137 20.2089 20.4847 20.3721C18.8178 20.5352 16.9218 20.5682 15.4517 20.5682C13.9817 20.5682 12.0527 20.5352 10.4179 20.3721C8.48975 20.2089 7.47624 19.9147 7.21502 17.9536C7.11697 17.1041 7.05186 15.8615 7.05186 14.6197C7.05186 13.3779 7.11697 12.1683 7.21502 11.2858C7.47624 9.35765 8.48975 9.03054 10.4179 8.86738C12.0519 8.73637 13.9809 8.67126 15.4517 8.67126C16.9225 8.67126 18.8185 8.73637 20.4847 8.86738C22.4129 9.03054 23.3934 9.35765 23.6554 11.2858C23.7864 12.1683 23.8515 13.3779 23.8515 14.6197C23.8515 15.8615 23.7864 17.1041 23.6554 17.9536Z" fill="#FACE00"/>
<path d="M13.7518 17.1692L18.1322 14.6198L13.7518 12.1033V17.1692Z" fill="#FACE00"/>
</g>
<defs>
<clipPath id="clip0_746_617">
<rect width="29.2857" height="29.2857" fill="white" transform="translate(0.785706)"/>
</clipPath>
</defs>
</svg>
