<?xml version="1.0" encoding="utf-8"?>
<!-- Generator: Adobe Illustrator 24.0.3, SVG Export Plug-In . SVG Version: 6.00 Build 0)  -->
<svg version="1.1" xmlns="http://www.w3.org/2000/svg" xmlns:xlink="http://www.w3.org/1999/xlink" x="0px" y="0px"
	 viewBox="0 0 26 23" style="enable-background:new 0 0 26 23;" xml:space="preserve">
<style type="text/css">
	.st0{display:none;}
	.st1{display:inline;}
	.st2{fill:#FFFFFF;}
	.st3{fill:#FFFFFF;stroke:#FFFFFF;stroke-width:0.5;stroke-miterlimit:10;}
</style>
<g id="Layer_1" class="st0">
	<g class="st1">
		<g>
			<path class="st2" d="M16.9,33.3c0-0.1-0.1-0.1-0.2-0.1h-2.2v-7c0-0.1-0.1-0.2-0.2-0.2h-0.7v-0.7c0-0.1-0.1-0.2-0.2-0.2H7.5
				c0-0.5-0.4-1-1-1s-1,0.4-1,1H4.8c-0.1,0-0.2,0.1-0.2,0.2v8H2.6c-0.1,0-0.2,0.1-0.2,0.2c0,0,0,0.1,0,0.1l2.7,4.8
				c0,0.1,0.1,0.1,0.2,0.1H15c0.1,0,0.2-0.1,0.2-0.2l0,0l1.7-4.8C16.9,33.5,16.9,33.4,16.9,33.3z M14,26.4v9.6l-0.5-0.9l0,0v-8.7H14
				z M6.5,24.5C6.8,24.5,7,24.7,7,25H6C6,24.7,6.2,24.5,6.5,24.5z M5.1,25.5H7v0.7c0,0.1-0.1,0.2-0.2,0.2s-0.2-0.1-0.2-0.2V26H6v0.2
				c0,0.4,0.3,0.7,0.7,0.7c0.4,0,0.7-0.3,0.7-0.7v-0.7h5.6v8.8l-0.5-0.9c0-0.1-0.1-0.1-0.2-0.1H5.1V25.5z M5.4,38.1L3,33.7h9.1
				l2.4,4.4H5.4z M14.9,37.7l-0.4-0.8v-3.2h1.8L14.9,37.7z"/>
			<path class="st2" d="M15,38.6H5.3c-0.1,0-0.2,0-0.2-0.1l-2.7-4.8c0-0.1,0-0.1,0-0.1c0-0.2,0.1-0.3,0.3-0.3h1.9v-8
				c0-0.2,0.1-0.3,0.3-0.3h0.7c0-0.5,0.4-1,1-1s1,0.4,1,1h5.8c0.2,0,0.3,0.1,0.3,0.3v0.7h0.7c0.2,0,0.3,0.1,0.3,0.3v7h2.2
				c0.1,0,0.2,0,0.2,0.1c0.1,0.1,0.1,0.2,0,0.2l-1.7,4.8C15.2,38.5,15.1,38.6,15,38.6z M2.6,33.2c-0.1,0-0.2,0.1-0.2,0.2
				c0,0,0,0.1,0,0.1l2.7,4.8c0,0.1,0.1,0.1,0.2,0.1H15c0.1,0,0.2-0.1,0.2-0.2l1.7-4.8c0-0.1,0-0.1,0-0.2l0,0c0-0.1-0.1-0.1-0.2-0.1
				h-2.2v-7c0-0.1-0.1-0.2-0.2-0.2h-0.7v-0.7c0-0.1-0.1-0.2-0.2-0.2H7.5v0c0-0.5-0.4-1-1-1s-1,0.4-1,1v0H4.8c-0.1,0-0.2,0.1-0.2,0.2
				v8H2.6z M14.6,38.1H5.4l0,0L3,33.7h9.2l0,0L14.6,38.1z M5.5,38.1h9.1l-2.4-4.3H3.1L5.5,38.1z M14.9,37.8l-0.5-0.8v-3.2h1.9l0,0
				L14.9,37.8z M14.5,36.9l0.4,0.8l1.4-3.9h-1.8V36.9z M14,36.1l-0.5-1v-8.7H14V36.1z M13.6,35.2L14,36v-9.5h-0.5V35.2z M13.1,34.3
				l-0.5-1c0-0.1-0.1-0.1-0.2-0.1H5v-7.8h2v0.7c0,0.2-0.1,0.3-0.3,0.3c-0.2,0-0.3-0.1-0.3-0.3V26H6v0.2c0,0.4,0.3,0.7,0.7,0.7
				c0.4,0,0.7-0.3,0.7-0.7v-0.7h5.6L13.1,34.3L13.1,34.3z M5.1,33.2h7.3c0.1,0,0.2,0,0.2,0.1l0.5,0.9v-8.7H7.5v0.7
				c0,0.4-0.3,0.7-0.7,0.7S6,26.6,6,26.2v-0.3h0.5v0.3c0,0.1,0.1,0.2,0.2,0.2S7,26.3,7,26.2v-0.7H5.1V33.2z M7,25H6v0
				c0-0.3,0.2-0.5,0.5-0.5S7,24.7,7,25L7,25L7,25z M6,25H7c0-0.2-0.2-0.5-0.5-0.5S6.1,24.7,6,25z"/>
		</g>
		<g>
			<path class="st2" d="M15.5,26c0-0.5-0.4-1-1-1H14v0.5h0.5c0.3,0,0.5,0.2,0.5,0.5v3.4h0.5L15.5,26L15.5,26z"/>
		</g>
		<g>
			<rect x="15" y="29.8" class="st2" width="0.5" height="0.5"/>
		</g>
		<g>
			<rect x="3.6" y="28.9" class="st2" width="0.5" height="3.4"/>
		</g>
		<g>
			<rect x="3.6" y="27.9" class="st2" width="0.5" height="0.5"/>
		</g>
		<g>
			<path class="st2" d="M7.7,28.6h0.7v0.7c0,0.1,0.1,0.2,0.2,0.2h1c0.1,0,0.2-0.1,0.2-0.2v-0.7h0.7c0.1,0,0.2-0.1,0.2-0.2v-1
				c0-0.1-0.1-0.2-0.2-0.2H9.9v-0.7c0-0.1-0.1-0.2-0.2-0.2h-1c-0.1,0-0.2,0.1-0.2,0.2v0.7H7.7c-0.1,0-0.2,0.1-0.2,0.2v1
				C7.5,28.5,7.6,28.6,7.7,28.6z M8,27.7h0.7c0.1,0,0.2-0.1,0.2-0.2v-0.7h0.5v0.7c0,0.1,0.1,0.2,0.2,0.2h0.7v0.5H9.7
				c-0.1,0-0.2,0.1-0.2,0.2v0.7H8.9v-0.7c0-0.1-0.1-0.2-0.2-0.2H8L8,27.7L8,27.7z"/>
		</g>
		<g>
			<rect x="6.3" y="30.1" class="st2" width="0.5" height="0.5"/>
		</g>
		<g>
			<rect x="7.2" y="30.1" class="st2" width="5.1" height="0.5"/>
		</g>
		<g>
			<rect x="5.8" y="31" class="st2" width="6.5" height="0.5"/>
		</g>
		<g>
			<rect x="5.8" y="32" class="st2" width="5.6" height="0.5"/>
		</g>
		<g>
			<rect x="12" y="26.2" class="st2" width="0.5" height="0.5"/>
		</g>
		<g>
			<rect x="12.1" y="27.2" class="st2" width="0.5" height="0.5"/>
		</g>
	</g>
	<g class="st1">
		<rect x="33" y="29.7" class="st3" width="8.3" height="0.2"/>
		<rect x="33" y="31.2" class="st3" width="8.3" height="0.2"/>
		<rect x="33" y="32.7" class="st3" width="8.3" height="0.2"/>
		<rect x="33" y="34.1" class="st3" width="8.3" height="0.2"/>
		<path class="st3" d="M43.9,27.4H36l-0.8-1.2h-4.8v1.2v0.1v9.2h13.5V27.4z M30.6,26.3h4.5l0.7,1h-5.2V26.3z M43.7,36.5H30.6v-8.9
			h13.1V36.5z"/>
	</g>
	<rect x="0" y="0" class="st1" width="26" height="23"/>
</g>
<g id="Layer_2">
	<g>
		<path class="st2" d="M21.1,2.3h-4c0-0.1,0-0.2-0.1-0.2c0-0.2-0.1-0.5-0.4-0.5h-2c-0.1-0.8-0.9-1.5-1.7-1.5c-0.9,0-1.6,0.6-1.7,1.5
			c-0.7,0-1.2,0-1.5,0C9.2,1.5,9,1.5,9,1.8L8.8,2.3h-4c-0.2,0-0.4,0.2-0.4,0.4v20c0,0.2,0.2,0.4,0.4,0.4h16.3c0.2,0,0.4-0.2,0.4-0.4
			v-20C21.5,2.4,21.3,2.3,21.1,2.3z M11.9,1.9L11.9,1.9c0-0.6,0.5-1.1,1.1-1.1c0.3,0,0.5,0.1,0.7,0.3C13.9,1.3,14,1.6,14,1.8l0,0
			c0,0.2,0.2,0.4,0.4,0.4h2L17,4.6H9l0.6-2.3h2C11.8,2.3,11.9,2.1,11.9,1.9z M15.8,5.3c1.8,0,1.8,0,1.9-0.1c0.1-0.1,0.1-0.3,0-0.5
			c0-0.1,0-0.2-0.1-0.3h1.7v13.7h-2.5c-0.2,0-0.4,0.2-0.4,0.4v2.5h-10V4.4h1.7c0,0.1-0.1,0.2-0.1,0.3C8.2,4.9,8.2,5,8.3,5.2
			c0.1,0.1,0.2,0.1,0.3,0.1C12.4,5.3,14.6,5.3,15.8,5.3z M18.9,18.8l-1.6,1.6v-1.6H18.9z M8.5,3.7H6.2C6,3.7,5.9,3.8,5.9,4v17.2
			c0,0.2,0.2,0.4,0.4,0.4h10.7c0.1,0,0.2,0,0.3-0.1l2.8-2.8c0,0,0.1-0.1,0.1-0.1c0,0,0,0,0-0.1l0-14.4c0-0.2-0.2-0.4-0.4-0.4h-2.3
			L17.3,3h3.5v19.3H5.2V3h3.5L8.5,3.7z"/>
		<path class="st2" d="M13,2.5c0.3,0,0.6-0.3,0.6-0.6S13.3,1.2,13,1.2c-0.3,0-0.6,0.3-0.6,0.6S12.7,2.5,13,2.5z M13,1.5
			c0.2,0,0.3,0.2,0.3,0.3S13.2,2.2,13,2.2S12.7,2,12.7,1.9S12.8,1.5,13,1.5z"/>
		<path class="st2" d="M7.5,7.2C7.4,7,7.1,7,7,7.2C6.9,7.3,6.9,7.5,7,7.7l0.7,0.7c0.1,0.1,0.2,0.1,0.3,0.1c0.1,0,0.2,0,0.3-0.1
			l1.5-1.5c0.1-0.1,0.1-0.2,0.1-0.3c0-0.1,0-0.2-0.1-0.3c-0.1-0.1-0.4-0.1-0.5,0L7.9,7.6L7.5,7.2z"/>
		<path class="st2" d="M10.3,8.5h3.9c0.2,0,0.4-0.2,0.4-0.4c0-0.2-0.2-0.4-0.4-0.4h-3.9c-0.2,0-0.4,0.2-0.4,0.4
			C10,8.3,10.1,8.5,10.3,8.5z"/>
		<path class="st2" d="M10.3,6.9h8.4c0.2,0,0.4-0.2,0.4-0.4c0-0.2-0.2-0.4-0.4-0.4h-8.4c-0.2,0-0.4,0.2-0.4,0.4
			C10,6.8,10.1,6.9,10.3,6.9z"/>
		<path class="st2" d="M9.2,9.8l-1.3,1.3l-0.4-0.4c-0.1-0.1-0.4-0.1-0.5,0c-0.1,0.1-0.1,0.2-0.1,0.3c0,0.1,0,0.2,0.1,0.2l0.7,0.7
			C7.7,12,7.8,12,7.9,12c0.1,0,0.2,0,0.3-0.1l1.5-1.5c0.1-0.1,0.1-0.4,0-0.5C9.6,9.7,9.4,9.7,9.2,9.8z"/>
		<path class="st2" d="M10.3,12h3.9c0.2,0,0.4-0.2,0.4-0.4c0-0.2-0.2-0.4-0.4-0.4h-3.9c-0.2,0-0.4,0.2-0.4,0.4
			C10,11.8,10.1,12,10.3,12z"/>
		<path class="st2" d="M10.3,10.5h8.4c0.2,0,0.4-0.2,0.4-0.4c0-0.2-0.2-0.4-0.4-0.4h-8.4c-0.2,0-0.4,0.2-0.4,0.4
			C10,10.3,10.1,10.5,10.3,10.5z"/>
		<path class="st2" d="M9.2,13.4l-1.3,1.3l-0.4-0.4c-0.1-0.1-0.4-0.1-0.5,0c-0.1,0.1-0.1,0.4,0,0.5l0.7,0.7c0.1,0.1,0.2,0.1,0.3,0.1
			c0.1,0,0.2,0,0.3-0.1l1.5-1.5c0.1-0.1,0.1-0.4,0-0.5C9.6,13.2,9.4,13.2,9.2,13.4z"/>
		<path class="st2" d="M10.3,15.5h3.9c0.2,0,0.4-0.2,0.4-0.4s-0.2-0.4-0.4-0.4h-3.9c-0.2,0-0.4,0.2-0.4,0.4S10.1,15.5,10.3,15.5z"/>
		<path class="st2" d="M10.3,14h8.4c0.2,0,0.4-0.2,0.4-0.4c0-0.2-0.2-0.4-0.4-0.4h-8.4c-0.2,0-0.4,0.2-0.4,0.4
			C10,13.8,10.1,14,10.3,14z"/>
		<path class="st2" d="M9.2,16.9l-1.3,1.3l-0.4-0.4c-0.1-0.1-0.4-0.1-0.5,0c-0.1,0.1-0.1,0.4,0,0.5l0.7,0.7C7.7,19,7.8,19,7.9,19
			c0.1,0,0.2,0,0.3-0.1l1.5-1.5c0.1-0.1,0.1-0.4,0-0.5C9.6,16.8,9.4,16.8,9.2,16.9z"/>
		<path class="st2" d="M10.3,19h3.9c0.2,0,0.4-0.2,0.4-0.4c0-0.2-0.2-0.4-0.4-0.4h-3.9c-0.2,0-0.4,0.2-0.4,0.4
			C10,18.9,10.1,19,10.3,19z"/>
		<path class="st2" d="M10.3,17.5h8.4c0.2,0,0.4-0.2,0.4-0.4c0-0.2-0.2-0.4-0.4-0.4h-8.4c-0.2,0-0.4,0.2-0.4,0.4
			C10,17.3,10.1,17.5,10.3,17.5z"/>
	</g>
</g>
</svg>
