<svg xmlns="http://www.w3.org/2000/svg" viewBox="0 0 54.7 45"><defs><style>.cls-1{fill:#fff;}.cls-2{fill:#010101;}.cls-3{fill:#519ccc;}</style></defs><title>StatsBar-</title><g id="Layer_4" data-name="Layer 4"><path class="cls-1" d="M18.46,2.27v40.2H31.24V2.27Zm9,21.69H22.66V7.61h4.76Z"/><path class="cls-2" d="M14.58,2H1.6a.44.44,0,0,0-.45.45v40.2a.45.45,0,0,0,.45.45h13a.44.44,0,0,0,.45-.45V2.41A.43.43,0,0,0,14.58,2Zm-.45,40.13H2V2.85H14.13Z"/><path class="cls-2" d="M14.58,43.75H1.6A1.08,1.08,0,0,1,.52,42.67V2.47A1.07,1.07,0,0,1,1.6,1.39h13a1.05,1.05,0,0,1,1.08,1V42.67A1.07,1.07,0,0,1,14.58,43.75ZM2.69,41.52H13.5v-38H2.69Z"/><path class="cls-2" d="M5.68,24.54h4.83a.44.44,0,0,0,.45-.45V7.43A.45.45,0,0,0,10.51,7H5.68a.44.44,0,0,0-.45.45V24.09A.44.44,0,0,0,5.68,24.54ZM6.12,7.87h4V23.7h-4Z"/><path class="cls-2" d="M8.09,38a3.25,3.25,0,1,0-3.25-3.25A3.26,3.26,0,0,0,8.09,38Zm0-5.66a2.42,2.42,0,1,1-2.42,2.42A2.43,2.43,0,0,1,8.09,32.36Z"/><path class="cls-2" d="M22.6,24.54h4.82a.44.44,0,0,0,.45-.45V7.43A.44.44,0,0,0,27.42,7H22.6a.44.44,0,0,0-.45.45V24.09A.44.44,0,0,0,22.6,24.54ZM23,7.87h3.94V23.7H23V7.87Z"/><path class="cls-2" d="M24.94,31.54a3.25,3.25,0,1,0,3.25,3.24A3.18,3.18,0,0,0,24.94,31.54Zm0,5.65a2.42,2.42,0,1,1,2.42-2.42A2.42,2.42,0,0,1,24.94,37.19Z"/><path class="cls-2" d="M53.76,40.12,43.39,1.33c0-.13-.12-.2-.19-.26A.61.61,0,0,0,42.88,1L32,3.94V2.41A.44.44,0,0,0,31.5,2h-13a.44.44,0,0,0-.45.45V42.6a.44.44,0,0,0,.45.45h13A.44.44,0,0,0,32,42.6V12.08L40.4,43.69c0,.12.12.19.2.25a.23.23,0,0,0,.19.06h.12l12.53-3.37A.4.4,0,0,0,53.76,40.12Zm-34.86,2V2.85H31V4.18l-.77.2H30.1L30,4.44h0L30,4.5h0a.06.06,0,0,1-.06.06h0v.06h0v.12h0v.12l1,3.82V42h-12l0,.14ZM41.09,43l-10.16-38,.63-.19h0L42.57,2l10.18,38Z"/><path class="cls-2" d="M41,44.64h-.21a.83.83,0,0,1-.64-.26.89.89,0,0,1-.37-.6l-7.2-26.87V42.59a1.06,1.06,0,0,1-1.08,1.08h-13a1.06,1.06,0,0,1-1.08-1.08V2.41a1.06,1.06,0,0,1,1.08-1.08h13a1.06,1.06,0,0,1,1.08,1.08V3.1L42.88.36a1.16,1.16,0,0,1,.61.14l.16.12a.93.93,0,0,1,.38.6L54.38,40a1,1,0,0,1-.78,1.27ZM18.72,42.41h.19v-.26h-.19Zm13-36.9,9.85,36.77L52,39.49,42.1,2.75ZM19.54,41.39H30.29V8.78l-1-3.89V3.94h.38l.18-.18h.32l.21,0V3.49H19.54v37.9Z"/><path class="cls-2" d="M40.21,6.92,35.56,8.2c-.12,0-.19.12-.25.19a.54.54,0,0,0-.07.32L39.57,24.8a.49.49,0,0,0,.45.31h.13l4.64-1.27c.12,0,.2-.12.26-.2a.57.57,0,0,0,.06-.31L40.78,7.24A.51.51,0,0,0,40.21,6.92Zm.06,17.23L36.19,8.89l3.82-1,4.08,15.26Z"/><path class="cls-2" d="M44.22,31.22a3.23,3.23,0,0,0-2.29,4,3.29,3.29,0,0,0,3.18,2.42,4.06,4.06,0,0,0,.83-.12,3.27,3.27,0,0,0-.89-6.42A2.68,2.68,0,0,0,44.22,31.22Zm3.11,2.54a2.42,2.42,0,0,1-1.71,2.93,2.32,2.32,0,0,1-.63.06A2.38,2.38,0,0,1,42.7,35a2.43,2.43,0,0,1,1.71-2.93,2.35,2.35,0,0,1,.64-.06A2.27,2.27,0,0,1,47.33,33.76Z"/><circle class="cls-3" cx="25" cy="34.77" r="3.31"/></g></svg>