<svg xmlns="http://www.w3.org/2000/svg" viewBox="0 0 62.72 45"><defs><style>.cls-1{fill:#fff;}.cls-2{fill:#010101;}.cls-3{fill:#519ccc;}</style></defs><title>StatsBar-</title><g id="Layer_6" data-name="Layer 6"><polygon class="cls-1" points="6.79 2.3 6.79 34.55 31.23 42.12 56.04 34.17 56.04 1.43 30.98 9.98 6.79 2.3"/><path class="cls-2" d="M31.36,43.36l-26-8.07V.19L31.36,8.26,57.4.19v35.1ZM7.79,33.43l23.57,7.31,23.56-7.31V3.54L31.36,10.85,7.79,3.54Z"/><path class="cls-2" d="M62.37,44.84H.35v-33H7.79V33.43l23.57,7.31,23.56-7.31V11.85h7.45v33ZM34.46,42.36h25.3v-28H57.28v21Zm-31.63,0h25.3L5.31,35.29v-21H2.83Z"/><rect class="cls-2" x="30.12" y="9.5" width="2.48" height="32.49"/><path class="cls-3" d="M50.58,25.36,35.82,30.57a.77.77,0,0,1-1.12-.38c-.12-.12-.12-.24-.12-.5h0a1.74,1.74,0,0,1,1.24-1.62l14.76-5.18a.77.77,0,0,1,1.12.38c.12.12.12.24.12.5h0A2,2,0,0,1,50.58,25.36Z"/><path class="cls-3" d="M50.58,16l-6.21,2.22a.76.76,0,0,1-1.12-.37c-.12-.13-.12-.25-.12-.5h0a2,2,0,0,1,1.24-1.74l6.21-2.24a.76.76,0,0,1,1.12.37c.12.13.12.25.12.5h0A2.09,2.09,0,0,1,50.58,16Z"/><path class="cls-3" d="M40.53,19.41,35.82,21a.76.76,0,0,1-1.12-.38c-.12-.12-.12-.24-.12-.49h0a1.72,1.72,0,0,1,1.24-1.62l4.71-1.62a.77.77,0,0,1,1.12.38c.12.12.12.24.12.5h0A2.08,2.08,0,0,1,40.53,19.41Z"/><path class="cls-3" d="M46.61,22l-6.82,2.36A.77.77,0,0,1,38.67,24c-.12-.12-.12-.24-.12-.5h0a2,2,0,0,1,1.24-1.74l6.82-2.36a.77.77,0,0,1,1.12.38c.12.12.12.24.12.5h0A2.12,2.12,0,0,1,46.61,22Z"/><path class="cls-3" d="M11.76,15.69,26.51,20.9a.77.77,0,0,0,1.12-.38c.12-.12.12-.24.12-.5h0a2,2,0,0,0-1.24-1.74L11.76,13.07a.77.77,0,0,0-1.12.38c-.12.12-.12.24-.12.5h0A1.74,1.74,0,0,0,11.76,15.69Z"/><path class="cls-3" d="M11.76,20.53,18,22.76a.77.77,0,0,0,1.12-.38c.12-.12.12-.24.12-.5h0A1.74,1.74,0,0,0,18,20.26L11.76,18a.77.77,0,0,0-1.12.38c-.12.12-.12.24-.12.5h0A1.85,1.85,0,0,0,11.76,20.53Z"/><path class="cls-3" d="M21.81,24l4.7,1.62a.77.77,0,0,0,1.12-.38c.12-.12.12-.24.12-.5h0a1.73,1.73,0,0,0-1.24-1.62l-4.7-1.62a.77.77,0,0,0-1.12.38c-.12.12-.12.24-.12.5h0A1.69,1.69,0,0,0,21.81,24Z"/><path class="cls-3" d="M15.72,26.74l6.83,2.36a.77.77,0,0,0,1.12-.38c.12-.12.12-.24.12-.5h0a1.74,1.74,0,0,0-1.24-1.62l-6.83-2.36a.77.77,0,0,0-1.12.38c-.12.12-.12.24-.12.5h0A1.9,1.9,0,0,0,15.72,26.74Z"/></g></svg>