<svg xmlns="http://www.w3.org/2000/svg" viewBox="0 0 55.64 45"><defs><style>.cls-1{fill:#fff;}.cls-2{fill:#010101;}.cls-3{fill:#519ccc;}</style></defs><title>StatsBar-</title><g id="Layer_5" data-name="Layer 5"><rect class="cls-1" x="8.91" y="1.63" width="6.38" height="17.88"/><rect class="cls-1" x="24.52" y="1.75" width="6.49" height="12.76"/><rect class="cls-1" x="40.13" y="1.41" width="6.61" height="16.17"/><path class="cls-2" d="M52.54,39.12V11.43a1.08,1.08,0,0,0-1.14-1.14H48V2.43h.68A1.07,1.07,0,0,0,49.8,1.3,1.07,1.07,0,0,0,48.66.16H38.3A1.07,1.07,0,0,0,37.16,1.3,1.07,1.07,0,0,0,38.3,2.43H39v7.86H32.37V2.43h.68A1.07,1.07,0,0,0,34.19,1.3,1.07,1.07,0,0,0,33.05.16H22.69A1.07,1.07,0,0,0,21.55,1.3a1.07,1.07,0,0,0,1.14,1.13h.57v7.86H16.65V2.43h.68A1.07,1.07,0,0,0,18.47,1.3,1.07,1.07,0,0,0,17.33.16H7A1.07,1.07,0,0,0,5.83,1.3,1.07,1.07,0,0,0,7,2.43h.68v7.86H4.23a1.08,1.08,0,0,0-1.14,1.14V39.12H.47V44.7h54.7V39.12ZM45.7,2.43V17.7H41.27V2.43Zm-20.15,0h4.56v13H25.55v-13Zm-15.61,0h4.43V20H9.94ZM5.38,12.57H7.65V27.94a4.56,4.56,0,0,0,9.12,0V12.57h6.49V27.94a4.56,4.56,0,0,0,9.12,0V12.57H39V27.94a4.56,4.56,0,0,0,9.12,0V12.57h2.28V39.12h-45Z"/><path class="cls-3" d="M9.94,19.52v8a2.24,2.24,0,0,0,2.16,2.17h.11a2.24,2.24,0,0,0,2.16-2.17v-8Z"/><path class="cls-3" d="M41.27,17.58v9.8a2.24,2.24,0,0,0,2.16,2.17h.11a2.24,2.24,0,0,0,2.16-2.17v-9.8Z"/><path class="cls-3" d="M25.55,14.62V27.38a2.16,2.16,0,0,0,2.16,2.17h.11A2.16,2.16,0,0,0,30,27.38V14.62Z"/></g></svg>