<svg xmlns="http://www.w3.org/2000/svg" viewBox="0 0 43.52 45"><defs><style>.cls-1{fill:#fff;}.cls-2,.cls-4{fill:#010101;}.cls-2,.cls-3{fill-rule:evenodd;}.cls-3{fill:#519ccc;}.cls-4{stroke:#000;stroke-miterlimit:10;stroke-width:0.5px;}</style></defs><title>StatsBar-</title><g id="Layer_1" data-name="Layer 1"><ellipse class="cls-1" cx="15.48" cy="36.19" rx="14.59" ry="7.86"/><ellipse class="cls-1" cx="15.48" cy="33.39" rx="14.59" ry="7.86"/><path class="cls-2" d="M38.5,9.46h0L36.28,7.24l.88.88h0L35.39,6.35h0L34.06,5l.88-.89,1.33,1.33h0l1.78,1.78h0l1.33,1.33ZM43,4.07l-.88-.89h0L40.33,1.41h0L39.45.52a.61.61,0,0,0-.88,0,.61.61,0,0,0,0,.89l.38.44L36.73,4.08,35.39,2.75a.59.59,0,0,0-.88,0L32.72,4.51a.61.61,0,0,0,0,.89l-2,2,1.39,1.33,1.9-1.9.88.89L33.15,9.45l.89.89,1.77-1.78.89.88L34.88,11.3l1.39,1.33,1.84-1.84h0a.58.58,0,0,0,.45.19.6.6,0,0,0,.44-.19L40.78,9a.61.61,0,0,0,0-.89L39.44,6.79l2.22-2.22.45.45a.72.72,0,0,0,.45.18A.63.63,0,0,0,43,5a.69.69,0,0,0,0-.95Z"/><path class="cls-3" d="M13.32,32.1a.59.59,0,0,0-.88,0l-1.27,1.26a2.45,2.45,0,0,0,0,3.43,2.45,2.45,0,0,0,3.43,0,2.41,2.41,0,0,0,0-3.42Z"/><path class="cls-2" d="M19.17,21.76A1.71,1.71,0,0,0,18.66,23a1.76,1.76,0,0,0,.18.76L12.5,30.08a.59.59,0,0,0,0,.88.64.64,0,0,0,.89,0l6.34-6.28a1.54,1.54,0,0,0,.88.26,1.77,1.77,0,0,0,1.22-.51L23.22,23l-2.66-2.72Z"/><polygon class="cls-2" points="24.04 14.09 34.82 14.09 35.33 13.51 29.87 8.25 24.04 14.09"/><path class="cls-2" d="M22.77,18.14,21.51,19.4l2.66,2.73,1.39-1.39a4.53,4.53,0,0,0,.89.12,3.56,3.56,0,0,0,2.66-1.14l4.43-4.43H23.1a3.7,3.7,0,0,0-.33,2.85"/><path class="cls-3" d="M43,4.07l-.88-.89L40.34,1.41,39.46.52a.61.61,0,0,0-.88,0,.61.61,0,0,0,0,.89l.38.44L36.73,4.08l2.72,2.71,2.22-2.22.45.45a.72.72,0,0,0,.45.18A.63.63,0,0,0,43,5,.71.71,0,0,0,43,4.07Z"/><path class="cls-4" d="M30.67,33.39h0c0-2.33-1.63-4.49-4.59-6.08a22.78,22.78,0,0,0-10.6-2.38A22.77,22.77,0,0,0,4.89,27.31C1.94,28.89.32,31,.31,33.36h0v3h0c.06,2.28,1.67,4.4,4.58,6,.35.19.72.37,1.1.54a21.28,21.28,0,0,0,5.14,1.49,26.81,26.81,0,0,0,4.35.34,22.78,22.78,0,0,0,10.6-2.37c2.93-1.58,4.55-3.71,4.58-6h0ZM2,34.2,2.15,34c.08-.14.18-.29.28-.43s.09-.11.14-.17a6.23,6.23,0,0,1,.49-.55l0,0c.18-.18.39-.36.6-.54l.21-.15c.16-.13.34-.26.52-.38l.23-.15c.25-.16.52-.33.81-.48a21.56,21.56,0,0,1,10-2.23,21.6,21.6,0,0,1,10,2.23c.29.15.55.32.81.48l.23.15c.18.12.36.25.52.38l.2.15c.22.18.43.36.61.54l0,0a6.23,6.23,0,0,1,.49.55l.13.18a3.52,3.52,0,0,1,.29.42,1.74,1.74,0,0,1,.11.18,5.48,5.48,0,0,1,.29.6,7.61,7.61,0,0,1-3.69,3.63,21.64,21.64,0,0,1-10,2.23,21.6,21.6,0,0,1-10-2.23A7.61,7.61,0,0,1,1.75,34.8C1.83,34.6,1.93,34.4,2,34.2Zm3.41-5.85a21.6,21.6,0,0,1,10-2.23,21.64,21.64,0,0,1,10.05,2.23c2.29,1.24,3.65,2.81,3.91,4.47A8.45,8.45,0,0,0,28,31.38a.1.1,0,0,0-.05,0c-.27-.21-.55-.42-.85-.62a11.19,11.19,0,0,0-1-.61,22.78,22.78,0,0,0-10.6-2.38,26.79,26.79,0,0,0-4.35.35A21.27,21.27,0,0,0,6,29.56c-.38.17-.75.35-1.1.55a11.19,11.19,0,0,0-1,.61,9.83,9.83,0,0,0-.85.62l-.06,0a8.38,8.38,0,0,0-1.42,1.44C1.79,31.16,3.15,29.59,5.44,28.35Zm10,15.11a21.56,21.56,0,0,1-10-2.23l-.86-.51a2.83,2.83,0,0,1-.28-.2l-.47-.33-.32-.27-.32-.29c-.11-.1-.21-.21-.31-.32l-.23-.25a3.27,3.27,0,0,1-.28-.37c-.06-.07-.11-.15-.16-.22A4.36,4.36,0,0,1,2,38.06l-.09-.18c-.07-.15-.13-.31-.19-.46l0-.13a4.39,4.39,0,0,1-.13-.52,10.36,10.36,0,0,0,3.35,2.7,22.77,22.77,0,0,0,10.59,2.38,22.78,22.78,0,0,0,10.6-2.38,10.36,10.36,0,0,0,3.35-2.7,4.39,4.39,0,0,1-.13.52.65.65,0,0,1,0,.13,4.37,4.37,0,0,1-.18.46l-.09.18c-.07.14-.16.27-.24.41s-.1.15-.16.22a3.27,3.27,0,0,1-.28.37l-.23.25c-.1.11-.2.22-.31.32s-.21.19-.33.29l-.31.27-.47.33a2.83,2.83,0,0,1-.28.2l-.86.51A21.6,21.6,0,0,1,15.48,43.46Z"/></g></svg>