<svg xmlns="http://www.w3.org/2000/svg" viewBox="0 0 45.21 45"><defs><style>.cls-1{fill:#fff;}.cls-2{fill:#010101;}.cls-3{fill:#519ccc;}</style></defs><title>StatsBar-</title><g id="Layer_3" data-name="Layer 3"><path class="cls-1" d="M7.85,4.27V29h23l3,5.05V4Z"/><path class="cls-2" d="M44.75,28.73a.67.67,0,0,0-.6-.3H37.48V6.94a.7.7,0,0,0-.74-.74H34.52V4a.69.69,0,0,0-.73-.73H16a3,3,0,1,0-5.93,0H7.85A.7.7,0,0,0,7.11,4V28.43H1.17a.7.7,0,0,0-.73.74.72.72,0,0,0,.07.37L8.66,44.36a.76.76,0,0,0,.67.37H39a.71.71,0,0,0,.67-.52h0l5.19-14.83A.68.68,0,0,0,44.75,28.73ZM36,7.68V37.11l-1.49-2.74h0V7.68ZM13,1.75a1.49,1.49,0,0,1,1.49,1.49h-3A1.49,1.49,0,0,1,13,1.75Zm-4.45,3h5.93V6.94a.74.74,0,1,1-1.48,0V6.2H11.55v.74a2.22,2.22,0,0,0,4.44,0V4.72H33v26.9l-1.56-2.89a.74.74,0,0,0-.66-.37H8.58ZM9.77,43.26,2.43,29.91h28l7.34,13.35Zm29.05-1.12L37.49,39.7V29.91h5.63Z"/><path class="cls-2" d="M39,44.77H9.33a.81.81,0,0,1-.7-.39L.48,29.55a.67.67,0,0,1-.08-.38.73.73,0,0,1,.77-.78h5.9V4a.73.73,0,0,1,.78-.77H10a3,3,0,0,1,6,0H33.79a.73.73,0,0,1,.77.77v2.2h2.18a.73.73,0,0,1,.78.77V28.39h6.63a.73.73,0,0,1,.63.31.7.7,0,0,1,.08.69L39.68,44.22A.76.76,0,0,1,39,44.77ZM1.17,28.47a.66.66,0,0,0-.69.7.72.72,0,0,0,.06.35L8.7,44.34a.7.7,0,0,0,.63.35H39a.65.65,0,0,0,.63-.49l5.19-14.83a.64.64,0,0,0-.07-.62h0a.59.59,0,0,0-.56-.28H37.44V6.94a.66.66,0,0,0-.7-.7H34.49V4a.67.67,0,0,0-.7-.7H16v0a2.93,2.93,0,0,0-5.86,0v0H7.85a.67.67,0,0,0-.7.7v24.5ZM37.78,43.3h-28L2.37,29.88h28v0Zm-28-.08H37.65L30.36,30H2.5Zm29-1L37.45,39.7V29.88h5.72v.05Zm-1.3-2.55,1.28,2.36L43.06,30H37.53Zm-1.48-2.43-1.56-2.89V7.64h1.56Zm-1.49-2.9L36,37V7.72H34.56Zm-1.48-2.58-1.63-3a.72.72,0,0,0-.63-.34H8.54V4.68h6V6.94a.75.75,0,0,1-.78.78A.74.74,0,0,1,13,6.94v-.7H11.59v.7a2.18,2.18,0,0,0,4.36,0V4.68H33.08ZM8.62,28.32h22.2a.81.81,0,0,1,.7.39L33,31.47V4.76H16V6.94a2.26,2.26,0,1,1-4.52,0V6.17h1.56v.77a.7.7,0,1,0,1.4,0V4.76H8.62Zm5.94-25H11.51v0a1.53,1.53,0,1,1,3.05,0Zm-3-.07h2.89a1.45,1.45,0,0,0-2.89,0Z"/><path class="cls-3" d="M40.45,6.19a3,3,0,0,0-3-3H36V4.71h1.48A1.48,1.48,0,0,1,39,6.19V16.57h1.49Z"/><rect class="cls-3" x="38.97" y="18.05" width="1.48" height="1.48"/><rect class="cls-3" x="4.13" y="15.1" width="1.48" height="10.38"/><rect class="cls-3" x="4.13" y="12.13" width="1.48" height="1.48"/><path class="cls-3" d="M16.74,14.35H19v2.22a.7.7,0,0,0,.74.74h3a.7.7,0,0,0,.74-.74V14.35h2.22a.7.7,0,0,0,.74-.74v-3a.7.7,0,0,0-.74-.74H23.4V7.68a.7.7,0,0,0-.74-.74h-3a.7.7,0,0,0-.74.74V9.9H16.74a.7.7,0,0,0-.74.73v3A.73.73,0,0,0,16.74,14.35Zm.74-3H19.7a.69.69,0,0,0,.73-.73V8.42h1.49v2.23a.69.69,0,0,0,.73.73h2.22v1.49H22.65a.69.69,0,0,0-.73.73v2.22H20.43V13.6a.69.69,0,0,0-.73-.73H17.48V11.38Z"/><rect class="cls-3" x="12.29" y="18.8" width="1.48" height="1.48"/><rect class="cls-3" x="15.25" y="18.8" width="15.56" height="1.48"/><rect class="cls-3" x="10.8" y="21.76" width="20.02" height="1.48"/><rect class="cls-3" x="10.8" y="24.73" width="17.05" height="1.48"/><rect class="cls-2" x="29.93" y="6.94" width="1.56" height="1.48"/><rect class="cls-2" x="30.07" y="9.91" width="1.48" height="1.48"/></g></svg>