<?xml version="1.0" encoding="utf-8"?>
<!-- Generator: Adobe Illustrator 24.0.3, SVG Export Plug-In . SVG Version: 6.00 Build 0)  -->
<svg version="1.1" xmlns="http://www.w3.org/2000/svg" xmlns:xlink="http://www.w3.org/1999/xlink" x="0px" y="0px"
	 viewBox="0 0 26 23" style="enable-background:new 0 0 26 23;" xml:space="preserve">
<style type="text/css">
	.st0{display:none;}
	.st1{display:inline;}
	.st2{fill:#FFFFFF;}
</style>
<g id="Layer_1" class="st0">
	<rect x="0" y="0" class="st1" width="26" height="23"/>
</g>
<g id="Layer_2" class="st0">
	<g class="st1">
		<path class="st2" d="M21.1,2.3h-4c0-0.1,0-0.2-0.1-0.2c0-0.2-0.1-0.5-0.4-0.5h-2c-0.1-0.8-0.9-1.5-1.7-1.5c-0.9,0-1.6,0.6-1.7,1.5
			c-0.7,0-1.2,0-1.5,0C9.2,1.5,9,1.5,9,1.8L8.8,2.3h-4c-0.2,0-0.4,0.2-0.4,0.4v20c0,0.2,0.2,0.4,0.4,0.4h16.3c0.2,0,0.4-0.2,0.4-0.4
			v-20C21.5,2.4,21.3,2.3,21.1,2.3z M11.9,1.9L11.9,1.9c0-0.6,0.5-1.1,1.1-1.1c0.3,0,0.5,0.1,0.7,0.3C13.9,1.3,14,1.6,14,1.8l0,0
			c0,0.2,0.2,0.4,0.4,0.4h2L17,4.6H9l0.6-2.3h2C11.8,2.3,11.9,2.1,11.9,1.9z M15.8,5.3c1.8,0,1.8,0,1.9-0.1c0.1-0.1,0.1-0.3,0-0.5
			c0-0.1,0-0.2-0.1-0.3h1.7v13.7h-2.5c-0.2,0-0.4,0.2-0.4,0.4v2.5h-10V4.4h1.7c0,0.1-0.1,0.2-0.1,0.3C8.2,4.9,8.2,5,8.3,5.2
			c0.1,0.1,0.2,0.1,0.3,0.1C12.4,5.3,14.6,5.3,15.8,5.3z M18.9,18.8l-1.6,1.6v-1.6H18.9z M8.5,3.7H6.2C6,3.7,5.9,3.8,5.9,4v17.2
			c0,0.2,0.2,0.4,0.4,0.4h10.7c0.1,0,0.2,0,0.3-0.1l2.8-2.8c0,0,0.1-0.1,0.1-0.1c0,0,0,0,0-0.1l0-14.4c0-0.2-0.2-0.4-0.4-0.4h-2.3
			L17.3,3h3.5v19.3H5.2V3h3.5L8.5,3.7z"/>
		<path class="st2" d="M13,2.5c0.3,0,0.6-0.3,0.6-0.6S13.3,1.2,13,1.2c-0.3,0-0.6,0.3-0.6,0.6S12.7,2.5,13,2.5z M13,1.5
			c0.2,0,0.3,0.2,0.3,0.3S13.2,2.2,13,2.2S12.7,2,12.7,1.9S12.8,1.5,13,1.5z"/>
		<path class="st2" d="M7.5,7.2C7.4,7,7.1,7,7,7.2C6.9,7.3,6.9,7.5,7,7.7l0.7,0.7c0.1,0.1,0.2,0.1,0.3,0.1c0.1,0,0.2,0,0.3-0.1
			l1.5-1.5c0.1-0.1,0.1-0.2,0.1-0.3c0-0.1,0-0.2-0.1-0.3c-0.1-0.1-0.4-0.1-0.5,0L7.9,7.6L7.5,7.2z"/>
		<path class="st2" d="M10.3,8.5h3.9c0.2,0,0.4-0.2,0.4-0.4c0-0.2-0.2-0.4-0.4-0.4h-3.9c-0.2,0-0.4,0.2-0.4,0.4
			C10,8.3,10.1,8.5,10.3,8.5z"/>
		<path class="st2" d="M10.3,6.9h8.4c0.2,0,0.4-0.2,0.4-0.4c0-0.2-0.2-0.4-0.4-0.4h-8.4c-0.2,0-0.4,0.2-0.4,0.4
			C10,6.8,10.1,6.9,10.3,6.9z"/>
		<path class="st2" d="M9.2,9.8l-1.3,1.3l-0.4-0.4c-0.1-0.1-0.4-0.1-0.5,0c-0.1,0.1-0.1,0.2-0.1,0.3c0,0.1,0,0.2,0.1,0.2l0.7,0.7
			C7.7,12,7.8,12,7.9,12c0.1,0,0.2,0,0.3-0.1l1.5-1.5c0.1-0.1,0.1-0.4,0-0.5C9.6,9.7,9.4,9.7,9.2,9.8z"/>
		<path class="st2" d="M10.3,12h3.9c0.2,0,0.4-0.2,0.4-0.4c0-0.2-0.2-0.4-0.4-0.4h-3.9c-0.2,0-0.4,0.2-0.4,0.4
			C10,11.8,10.1,12,10.3,12z"/>
		<path class="st2" d="M10.3,10.5h8.4c0.2,0,0.4-0.2,0.4-0.4c0-0.2-0.2-0.4-0.4-0.4h-8.4c-0.2,0-0.4,0.2-0.4,0.4
			C10,10.3,10.1,10.5,10.3,10.5z"/>
		<path class="st2" d="M9.2,13.4l-1.3,1.3l-0.4-0.4c-0.1-0.1-0.4-0.1-0.5,0c-0.1,0.1-0.1,0.4,0,0.5l0.7,0.7c0.1,0.1,0.2,0.1,0.3,0.1
			c0.1,0,0.2,0,0.3-0.1l1.5-1.5c0.1-0.1,0.1-0.4,0-0.5C9.6,13.2,9.4,13.2,9.2,13.4z"/>
		<path class="st2" d="M10.3,15.5h3.9c0.2,0,0.4-0.2,0.4-0.4s-0.2-0.4-0.4-0.4h-3.9c-0.2,0-0.4,0.2-0.4,0.4S10.1,15.5,10.3,15.5z"/>
		<path class="st2" d="M10.3,14h8.4c0.2,0,0.4-0.2,0.4-0.4c0-0.2-0.2-0.4-0.4-0.4h-8.4c-0.2,0-0.4,0.2-0.4,0.4
			C10,13.8,10.1,14,10.3,14z"/>
		<path class="st2" d="M9.2,16.9l-1.3,1.3l-0.4-0.4c-0.1-0.1-0.4-0.1-0.5,0c-0.1,0.1-0.1,0.4,0,0.5l0.7,0.7C7.7,19,7.8,19,7.9,19
			c0.1,0,0.2,0,0.3-0.1l1.5-1.5c0.1-0.1,0.1-0.4,0-0.5C9.6,16.8,9.4,16.8,9.2,16.9z"/>
		<path class="st2" d="M10.3,19h3.9c0.2,0,0.4-0.2,0.4-0.4c0-0.2-0.2-0.4-0.4-0.4h-3.9c-0.2,0-0.4,0.2-0.4,0.4
			C10,18.9,10.1,19,10.3,19z"/>
		<path class="st2" d="M10.3,17.5h8.4c0.2,0,0.4-0.2,0.4-0.4c0-0.2-0.2-0.4-0.4-0.4h-8.4c-0.2,0-0.4,0.2-0.4,0.4
			C10,17.3,10.1,17.5,10.3,17.5z"/>
	</g>
</g>
<g id="Layer_3" class="st0">
	<g class="st1">
		<path class="st2" d="M24.3,14.7c0,0-0.1,0-0.1-0.1c0,0-0.1,0-0.1,0c0,0-0.1-0.1-0.1-0.1h-3.4v-11c0-0.3-0.2-0.4-0.4-0.4h-1.1V2
			c0-0.3-0.2-0.4-0.4-0.4H9.6c0-0.8-0.7-1.5-1.5-1.5c-0.8,0-1.5,0.7-1.5,1.5H5.4C5.2,1.6,5,1.8,5,2v12.5H2c-0.3,0-0.4,0.2-0.4,0.4
			c0,0.1,0,0.1,0,0.2l4.2,7.6c0.1,0.1,0.2,0.2,0.4,0.2h15.2c0.2,0,0.3-0.1,0.4-0.3l2.7-7.6C24.4,14.9,24.4,14.7,24.3,14.7z
			 M19.1,17.5V3.9h0.7v14.9L19.1,17.5z M20.6,22.1H6.4l-3.7-6.8h14.2L20.6,22.1z M8.8,3.5c0,0.2-0.1,0.3-0.3,0.3S8.1,3.8,8.1,3.5
			V3.1H7.3v0.4c0,0.7,0.5,1.2,1.2,1.2c0.7,0,1.2-0.5,1.2-1.2V2.4h8.7V16l-0.7-1.4c-0.1-0.1-0.2-0.2-0.4-0.2H5.8v-12h3V3.5z M8.1,0.9
			c0.4,0,0.7,0.3,0.7,0.7H7.3C7.3,1.2,7.7,0.9,8.1,0.9z M23.4,15.3l-2.2,6.2l-0.7-1.2v-5H23.4z"/>
		<path class="st2" d="M21.3,3.2v5.3h0.8V3.2c0-0.8-0.7-1.5-1.5-1.5h-0.8v0.8h0.8C21,2.4,21.3,2.7,21.3,3.2z"/>
		<rect x="21.3" y="9.2" class="st2" width="0.8" height="0.8"/>
		<rect x="3.5" y="7.7" class="st2" width="0.8" height="5.3"/>
		<rect x="3.5" y="6.2" class="st2" width="0.8" height="0.8"/>
		<path class="st2" d="M10,7.3h1.1v1.1c0,0.2,0.1,0.4,0.4,0.4H13c0.2,0,0.4-0.1,0.4-0.4V7.3h1.1c0.2,0,0.4-0.1,0.4-0.4V5.4
			c0-0.2-0.1-0.4-0.4-0.4h-1.1V3.9c0-0.2-0.1-0.4-0.4-0.4h-1.5c-0.2,0-0.4,0.1-0.4,0.4v1.1H10c-0.2,0-0.4,0.1-0.4,0.4v1.5
			C9.6,7.1,9.7,7.3,10,7.3z M10.3,5.8h1.1c0.2,0,0.4-0.1,0.4-0.4V4.3h0.8v1.1c0,0.2,0.1,0.4,0.4,0.4h1.1v0.8H13
			c-0.2,0-0.4,0.1-0.4,0.4v1.1h-0.8V6.9c0-0.2-0.1-0.4-0.4-0.4h-1.1L10.3,5.8z"/>
		<rect x="7.7" y="9.6" class="st2" width="0.8" height="0.8"/>
		<rect x="9.2" y="9.6" class="st2" width="8" height="0.8"/>
		<rect x="6.9" y="11.1" class="st2" width="10.2" height="0.8"/>
		<rect x="6.9" y="12.6" class="st2" width="8.7" height="0.8"/>
		<rect x="16.7" y="3.5" class="st2" width="0.8" height="0.8"/>
		<rect x="16.8" y="5.1" class="st2" width="0.8" height="0.8"/>
	</g>
</g>
<g id="Layer_4">
	<g>
		<g>
			<rect x="5.3" y="8.2" class="st2" width="15.4" height="0.4"/>
			<rect x="4.9" y="7.8" class="st2" width="16.3" height="1.3"/>
		</g>
		<g>
			<rect x="5.3" y="10.9" class="st2" width="15.4" height="0.4"/>
			<rect x="4.9" y="10.5" class="st2" width="16.3" height="1.3"/>
		</g>
		<g>
			<rect x="5.3" y="13.7" class="st2" width="15.4" height="0.4"/>
			<rect x="4.9" y="13.2" class="st2" width="16.3" height="1.3"/>
		</g>
		<g>
			<rect x="5.3" y="16.4" class="st2" width="15.4" height="0.4"/>
			<rect x="4.9" y="16" class="st2" width="16.3" height="1.3"/>
		</g>
		<g>
			<path class="st2" d="M25.5,3.9H10.9L9.4,1.6H0.5v2.3v0.3v17h25V3.9z M0.9,2h8.3l1.3,1.9H0.9V2z M25.1,20.7H0.9V4.3h24.2V20.7z"/>
			<path class="st2" d="M25.9,21.6H0V1.2h9.6l1.5,2.3h14.8V21.6z M1.4,20.3h23.3V4.7H1.4V20.3z M1.4,3.4h8.2L9,2.5H1.4V3.4z"/>
		</g>
	</g>
</g>
</svg>
