<?xml version="1.0" encoding="utf-8"?>
<!-- Generator: Adobe Illustrator 26.0.0, SVG Export Plug-In . SVG Version: 6.00 Build 0)  -->
<svg version="1.1" id="keyIcon" xmlns="http://www.w3.org/2000/svg" xmlns:xlink="http://www.w3.org/1999/xlink" x="0px" y="0px"
	 viewBox="0 0 22 10" style="enable-background:new 0 0 22 10;" xml:space="preserve" class="keyIcon">
<style type="text/css">
	.st0{fill-rule:evenodd;clip-rule:evenodd;fill:#0D71A3;}
</style>
<path class="st0" d="M9.3,3.7C8.8,1.7,7,0.2,4.8,0.2c-2.5,0-4.6,2.1-4.6,4.6s2.1,4.6,4.6,4.6c2.2,0,4-1.5,4.5-3.5H16v3.5
	c0,0.3,0.1,0.6,0.5,0.6c0.2,0,0.4,0,0.6,0c0.4,0,0.6,0,0.6-0.6V7.6h1.5v1.7c0,0.5,0.3,0.6,0.5,0.6c0.2,0,0.5,0,0.7,0
	c0.3,0,0.5-0.2,0.5-0.6V5.9h0.5c0.3,0,0.6-0.3,0.6-0.6V4.3c0-0.3-0.3-0.6-0.6-0.6L9.3,3.7L9.3,3.7z M4.2,4.8c0,0.7-0.6,1.4-1.4,1.4
	S1.5,5.5,1.5,4.8c0-0.7,0.6-1.4,1.4-1.4C3.6,3.4,4.2,4,4.2,4.8z"/>
</svg>
