<svg width="20" height="21" viewBox="0 0 20 21" fill="none" xmlns="http://www.w3.org/2000/svg">
  <g clip-path="url(#clip0_9663_13069)">
    <path
      d="M16.9476 0.605469H3.05284C1.36863 0.605469 0.105469 1.86863 0.105469 3.55284V17.4476C0.105469 19.1318 1.36863 20.3949 3.05284 20.3949H16.9476C18.6318 20.3949 19.8949 19.1318 19.8949 17.4476V3.55284C19.8949 1.86863 18.6318 0.605469 16.9476 0.605469ZM18.0002 17.4476C18.0002 18.0792 17.5792 18.3949 17.0528 18.3949H3.05284C2.42126 18.3949 2.10547 17.9739 2.10547 17.4476V3.55284C2.10547 2.92126 2.42126 2.60547 3.05284 2.60547H16.9476C17.5792 2.60547 17.8949 3.02652 17.8949 3.55284L18.0002 17.4476Z"
      fill="#0A4A6D" />
    <path
      d="M11.052 13.6581H8.94675C8.94675 13.3423 8.94675 13.1318 8.94675 13.1318C8.94675 12.5002 9.05202 11.8686 9.26254 11.4476C9.47307 10.9213 9.89412 10.5002 10.631 9.86863C11.2625 9.34231 11.6836 8.92126 11.7889 8.816C11.9994 8.50021 12.1046 8.28968 12.1046 7.97389C12.1046 7.55284 11.8941 7.13178 11.5783 6.81599C11.2625 6.50021 10.7362 6.28968 10.1046 6.28968C9.47307 6.28968 9.05201 6.50021 8.63096 6.81599C8.20991 7.13178 7.99938 7.6581 7.78886 8.39494L5.68359 8.18442C5.78886 7.23705 6.20991 6.39494 6.94675 5.6581C7.68359 4.92126 8.73623 4.60547 9.99938 4.60547C11.3678 4.60547 12.4204 4.92126 13.1573 5.6581C13.8941 6.39494 14.3152 7.13178 14.3152 8.07915C14.3152 8.60547 14.2099 9.02652 13.8941 9.55284C13.5783 9.97389 12.9468 10.6055 11.9994 11.4476C11.4731 11.8686 11.1573 12.1844 11.052 12.3949C11.052 12.5002 11.052 13.0265 11.052 13.6581ZM8.94675 16.7107V14.3949H11.2625V16.7107H8.94675Z"
      fill="#0A4A6D" />
  </g>
  <defs>
    <clipPath id="clip0_9663_13069">
      <rect width="20" height="20" fill="white" transform="translate(0 0.5)" />
    </clipPath>
  </defs>
</svg>
