<svg width="13" height="14" viewBox="0 0 13 14" fill="none" xmlns="http://www.w3.org/2000/svg">
  <path
    d="M6.89799 8.39255V3.28516H5.63772V8.39255L3.97947 6.80063L3.11719 7.66292L6.23469 10.7804L9.35219 7.66292L8.4899 6.80063L6.89799 8.39255Z"
    fill="#0A4A6D" />
  <path
    d="M10.6128 0.764648H1.85723C0.795958 0.764648 0 1.56061 0 2.62188V11.3774C0 12.4387 0.795958 13.2346 1.85723 13.2346H10.6128C11.674 13.2346 12.47 12.4387 12.47 11.3774V2.62188C12.47 1.56061 11.674 0.764648 10.6128 0.764648ZM11.2761 11.3774C11.2761 11.7754 11.0107 11.9744 10.6791 11.9744H1.85723C1.45926 11.9744 1.26027 11.7091 1.26027 11.3774V2.62188C1.26027 2.2239 1.45926 2.02491 1.85723 2.02491H10.6128C11.0107 2.02491 11.2097 2.29023 11.2097 2.62188V11.3774H11.2761Z"
    fill="#0A4A6D" />
</svg>
