<?xml version="1.0" encoding="utf-8"?>
<!-- Generator: Adobe Illustrator 26.0.0, SVG Export Plug-In . SVG Version: 6.00 Build 0)  -->
<svg version="1.1" id="Layer_1" xmlns="http://www.w3.org/2000/svg" xmlns:xlink="http://www.w3.org/1999/xlink" x="0px" y="0px"
	 viewBox="0 0 19 19" style="enable-background:new 0 0 19 19;" xml:space="preserve">
<style type="text/css">
	.st0{fill:#FFFFFF;}
</style>
<g>
	<polygon class="st0" points="10.5,11.6 10.5,3.9 8.6,3.9 8.6,11.6 6.1,9.2 4.8,10.5 9.5,15.2 14.2,10.5 12.9,9.2 	"/>
	<path class="st0" d="M16.1,0.1H2.9c-1.6,0-2.8,1.2-2.8,2.8v13.2c0,1.6,1.2,2.8,2.8,2.8h13.2c1.6,0,2.8-1.2,2.8-2.8V2.9
		C18.9,1.3,17.7,0.1,16.1,0.1z M17.1,16.1c0,0.6-0.4,0.9-0.9,0.9H2.9c-0.6,0-0.9-0.4-0.9-0.9V2.9C2,2.3,2.3,2,2.9,2h13.2
		c0.6,0,0.9,0.4,0.9,0.9V16.1z"/>
</g>
</svg>
